<svg xmlns="http://www.w3.org/2000/svg" width="163" height="135.551" viewBox="0 0 163 135.551">
  <g id="Grupo_118149" data-name="Grupo 118149" transform="translate(-540.667 -92.4)">
    <g id="Grupo_118139" data-name="Grupo 118139" transform="translate(611.744 92.4)">
      <g id="Grupo_118129" data-name="Grupo 118129" transform="translate(0 31.516)">
        <rect id="Rectángulo_37011" data-name="Rectángulo 37011" width="79.067" height="58.51" rx="1.851" transform="translate(1.27 70.68) rotate(-59.337)" fill="#3e479b" opacity="0.14"/>
        <rect id="Rectángulo_37012" data-name="Rectángulo 37012" width="79.067" height="58.51" rx="1.851" transform="translate(0 68.012) rotate(-59.337)" fill="#2d54fe"/>
      </g>
      <g id="Grupo_118132" data-name="Grupo 118132" transform="translate(5.744 36.515)">
        <path id="Trazado_180460" data-name="Trazado 180460" d="M770.874,270.089l-55.913-10.306a.827.827,0,0,1-.664-.964l14.033-76.13a.827.827,0,0,1,.964-.664l55.913,10.306a.828.828,0,0,1,.664.964l-14.033,76.13A.827.827,0,0,1,770.874,270.089Z" transform="translate(-712.952 -178.473)" fill="#3e479b" opacity="0.14"/>
        <rect id="Rectángulo_37013" data-name="Rectángulo 37013" width="79.067" height="58.51" transform="matrix(0.181, -0.983, 0.983, 0.181, 0, 79.017)" fill="#fff"/>
        <rect id="Rectángulo_37014" data-name="Rectángulo 37014" width="79.067" height="58.51" rx="1.851" transform="translate(0 79.017) rotate(-79.556)" fill="#f7a9b4" opacity="0.39"/>
        <path id="Trazado_180461" data-name="Trazado 180461" d="M834.757,216.841a.462.462,0,0,1-.081-.007l-14-2.58a.447.447,0,0,1,.163-.879l14,2.58a.447.447,0,0,1-.081.886Z" transform="translate(-771.592 -195.815)" fill="#fff"/>
        <path id="Trazado_180462" data-name="Trazado 180462" d="M832.914,226.844a.469.469,0,0,1-.082-.008l-14-2.58a.447.447,0,1,1,.162-.879l14,2.58a.447.447,0,0,1-.08.887Z" transform="translate(-770.572 -201.347)" fill="#fff"/>
        <path id="Trazado_180463" data-name="Trazado 180463" d="M830.91,237.718a.469.469,0,0,1-.082-.008l-14-2.58a.447.447,0,0,1,.162-.879l14,2.58a.447.447,0,0,1-.08.887Z" transform="translate(-769.464 -207.36)" fill="#fff"/>
        <g id="Grupo_118130" data-name="Grupo 118130" transform="translate(14.93)">
          <rect id="Rectángulo_37015" data-name="Rectángulo 37015" width="28.015" height="26.176" rx="2.004" transform="translate(0 29.907) rotate(-79.556)" fill="#3e479b" opacity="0.14"/>
          <rect id="Rectángulo_37016" data-name="Rectángulo 37016" width="26.619" height="25.038" rx="2.004" transform="translate(0.238 28.616) rotate(-79.556)" fill="#fe502d"/>
          <path id="Trazado_180464" data-name="Trazado 180464" d="M779.348,187.451l-24.623-4.539.43-2.33a.87.87,0,0,1,1.013-.7l22.944,4.23a.837.837,0,0,1,.672.976Z" transform="translate(-750.249 -177.289)" fill="#ecf1f7" opacity="0.07"/>
          <path id="Trazado_180465" data-name="Trazado 180465" d="M765.683,191.862a2.889,2.889,0,0,1-.526-.048l-.341-.063a3.343,3.343,0,0,1-2.678-3.889L763,183.2a.671.671,0,0,1,1.319.243l-.86,4.665a2,2,0,0,0,1.6,2.327l.341.063a1.553,1.553,0,0,0,1.808-1.246l2.177-11.809a1.6,1.6,0,0,0-1.285-1.867l-.583-.107a1.7,1.7,0,0,0-1.983,1.365l-.053.291a.671.671,0,0,1-1.319-.243l.054-.291a3.047,3.047,0,0,1,3.544-2.441l.583.107a2.948,2.948,0,0,1,2.362,3.429l-2.178,11.809A2.9,2.9,0,0,1,765.683,191.862Z" transform="translate(-754.318 -174.096)" fill="#12263f"/>
          <path id="Trazado_180466" data-name="Trazado 180466" d="M764.013,189.067a.218.218,0,0,1-.041,0l-8.934-1.647a.223.223,0,1,1,.081-.439l8.934,1.647a.223.223,0,0,1-.04.443Z" transform="translate(-750.32 -181.217)" fill="#fff"/>
        </g>
        <g id="Grupo_118131" data-name="Grupo 118131" transform="translate(9.67 38.442)">
          <path id="Trazado_180467" data-name="Trazado 180467" d="M783,284.134a.464.464,0,0,1-.081-.007l-42.767-7.883a.447.447,0,0,1,.162-.879l42.767,7.883a.447.447,0,0,1-.081.886Z" transform="translate(-736.725 -268.539)" fill="#fff"/>
          <path id="Trazado_180468" data-name="Trazado 180468" d="M776.155,321.248a.426.426,0,0,1-.081-.008l-42.767-7.883a.447.447,0,0,1,.163-.879l42.767,7.883a.447.447,0,0,1-.081.887Z" transform="translate(-732.941 -289.065)" fill="#fff"/>
          <path id="Trazado_180469" data-name="Trazado 180469" d="M757.026,298.534a.424.424,0,0,1-.081-.008L736.727,294.8a.447.447,0,1,1,.162-.879l20.217,3.727a.447.447,0,0,1-.081.886Z" transform="translate(-734.833 -278.802)" fill="#fff"/>
          <path id="Trazado_180470" data-name="Trazado 180470" d="M763.259,264.724a.428.428,0,0,1-.082-.008L742.96,260.99a.447.447,0,1,1,.162-.879l20.217,3.726a.447.447,0,0,1-.08.887Z" transform="translate(-738.28 -260.104)" fill="#fff"/>
          <path id="Trazado_180471" data-name="Trazado 180471" d="M808.686,307.907a.466.466,0,0,1-.082-.007l-19.262-3.551a.447.447,0,1,1,.163-.879l19.262,3.551a.447.447,0,0,1-.081.886Z" transform="translate(-763.931 -284.083)" fill="#fff"/>
        </g>
      </g>
      <g id="Grupo_118138" data-name="Grupo 118138" transform="translate(30.381)">
        <rect id="Rectángulo_37017" data-name="Rectángulo 37017" width="26.749" height="10.929" rx="3.333" fill="#ffca00"/>
        <rect id="Rectángulo_37018" data-name="Rectángulo 37018" width="36.228" height="14.803" rx="3.333" transform="translate(8.427 8.04)" fill="#2d54fe"/>
        <g id="Grupo_118137" data-name="Grupo 118137" transform="translate(15.258 19.713)">
          <g id="Grupo_118136" data-name="Grupo 118136">
            <g id="Grupo_118133" data-name="Grupo 118133">
              <rect id="Rectángulo_37019" data-name="Rectángulo 37019" width="40.863" height="15.324" rx="4.525" fill="#fff"/>
              <rect id="Rectángulo_37020" data-name="Rectángulo 37020" width="40.863" height="15.324" rx="4.525" fill="#ffca00" opacity="0.74"/>
            </g>
            <g id="Grupo_118135" data-name="Grupo 118135" transform="translate(11.965 5.906)">
              <g id="Grupo_118134" data-name="Grupo 118134">
                <path id="Trazado_180472" data-name="Trazado 180472" d="M860.773,153.271a1.775,1.775,0,1,1,1.775-1.775A1.777,1.777,0,0,1,860.773,153.271Zm0-3.1A1.328,1.328,0,1,0,862.1,151.5,1.33,1.33,0,0,0,860.773,150.167Z" transform="translate(-844.846 -149.72)" fill="#fff"/>
                <path id="Trazado_180473" data-name="Trazado 180473" d="M844.387,153.271a1.775,1.775,0,1,1,1.775-1.775A1.777,1.777,0,0,1,844.387,153.271Zm0-3.1a1.328,1.328,0,1,0,1.328,1.328A1.33,1.33,0,0,0,844.387,150.167Z" transform="translate(-835.784 -149.72)" fill="#fff"/>
                <path id="Trazado_180474" data-name="Trazado 180474" d="M829.111,153.271a1.775,1.775,0,1,1,1.775-1.775A1.777,1.777,0,0,1,829.111,153.271Zm0-3.1a1.328,1.328,0,1,0,1.328,1.328A1.33,1.33,0,0,0,829.111,150.167Z" transform="translate(-827.336 -149.72)" fill="#fff"/>
              </g>
            </g>
          </g>
        </g>
      </g>
    </g>
    <g id="Grupo_118143" data-name="Grupo 118143" transform="translate(566.886 93.471)">
      <path id="Trazado_180475" data-name="Trazado 180475" d="M601.045,94.8H658.1a2.081,2.081,0,0,1,2.081,2.081v84.029A7.177,7.177,0,0,1,653,188.083H613.386a15.294,15.294,0,0,1-15.294-15.294V97.749A2.953,2.953,0,0,1,601.045,94.8Z" transform="translate(-598.092 -94.796)" fill="#fff"/>
      <path id="Trazado_180476" data-name="Trazado 180476" d="M598.818,94.8h60.243a1.115,1.115,0,0,1,1.115,1.115V181.24a6.843,6.843,0,0,1-6.843,6.843H612.027a13.934,13.934,0,0,1-13.935-13.935V95.522A.726.726,0,0,1,598.818,94.8Z" transform="translate(-598.092 -94.796)" fill="#ffca00" opacity="0.39"/>
      <path id="Trazado_180477" data-name="Trazado 180477" d="M610.922,94.8h55.2a.882.882,0,0,1,.882.882v85.8a6.61,6.61,0,0,1-6.609,6.61H624.131a13.7,13.7,0,0,1-13.7-13.7V95.289A.492.492,0,0,1,610.922,94.8Z" transform="translate(-607.672 -94.796)" fill="#ffca00" opacity="0.39"/>
      <g id="Grupo_118140" data-name="Grupo 118140" transform="translate(14.178 78.948)" style="isolation: isolate">
        <path id="Trazado_180478" data-name="Trazado 180478" d="M629.814,285.755v.016H679.68a10.392,10.392,0,0,0,10.392-10.392v-3.947h-50.43v3.947A10.392,10.392,0,0,1,629.814,285.755Z" transform="translate(-629.814 -271.431)" fill="#ffca00"/>
      </g>
      <g id="Grupo_118141" data-name="Grupo 118141" transform="translate(20.789 78.948)" opacity="0.28">
        <path id="Trazado_180479" data-name="Trazado 180479" d="M644.6,285.755v.016H689c5.11,0,9.252-4.653,9.252-10.392v-3.947h-44.9v3.947C653.355,280.928,649.481,285.462,644.6,285.755Z" transform="translate(-644.605 -271.431)" fill="#e4b505"/>
      </g>
      <g id="Grupo_118142" data-name="Grupo 118142" transform="translate(15.239 14.581)">
        <path id="Trazado_180480" data-name="Trazado 180480" d="M671,246.267H635.141a.447.447,0,0,1,0-.894H671a.447.447,0,1,1,0,.894Z" transform="translate(-633.573 -192.653)" fill="#fff"/>
        <path id="Trazado_180481" data-name="Trazado 180481" d="M670.919,212.491H633.642a.447.447,0,1,1,0-.894h37.277a.447.447,0,0,1,0,.894Z" transform="translate(-632.745 -173.974)" fill="#fff"/>
        <path id="Trazado_180482" data-name="Trazado 180482" d="M651.682,229.365H632.634a.447.447,0,1,1,0-.894h19.048a.447.447,0,1,1,0,.894Z" transform="translate(-632.187 -183.306)" fill="#fff"/>
        <path id="Trazado_180483" data-name="Trazado 180483" d="M652.024,229.365H635.863a.447.447,0,0,1,0-.894h16.161a.447.447,0,1,1,0,.894Z" transform="translate(-633.973 -183.306)" fill="#fff"/>
        <path id="Trazado_180484" data-name="Trazado 180484" d="M658.76,176.378H634.222a.447.447,0,1,1,0-.894H658.76a.447.447,0,1,1,0,.894Z" transform="translate(-633.065 -154.002)" fill="#fff"/>
        <path id="Trazado_180485" data-name="Trazado 180485" d="M705.325,176.378h-7.474a.447.447,0,1,1,0-.894h7.474a.447.447,0,0,1,0,.894Z" transform="translate(-668.255 -154.002)" fill="#fff"/>
        <path id="Trazado_180486" data-name="Trazado 180486" d="M684.164,193.252H657.593a.447.447,0,0,1,0-.894h26.572a.447.447,0,0,1,0,.894Z" transform="translate(-645.99 -163.334)" fill="#fff"/>
        <path id="Trazado_180487" data-name="Trazado 180487" d="M641.722,193.252h-8.081a.447.447,0,0,1,0-.894h8.081a.447.447,0,0,1,0,.894Z" transform="translate(-632.745 -163.334)" fill="#fff"/>
        <path id="Trazado_180488" data-name="Trazado 180488" d="M671,162.09H635.141a.447.447,0,0,1,0-.894H671a.447.447,0,1,1,0,.894Z" transform="translate(-633.573 -146.1)" fill="#fff"/>
        <path id="Trazado_180489" data-name="Trazado 180489" d="M671,128.314H635.141a.447.447,0,0,1,0-.894H671a.447.447,0,1,1,0,.894Z" transform="translate(-633.573 -127.42)" fill="#fff"/>
        <path id="Trazado_180490" data-name="Trazado 180490" d="M647.792,145.188h-13.57a.447.447,0,1,1,0-.894h13.57a.447.447,0,0,1,0,.894Z" transform="translate(-633.065 -136.752)" fill="#fff"/>
        <path id="Trazado_180491" data-name="Trazado 180491" d="M694.752,145.188H678.591a.447.447,0,1,1,0-.894h16.161a.447.447,0,0,1,0,.894Z" transform="translate(-657.603 -136.752)" fill="#fff"/>
      </g>
    </g>
    <g id="Grupo_118144" data-name="Grupo 118144" transform="translate(541.667 168.402)">
      <path id="Trazado_180492" data-name="Trazado 180492" d="M621.143,275.261H583.107a4.82,4.82,0,0,1-4.82-4.82V267.28a4.838,4.838,0,0,0-4.837-4.837H555.881a4.838,4.838,0,0,0-4.837,4.837v50.208a4.506,4.506,0,0,0,4.506,4.505h65.593a4.506,4.506,0,0,0,4.506-4.505V279.767A4.506,4.506,0,0,0,621.143,275.261Z" transform="translate(-546.853 -262.443)" fill="#2d54fe"/>
      <path id="Trazado_180493" data-name="Trazado 180493" d="M611.766,275.261H573.73a4.82,4.82,0,0,1-4.82-4.82V267.28a4.838,4.838,0,0,0-4.837-4.837H546.5a4.838,4.838,0,0,0-4.837,4.837v50.208a4.505,4.505,0,0,0,4.506,4.505h65.593a4.505,4.505,0,0,0,4.505-4.505V279.767A4.505,4.505,0,0,0,611.766,275.261Z" transform="translate(-541.667 -262.443)" fill="#2d54fe"/>
      <path id="Trazado_180494" data-name="Trazado 180494" d="M611.766,275.261H573.73a4.82,4.82,0,0,1-4.82-4.82V267.28a4.838,4.838,0,0,0-4.837-4.837H546.5a4.838,4.838,0,0,0-4.837,4.837v50.208a4.505,4.505,0,0,0,4.506,4.505h65.593a4.505,4.505,0,0,0,4.505-4.505V279.767A4.505,4.505,0,0,0,611.766,275.261Z" transform="translate(-542.667 -262.443)" fill="#061f8d" opacity="0.12"/>
      <path id="Trazado_180495" data-name="Trazado 180495" d="M602.118,275.261h-32.8c-2.3,0-4.157-2.158-4.157-4.82V267.28c0-2.671-1.868-4.837-4.171-4.837H545.839c-2.3,0-4.172,2.166-4.172,4.837v50.208c0,2.488,1.74,4.505,3.885,4.505h56.566c2.146,0,3.885-2.017,3.885-4.505V279.767C606,277.278,604.264,275.261,602.118,275.261Z" transform="translate(-541.667 -262.443)" fill="#2d54fe" opacity="0.12"/>
      <path id="Trazado_180496" data-name="Trazado 180496" d="M548.977,284.418a.447.447,0,0,1-.447-.447V273a3.084,3.084,0,0,1,3.08-3.081h12.946a.447.447,0,0,1,0,.894H551.61A2.189,2.189,0,0,0,549.424,273v10.968A.447.447,0,0,1,548.977,284.418Z" transform="translate(-545.463 -266.579)" fill="#fff"/>
    </g>
  </g>
</svg>
