<svg xmlns="http://www.w3.org/2000/svg" width="213.09" height="144.3" viewBox="0 0 213.09 144.3">
  <g id="Grupo_118268" data-name="Grupo 118268" transform="translate(-399.455 -4977)">
    <rect id="Rectángulo_36883" data-name="Rectángulo 36883" width="86" height="86" rx="43" transform="translate(452 4977)" fill="#fe502d"/>
    <g id="Grupo_118157" data-name="Grupo 118157" transform="translate(343.344 4807.115)">
      <g id="Shadow" transform="translate(56.111 301.74)">
        <ellipse id="_Path_" data-name="&lt;Path&gt;" cx="106.545" cy="6.222" rx="106.545" ry="6.222" transform="translate(0 0)" fill="#f5f5f5"/>
      </g>
      <g id="Carpet" transform="translate(104.948 305.268)">
        <g id="Grupo_118153" data-name="Grupo 118153" transform="translate(0 0)">
          <path id="Trazado_180497" data-name="Trazado 180497" d="M260.4,416.067H144.984l3.894-4.734H256.506Z" transform="translate(-144.984 -411.333)" fill="#407bff"/>
          <path id="Trazado_180498" data-name="Trazado 180498" d="M260.4,416.067H144.984l3.894-4.734H256.506Z" transform="translate(-144.984 -411.333)" fill="#fff" opacity="0.6"/>
        </g>
      </g>
      <g id="Character" transform="translate(107.759 175.885)">
        <g id="Grupo_118156" data-name="Grupo 118156">
          <path id="Trazado_180499" data-name="Trazado 180499" d="M181.552,330.733c14.346-.361,23.656,10.566,23.656,10.566-1.41,4.479-2.31,7.832-2.31,7.832-7.847-1.484-16.771-2.084-24.12-3.994-6.633-1.724-7.321-10.69-6.6-14.451s4.493-4.645,8.2-5.872c4.226-1.4,12.285-1.511,18.057-1.529,6.089-.019,14.089.544,18.232,1.484,0,0,8.805-.392,15.324-.281,3.816-.646,1.522,5.568-4.537,10.868a27.043,27.043,0,0,1-22.172,6.447l-.047-.007" transform="translate(-159.942 -242.286)" fill="#263238"/>
          <path id="Trazado_180500" data-name="Trazado 180500" d="M272.071,330.733c-14.346-.361-27.08,10.566-27.08,10.566,1.41,4.479,2.31,7.832,2.31,7.832,7.847-1.484,20.194-2.084,27.544-3.994,6.633-1.724,7.321-10.69,6.6-14.451s-4.493-4.645-8.2-5.872c-4.226-1.4-12.285-1.511-18.057-1.529-6.089-.019-14.089.544-18.232,1.484,0,0-8.805-.392-15.324-.281-3.816-.646-1.522,5.568,4.537,10.868a27.043,27.043,0,0,0,22.172,6.447l.047-.007" transform="translate(-181.484 -242.286)" fill="#263238"/>
          <path id="Trazado_180501" data-name="Trazado 180501" d="M204.215,264.2q-1.857,6.358-3.927,12.64-1.028,3.147-2.11,6.282c-.712,2.1-1.453,4.177-2.233,6.286l-.1.26-.129.321c-.091.208-.19.4-.288.6a10.059,10.059,0,0,1-.661,1.067,11.436,11.436,0,0,1-1.486,1.7,18.874,18.874,0,0,1-3.16,2.368,37.582,37.582,0,0,1-6.461,3.03,70.052,70.052,0,0,1-13.217,3.348l-.839-3.564c2-.715,4.056-1.47,6.034-2.3s3.952-1.667,5.828-2.607a36.7,36.7,0,0,0,5.236-3.08c1.55-1.1,2.788-2.48,2.911-3.28l3.68-12.611q1.856-6.327,3.849-12.619Z" transform="translate(-158.886 -214.702)" fill="#ce7a63"/>
          <path id="Trazado_180502" data-name="Trazado 180502" d="M166.7,327.381l-6.721-1.7,3.2,6.455s4.545.194,6.045-2.341Z" transform="translate(-154.549 -243.365)" fill="#ce7a63"/>
          <path id="Trazado_180503" data-name="Trazado 180503" d="M239.664,180.982c-2.4-1.74-6.361-3.2-7.954-.57s-2.966,8.264-5.622,9.592-5.816,6.777-4.076,11.54-5.129,3.48-5.5,10.716,9.932,10.9,16.437,7.327S244.039,197.376,243.626,190,239.664,180.982,239.664,180.982Z" transform="translate(-180.015 -177.277)" fill="#263238"/>
          <path id="Trazado_180504" data-name="Trazado 180504" d="M253.147,179.27a8.025,8.025,0,0,1,10.023-2.593c7.587,3.23,5.205,6.707,6.579,14.06s9.863,8.665,9.479,18.893c-.654,17.427-16.073,14.2-20.332,9.571s.458-21.615.458-21.615Z" transform="translate(-196.52 -175.885)" fill="#263238"/>
          <path id="Trazado_180505" data-name="Trazado 180505" d="M150.1,328.278l2.973,5.259,5.657-1.256-3.2-6.454Z" transform="translate(-150.099 -243.431)" fill="#ce7a63"/>
          <path id="Trazado_180506" data-name="Trazado 180506" d="M220.034,247.465c-2.92.743-4.963,12.76-4.963,12.76l8.047,5.472s7.715-12.122,5.469-15.333C226.247,247.021,224.295,246.38,220.034,247.465Z" transform="translate(-179.368 -207.912)" fill="#407bff"/>
          <path id="Trazado_180507" data-name="Trazado 180507" d="M222.364,255.811l6.251,1.448.6,6.111a70.863,70.863,0,0,1-3.5,6.306l-4.88-3.316C221.041,263.549,221.57,257.711,222.364,255.811Z" transform="translate(-181.962 -211.891)" opacity="0.2"/>
          <path id="Trazado_180508" data-name="Trazado 180508" d="M223.411,246.18s-3.375,1.189,3.386,42.762h28.775c-.483-11.711-.5-18.932,5.1-42.967a84.907,84.907,0,0,0-12.219-1.61,91.5,91.5,0,0,0-13.066,0C229.775,244.878,223.411,246.18,223.411,246.18Z" transform="translate(-182.745 -206.628)" fill="#407bff"/>
          <path id="Trazado_180509" data-name="Trazado 180509" d="M279.539,267.8l3.713,3.16c-.794,4.2-1.323,7.706-1.666,10.82C280.894,278.655,279.127,270.185,279.539,267.8Z" transform="translate(-208.382 -217.29)" opacity="0.2"/>
          <path id="Trazado_180510" data-name="Trazado 180510" d="M256.654,217.785c-.824,4.2-1.647,11.907,1.295,14.713a11.168,11.168,0,0,1-10.029,6.3c-7.3,0-3.037-6.3-3.037-6.3,4.688-1.119,4.567-4.6,3.75-7.865Z" transform="translate(-192.24 -194.76)" fill="#ce7a63"/>
          <path id="Trazado_180511" data-name="Trazado 180511" d="M252.349,244.367a90.875,90.875,0,0,0-13.067,0c-2.022.181-4.138.467-6.017.758-1.242,2.248-6.171,12.353,5.924,12.353,12.683,0,17.969-11.111,18.629-12.622C256.119,244.641,254.239,244.46,252.349,244.367Z" transform="translate(-186.642 -206.628)" fill="#ce7a63"/>
          <path id="Trazado_180512" data-name="Trazado 180512" d="M257.475,222.871l-4.747,4.05a13.415,13.415,0,0,1,.4,2.319c1.791-.259,4.252-2.225,4.441-4.1A6.283,6.283,0,0,0,257.475,222.871Z" transform="translate(-196.332 -197.052)" opacity="0.2"/>
          <path id="Trazado_180513" data-name="Trazado 180513" d="M260.371,193.888c-1.327,6.905-1.741,9.856-5.718,12.975-5.982,4.691-14.174,1.551-14.937-5.612-.687-6.447,1.6-16.656,8.77-18.546A9.591,9.591,0,0,1,260.371,193.888Z" transform="translate(-190.417 -178.805)" fill="#ce7a63"/>
          <path id="Trazado_180514" data-name="Trazado 180514" d="M254.075,181.093c-2.483,1.394-.839,3.847,3.633,5.587s4.747,2.061,4.014,5.678,5.785,6.962,5.869,3.229,1.412-10.83-2.068-12.8S256.686,179.628,254.075,181.093Z" transform="translate(-196.417 -177.937)" fill="#263238"/>
          <path id="Trazado_180515" data-name="Trazado 180515" d="M248.708,183.35c-2.176.71-7.19,6.136-6.823,4.351s1.305-4.259,3.938-5.175a14.359,14.359,0,0,1,3.892-.939Z" transform="translate(-191.438 -178.454)" fill="#263238"/>
          <path id="Trazado_180516" data-name="Trazado 180516" d="M275.484,211.127a5.334,5.334,0,0,1-3.013,2.515c-1.708.547-2.571-.928-2.1-2.545.42-1.456,1.816-3.494,3.533-3.338A2.177,2.177,0,0,1,275.484,211.127Z" transform="translate(-204.221 -190.24)" fill="#ce7a63"/>
          <path id="Trazado_180517" data-name="Trazado 180517" d="M229.679,362.619l2.635-7.511c.1-.273,1.238.443,1.518.5,0,0,4.125-.535,5.768-.084s1.57,1.516,1.271,2.634c-.7,2.6-1.823,3.1-2.551,6.551-.444,2.107-.805,4.046-3.109,6.045-2.2,1.906-4.309,1.789-3.441-.529,2.089-5.583,1.116-4.754-.22-6.83C231.311,363.024,229.538,363.019,229.679,362.619Z" transform="translate(-185.945 -256.595)" fill="#ce7a63"/>
          <path id="Trazado_180518" data-name="Trazado 180518" d="M258.011,362.619l-2.636-7.511c-.1-.273-1.238.443-1.518.5,0,0-4.125-.535-5.768-.084s-1.571,1.516-1.271,2.634c.7,2.6,1.823,3.1,2.551,6.551.444,2.107.805,4.046,3.109,6.045,2.2,1.906,4.309,1.789,3.441-.529-2.089-5.583-1.116-4.754.221-6.83C256.379,363.024,258.152,363.019,258.011,362.619Z" transform="translate(-193.594 -256.595)" fill="#ce7a63"/>
          <path id="Trazado_180519" data-name="Trazado 180519" d="M226.6,362.74l2.656-9.962-3.5-1.445-4.93,10.7Z" transform="translate(-181.962 -254.922)" fill="#407bff"/>
          <path id="Trazado_180520" data-name="Trazado 180520" d="M262.631,363.127l-4.174-10.074,3.228-1.324,6.535,9.8Z" transform="translate(-198.912 -255.1)" fill="#407bff"/>
          <path id="Trazado_180521" data-name="Trazado 180521" d="M246.661,204.357a15.268,15.268,0,0,1-2.488,3.356,2.46,2.46,0,0,0,1.972.64Z" transform="translate(-192.478 -188.711)" fill="#ba4d3c"/>
          <path id="Trazado_180522" data-name="Trazado 180522" d="M250.871,216a.106.106,0,0,0,.046.016,4.878,4.878,0,0,0,3.463-1.055.107.107,0,1,0-.139-.163,4.747,4.747,0,0,1-3.3,1.006.107.107,0,0,0-.072.2Z" transform="translate(-195.473 -193.404)" fill="#263238"/>
          <path id="Trazado_180523" data-name="Trazado 180523" d="M260.336,197.883a.214.214,0,0,0,.27-.308,3.2,3.2,0,0,0-2.5-1.56.214.214,0,0,0-.008.428,2.774,2.774,0,0,1,2.146,1.359A.218.218,0,0,0,260.336,197.883Z" transform="translate(-198.656 -184.953)" fill="#263238"/>
          <path id="Trazado_180524" data-name="Trazado 180524" d="M253.4,202.919a.214.214,0,0,0-.192.362,3.2,3.2,0,0,0,2.791.948.214.214,0,0,0-.09-.419,2.775,2.775,0,0,1-2.4-.834A.213.213,0,0,0,253.4,202.919Z" transform="translate(-196.52 -188.061)" fill="#263238"/>
          <path id="Trazado_180525" data-name="Trazado 180525" d="M239.65,201.494a.214.214,0,0,0-.193.362,3.2,3.2,0,0,0,2.791.948.214.214,0,0,0-.09-.419,2.775,2.775,0,0,1-2.4-.834A.211.211,0,0,0,239.65,201.494Z" transform="translate(-190.325 -187.42)" fill="#263238"/>
          <path id="Trazado_180526" data-name="Trazado 180526" d="M240.9,194.7a.215.215,0,0,0,.219-.025,2.774,2.774,0,0,1,2.485-.528.214.214,0,0,0,.141-.4,3.2,3.2,0,0,0-2.887.592.214.214,0,0,0-.04.3A.216.216,0,0,0,240.9,194.7Z" transform="translate(-190.945 -183.875)" fill="#263238"/>
          <g id="Grupo_118154" data-name="Grupo 118154" transform="translate(43.158 80.409)">
            <path id="Trazado_180527" data-name="Trazado 180527" d="M258.737,322.429l.229,2.576c.1.2-.136.4-.469.4H229.389c-.259,0-.474-.127-.491-.29l-.26-2.576c-.018-.179.207-.33.491-.33h29.139A.523.523,0,0,1,258.737,322.429Z" transform="translate(-228.637 -322.213)" fill="#407bff"/>
            <path id="Trazado_180528" data-name="Trazado 180528" d="M258.737,322.429l.229,2.576c.1.2-.136.4-.469.4H229.389c-.259,0-.474-.127-.491-.29l-.26-2.576c-.018-.179.207-.33.491-.33h29.139A.523.523,0,0,1,258.737,322.429Z" transform="translate(-228.637 -322.213)" opacity="0.3"/>
          </g>
          <path id="Trazado_180529" data-name="Trazado 180529" d="M275.742,325.5h.78c.156,0,.274-.08.263-.178l-.366-3.346c-.011-.1-.147-.178-.3-.178h-.78c-.156,0-.274.08-.263.178l.366,3.346C275.45,325.42,275.586,325.5,275.742,325.5Z" transform="translate(-206.398 -241.617)" fill="#263238"/>
          <path id="Trazado_180530" data-name="Trazado 180530" d="M233.448,325.5h.78c.156,0,.274-.08.263-.178l-.366-3.346c-.011-.1-.147-.178-.3-.178h-.78c-.156,0-.274.08-.263.178l.366,3.346C233.156,325.42,233.292,325.5,233.448,325.5Z" transform="translate(-187.345 -241.617)" fill="#263238"/>
          <path id="Trazado_180531" data-name="Trazado 180531" d="M254.595,325.5h.78c.156,0,.274-.08.263-.178l-.366-3.346c-.011-.1-.147-.178-.3-.178h-.78c-.156,0-.274.08-.263.178l.366,3.346C254.3,325.42,254.439,325.5,254.595,325.5Z" transform="translate(-196.871 -241.617)" fill="#263238"/>
          <g id="Grupo_118155" data-name="Grupo 118155" transform="translate(70.001 39.189)">
            <path id="Trazado_180532" data-name="Trazado 180532" d="M290.59,263.023l2.357,12.7c.4,2.112.806,4.216,1.234,6.3.212,1.043.451,2.066.675,3.086l.363,1.5.354,1.288a4.258,4.258,0,0,0,1.014,1.52,14.127,14.127,0,0,0,2.029,1.72,38.216,38.216,0,0,0,5.2,3.021c1.857.922,3.793,1.764,5.758,2.564s3.986,1.557,5.955,2.263l-.839,3.564a70.024,70.024,0,0,1-13.044-3.286,38.776,38.776,0,0,1-6.38-2.938,20.361,20.361,0,0,1-3.126-2.256,10.475,10.475,0,0,1-2.762-3.732l-.126-.317-.084-.234-.146-.42-.291-.843-.513-1.643c-.322-1.083-.618-2.167-.9-3.241q-.845-3.227-1.546-6.443c-.953-4.3-1.772-8.577-2.474-12.923Z" transform="translate(-280.107 -254.328)" fill="#ce7a63"/>
            <path id="Trazado_180533" data-name="Trazado 180533" d="M285.412,247.359c2.883.876,6.456,10.152,6.456,10.152l-11.185,8s-4.189-7.635-2.977-11.362C278.967,250.265,282.122,246.358,285.412,247.359Z" transform="translate(-277.486 -247.2)" fill="#407bff"/>
            <path id="Trazado_180534" data-name="Trazado 180534" d="M337.275,327.381l6.721-1.7-3.2,6.455s-4.546.194-6.046-2.341Z" transform="translate(-303.281 -282.554)" fill="#ce7a63"/>
            <path id="Trazado_180535" data-name="Trazado 180535" d="M354.38,328.278l-2.973,5.259-5.658-1.256,3.2-6.454Z" transform="translate(-308.238 -282.62)" fill="#ce7a63"/>
          </g>
        </g>
      </g>
    </g>
    <g id="Grupo_118158" data-name="Grupo 118158" transform="translate(278 4120)">
      <g id="Grupo_117240" data-name="Grupo 117240" transform="translate(308 985) rotate(180)">
        <path id="Trazado_100600" data-name="Trazado 100600" d="M713.6-210.305l2.423-2.423,8.456,8.456,2.423,2.423-2.423,2.423-8.456,8.456-2.423-2.423,8.456-8.456Z" transform="translate(-702.564 212.728)" fill="#2d54fe"/>
        <path id="Trazado_100601" data-name="Trazado 100601" d="M776.91-201.849l-8.456-8.456,2.423-2.423,8.456,8.456,2.423,2.423-2.423,2.423-8.456,8.456-2.423-2.423Z" transform="translate(-768.453 212.728)" fill="#2d54fe"/>
      </g>
      <g id="Grupo_117241" data-name="Grupo 117241" transform="translate(166.667 950.479) rotate(90)">
        <path id="Trazado_100600-2" data-name="Trazado 100600" d="M0,13.922l1.744,1.744L7.833,9.578,9.578,7.833,7.833,6.089,1.744,0,0,1.744,6.089,7.833Z" transform="translate(7.944)" fill="#fe502d"/>
        <path id="Trazado_100601-2" data-name="Trazado 100601" d="M6.089,7.833,0,13.922l1.744,1.744L7.833,9.578,9.578,7.833,7.833,6.089,1.744,0,0,1.744Z" fill="#fe502d"/>
      </g>
      <rect id="Rectángulo_36648" data-name="Rectángulo 36648" width="39" height="10" transform="translate(275 871) rotate(180)" fill="#ffca00"/>
      <rect id="Rectángulo_36650" data-name="Rectángulo 36650" width="39" height="10" transform="translate(210 929.12) rotate(180)" fill="#2d54fe"/>
    </g>
  </g>
</svg>
