<svg xmlns="http://www.w3.org/2000/svg" width="117.971" height="152.076" viewBox="0 0 117.971 152.076">
  <g id="Grupo_118126" data-name="Grupo 118126" transform="translate(-756.157 -88.396)">
    <circle id="Elipse_6432" data-name="Elipse 6432" cx="58.985" cy="58.985" r="58.985" transform="translate(756.157 88.396)" fill="#fff"/>
    <g id="Grupo_118106" data-name="Grupo 118106" transform="translate(772.665 93.526)">
      <ellipse id="Elipse_6433" data-name="Elipse 6433" cx="14.779" cy="25.599" rx="14.779" ry="25.599" transform="matrix(0.005, -1, 1, 0.005, 8.653, 146.669)" fill="#ce6200" opacity="0.5"/>
      <g id="Grupo_118105" data-name="Grupo 118105">
        <g id="Grupo_118102" data-name="Grupo 118102" transform="translate(8.692 8.917)">
          <g id="Grupo_118091" data-name="Grupo 118091" transform="translate(40.782 4.477)">
            <path id="Trazado_180389" data-name="Trazado 180389" d="M806.96,102.721c0-.139,3.892-2.023,5.558,1.775s-3.1,10.263-2.2,15.458,4.469,5.054,4.469,5.054-3.658,4.306-5.51,3.08-4.616-4.566-4.134-11.09S806.96,102.721,806.96,102.721Z" transform="translate(-805.088 -102.132)" fill="#271100"/>
          </g>
          <path id="Trazado_180390" data-name="Trazado 180390" d="M807.417,101.678a2.229,2.229,0,0,1,2.47,1.824c.556,2.129.154,4-1.235,4.329S807.417,101.678,807.417,101.678Z" transform="translate(-763.496 -97.819)" fill="#ff364a"/>
          <g id="Grupo_118092" data-name="Grupo 118092" transform="translate(9.129 114.9)">
            <path id="Trazado_180391" data-name="Trazado 180391" d="M781.808,194.466a.77.77,0,0,0-.154.8c.142.561.1,1.791,1.142,2.337s2.384.922,5.007-.508,4.325-4.227,5.1-5.235a10.84,10.84,0,0,1,3.24-2.855,7.652,7.652,0,0,0,2.705-1.857c.256-.495-.272-2.368-.272-2.368s-.206-.926-.661-.739-7.7,7.76-10.433,8.861A29.665,29.665,0,0,1,781.808,194.466Z" transform="translate(-781.615 -184.019)" fill="#c82c2f"/>
          </g>
          <g id="Grupo_118093" data-name="Grupo 118093" transform="translate(9.304 110.526)">
            <path id="Trazado_180392" data-name="Trazado 180392" d="M796.925,181.186a10.756,10.756,0,0,1,1.226,3.319c.378,1.958.286,3.008-.925,3.6A16.469,16.469,0,0,0,792.17,192c-1.571,1.9-2.971,4.385-5.364,5.209s-3.39.383-3.9.178a2.9,2.9,0,0,1-1.146-1.787c-.171-.673.89-2.329,1.978-3.966A41.922,41.922,0,0,1,787.749,187c.661-.693,1.142-2.558,2.187-3.708S794.982,179.84,796.925,181.186Z" transform="translate(-781.744 -180.776)" fill="#ffc75e"/>
          </g>
          <g id="Grupo_118094" data-name="Grupo 118094" transform="translate(25.639 117.374)">
            <path id="Trazado_180393" data-name="Trazado 180393" d="M794.307,195.621s-.329.228-.422,1.169a4.98,4.98,0,0,0,.212,2.069c.128.355,1.7,1.543,4.342,1.3a6.633,6.633,0,0,0,4.507-1.913c1.451-1.266,2.284-4.028,2.732-5.387s.355-.4,1.126-2.5a11.59,11.59,0,0,0,.139-2.994c-.123-.725-.293-2.069-.74-1.25s-3.951,8.133-4.724,8.35S794.307,195.621,794.307,195.621Z" transform="translate(-793.859 -185.854)" fill="#c82c2f"/>
          </g>
          <g id="Grupo_118095" data-name="Grupo 118095" transform="translate(26.009 113.812)">
            <path id="Trazado_180394" data-name="Trazado 180394" d="M804.253,183.256s1.274.023,1.575,1.065a19.133,19.133,0,0,1,.6,3.8,19.589,19.589,0,0,1-1.621,5.44c-.856,1.783-1.041,3.635-3.379,5a6.36,6.36,0,0,1-5.487.779c-1.459-.433-1.76-1.266-1.806-1.892a7.186,7.186,0,0,1,.694-2.94,41.59,41.59,0,0,0,2.454-3.7c.3-.717,1.389-4.237,1.642-5.047a4.354,4.354,0,0,1,1.992-2.291A10.6,10.6,0,0,1,804.253,183.256Z" transform="translate(-794.133 -183.213)" fill="#ffc75e"/>
          </g>
          <path id="Trazado_180395" data-name="Trazado 180395" d="M800.466,117.444a15.538,15.538,0,0,0-7.642,5.053c-3.657,4.206-6.575,7.632-7.131,8.188s-3.889,2.964-3.889,2.964-1.436-3.026-1.729-3.812a6.623,6.623,0,0,1-.124-2.686c.093-.247,1-1.018,1.281-1.451a11.3,11.3,0,0,0,1.142-2.207c.186-.647.124-1.4.217-1.6s.725-.725.74-1.389.139-1.08-.124-1.219a.984.984,0,0,0-1.018-.124,4.709,4.709,0,0,1-.618.324s-1.5-.293-1.482-.446.371-6.328.371-6.73-.182-.972-.592-.864-.643-.077-.859.742-.987,6.636-1.095,6.729a3.051,3.051,0,0,1-.773.17l-.9.618s-.494,1.219-.709,1.59-.787,1.049-.68,1.62.078,2.023.2,3.18a19.164,19.164,0,0,1,.139,2.315,47.917,47.917,0,0,0-.031,6.76c.278,2.284,2.284,6.792,3.551,7.81s5.8-1.049,6.76-1.729,7.311-5.813,7.93-7.444a30.836,30.836,0,0,1,2.843-4.718Z" transform="translate(-774.845 -94.418)" fill="#522b1e"/>
          <path id="Trazado_180396" data-name="Trazado 180396" d="M789.389,143.528a60.875,60.875,0,0,0-4.861,15.7c-1.25,8.335-1.853,15.373-1.065,20.281s5.927,15,5.927,16.345c0,.446-.171,1.025.174,1.39a1.53,1.53,0,0,0,.549.336,6.013,6.013,0,0,0,2.243.409.664.664,0,0,1,.638.267c.266.272.453.415.831.21a2.679,2.679,0,0,0,1.061-1.026,4.034,4.034,0,0,0,.521-1.784c.034-.636-.193-1.218-.181-1.839.023-1.273-.07-8.727-.325-9.932s-1.366-2.755-1.273-3.288,1.351-9.021,3.665-14.516a56.142,56.142,0,0,0,3.242-10.865l.833-10.157Z" transform="translate(-771.965 -83.23)" fill="#522b1e"/>
          <g id="Grupo_118096" data-name="Grupo 118096" transform="translate(11.555 113.326)">
            <path id="Trazado_180397" data-name="Trazado 180397" d="M793.266,184.8s-.862-.57-1.231-.237-5.007,6.336-5.42,7.062.662,1.575.662,1.575a13.466,13.466,0,0,0-2.485-1.231c-.844-.216-1.378-.343-1.378-.343a1.936,1.936,0,0,0,.924-.689c.453-.569,3.343-4.145,3.56-4.463s.08-2.743.336-3.238.868-.531,1.741-.012S793.476,184.033,793.266,184.8Z" transform="translate(-783.414 -182.852)" fill="#c82c2f"/>
          </g>
          <path id="Trazado_180398" data-name="Trazado 180398" d="M797.516,146.441s-.711,10.9-.864,14.724,1.173,11.329,2.038,15.033a39.907,39.907,0,0,1,.74,9.816c-.061,2.038.68,6.051.278,9.323-.135,1.1-.31,2.206-.553,3.292a1.592,1.592,0,0,0,.094,1.324,1.887,1.887,0,0,0,1.094.871,3.719,3.719,0,0,0,1.259.062l1.11-.073a2.147,2.147,0,0,0,.847-.173c1.342-.688.479-2.762.933-3.853.155-.371,3.55-8.181,3.828-11.052s.371-5.1,0-6.377a9.308,9.308,0,0,1-.062-4.983c.525-1.758,3.735-10.217,4.137-12.624s-.525-12.317-1.082-14.663S797.516,146.441,797.516,146.441Z" transform="translate(-767.25 -82.422)" fill="#522b1e"/>
          <path id="Trazado_180399" data-name="Trazado 180399" d="M802.663,153.131c-.047,2.144-1.644,9.756-2.422,13.346-.252,1.16-.418,1.9-.418,1.9s-2.531,1.482-9.569.619-7.146-2.655-7.146-2.655.067-.519.186-1.386c.281-2.063.851-6.111,1.481-9.927a54.86,54.86,0,0,1,3.5-11.279l14.387,2.829S802.723,150.289,802.663,153.131Z" transform="translate(-771.965 -83.153)" fill="#ff364a"/>
          <path id="Trazado_180400" data-name="Trazado 180400" d="M800.241,161c-.252,1.16-.418,1.9-.418,1.9s-2.531,1.482-9.569.619-7.146-2.655-7.146-2.655.067-.519.186-1.386a39.878,39.878,0,0,0,11.323,2.252A12.461,12.461,0,0,0,800.241,161Z" transform="translate(-771.965 -77.673)" fill="#3f3f3f"/>
          <path id="Trazado_180401" data-name="Trazado 180401" d="M813.573,167.573c-.237,1.009-.415,1.668-.415,1.668s-.963,1.359-5.838,1.667-10.557-.248-10.99-.863a6.4,6.4,0,0,1-.3-1.775c-.241-2.574-.445-7.123-.948-8.5-.686-1.87-.175-12.138-.175-12.138l17.07-.867s2.685,9.2,2.808,12.546A38.722,38.722,0,0,1,813.573,167.573Z" transform="translate(-767.917 -82.101)" fill="#ff364a"/>
          <path id="Trazado_180402" data-name="Trazado 180402" d="M813.662,158.917a72.009,72.009,0,0,1-1.156,7.593s.318-.133.729-.316c-.237,1.009-.415,1.668-.415,1.668s-.963,1.359-5.838,1.667-10.557-.248-10.99-.863a6.4,6.4,0,0,1-.3-1.775c1.344.174,5.7.708,9.042.823a15.5,15.5,0,0,0,6.287-.878s.645-4.075.785-6.253-.785-9.861-.785-9.861h1.34S813.706,156.879,813.662,158.917Z" transform="translate(-767.579 -80.723)" fill="#3f3f3f"/>
          <path id="Trazado_180403" data-name="Trazado 180403" d="M816.673,154.751c.008-.028-.031-2.574-.078-4.283-.1-3.677-30.79-4.728-30.883-3.849a19.054,19.054,0,0,1-.51,2.361,35.115,35.115,0,0,0,14.082,7.324C806.964,158.079,815.978,157.267,816.673,154.751Z" transform="translate(-771.236 -82.255)" fill="#e21a37"/>
          <path id="Trazado_180404" data-name="Trazado 180404" d="M816.673,163.375c.024-.089-.417-11.807-.108-14.462s2.655-8.365,3.242-10.155,2.222-8.18,2.531-9.229.678-8,.37-8.8-2.314-2.933-9.692-4.631a40.343,40.343,0,0,0-14.663-.433c-.987.093-3.827.94-5.186,5.518s-3.719,7.771-3.4,13.976.82,6.436-.03,10.234-3.936,10.317-4.029,11.2a19.053,19.053,0,0,1-.51,2.361,35.122,35.122,0,0,0,14.082,7.322C806.964,168.051,815.978,165.891,816.673,163.375Z" transform="translate(-771.236 -93.106)" fill="#ff364a"/>
          <g id="Grupo_118099" data-name="Grupo 118099" transform="translate(20.258 44.188)">
            <g id="Grupo_118097" data-name="Grupo 118097">
              <path id="Trazado_180405" data-name="Trazado 180405" d="M798.305,146.077c-.12,3.42-1.823,5.394-4.379,4.74a7.1,7.1,0,0,1-3.906-3.13l1.064-2.995c.783,1.6,1.753,2.6,2.778,2.866,1.307.334,2.085-.452,2.14-2.02a2.642,2.642,0,0,0-1.98-3l-1.663-.426.078-2.237,2.814-3.739L791,135.048l.116-3.292,7.1,1.822-.086,2.442-3.188,4.111.56.272C797.248,141.214,798.4,143.275,798.305,146.077Z" transform="translate(-789.815 -131.52)" fill="#3f3f3f"/>
              <path id="Trazado_180406" data-name="Trazado 180406" d="M794.917,151.186a3.976,3.976,0,0,1-.983-.129,7.279,7.279,0,0,1-4.018-3.211l-.047-.076,1.242-3.5.194.4a4.777,4.777,0,0,0,2.656,2.767,1.425,1.425,0,0,0,1.257-.158,2.126,2.126,0,0,0,.651-1.688,2.471,2.471,0,0,0-1.839-2.812l-1.807-.464.085-2.443,2.683-3.565-4.124-1.057.128-3.669,7.468,1.916-.093,2.65-3.084,3.979.355.173c1.885.876,3,3.118,2.9,5.846-.073,2.055-.711,3.633-1.795,4.446A3.007,3.007,0,0,1,794.917,151.186Zm-4.639-3.462a6.86,6.86,0,0,0,3.747,2.972,2.859,2.859,0,0,0,2.5-.4c.994-.744,1.579-2.222,1.646-4.163h0c.09-2.577-.94-4.683-2.692-5.5l-.767-.375,3.29-4.244.078-2.233-6.733-1.727-.1,2.911,4.373,1.122L792.674,140l-.071,2.029,1.52.39a2.84,2.84,0,0,1,2.117,3.184,2.468,2.468,0,0,1-.8,1.971,1.793,1.793,0,0,1-1.571.221,4.738,4.738,0,0,1-2.7-2.58Z" transform="translate(-789.868 -131.581)" fill="#3f3f3f"/>
            </g>
            <g id="Grupo_118098" data-name="Grupo 118098" transform="translate(9.167 2.352)">
              <path id="Trazado_180407" data-name="Trazado 180407" d="M805.1,147.819c-.12,3.42-1.823,5.4-4.378,4.74a7.094,7.094,0,0,1-3.907-3.128l1.064-3c.783,1.6,1.753,2.6,2.778,2.866,1.307.336,2.083-.45,2.139-2.019a2.639,2.639,0,0,0-1.977-3l-1.664-.427.078-2.237,2.814-3.739-4.248-1.09.115-3.29,7.1,1.822-.085,2.442-3.188,4.11.56.274C804.046,142.957,805.2,145.017,805.1,147.819Z" transform="translate(-796.613 -133.264)" fill="#3f3f3f"/>
              <path id="Trazado_180408" data-name="Trazado 180408" d="M801.715,152.929a3.974,3.974,0,0,1-.983-.129,7.276,7.276,0,0,1-4.018-3.209l-.047-.077,1.242-3.494.194.4a4.785,4.785,0,0,0,2.656,2.767,1.429,1.429,0,0,0,1.257-.158,2.13,2.13,0,0,0,.651-1.688,2.471,2.471,0,0,0-1.838-2.812l-1.808-.464.085-2.445,2.684-3.564-4.124-1.057.128-3.669,7.468,1.915-.093,2.651-3.084,3.978.355.173c1.886.878,3,3.118,2.9,5.846-.073,2.055-.711,3.634-1.795,4.446A3,3,0,0,1,801.715,152.929Zm-4.639-3.46a6.866,6.866,0,0,0,3.747,2.972,2.86,2.86,0,0,0,2.5-.4c.994-.743,1.578-2.221,1.646-4.161h0c.09-2.577-.94-4.683-2.692-5.5l-.767-.374,3.29-4.245.078-2.233-6.733-1.727-.1,2.913,4.373,1.121-2.946,3.915-.072,2.031,1.52.39a2.811,2.811,0,0,1,2.117,3.184,2.47,2.47,0,0,1-.8,1.971,1.8,1.8,0,0,1-1.572.22,4.737,4.737,0,0,1-2.7-2.578Z" transform="translate(-796.666 -133.325)" fill="#3f3f3f"/>
            </g>
          </g>
          <path id="Trazado_180409" data-name="Trazado 180409" d="M810.751,116.846s2.7.34.94,2.716-4.383,6.606-11.235,7.348c-4.631-3.026-4.461-5.186-4.747-6.822s.353-4.3,2.766-4.682S809.993,116.616,810.751,116.846Z" transform="translate(-767.597 -93.05)" fill="#522b1e"/>
          <path id="Trazado_180410" data-name="Trazado 180410" d="M779.205,120.811s-.024.833-.325,1.018a2.776,2.776,0,0,1-1.482.163,4.544,4.544,0,0,0-.162-.788l-.578.223a1.772,1.772,0,0,1,.162.615c0,.274-.023.761.394.6a13.813,13.813,0,0,1,1.551-.44c.07,0,.719-.093.719-.093s.556-.152.672-.365.463-.676.463-.676a7.518,7.518,0,0,0,.51-.949c.092-.278,0-1.343,0-.672a4.04,4.04,0,0,1-.858,1.737l-.624.417S779.135,121.135,779.205,120.811Z" transform="translate(-774.213 -91.698)" fill="#f8c5a1"/>
          <path id="Trazado_180411" data-name="Trazado 180411" d="M816.41,119.025a1.524,1.524,0,0,0-2.489.948,15.249,15.249,0,0,0-.926,8.42c.649,3.935,2.871,4.677,4.631,6.3s4.908,5.585,4.908,6.033a75.341,75.341,0,0,1-3.474,7.255,52.684,52.684,0,0,1-4.445,6.575,2.812,2.812,0,0,1-1.019.417s-2.051-.527-2.731-.763-.674-.388-.674-.388l-.063,1.5-.024.6a7.043,7.043,0,0,0-2.364,1.019c-1.088.763-4.654,3.033-4.977,3.4s-.533,1.135-.163,1.343a1.717,1.717,0,0,0,1.691-.208c.6-.417,3.75-2.176,3.75-2.176s-3.1,2.595-3.635,3.126-1.3,1-1.365,1.5.231.81.624.786a1.585,1.585,0,0,0,.74-.278s.279.765.742.6,4.515-2.315,4.515-2.315l.823.417a17.289,17.289,0,0,0,3.043-1.065,39.319,39.319,0,0,0,3.889-2.8,22.687,22.687,0,0,0,1.853-2.431c.624-.81,4.515-4.815,6.227-7.363s5.025-8.242,5.209-9.445-1.945-5.209-3.311-7.015S817.764,119.937,816.41,119.025Z" transform="translate(-765.242 -91.895)" fill="#522b1e"/>
          <path id="Trazado_180412" data-name="Trazado 180412" d="M797.587,115.532s.254,2.917.392,4.654-.6,3.657-.2,4.329a2.288,2.288,0,0,0,2.372,1.019c1.088-.186,2.825.833,3.5.44a8.063,8.063,0,0,0,3.288-1.781c.112-.1.228-.209.347-.325a6.8,6.8,0,0,0,2.287-3.82c.028-.325-1.81-1.5-1.816-2.454a8.373,8.373,0,0,1,.734-5.14,12.164,12.164,0,0,0,1.583-4.513C809.973,107.822,797.587,115.532,797.587,115.532Z" transform="translate(-766.92 -95.633)" fill="#583121"/>
          <path id="Trazado_180413" data-name="Trazado 180413" d="M798.71,101.752a9.548,9.548,0,0,0-1.876,3.729c-.231,1.713-.208,2.546-.74,3.541s-.626,4.585.278,7.247,1.134,3.333,1.99,3.52a12.91,12.91,0,0,0,6.575-.788c2.64-1.134,4.307-4.445,4.562-5.093a25.511,25.511,0,0,0,1.226-6.3c-.115-1.551-.718-4.677-2.662-5.695S801.674,99.113,798.71,101.752Z" transform="translate(-767.58 -98.268)" fill="#5e3729"/>
          <g id="Grupo_118100" data-name="Grupo 118100" transform="translate(29.326)">
            <path id="Trazado_180414" data-name="Trazado 180414" d="M806.774,116.788a31.618,31.618,0,0,0,2.017-6.551,35.449,35.449,0,0,0-.278-4.051s.069-2.385-1.83-2.848a18.093,18.093,0,0,0-4.167-.232c-.833-.092-1.806-.763-2.338-.763s-1.99.2-2.244.576-1.311,2.611-1.311,2.611-.521-1.82,2.675-4.761,7.015-2.2,10.394-.185,3.52,6.505,2.871,9.168a15,15,0,0,1-1.676,4.624c-.423.605-1.742.605-1.641.386,2.616-5.695-.49-1.862-.7-1.33C808.315,114.005,806.774,116.788,806.774,116.788Z" transform="translate(-796.593 -98.812)" fill="#2f1300"/>
          </g>
          <path id="Trazado_180415" data-name="Trazado 180415" d="M806.372,109.046a3.726,3.726,0,0,1,1.25-.81c.74-.278,1.574.023.879,1.691s-1.25,2.106-1.574,2.268-1.28.654-1.543.547-.356-.987-.124-1.265S806.1,109.285,806.372,109.046Z" transform="translate(-764.292 -95.561)" fill="#5e3729"/>
          <g id="Grupo_118101" data-name="Grupo 118101" transform="translate(26.304 22.367)">
            <path id="Trazado_180416" data-name="Trazado 180416" d="M800.817,129.04l-.162-.042a9.13,9.13,0,0,1-5.436-4.408c-1.276-2.532-1.134-5.285.353-8.975l1.123-.216c-1.336,3.315-1.366,6.415-.272,8.584a7.786,7.786,0,0,0,4.423,3.665c12.878-3.05,12.983-10.208,12.967-10.507l1,.361c.023.345.413,8.2-13.83,11.5Z" transform="translate(-794.352 -115.399)" fill="#3f3f3f"/>
          </g>
        </g>
        <path id="Trazado_180417" data-name="Trazado 180417" d="M803.65,187.259a2.315,2.315,0,0,0-1.714,1.389c-.463,1.2-1.806,4.422-1.922,5.07s.7,1.851.7,1.851-2.385-1.18-2.941-1.458a19.156,19.156,0,0,0-2.038-.717s1.3-.348,1.552-.858a34.107,34.107,0,0,0,1.481-4.4,7.567,7.567,0,0,1-.069-2.349c.138-.371.17-.659.6-.752a3.622,3.622,0,0,1,1.9.485C801.936,185.961,804.229,186.216,803.65,187.259Z" transform="translate(-758.874 -59.856)" fill="#c82c2f"/>
        <path id="Trazado_180418" data-name="Trazado 180418" d="M779.838,124.212a2.317,2.317,0,0,1-2.109,1.977,3.628,3.628,0,0,1-2.674-.34,24.686,24.686,0,0,0-.019,3.735c2.137.725,3.188.494,4.438-.17a3.613,3.613,0,0,0,1.637-1.609S779.85,124.6,779.838,124.212Z" transform="translate(-766.11 -81.045)" fill="#ff364a"/>
        <path id="Trazado_180419" data-name="Trazado 180419" d="M811.942,145.507s1.965-2.783,2.245-3.213a8.069,8.069,0,0,0,3.652,2.334,5.188,5.188,0,0,0,1.562.1l-2.493,2.783S815.3,149.372,811.942,145.507Z" transform="translate(-753.225 -74.743)" fill="#ff364a"/>
        <g id="Grupo_118104" data-name="Grupo 118104">
          <g id="Grupo_118103" data-name="Grupo 118103">
            <path id="Trazado_180420" data-name="Trazado 180420" d="M795.185,105.593A13.393,13.393,0,1,1,781.792,92.2,13.394,13.394,0,0,1,795.185,105.593Z" transform="translate(-768.399 -92.2)" fill="#fd8b27"/>
            <path id="Trazado_180421" data-name="Trazado 180421" d="M791.144,107.757A14.587,14.587,0,0,0,795,106.49c.024-.325.036-.654.036-.984,0-.12,0-.24-.005-.359a11.19,11.19,0,0,1-4.132,1.517c-2.278.516-4.625,1.049-6.017,3.443-.592-.187-1.191-.4-1.792-.626.146-.283.288-.565.43-.841a31.479,31.479,0,0,0,2.384-6.574c.715-2.949.986-6.061.162-8.335-.054-.148-.113-.293-.177-.434a5.9,5.9,0,0,0-.312-.6,13.264,13.264,0,0,0-1.841-.425,3.74,3.74,0,0,1,1.13,1.479l.016.039c.825,1.877.672,4.668.062,7.448a30.262,30.262,0,0,1-2.423,6.888q-.235.463-.477.93-.532-.225-1.068-.472-1.005-.465-1.953-.979c1.139-2.241-.12-4.689-1.567-7.5a29.329,29.329,0,0,1-2.58-6.164q-.508.3-.984.634a31.781,31.781,0,0,0,2.568,6.044c1.343,2.605,2.419,4.7,1.584,6.434a24.4,24.4,0,0,1-5.925-4.7,9.1,9.1,0,0,1-2.09-3.529,13.562,13.562,0,0,0-.694,1.386,11.908,11.908,0,0,0,1.944,2.884,25.511,25.511,0,0,0,6.126,4.88c-1.3,1.432-3.549,2.113-6.447,1.926a16.947,16.947,0,0,1-2.056-.266q.2.621.46,1.215c.515.08,1.025.136,1.525.169.337.023.669.032.991.032,2.9,0,5.167-.874,6.521-2.511.681.371,1.385.725,2.106,1.06.341.158.68.306,1.018.45-1.641,3.066-3.588,6-6.694,6.981a13.016,13.016,0,0,0,1.342.7c2.932-1.363,4.836-4.329,6.393-7.252q.924.36,1.826.654a3.855,3.855,0,0,0,.419,4.149,5.83,5.83,0,0,0,3.7,1.723A13.731,13.731,0,0,0,789.961,116c-2.03-.071-3.544-.557-4.3-1.444a2.871,2.871,0,0,1-.2-3.095,23.219,23.219,0,0,0,6.254.975,14.174,14.174,0,0,0,1.425-.07,13.245,13.245,0,0,0,.645-1.218,18.823,18.823,0,0,1-7.8-.713C787.157,108.663,789.025,108.238,791.144,107.757Z" transform="translate(-768.224 -92.174)" fill="#3f3f3f"/>
          </g>
        </g>
      </g>
    </g>
  </g>
</svg>
