<svg xmlns="http://www.w3.org/2000/svg" width="185.501" height="162.496" viewBox="0 0 185.501 162.496">
  <g id="Grupo_118273" data-name="Grupo 118273" transform="translate(-1009.083 -5972.311)">
    <rect id="Rectángulo_37031" data-name="Rectángulo 37031" width="120" height="120" rx="60" transform="translate(1045 5972.311)" fill="#fe502d"/>
    <g id="Grupo_118248" data-name="Grupo 118248" transform="translate(640.864 5830.817)">
      <g id="Grupo_118247" data-name="Grupo 118247" transform="translate(368.219 157.527)">
        <path id="Trazado_180765" data-name="Trazado 180765" d="M1002.2,889.743s3.749-40.949-34.652-40.949c-41.487,0-17.27-23.879-44.695-30.781-24.206-6.091-39.668,20.283-29.594,36.855,7.251,11.928-22.347,18.538-18.808,35.121Z" transform="translate(-837.692 -769.062)" fill="#fcecdb"/>
        <path id="Trazado_180766" data-name="Trazado 180766" d="M1996.581,639.967c0,5.855-4.247,9.554-9.881,11.792a35.148,35.148,0,0,1-4.039,1.311,53.551,53.551,0,0,1-9.132,1.5c-1.781.145-3.506.209-5.107.209a22.716,22.716,0,0,1-8.985-1.709c-9.168-3.906-12.868-13.866-12.868-23.044,0-11.738,10.63-15.174,21.854-16.434C1991.143,611.04,1996.581,628.229,1996.581,639.967Z" transform="translate(-1831.971 -580.128)" fill="#fcecdb"/>
        <path id="Trazado_180767" data-name="Trazado 180767" d="M1272.247,199.307a26.606,26.606,0,0,1-3.624-.465,46.423,46.423,0,0,0-9.045-.787c-11.841.017-20.786,3.121-22.281-8.786-1.525-12.145,13.164-26.9,23.9-30.827,12.612-4.61,23.84,9.111,26.49,21.088C1290.112,190.489,1284.637,200.009,1272.247,199.307Z" transform="translate(-1174.272 -157.527)" fill="#fcecdb"/>
        <path id="Trazado_180768" data-name="Trazado 180768" d="M489.3,1077.256c0,8.512-7.55,13.115-16.756,14.118l-.185.021q-.855.089-1.727.136h0q-1.013.055-2.043.055h-.121a30.019,30.019,0,0,1-3.536-.217c-13.133-1.6-19.923-11.748-19.923-20.661,0-9.706,12.751-16.6,23.58-14.27C479.243,1058.729,489.3,1067.55,489.3,1077.256Z" transform="translate(-439.814 -990.522)" fill="#fcecdb"/>
        <path id="Trazado_180769" data-name="Trazado 180769" d="M432.731,360.266c0,11.483-10.3,17.633-22.763,18.881-1.594.16-3.223.239-4.871.239q-.465,0-.924-.01h-.044q-.651-.015-1.289-.05a37.81,37.81,0,0,1-5.052-.607,34.045,34.045,0,0,1-4.028-1.021q-.545-.175-1.077-.366c-12.579-4.526-19.05-15.754-19.05-25.8,0-12.951,17.013-22.153,31.463-19.041C419.306,335.546,432.731,347.315,432.731,360.266Z" transform="translate(-373.634 -319.175)" fill="#fcecdb"/>
        <g id="Grupo_118227" data-name="Grupo 118227" transform="translate(69.613 59.167)">
          <path id="Trazado_180770" data-name="Trazado 180770" d="M1506.766,971.948c-.194-.351-2.424-4.071-8.4-1.3,0,0,3.065-1.118,4.208-.1,0,0-2.763-.574-4.11.742s-.868,4.6-.41,5.529,2.855,3.456,4,3.194a3.481,3.481,0,0,0,1.233-.622,15.525,15.525,0,0,0-.076,1.809c.091,6,4.891,9.484,6.614,7.959,1.1-.978,2.565,1.013,2.565,1.013l7.3-16.278S1510.386,966.792,1506.766,971.948Z" transform="translate(-1485.303 -969.63)" fill="#2c3a64"/>
          <path id="Trazado_180771" data-name="Trazado 180771" d="M1607.279,1232.871a16.763,16.763,0,0,1-5.861,2.494c-9.034,2.087-12.5-5.548-13.8-10.79a7.76,7.76,0,0,1,3.061-.94c.653-.077,1.34-.128,1.908-.156,1.015-.777,2.526-3.957,2.86-8.895l.425.114,7.12,1.949s-.326,2.264-.486,4.4c-.124,1.674-.143,3.274.174,3.665.556.121.889.2.889.2a.018.018,0,0,0,0,.007A45.849,45.849,0,0,1,1607.279,1232.871Z" transform="translate(-1568.787 -1196.738)" fill="#ffb27d"/>
          <path id="Trazado_180772" data-name="Trazado 180772" d="M1708.041,1218.119s-.328,2.261-.486,4.4c-4.034-.4-5.906-4.244-6.635-6.351Z" transform="translate(-1673.832 -1198.208)" fill="#ed985f"/>
          <path id="Trazado_180773" data-name="Trazado 180773" d="M1674.46,1058.427s-9.312,2.289-10.648-3.532-3.438-9.446,2.451-11.154,7.558.247,8.477,2.082S1676.848,1057.682,1674.46,1058.427Z" transform="translate(-1638.049 -1037.733)" fill="#ffb27d"/>
          <path id="Trazado_180774" data-name="Trazado 180774" d="M1646.032,1026.23c-1.845-1.421-2.849-.788-3.341-.121a6.7,6.7,0,0,0-8.094,3.263,11.41,11.41,0,0,1-2.137,7.4s1.944.663,5.641-1.244a6.847,6.847,0,0,0,2.68-2.922,22.369,22.369,0,0,1-2.706,5.441c4.2-3.24,4.59-10.2,4.62-10.929a7.511,7.511,0,0,1,2.659,2.251c.8,1.376,1.711,4.381,2.577,4.074C1647.931,1033.445,1648.8,1028.361,1646.032,1026.23Z" transform="translate(-1610.359 -1021.313)" fill="#2c3a64"/>
          <path id="Trazado_180775" data-name="Trazado 180775" d="M1533.3,1333.283a18.448,18.448,0,0,0-4.794-1.583,3.988,3.988,0,0,1-3.8,2.364c-2.717-.05-5.4-3.055-5.666-3.354-3.113-.1-5.4,0-5.4,0s-6.555,10.258-5.744,12.634a41.842,41.842,0,0,1,1.284,4.617,47.19,47.19,0,0,1,.654,15.947c-.15,1.1-.286,1.723-.286,1.723l20.648.479s1.711-6.09,2.979-11.286l.113-.465c.86,1.772,3.3,4.436,4.4,4.645.066.013.376.02.822.023,1.653.013,4.852.035,4.852.035C1543.984,1354.166,1535.987,1334.448,1533.3,1333.283Z" transform="translate(-1494.81 -1304.362)" fill="#f99746"/>
          <path id="Trazado_180776" data-name="Trazado 180776" d="M1527.059,1582.4a47.183,47.183,0,0,0-.654-15.947c.006-.081.009-.124.009-.124s5.649,5.4,6.625,11.039C1533.705,1581.224,1529.639,1582.228,1527.059,1582.4Z" transform="translate(-1512.031 -1522.86)" fill="#ed7d2b"/>
          <path id="Trazado_180777" data-name="Trazado 180777" d="M1360.156,1357.781a7.543,7.543,0,0,0-3.006-2.517c-1.015-.234-4.366.537-4.366.537h0a87.261,87.261,0,0,1-12.375-2.633c-.978-.284-1.982-.595-3-.936l8.459-7.627,7.482-14.989s-6.344-.5-7.951.457c-5.778,3.444-16.484,23.544-16.281,27.707,0,0,2.712.15,7.665.212,3.806.049,8.936.047,15.175-.113a12.807,12.807,0,0,0,1.406-.1Z" transform="translate(-1329.114 -1303.268)" fill="#ffb27d"/>
          <path id="Trazado_180778" data-name="Trazado 180778" d="M1345.866,1344.605l-7.461,7.717c.735.278,1.5.676,2,.846a8.632,8.632,0,0,1-3.626,4.826c-4.953-.062-7.665-.212-7.665-.212-.2-4.163,10.5-24.264,16.281-27.707,1.606-.957,7.951-.457,7.951-.457Z" transform="translate(-1329.114 -1303.268)" fill="#f99746"/>
          <path id="Trazado_180779" data-name="Trazado 180779" d="M1867.355,1591.871c-.446,0-5.607-.047-5.673-.059-1.1-.209-3.544-2.874-4.4-4.645a16.462,16.462,0,0,1,.562-2.42,21.041,21.041,0,0,1,1.455-2.959C1862.262,1581.341,1867.363,1589.054,1867.355,1591.871Z" transform="translate(-1818.796 -1537.171)" fill="#ed7d2b"/>
          <path id="Trazado_180780" data-name="Trazado 180780" d="M1853.95,1255.689a175.572,175.572,0,0,0-4.823-23.541h-.017c-.162-.626-1.444-5.521-1.98-6.056a18.016,18.016,0,0,0-4.113-1.9.656.656,0,0,0,.228.619,5.125,5.125,0,0,0,.477.342l-.715.385a.883.883,0,0,0,.669.176,5.118,5.118,0,0,0,.67-.166c.148.091.294.178.427.256a2.612,2.612,0,0,1,.515.578c.027.114.124.615.185.931a1.517,1.517,0,0,1-.268-.294,1.033,1.033,0,0,0-.885-.4,4.8,4.8,0,0,1,.9,1.7,2.644,2.644,0,0,0,.685,1.549h0a3.78,3.78,0,0,1,.75.98,5.845,5.845,0,0,1,.3,1.514h0c.123,1.5.544,7.033.429,11.107-.155,5.482-.674,10.4-.058,13.446a5.649,5.649,0,0,0,.732,1.971c1.344,2.062,6.068,1.46,6.068,1.46A21.072,21.072,0,0,0,1853.95,1255.689Z" transform="translate(-1805.567 -1205.643)" fill="#ffb27d"/>
          <path id="Trazado_180781" data-name="Trazado 180781" d="M1909.1,1661.2s-4.724.6-6.068-1.46a5.65,5.65,0,0,1-.732-1.971,8.315,8.315,0,0,0,6.623-1.223A21.08,21.08,0,0,1,1909.1,1661.2Z" transform="translate(-1860.542 -1606.5)" fill="#f99746"/>
        </g>
        <g id="Grupo_118228" data-name="Grupo 118228" transform="translate(15.065 17.112)">
          <path id="Trazado_180782" data-name="Trazado 180782" d="M674.805,555.542c-.685-.066-1.332-.107-1.942-.127a1.311,1.311,0,0,1-1.187-.853,13.1,13.1,0,0,1-.707-3.195l-.239.075-4.028,1.252s.231,1.285.364,2.5c.016.149.031.3.044.447a.4.4,0,0,1-.29.422,7.368,7.368,0,0,0-2.727,1.3,72.033,72.033,0,0,0,3.168,15.072c.253.775-3.607,5.412-3.607,5.412.94,3.011,13.759-1.293,13.759-1.293s-.876-2.664.267-9.173C679.015,559.793,674.805,555.542,674.805,555.542Z" transform="translate(-657.59 -539.785)" fill="#ffb27d"/>
          <path id="Trazado_180783" data-name="Trazado 180783" d="M811.953,608.665s4.035.491,6.321,11.984c0,0,.621,3.332-.621,3.728S809.98,617.3,811.953,608.665Z" transform="translate(-794.738 -592.909)" fill="#ffb27d"/>
          <path id="Trazado_180784" data-name="Trazado 180784" d="M666.2,435.869s2.59.923,1.171,3.821c0,0,2.117-.032,2.563-.7a1.714,1.714,0,0,1-.12.413,5.981,5.981,0,0,0,2.609-1.39c.624-.861-2.969-10.751-8.077-7.961,0,0-4.727,1.063-2.663,6.278s.32,5.748.32,5.748a2.6,2.6,0,0,0,.792.019s.3-.235.312-.445a1.271,1.271,0,0,1-.036.439,5.192,5.192,0,0,0,2.661-1.4C666.458,439.7,666.808,436.89,666.2,435.869Z" transform="translate(-655.28 -426.849)" fill="#233862"/>
          <path id="Trazado_180785" data-name="Trazado 180785" d="M705.492,551.567s.282,1.8.414,3.018a7.4,7.4,0,0,0,2.742-4.433Z" transform="translate(-696.379 -538.659)" fill="#ed985f"/>
          <path id="Trazado_180786" data-name="Trazado 180786" d="M650.486,438.637a12.167,12.167,0,0,0,1.12-3.7c.083-1.186.773-6.116-3.5-5.034a16.559,16.559,0,0,0-4.086,1.862c-.874.736-2.086,2.252-.167,5.855l.53,1.23Z" transform="translate(-638.289 -427.033)" fill="#233862"/>
          <path id="Trazado_180787" data-name="Trazado 180787" d="M649.18,469.731s5.265-1.514,4.271-4.779-.983-5.658-4.387-4.829-3.674,2.272-3.608,3.442S647.785,470.04,649.18,469.731Z" transform="translate(-640.71 -455.036)" fill="#ffb27d"/>
          <path id="Trazado_180788" data-name="Trazado 180788" d="M639.8,469.087a4.837,4.837,0,0,0-.817,2.093c-.007.911.4,2.657-.118,2.751,0,0-1.876-2.272-1.111-4.115C638.568,467.862,639.8,469.087,639.8,469.087Z" transform="translate(-633.409 -463.149)" fill="#233862"/>
          <path id="Trazado_180789" data-name="Trazado 180789" d="M861.055,711.062s.014-4.191-.761-4.694S859.267,711.165,861.055,711.062Z" transform="translate(-839.356 -683.463)" fill="#f8a871"/>
          <path id="Trazado_180790" data-name="Trazado 180790" d="M686.719,607.749s3.421,4.759,6.555,4.5c0,0,1.219-3.489.145-5.41,0,0,.8.026,1.079.044.233.015.955.089.955.089l2.971,5.081a6.144,6.144,0,0,1,.786,3.91l-1.148,8.641s-3.106,2.033-10.153-.734l-1.984-6.834Z" transform="translate(-678.238 -591.221)" fill="#2b478b"/>
          <path id="Trazado_180791" data-name="Trazado 180791" d="M656.06,638.557a.576.576,0,0,1-.037.133c-.006.018-.013.038-.02.059-.015.043-.034.093-.055.148a.194.194,0,0,1-.007.018c-.613,1.611-3.494,8.154-6.4,9.947a1.9,1.9,0,0,1-.489.321l-.06.025-.066.025-.028.01a1.507,1.507,0,0,1-.468.074c-.039,0-.08,0-.121,0-1.5-.112-7.933-9.422-8.053-12.252-.078-1.807,2.142-3.324,2.142-3.324,2.264,1.19,4.458,4.932,6,8.165.318.669.608,1.317.865,1.916a47.879,47.879,0,0,0,5.256-6.042Z" transform="translate(-635.896 -616.154)" fill="#ffb27d"/>
          <path id="Trazado_180792" data-name="Trazado 180792" d="M651.229,866.889c-.171-.588-.285-.923-.285-.923s-8.724.463-10.922-2.446v0h0c-.026.024-.415.391-.984,1.015l-.005.006a26.82,26.82,0,0,0-2.626,3.382,19.388,19.388,0,0,0-1.3,2.315q.531.192,1.077.366a34.048,34.048,0,0,0,4.028,1.021,37.793,37.793,0,0,0,5.052.607c.425.023,1.946.061,2.256.061,1.648,0,3.277-.079,4.871-.239A43.731,43.731,0,0,0,651.229,866.889Z" transform="translate(-631.12 -829.194)" fill="#f99746"/>
          <path id="Trazado_180793" data-name="Trazado 180793" d="M709.749,738.589c-1.444,2.012-4.16-1.9-4.254-2.041l.7-.593a10.731,10.731,0,0,1,2.69.718C709.2,737.342,709.492,737.99,709.749,738.589Z" transform="translate(-696.382 -710.925)" fill="#ed985f"/>
          <path id="Trazado_180794" data-name="Trazado 180794" d="M679.118,563.252a3.092,3.092,0,0,1,1.825-.645.968.968,0,0,1-.73.795A1.025,1.025,0,0,1,679.118,563.252Z" transform="translate(-671.927 -550.207)" fill="#ffe8dc"/>
          <path id="Trazado_180795" data-name="Trazado 180795" d="M666.206,430.876l-2.966,2.72s2.247,3.7,5.416,4.132a12.7,12.7,0,0,1-3-2.03,4.664,4.664,0,0,0,2.67,1.01c.708.034,1.752,2.884-.224,3.6,0,0,2.63.277,3.558-.7a1.694,1.694,0,0,1-.12.413,5.98,5.98,0,0,0,2.609-1.391C674.773,437.769,671.313,428.086,666.206,430.876Z" transform="translate(-657.206 -427.606)" fill="#233862"/>
          <path id="Trazado_180796" data-name="Trazado 180796" d="M638.517,619.271s-3.568,1.222-4.352,2.726.561,5.38,2.176,7.328c0,0,4-.042,5.879-2.951C642.22,626.374,639.247,619.92,638.517,619.271Z" transform="translate(-630.036 -602.742)" fill="#2b478b"/>
          <path id="Trazado_180797" data-name="Trazado 180797" d="M816.7,608.665s2.39.152,3.946,3.541c0,0,.088,2.344-1.748,2.4S816.7,608.665,816.7,608.665Z" transform="translate(-799.487 -592.909)" fill="#2b478b"/>
          <path id="Trazado_180798" data-name="Trazado 180798" d="M649.788,684.186c-1.672-.461-3.255-.916-4.682-1.338-4.059-1.2-6.853-2.128-6.853-2.128l-.009.012.009-.011s-.984-.933-1.043-1.378c-.053-.4-1.091-.61-1.792-.819a.115.115,0,0,0-.137.158,1.26,1.26,0,0,0,.642.529c.5.164-.5.487-1.279.062-.482-.263-1.32-1.141-1.581-.818a3.34,3.34,0,0,0,.7,2.711c.443.472,2.642.48,3.445.932h0c6.4,2.965,11.034,8.318,14.845,6.919C652.056,689.017,652.888,685.04,649.788,684.186Z" transform="translate(-629.141 -657.549)" fill="#ffb27d"/>
          <path id="Trazado_180799" data-name="Trazado 180799" d="M711.9,712.582l-1.438,1.334s-5.629-2.891-5.446-3.423a.085.085,0,0,1,.031-.04S707.844,711.382,711.9,712.582Z" transform="translate(-695.937 -687.282)" fill="#f8a871"/>
          <path id="Trazado_180800" data-name="Trazado 180800" d="M836.024,643.127a4.408,4.408,0,0,0,.333-1.7c-.137-.41.876-.994,1.4-1.491a.041.041,0,0,1,.069.027.854.854,0,0,1-.282.674c-.374.365.137.445.481.017s-.376-1.3,0-1.127,1.571,1.187,1.445,1.821-1.385,1.8-1.909,2.555Z" transform="translate(-817.401 -621.505)" fill="#ffb27d"/>
          <path id="Trazado_180801" data-name="Trazado 180801" d="M688.985,858.786s4.28,4.144,12.2,2.35l-.42-1.534s-6.805,1.864-10.5-2.29Z" transform="translate(-681.075 -823.44)" fill="#ed7d2b"/>
          <path id="Trazado_180802" data-name="Trazado 180802" d="M861.112,515.935s1.959-1.568,3.08-.234-3.843,3.214-3.843,3.214-2.18-3.987-.973-4.328S861.112,515.935,861.112,515.935Z" transform="translate(-838.714 -505.643)" fill="#f99746"/>
          <path id="Trazado_180803" data-name="Trazado 180803" d="M581.746,393.71s.26-1.452,1.272-1.3-.456,2.91-.456,2.91-2.509-.92-2.106-1.538S581.746,393.71,581.746,393.71Z" transform="translate(-580.412 -392.402)" fill="#f99746"/>
          <path id="Trazado_180804" data-name="Trazado 180804" d="M587.442,566.036s-.363-1.632.763-1.912.8,3.242.8,3.242-3.025.135-2.875-.687S587.442,566.036,587.442,566.036Z" transform="translate(-585.705 -551.599)" fill="#f99746"/>
          <path id="Trazado_180805" data-name="Trazado 180805" d="M758.9,699.9a.581.581,0,0,1-.037.133c-.006.018-.013.038-.02.059-.015.043-.034.093-.055.148,0,.006,0,.012-.007.018-.645,1.711-3.823,8.971-6.885,10.268l-.06.025-.066.025-.028.01a1.505,1.505,0,0,1-.468.074C750.172,709.738,758.9,699.9,758.9,699.9Z" transform="translate(-738.733 -677.494)" fill="#ed985f"/>
        </g>
        <g id="Grupo_118232" data-name="Grupo 118232" transform="translate(11.193 67.554)">
          <path id="Trazado_180806" data-name="Trazado 180806" d="M617.36,1271.1a3.343,3.343,0,0,1-.63-1.861v0c.014-.067.032-.2.055-.375.085-.66.237-1.974.49-3.131.033-.154.068-.3.106-.45h0c.023-.094.048-.185.074-.275a3.558,3.558,0,0,0,.127-.7,4.474,4.474,0,0,0-1.97-3.74,2.425,2.425,0,0,0-.9-.4,5.751,5.751,0,0,1-.78-1.762c-.093-.285-.178-.562-.248-.8l-.006-.023c-.077-.261-.135-.468-.163-.57h0l-.019-.07-.065.041-.267.169h0l-.657.416-1.019.646a.028.028,0,0,0,0,.007,3.27,3.27,0,0,1,.071.321c.01.059.018.12.025.181.023.176.036.359.044.541v0c.006.135.008.269.008.4a.5.5,0,0,1-.524.5H611.1a12.925,12.925,0,0,0-1.526,0c-.619.063-1.289.157-2.031.224l-.015,0a16.812,16.812,0,0,1-2.822.032l.135-6.247s.643-.633.681-.973.062-1.792-.21-1.942c-.122-.067-.152,1.047-.243,1.106-.275.179-1.337.27-1.234,1.365h0c-.365,1.275-2.144,7.632-1.4,8.036h0a6.744,6.744,0,0,0,.656.406l.148.078.086.044c.082.042.167.082.251.121.047.023.095.044.143.065.066.03.133.058.2.086l.127.052c.1.039.2.076.3.112l.084.031.029.011.1.033h0l.173.058.174.055c.116.036.232.071.35.1.044.013.087.025.131.036l.072.019q.084.023.168.044.19.048.382.092l.13.029.017,0,.168.036.178.036q.211.043.421.079l.364.061.222.033.2.029.192.025.28.034h0c.041.005.081.01.121.014l.16.018.107.011c-.03.079-.056.157-.078.237s-.041.154-.055.231a.011.011,0,0,0,0,0,2.1,2.1,0,0,0-.029.618c.205,1.907,1.723,4.348,2.181,5.946a3.4,3.4,0,0,1,.118.563,7.819,7.819,0,0,1,.015,1.194,30.018,30.018,0,0,0,3.536.217h.121q1.029,0,2.043-.055h0q.872-.048,1.727-.136C617.872,1271.976,617.6,1271.521,617.36,1271.1Z" transform="translate(-596.788 -1239.12)" fill="#ffb27d"/>
          <path id="Trazado_180807" data-name="Trazado 180807" d="M704.088,1258.03a1.525,1.525,0,0,1,.71,2.317s1.284-.02,1.554-.425a1.038,1.038,0,0,1-.073.25,3.625,3.625,0,0,0,1.582-.843c.378-.522-1.8-6.518-4.9-4.827,0,0-2.866.645-1.615,3.807s.194,3.485.194,3.485a1.573,1.573,0,0,0,.48.012s.183-.143.189-.27a.772.772,0,0,1-.022.266,3.148,3.148,0,0,0,1.613-.846A3.738,3.738,0,0,0,704.088,1258.03Z" transform="translate(-688.373 -1241.857)" fill="#233862"/>
          <path id="Trazado_180808" data-name="Trazado 180808" d="M727.91,1330s.171,1.091.251,1.83c1.478-.473,1.615-1.807,1.842-2.545Z" transform="translate(-713.292 -1311.47)" fill="#ed985f"/>
          <path id="Trazado_180809" data-name="Trazado 180809" d="M694.559,1259.709a7.376,7.376,0,0,0,.679-2.24c.05-.719.469-3.708-2.119-3.052a10.038,10.038,0,0,0-2.477,1.129c-.53.446-1.265,1.365-.1,3.55l.321.745Z" transform="translate(-678.07 -1241.969)" fill="#233862"/>
          <path id="Trazado_180810" data-name="Trazado 180810" d="M693.767,1278.561s3.192-.918,2.59-2.9-.6-3.43-2.66-2.928-2.228,1.378-2.187,2.087S692.921,1278.749,693.767,1278.561Z" transform="translate(-679.539 -1258.947)" fill="#ffb27d"/>
          <path id="Trazado_180811" data-name="Trazado 180811" d="M688.646,1275.655s-1.055,1.05-1.06,1.6.241,1.611-.072,1.668c0,0-1.137-1.377-.674-2.495A1.469,1.469,0,0,1,688.646,1275.655Z" transform="translate(-675.112 -1261.683)" fill="#233862"/>
          <path id="Trazado_180812" data-name="Trazado 180812" d="M705.677,1254.5s-.031.007-.084.023c.1.217-1.634,1.752-1.634,1.752s1.362,2.241,3.284,2.505a7.711,7.711,0,0,1-1.82-1.231,2.83,2.83,0,0,0,1.62.613c.429.021,1.062,1.748-.136,2.182,0,0,1.595.168,2.158-.425a1.03,1.03,0,0,1-.073.25,3.626,3.626,0,0,0,1.582-.843C710.952,1258.807,708.774,1252.81,705.677,1254.5Z" transform="translate(-691.086 -1241.855)" fill="#233862"/>
          <path id="Trazado_180813" data-name="Trazado 180813" d="M611.747,1397.457a16.346,16.346,0,0,1-6.318-1.519l-.657-.406h0s0,0,0,0c.037.015.233.092.542.195,1.2.4,4.117,1.211,5.938.3C612.546,1395.38,612.26,1396.4,611.747,1397.457Z" transform="translate(-599.124 -1372.888)" fill="#ed985f"/>
          <path id="Trazado_180814" data-name="Trazado 180814" d="M756.237,1496.476q-.855.088-1.727.136h0q-1.013.055-2.043.055h-.121a19.169,19.169,0,0,1-.933-2.227c-.146-.421-.219-.681-.219-.681a7.858,7.858,0,0,1,3.176-.856q.256-.012.507-.007c-.023.178-.041.308-.055.375v0a3.343,3.343,0,0,0,.63,1.861C755.687,1495.558,755.963,1496.013,756.237,1496.476Z" transform="translate(-734.879 -1463.157)" fill="#ed985f"/>
          <path id="Trazado_180815" data-name="Trazado 180815" d="M684.693,1374.212a6.741,6.741,0,0,0-3.006-2.412c-.661,2.107-3.5,3.27-3.5,3.27a4.4,4.4,0,0,1-.119-3.271h0a5.38,5.38,0,0,0-2.172-.039c-1.093.235-1.4.264-1.4.264s-.18,2.772.983,3.482a2.731,2.731,0,0,0-.112.393c-.308,1.582,1.547,6.377,1.547,6.377a13.157,13.157,0,0,0,6.788-1.4,23.585,23.585,0,0,0,1.192-4.751A3.476,3.476,0,0,0,684.693,1374.212Z" transform="translate(-663.759 -1350.762)" fill="#2b478b"/>
          <g id="Grupo_118229" data-name="Grupo 118229" transform="translate(10.137)">
            <path id="Trazado_180816" data-name="Trazado 180816" d="M666.406,1098.2h0l3.284-9.442,2.071,2.609,3.444-6.619h0l-3.3,10.026-2.19-2.687Z" transform="translate(-666.406 -1084.747)" fill="#f99746"/>
          </g>
          <g id="Grupo_118230" data-name="Grupo 118230" transform="translate(0 7.571)">
            <path id="Trazado_180817" data-name="Trazado 180817" d="M531.049,1198.219h0l-3.721-5.192,2.125-.12-2.188-4.236h0l4.021,5.414-2.21.154Z" transform="translate(-527.265 -1188.67)" fill="#f99746"/>
          </g>
          <g id="Grupo_118231" data-name="Grupo 118231" transform="translate(22.231 12.086)">
            <path id="Trazado_180818" data-name="Trazado 180818" d="M832.4,1256.938h0l3.94-5.028.712,2.006,3.452-3.288h0l-4.069,5.378-.768-2.078Z" transform="translate(-832.396 -1250.628)" fill="#f99746"/>
          </g>
          <path id="Trazado_180819" data-name="Trazado 180819" d="M793.569,1429.781a23.583,23.583,0,0,1-1.192,4.752c-1.506-.482-.027-4.989-.027-4.989A1.687,1.687,0,0,1,793.569,1429.781Z" transform="translate(-772.435 -1404.419)" fill="#2c3a64"/>
          <path id="Trazado_180820" data-name="Trazado 180820" d="M777.194,1383.876h0a20.612,20.612,0,0,0-4.947-7.638c-1.666-.349-2.155.757-2.551,2.368-.1.419,3.482,3.412,4.978,5.054h0l-2.07,3.256-.941,1.48q.872-.048,1.727-.136l.185-.02C775.283,1386.476,777.474,1384.114,777.194,1383.876Z" transform="translate(-752.032 -1354.94)" fill="#ffb27d"/>
          <path id="Trazado_180821" data-name="Trazado 180821" d="M761.895,1373.011a4.422,4.422,0,0,1,2.243.267,17.685,17.685,0,0,1,2.515,2.536s-1.114,2.694-3.155,2.46c0,0-3.14-3.156-2.385-3.914A2.308,2.308,0,0,0,761.895,1373.011Z" transform="translate(-743.967 -1351.973)" fill="#2b478b"/>
        </g>
        <path id="Trazado_180822" data-name="Trazado 180822" d="M1514.577,416.4s-3.792.55-4.93,1.847-1.788,4.3-.65,6.051S1514.577,416.4,1514.577,416.4Z" transform="translate(-1425.728 -397.54)" fill="#2b478b"/>
        <path id="Trazado_180823" data-name="Trazado 180823" d="M1606.986,348.908s-.508,2.165,1.5,6.35l-5.6,5.74-.437-5.325a16.488,16.488,0,0,0,.458-4.866Z" transform="translate(-1512.915 -334.965)" fill="#ed985f"/>
        <path id="Trazado_180824" data-name="Trazado 180824" d="M1561.779,213.7s2.981,1.042,1.37,4.38c0,0,2.431-.052,2.939-.822a1.96,1.96,0,0,1-.135.475s2.277-.622,2.987-1.614-3.482-12.326-9.33-9.088c0,0-5.422,1.253-3.016,7.228s.406,6.6.406,6.6a2.983,2.983,0,0,0,.91.017s.346-.272.355-.513a1.459,1.459,0,0,1-.038.5s2.223-.469,3.046-1.621S1562.481,214.87,1561.779,213.7Z" transform="translate(-1469.838 -202.888)" fill="#233862"/>
        <path id="Trazado_180825" data-name="Trazado 180825" d="M1608.446,349.738s.054,2.091.024,3.5c2.891-.527,3.476-3,4.083-4.329Z" transform="translate(-1518.482 -334.965)" fill="#db8952"/>
        <path id="Trazado_180826" data-name="Trazado 180826" d="M1545.844,217.656a13.966,13.966,0,0,0,1.685-4.1c.225-1.346,1.554-6.907-3.444-6.137a19.017,19.017,0,0,0-4.875,1.682c-1.079.745-2.631,2.346-.832,6.675l.471,1.464Z" transform="translate(-1452.755 -203.715)" fill="#233862"/>
        <path id="Trazado_180827" data-name="Trazado 180827" d="M1542.242,253.979s5.906-2.168,4.5-5.825-1.592-6.4-5.422-5.171-4.022,2.905-3.849,4.24S1540.669,254.449,1542.242,253.979Z" transform="translate(-1452.638 -236.481)" fill="#ed985f"/>
        <path id="Trazado_180828" data-name="Trazado 180828" d="M1531.49,252.344a5.555,5.555,0,0,0-.924,2.409c0,1.046.475,3.049-.117,3.16,0,0-2.17-2.6-1.3-4.718C1530.062,250.946,1531.49,252.344,1531.49,252.344Z" transform="translate(-1444.77 -245.038)" fill="#233862"/>
        <path id="Trazado_180829" data-name="Trazado 180829" d="M1541.151,637.67a26.6,26.6,0,0,1-3.624-.465,46.428,46.428,0,0,0-9.045-.787c.011-.155.019-.3.021-.443a22.212,22.212,0,0,0-1.281-5.636h14c-.465,1.644-.792,3.029-.918,3.386C1540.014,634.554,1540.472,636,1541.151,637.67Z" transform="translate(-1443.176 -595.89)" fill="#ffb27d"/>
        <path id="Trazado_180830" data-name="Trazado 180830" d="M1527.517,436.806s-.044.021-.129.055a22.4,22.4,0,0,1-12.291.866s-2.406-9.1-1.441-12c.957-2.874,5.433-7.282,5.5-7.35-.041.08-1.766,3.532-.576,6.171,0,0,5.068-2.81,6.825-6.606,0,0,3.929,3.1,5.4,6.143.072.148.138.3.2.443C1532.29,427.7,1527.517,436.806,1527.517,436.806Z" transform="translate(-1430.387 -398.973)" fill="#2b478b"/>
        <path id="Trazado_180831" data-name="Trazado 180831" d="M1694.141,514.982s-.044.021-.129.055c-1.828-2.478-.2-10.176-.2-10.176s1.919-2.258,3.62-2.6c.072.148.138.3.2.442C1698.914,505.88,1694.141,514.982,1694.141,514.982Z" transform="translate(-1597.012 -477.15)" fill="#2c3a64"/>
        <path id="Trazado_180832" data-name="Trazado 180832" d="M1503.754,308.5s-.006.436-.031,1.165h0q0,.1-.007.2c-.123,3.687-.63,13.635-2.531,14.863a.713.713,0,0,1-.5.118l-.083-.013a3.554,3.554,0,0,1-.684-.174l-.041-.015h0a3.684,3.684,0,0,1-2.24-4.487l4.457-12.042a2.029,2.029,0,0,0-.391-1.675,6.147,6.147,0,0,1-.491-2.142c-.118-.64-.015-.836.15-.562s.43,1.19.546,1.129-.3-3.013.289-2.991,1.55,3.319,1.534,4.325S1503.754,308.5,1503.754,308.5Z" transform="translate(-1415.609 -291.359)" fill="#ffb27d"/>
        <path id="Trazado_180833" data-name="Trazado 180833" d="M1528.821,411.577c-.123,3.687-.63,13.635-2.531,14.863a.713.713,0,0,1-.5.118l-.083-.013a3.559,3.559,0,0,1-.684-.174l-.041-.015h0C1523.1,424.476,1528.192,412.974,1528.821,411.577Z" transform="translate(-1440.714 -393.068)" fill="#ed985f"/>
        <path id="Trazado_180834" data-name="Trazado 180834" d="M1575.723,297.584c-.636-.083-3.355,4.089-5.747,7.342h0l-1.175-10.865-.068-.111h.011a6.357,6.357,0,0,1,.658-2.323c.458-.528.288-1.524.359-2.17s-.087-.838-.264-.556-.4,1.214-.559,1.158,0-3.034-.753-2.982-1.573,3.4-1.423,4.409c.127.852.229,1.909.258,2.215-.833,4.619-2.673,15.933-1,17.344a.626.626,0,0,0,.29.165c5.627.062,10.407-5.06,12.552-7.789.778-.99,1.21-1.665,1.21-1.665C1580.381,298.549,1578.839,297.995,1575.723,297.584Z" transform="translate(-1478.516 -277.639)" fill="#ffb27d"/>
        <path id="Trazado_180835" data-name="Trazado 180835" d="M1591.174,500.866c-2.145,2.729-6.926,7.851-12.552,7.789a1.785,1.785,0,0,0,.212-.016,9.219,9.219,0,0,0,3.9-2.144,57.427,57.427,0,0,0,6.516-6.459Z" transform="translate(-1490.831 -475.082)" fill="#ed985f"/>
        <path id="Trazado_180836" data-name="Trazado 180836" d="M1677.864,417.945s5.07.3,6.1,1.895c1.176,1.825,1.2,3.621.192,6.992,0,0-6.291-1.256-6.07-5.854Z" transform="translate(-1582.843 -398.972)" fill="#2b478b"/>
        <g id="Grupo_118233" data-name="Grupo 118233" transform="translate(79.837 14.97)">
          <path id="Trazado_180837" data-name="Trazado 180837" d="M1528.421,363.317c-.259.214-.318.591-.116.708.218.126.335-.157.4-.51A1.076,1.076,0,0,1,1529,363,1.987,1.987,0,0,0,1528.421,363.317Z" transform="translate(-1523.905 -363.002)" fill="#699dee"/>
          <path id="Trazado_180838" data-name="Trazado 180838" d="M1479.1,388.25c.206.145.347-.127.446-.473a1.076,1.076,0,0,1,.337-.487,1.986,1.986,0,0,0-.606.264C1479,387.746,1478.905,388.116,1479.1,388.25Z" transform="translate(-1478.3 -385.521)" fill="#699dee"/>
          <path id="Trazado_180839" data-name="Trazado 180839" d="M1507.37,421.366c-.186.28-.133.658.095.711.245.058.275-.247.238-.6a1.077,1.077,0,0,1,.132-.577A1.989,1.989,0,0,0,1507.37,421.366Z" transform="translate(-1504.503 -416.678)" fill="#699dee"/>
          <path id="Trazado_180840" data-name="Trazado 180840" d="M1469.589,431.78c-.2.27-.169.65.056.716.242.071.288-.232.271-.591a1.076,1.076,0,0,1,.163-.569A1.991,1.991,0,0,0,1469.589,431.78Z" transform="translate(-1469.456 -426.357)" fill="#699dee"/>
        </g>
        <g id="Grupo_118234" data-name="Grupo 118234" transform="translate(95.431 15.977)">
          <path id="Trazado_180841" data-name="Trazado 180841" d="M1684.135,377.079a2.068,2.068,0,0,0-.639-.255,1.121,1.121,0,0,1,.366.5c.113.356.268.635.478.478S1684.429,377.269,1684.135,377.079Z" transform="translate(-1683.496 -376.824)" fill="#699dee"/>
          <path id="Trazado_180842" data-name="Trazado 180842" d="M1737.015,396.246a2.068,2.068,0,0,0-.659-.2,1.118,1.118,0,0,1,.408.462c.144.345.323.609.518.434S1737.324,396.409,1737.015,396.246Z" transform="translate(-1732.505 -394.646)" fill="#699dee"/>
          <path id="Trazado_180843" data-name="Trazado 180843" d="M1715.592,433.712a1.119,1.119,0,0,1,.207.58c.005.374.073.685.32.6.229-.083.238-.48.011-.747A2.07,2.07,0,0,0,1715.592,433.712Z" transform="translate(-1713.254 -429.567)" fill="#699dee"/>
          <path id="Trazado_180844" data-name="Trazado 180844" d="M1755.848,440.373a2.068,2.068,0,0,0-.56-.4,1.119,1.119,0,0,1,.238.568c.025.373.11.68.352.577C1756.1,441.024,1756.089,440.628,1755.848,440.373Z" transform="translate(-1750.057 -435.373)" fill="#699dee"/>
        </g>
        <path id="Trazado_180845" data-name="Trazado 180845" d="M1560.383,207.029a29.393,29.393,0,0,0-3.571,2.933s.12.142.331.372c0,.048.006.076.006.076s2.605,4.23,6.248,4.708a14.587,14.587,0,0,1-3.46-2.311,5.358,5.358,0,0,0,3.074,1.142c.814.035,2.031,3.3-.233,4.135,0,0,3.022.3,4.082-.829a1.943,1.943,0,0,1-.135.475s2.277-.622,2.987-1.615S1566.23,203.791,1560.383,207.029Z" transform="translate(-1470.61 -202.885)" fill="#233862"/>
        <g id="Grupo_118238" data-name="Grupo 118238" transform="translate(128.575 35.964)">
          <path id="Trazado_180846" data-name="Trazado 180846" d="M2165.131,899.607a23.379,23.379,0,0,0-2.441,3.968l.651-7.974a4.528,4.528,0,0,0,.429-1.281c0-.4.532-3.569.263-3.666s-1.669,1.411-1.809,2.094a17.659,17.659,0,0,0,.1,2.332h0c-.3.706-3.937,9.332-4.427,13.219-.142,1.124-.02,1.852.522,1.877a4.083,4.083,0,0,0,.413,0,6.257,6.257,0,0,0,1.616-.342.044.044,0,0,1,.014,0,7.8,7.8,0,0,0,1.532-.685l.033-.019c.14-.077.217-.126.217-.126v-.006a14.036,14.036,0,0,0,3.751-3.65,17.893,17.893,0,0,0,1.488-2.386C2168.363,899.843,2166.127,899.227,2165.131,899.607Z" transform="translate(-2156.429 -873.201)" fill="#ffb27d"/>
          <path id="Trazado_180847" data-name="Trazado 180847" d="M2237.056,846.663s2.427.431,1.6,3.2c0,0,1.867-.343,2.162-1a1.54,1.54,0,0,1-.045.383s1.677-.763,2.1-1.616-4.221-9.064-8.323-5.839c0,0-4.021,1.642-1.422,5.946s1.136,5.034,1.136,5.034a2.327,2.327,0,0,0,.7-.1s.232-.253.21-.44a1.146,1.146,0,0,1,.034.394A4.655,4.655,0,0,0,2237.36,851C2237.851,850.009,2237.743,847.475,2237.056,846.663Z" transform="translate(-2225.419 -827.213)" fill="#233862"/>
          <path id="Trazado_180848" data-name="Trazado 180848" d="M2287.856,947.386c.144,1.209.132,3.106-1.267,3.468a9.74,9.74,0,0,0-2.008.836c-.693.338-1.146.453-1.685-.324a4.771,4.771,0,0,1-.574-3.212l.185-.062a15.081,15.081,0,0,1-1-2.311l3.147-1.622.3-.152a11.8,11.8,0,0,0,3.615,2.831Z" transform="translate(-2271.082 -922.672)" fill="#ffb27d"/>
          <path id="Trazado_180849" data-name="Trazado 180849" d="M2285.146,953.213l-.565.416c-.693.338-1.146.453-1.685-.324a4.771,4.771,0,0,1-.574-3.212l.185-.062a15.08,15.08,0,0,1-1-2.311l3.147-1.622c.177.193.523.552,1,.989A9.594,9.594,0,0,1,2285.146,953.213Z" transform="translate(-2271.082 -924.61)" fill="#ed985f"/>
          <path id="Trazado_180850" data-name="Trazado 180850" d="M2224,848.855a10.9,10.9,0,0,0,.442-3.433c-.1-1.061-.224-5.521-3.837-3.931a14.85,14.85,0,0,0-3.335,2.253c-.663.78-1.51,2.3.721,5.2l.651,1.008Z" transform="translate(-2210.852 -827.31)" fill="#233862"/>
          <path id="Trazado_180851" data-name="Trazado 180851" d="M2226.615,878.685a9.4,9.4,0,0,1-1.334.819c-1.187.48-3.974-3.873-4.207-4.9s-.207-2.341,2.679-3.579c2.032-.872,2.806-.079,3.561,1.423.317.63.631,1.386,1.035,2.2C2229.2,876.354,2227.792,877.823,2226.615,878.685Z" transform="translate(-2214.969 -854.673)" fill="#ffb27d"/>
          <path id="Trazado_180852" data-name="Trazado 180852" d="M2267.6,901.236c.239-2.079-2.636-5.535-2.636-5.535s1.7-.3,3.123-.541c.317.63.631,1.386,1.034,2.2C2269.974,899.065,2268.779,900.374,2267.6,901.236Z" transform="translate(-2255.745 -877.383)" fill="#ed985f"/>
          <path id="Trazado_180853" data-name="Trazado 180853" d="M2214.589,887.177a4.337,4.337,0,0,0-.411,1.971c.129.806.746,2.29.3,2.45,0,0-2-1.73-1.593-3.473C2213.314,886.278,2214.589,887.177,2214.589,887.177Z" transform="translate(-2207.412 -869.779)" fill="#233862"/>
          <path id="Trazado_180854" data-name="Trazado 180854" d="M2231.038,866.181s.11.094.3.245l.014.058s2.535,2.934,5.4,2.848a11.388,11.388,0,0,1-2.955-1.349,4.181,4.181,0,0,0,2.511.5c.631-.075,1.977,2.289.337,3.216,0,0,2.366-.146,3.042-1.148a1.514,1.514,0,0,1-.045.383s1.677-.763,2.1-1.617S2235.319,861.161,2231.038,866.181Z" transform="translate(-2224.29 -848.895)" fill="#233862"/>
          <path id="Trazado_180855" data-name="Trazado 180855" d="M2178.589,1080.025a14.044,14.044,0,0,1-3.752,3.651v.006s-.078.049-.217.126l-.033.019a7.8,7.8,0,0,1-1.532.685.038.038,0,0,0-.014,0,6.259,6.259,0,0,1-1.616.342,4.386,4.386,0,0,0,1.35-.507,8.574,8.574,0,0,0,2.159-1.84,22.525,22.525,0,0,0,2.354-3.449Z" transform="translate(-2169.018 -1047.887)" fill="#ed985f"/>
          <path id="Trazado_180856" data-name="Trazado 180856" d="M2246.214,971.275s0,0,0,0q-.2-.38-.4-.721a5.518,5.518,0,0,0-1.745-2.031l0,0h0a2.939,2.939,0,0,0-1.624-.1h0a18.626,18.626,0,0,0-2.425.522h0a14.709,14.709,0,0,1-1.439,3.371,3.585,3.585,0,0,1-.828.946,1.246,1.246,0,0,1-.694.272,2.46,2.46,0,0,1-1.536-.415,2,2,0,0,1-.784-2.015v0l.1-.42v0h0l0-.007h0c-.082.021-2.883.754-3.411,1.518a22.014,22.014,0,0,0-1.328,2.56s1.224,3.331,3.2,3.8c0,0,0,.007,0,.01a8.75,8.75,0,0,0,1.878,3.674c.385.513.8,1.021,1.224,1.5a53.554,53.554,0,0,0,9.131-1.5,35.169,35.169,0,0,0,4.039-1.311A48.25,48.25,0,0,0,2246.214,971.275Z" transform="translate(-2223.42 -945.253)" fill="#2b478b"/>
          <path id="Trazado_180857" data-name="Trazado 180857" d="M2294.3,880.428c-.416.167-2.039,3.442-3.562,6.194l-3.07-9.908a7.476,7.476,0,0,0-.29-2.21c-.275-.423-1.29-1.332-1.67-1.226s.127.949.211,1.447.127.739.085.761-.312-.855-.436-.813.087,1.12.172,1.332.7.567.786.956c.059,2.57.5,17.857,2.679,17.151a.214.214,0,0,0,.048-.024c.135-.066.268-.133.4-.2l0,0,.006,0a15.1,15.1,0,0,0,7.114-8.624,9.09,9.09,0,0,0,.245-.878C2297.993,880.685,2295.432,879.97,2294.3,880.428Z" transform="translate(-2274.807 -857.088)" fill="#ffb27d"/>
          <g id="Grupo_118235" data-name="Grupo 118235" transform="translate(7.271)">
            <path id="Trazado_180858" data-name="Trazado 180858" d="M2241.917,659.964a.931.931,0,0,0-.7-.284.976.976,0,0,0-.708.284.972.972,0,0,0,.008,1.4.97.97,0,0,0,.7.292.935.935,0,0,0,.7-.284,1.025,1.025,0,0,0,0-1.4Zm1.667-8.036a3.364,3.364,0,0,0-2.25-.765,3.569,3.569,0,0,0-1.639.4,2.906,2.906,0,0,0-1.208,1.118,1.721,1.721,0,0,0-.265.889.807.807,0,0,0,.216.576.72.72,0,0,0,.549.229.833.833,0,0,0,.68-.4l.555-.751a1.614,1.614,0,0,1,2.021-.09,1.075,1.075,0,0,1,.383.882,1.291,1.291,0,0,1-.4,1.014,2.763,2.763,0,0,1-1,.486,1.828,1.828,0,0,0-.7.341.706.706,0,0,0-.174.521v1.39a1.079,1.079,0,0,0,.222.694.756.756,0,0,0,.626.278.773.773,0,0,0,.819-.639,6.661,6.661,0,0,0,.055-1.139,3.082,3.082,0,0,0,1.8-.98,2.8,2.8,0,0,0,.66-1.91A2.7,2.7,0,0,0,2243.583,651.929Z" transform="translate(-2238.221 -651.164)" fill="#f99746"/>
          </g>
          <g id="Grupo_118236" data-name="Grupo 118236" transform="translate(14.972 3.139)">
            <path id="Trazado_180859" data-name="Trazado 180859" d="M2345.323,700.587a.683.683,0,0,0-.391-.39.723.723,0,0,0-.562-.007.717.717,0,0,0-.39.95.712.712,0,0,0,.394.4.684.684,0,0,0,.552,0,.753.753,0,0,0,.4-.952Zm3.4-4.983a2.475,2.475,0,0,0-1.312-1.155,2.622,2.622,0,0,0-1.225-.2,2.145,2.145,0,0,0-1.136.417,1.272,1.272,0,0,0-.431.529.6.6,0,0,0-.017.452.53.53,0,0,0,.308.31.612.612,0,0,0,.575-.081l.589-.352a1.187,1.187,0,0,1,1.4.51.789.789,0,0,1,.01.707.948.948,0,0,1-.561.574,2.021,2.021,0,0,1-.816.047,1.357,1.357,0,0,0-.572.033.52.52,0,0,0-.265.3l-.393.943a.792.792,0,0,0-.046.534.554.554,0,0,0,.346.365.568.568,0,0,0,.737-.2,4.958,4.958,0,0,0,.36-.757,2.266,2.266,0,0,0,1.5-.156,2.058,2.058,0,0,0,.988-1.11A1.986,1.986,0,0,0,2348.728,695.6Z" transform="translate(-2343.919 -694.246)" fill="#f99746"/>
          </g>
          <g id="Grupo_118237" data-name="Grupo 118237" transform="translate(0 5.295)">
            <path id="Trazado_180860" data-name="Trazado 180860" d="M2144.179,729.553a.71.71,0,0,0-.477-.284.687.687,0,0,0-.532.146.719.719,0,0,0-.284.485.715.715,0,0,0,.632.809.713.713,0,0,0,.539-.146.685.685,0,0,0,.276-.478A.712.712,0,0,0,2144.179,729.553Zm-1.607-4.889a1.981,1.981,0,0,0-1.511-.82,2.472,2.472,0,0,0-1.653.567,2.614,2.614,0,0,0-.776.967,2.136,2.136,0,0,0-.2,1.194,1.277,1.277,0,0,0,.246.636.6.6,0,0,0,.384.239.531.531,0,0,0,.423-.113.616.616,0,0,0,.215-.541l-.013-.686a1.184,1.184,0,0,1,1.135-.96.791.791,0,0,1,.618.341.95.95,0,0,1,.221.771,2.028,2.028,0,0,1-.363.732,1.358,1.358,0,0,0-.256.513.521.521,0,0,0,.133.381l.624.809a.793.793,0,0,0,.442.3.552.552,0,0,0,.488-.12.568.568,0,0,0,.19-.74,4.884,4.884,0,0,0-.479-.688,2.266,2.266,0,0,0,.607-1.379A2.061,2.061,0,0,0,2142.571,724.664Z" transform="translate(-2138.415 -723.842)" fill="#f99746"/>
          </g>
          <path id="Trazado_180861" data-name="Trazado 180861" d="M2349.355,1037.805a15.1,15.1,0,0,1-7.114,8.624c2.535-1.421,4.815-8.514,4.815-8.514Z" transform="translate(-2327.392 -1009.636)" fill="#ed985f"/>
          <path id="Trazado_180862" data-name="Trazado 180862" d="M2373.6,967.614s2.627-.873,3.586,1.284-.1,5.772-.1,5.772-4.614-.253-5.328-3.615Z" transform="translate(-2354.762 -944.397)" fill="#2b478b"/>
        </g>
        <path id="Trazado_180863" data-name="Trazado 180863" d="M2146.422,1158.7a53.54,53.54,0,0,1-9.131,1.5c-1.781.145-3.507.209-5.108.209a22.715,22.715,0,0,1-8.985-1.709h23.224Z" transform="translate(-1995.732 -1085.763)" fill="#f99746"/>
        <g id="Grupo_118245" data-name="Grupo 118245" transform="translate(120.64 77.713)">
          <g id="Grupo_118240" data-name="Grupo 118240" transform="translate(27.271 24.294)">
            <path id="Trazado_180864" data-name="Trazado 180864" d="M2460.079,1566.934s-3.842-4.482-.237-7.328a10.222,10.222,0,0,1,4.78-1.465s-3.042,5.1-2.058,5.609,2.98-5.929,2.98-5.929,5.992-.581,7.919.346c0,0-5.122,4.192-4.043,4.441s6.612-3.865,6.612-3.865,5.577.949,5.28,4.351-2.219,4.452-3.064,4.362-5.785-1.976-5.893-1.284,2.866,2.954,4.949,3.059c0,0-3.931,4.336-6.545,3.085s-2.836-3.235-4.465-3.979-3.019-.742-2.347.017,3.621,1.5,4.552,3.144,1.767,2.759-.936,2.352-7.1-2.385-7.291-4.65Z" transform="translate(-2454.33 -1557.641)" fill="#82b378"/>
            <g id="Grupo_118239" data-name="Grupo 118239" transform="translate(0 5.519)">
              <path id="Trazado_180865" data-name="Trazado 180865" d="M2458.321,1633.414s-15.147-.584-18.492,3.748a10.953,10.953,0,0,1-3.016,4.233l-.355.967s2.625-2.767,3.564-2.935C2440.022,1639.427,2438.553,1634.061,2458.321,1633.414Z" transform="translate(-2434.08 -1633.388)" fill="#82b378"/>
              <path id="Trazado_180866" data-name="Trazado 180866" d="M2407.183,1738.427c-.131.143-.326.337-.6.594l-.015.014c-.09.084-.179.174-.264.27a9.01,9.01,0,0,0-1.381,2.24c-.075.164-.148.329-.216.494h-.886c.075-.171.153-.335.234-.494a9.587,9.587,0,0,1,2.5-3.1h0C2406.608,1738.412,2407.917,1737.62,2407.183,1738.427Z" transform="translate(-2403.818 -1730.439)" fill="#82b378"/>
            </g>
          </g>
          <g id="Grupo_118242" data-name="Grupo 118242" transform="translate(0 12.024)">
            <path id="Trazado_180867" data-name="Trazado 180867" d="M2051.914,1405.057s6.111-3.422,3.259-8.067c0,0-2.281-2.852-4.726-3.585,0,0,1.3,6.926,0,7.089s-.9-7.822-.9-7.822-6.437-3.1-8.963-2.852c0,0,3.993,6.763,2.689,6.6s-5.785-7.007-5.785-7.007-6.6-1.222-7.659,2.689.652,5.867,1.63,6.111,7.252.163,7.089.978-4.4,2.119-6.763,1.385c0,0,2.607,6.437,6.03,6.111s4.481-2.444,6.6-2.607,3.667.407,2.608.978-4.645.187-6.356,1.641-3.1,2.351.082,3,8.881.244,10.022-2.2Z" transform="translate(-2029.499 -1389.232)" fill="#a8d29f"/>
            <g id="Grupo_118241" data-name="Grupo 118241" transform="translate(3.349 4.092)">
              <path id="Trazado_180868" data-name="Trazado 180868" d="M2075.466,1445.4s17.111,5.541,19.066,11.733a13,13,0,0,0,1.629,5.948v1.222s-1.792-4.156-2.77-4.726C2093.392,1459.573,2097.221,1454.195,2075.466,1445.4Z" transform="translate(-2075.466 -1445.395)" fill="#82b378"/>
              <path id="Trazado_180869" data-name="Trazado 180869" d="M2350.638,1685.519c-.021.163-.045.327-.075.494h-.889c.01-.152.021-.318.029-.494a16.157,16.157,0,0,0-.641-6.038.215.215,0,0,0-.01-.023c-.06-.151-.125-.3-.2-.433,0,0,0-.007-.005-.01-.2-.393-.337-.684-.423-.9v0c-.49-1.2.643.214.694.277l0,0A11.439,11.439,0,0,1,2350.638,1685.519Z" transform="translate(-2328.427 -1660.716)" fill="#82b378"/>
            </g>
          </g>
          <g id="Grupo_118244" data-name="Grupo 118244" transform="translate(24.482)">
            <path id="Trazado_180870" data-name="Trazado 180870" d="M2370.83,1245.049s-8.056-4.511-4.3-10.633c0,0,3.007-3.759,6.229-4.726,0,0-1.719,9.129,0,9.344s1.181-10.311,1.181-10.311,8.485-4.082,11.815-3.759c0,0-5.263,8.915-3.544,8.7s7.626-9.237,7.626-9.237,8.7-1.611,10.1,3.544-.859,7.733-2.148,8.055-9.559.215-9.344,1.289,5.8,2.793,8.915,1.826c0,0-3.437,8.485-7.948,8.056s-5.907-3.222-8.7-3.437-4.833.537-3.437,1.289,6.122.246,8.378,2.164,4.081,3.1-.108,3.958-11.707.322-13.211-2.9Z" transform="translate(-2365.534 -1224.189)" fill="#a8d29f"/>
            <g id="Grupo_118243" data-name="Grupo 118243" transform="translate(1.041 5.394)">
              <path id="Trazado_180871" data-name="Trazado 180871" d="M2436.018,1298.222s-22.555,7.3-25.133,15.467a17.134,17.134,0,0,1-2.148,7.841v1.611s2.363-5.478,3.652-6.229C2412.389,1316.911,2407.341,1309.822,2436.018,1298.222Z" transform="translate(-2406.631 -1298.222)" fill="#82b378"/>
              <path id="Trazado_180872" data-name="Trazado 180872" d="M2381.932,1605.367a14.877,14.877,0,0,0-1.5,11.712l.895-.24s-.868-7.082.951-10.644S2381.932,1605.367,2381.932,1605.367Z" transform="translate(-2379.825 -1582.06)" fill="#82b378"/>
            </g>
          </g>
        </g>
        <g id="Grupo_118246" data-name="Grupo 118246" transform="translate(47.595 113.807)">
          <path id="Trazado_180873" data-name="Trazado 180873" d="M1115.405,1719.608h-81.579a6.921,6.921,0,0,0-6.921,6.921h95.421A6.921,6.921,0,0,0,1115.405,1719.608Z" transform="translate(-1026.905 -1719.608)" fill="#2c3a64"/>
          <path id="Trazado_180874" data-name="Trazado 180874" d="M1252.594,1719.608h-81.58a6.921,6.921,0,0,0-6.921,6.921h95.421A6.921,6.921,0,0,0,1252.594,1719.608Z" transform="translate(-1154.099 -1719.608)" fill="#2b478b"/>
        </g>
      </g>
    </g>
    <g id="Grupo_118249" data-name="Grupo 118249" transform="translate(931.083 5139.811)">
      <g id="Grupo_117240" data-name="Grupo 117240" transform="translate(263.5 994.997) rotate(180)">
        <path id="Trazado_100600" data-name="Trazado 100600" d="M713.6-210.305l2.423-2.423,8.456,8.456,2.423,2.423-2.423,2.423-8.456,8.456-2.423-2.423,8.456-8.456Z" transform="translate(-702.564 212.728)" fill="#2d54fe"/>
        <path id="Trazado_100601" data-name="Trazado 100601" d="M776.91-201.849l-8.456-8.456,2.423-2.423,8.456,8.456,2.423,2.423-2.423,2.423-8.456,8.456-2.423-2.423Z" transform="translate(-768.453 212.728)" fill="#2d54fe"/>
      </g>
      <g id="Grupo_117241" data-name="Grupo 117241" transform="translate(96.166 970.118) rotate(90)">
        <path id="Trazado_100600-2" data-name="Trazado 100600" d="M0,13.922l1.744,1.744L7.833,9.578,9.578,7.833,7.833,6.089,1.744,0,0,1.744,6.089,7.833Z" transform="translate(7.944)" fill="#fe502d"/>
        <path id="Trazado_100601-2" data-name="Trazado 100601" d="M6.089,7.833,0,13.922l1.744,1.744L7.833,9.578,9.578,7.833,7.833,6.089,1.744,0,0,1.744Z" fill="#fe502d"/>
      </g>
      <rect id="Rectángulo_36648" data-name="Rectángulo 36648" width="39" height="10" transform="translate(263.5 888) rotate(180)" fill="#ffca00"/>
      <rect id="Rectángulo_36650" data-name="Rectángulo 36650" width="39" height="10" transform="translate(143 851.239) rotate(180)" fill="#2d54fe"/>
    </g>
  </g>
</svg>
