<svg xmlns="http://www.w3.org/2000/svg" width="167" height="167" viewBox="0 0 167 167">
  <g id="Grupo_1009764" data-name="Grupo 1009764" transform="translate(-717 -9944)">
    <g id="Grupo_1009756" data-name="Grupo 1009756" transform="translate(717.537 9944.537)">
      <circle id="Elipse_1142" data-name="Elipse 1142" cx="83.5" cy="83.5" r="83.5" transform="translate(-0.537 -0.537)" fill="#d2e1f1"/>
    </g>
    <g id="Grupo_117896" data-name="Grupo 117896" transform="translate(766.486 9981.492)">
      <g id="Grupo_117888" data-name="Grupo 117888" transform="translate(9.103 18.711)">
        <path id="Trazado_180086" data-name="Trazado 180086" d="M1718.973,904.931a2.319,2.319,0,0,1-1.643-.681l-10.107-10.107a2.324,2.324,0,0,1,0-3.286l6.2-6.2a1.429,1.429,0,0,0,.317-1.559h0a27.491,27.491,0,0,1,44.414-30.563,27.491,27.491,0,0,1-29.732,45.094,1.416,1.416,0,0,0-1.521.334l-6.289,6.289A2.318,2.318,0,0,1,1718.973,904.931Zm-6.821-12.43,6.821,6.821,4.646-4.646a6.027,6.027,0,0,1,6.594-1.338,22.844,22.844,0,0,0,24.707-37.473,22.845,22.845,0,0,0-36.906,25.4,6.036,6.036,0,0,1-1.3,6.676Z" transform="translate(-1706.543 -844.853)" fill="#636363"/>
      </g>
      <g id="Grupo_117889" data-name="Grupo 117889" transform="translate(3.808 69.519)">
        <path id="Trazado_180087" data-name="Trazado 180087" d="M1708.791,953.049a2.316,2.316,0,0,1-1.643-.681l-9.705-9.705a2.323,2.323,0,0,1,3.286-3.286l9.705,9.706a2.323,2.323,0,0,1-1.643,3.966Z" transform="translate(-1696.762 -938.697)" fill="#636363"/>
      </g>
      <g id="Grupo_117890" data-name="Grupo 117890" transform="translate(0 74.944)">
        <path id="Trazado_180088" data-name="Trazado 180088" d="M1700.14,961.452a2.316,2.316,0,0,1-1.643-.68l-8.088-8.088a2.323,2.323,0,0,1,3.286-3.286l8.087,8.088a2.323,2.323,0,0,1-1.643,3.966Z" transform="translate(-1689.729 -948.718)" fill="#636363"/>
      </g>
      <g id="Grupo_117891" data-name="Grupo 117891" transform="translate(59.573 69.29)">
        <path id="Trazado_180089" data-name="Trazado 180089" d="M1810.174,951.009a2.316,2.316,0,0,1-1.643-.681l-8.088-8.088a2.323,2.323,0,0,1,3.286-3.285l8.088,8.088a2.323,2.323,0,0,1-1.643,3.966Z" transform="translate(-1799.763 -938.275)" fill="#636363"/>
      </g>
      <g id="Grupo_117892" data-name="Grupo 117892" transform="translate(5.222 14.939)">
        <path id="Trazado_180090" data-name="Trazado 180090" d="M1709.786,850.621a2.318,2.318,0,0,1-1.643-.68l-8.087-8.088a2.323,2.323,0,0,1,3.285-3.286l8.088,8.088a2.323,2.323,0,0,1-1.643,3.966Z" transform="translate(-1699.375 -837.887)" fill="#636363"/>
      </g>
      <g id="Grupo_117893" data-name="Grupo 117893" transform="translate(61.838 13.645)">
        <path id="Trazado_180091" data-name="Trazado 180091" d="M1806.27,848.23a2.323,2.323,0,0,1-1.643-3.966l8.088-8.089a2.323,2.323,0,0,1,3.286,3.286l-8.088,8.088A2.315,2.315,0,0,1,1806.27,848.23Z" transform="translate(-1803.947 -835.496)" fill="#636363"/>
      </g>
      <g id="Grupo_117894" data-name="Grupo 117894" transform="translate(71.163 46.159)">
        <path id="Trazado_180092" data-name="Trazado 180092" d="M1834.931,900.2h-11.438a2.323,2.323,0,0,1,0-4.646h11.438a2.323,2.323,0,0,1,0,4.646Z" transform="translate(-1821.17 -895.55)" fill="#636363"/>
      </g>
      <g id="Grupo_117895" data-name="Grupo 117895" transform="translate(36.442)">
        <path id="Trazado_180093" data-name="Trazado 180093" d="M1759.362,826.378a2.323,2.323,0,0,1-2.323-2.323V812.616a2.323,2.323,0,1,1,4.646,0v11.438A2.323,2.323,0,0,1,1759.362,826.378Z" transform="translate(-1757.039 -810.293)" fill="#636363"/>
      </g>
    </g>
  </g>
</svg>
