<svg xmlns="http://www.w3.org/2000/svg" width="167" height="167" viewBox="0 0 167 167">
  <g id="Grupo_1009762" data-name="Grupo 1009762" transform="translate(-717 -9466)">
    <g id="Grupo_1009753" data-name="Grupo 1009753" transform="translate(717.537 9466.537)">
      <circle id="Elipse_1142" data-name="Elipse 1142" cx="83.5" cy="83.5" r="83.5" transform="translate(-0.537 -0.537)" fill="#d2e1f1"/>
    </g>
    <g id="Grupo_117907" data-name="Grupo 117907" transform="translate(764.622 9512.333)">
      <g id="Grupo_117900" data-name="Grupo 117900">
        <path id="Trazado_180096" data-name="Trazado 180096" d="M1204.269,2206.746a34.929,34.929,0,1,1,33.72-44.068,2.331,2.331,0,0,1-4.5,1.217,30.269,30.269,0,1,0,0,15.845,2.331,2.331,0,0,1,4.5,1.217A34.984,34.984,0,0,1,1204.269,2206.746Z" transform="translate(-1169.339 -2136.888)" fill="#636363"/>
      </g>
      <g id="Grupo_117901" data-name="Grupo 117901" transform="translate(75.465 25.045)">
        <path id="Trazado_180097" data-name="Trazado 180097" d="M1318.928,2202.772a2.322,2.322,0,0,1-1.694-.729l-8.939-9.458,8.9-8.9a2.331,2.331,0,0,1,3.3,3.3l-5.694,5.694,5.826,6.166a2.33,2.33,0,0,1-1.693,3.931Z" transform="translate(-1308.295 -2183.003)" fill="#636363"/>
      </g>
      <g id="Grupo_117902" data-name="Grupo 117902" transform="translate(11.339 11.339)">
        <path id="Trazado_180098" data-name="Trazado 180098" d="M1213.808,2204.947a23.59,23.59,0,1,1,21.556-33.186,2.33,2.33,0,1,1-4.257,1.9,18.93,18.93,0,1,0,.143,15.066,2.331,2.331,0,0,1,4.293,1.815A23.556,23.556,0,0,1,1213.808,2204.947Z" transform="translate(-1190.218 -2157.766)" fill="#636363"/>
      </g>
      <g id="Grupo_117903" data-name="Grupo 117903" transform="translate(32.599 65.198)">
        <path id="Trazado_180099" data-name="Trazado 180099" d="M1231.7,2270.26a2.33,2.33,0,0,1-2.33-2.331v-8.66a2.33,2.33,0,0,1,4.661,0v8.66A2.33,2.33,0,0,1,1231.7,2270.26Z" transform="translate(-1229.365 -2256.939)" fill="#636363"/>
      </g>
      <g id="Grupo_117904" data-name="Grupo 117904" transform="translate(47.224 61.738)">
        <path id="Trazado_180100" data-name="Trazado 180100" d="M1271.892,2268.5a2.321,2.321,0,0,1-1.648-.683l-13.267-13.268a2.33,2.33,0,1,1,3.3-3.3l13.267,13.268a2.331,2.331,0,0,1-1.647,3.979Z" transform="translate(-1256.294 -2250.568)" fill="#636363"/>
      </g>
      <g id="Grupo_117905" data-name="Grupo 117905" transform="translate(4.704 61.738)">
        <path id="Trazado_180101" data-name="Trazado 180101" d="M1180.331,2268.5a2.331,2.331,0,0,1-1.647-3.979l13.267-13.268a2.33,2.33,0,1,1,3.3,3.3l-13.268,13.268A2.321,2.321,0,0,1,1180.331,2268.5Z" transform="translate(-1178.001 -2250.568)" fill="#636363"/>
      </g>
      <g id="Grupo_117906" data-name="Grupo 117906" transform="translate(34.122 32.599)">
        <path id="Trazado_180102" data-name="Trazado 180102" d="M1277.062,2201.574H1234.5a2.33,2.33,0,0,1,0-4.661h42.563a2.33,2.33,0,0,1,0,4.661Z" transform="translate(-1232.169 -2196.913)" fill="#636363"/>
      </g>
    </g>
  </g>
</svg>
