<svg xmlns="http://www.w3.org/2000/svg" width="167" height="167" viewBox="0 0 167 167">
  <g id="Grupo_1009765" data-name="Grupo 1009765" transform="translate(-717 -10178)">
    <g id="Grupo_1009758" data-name="Grupo 1009758" transform="translate(717.537 10178.537)">
      <circle id="Elipse_1142" data-name="Elipse 1142" cx="83.5" cy="83.5" r="83.5" transform="translate(-0.537 -0.537)" fill="#d2e1f1"/>
    </g>
    <g id="Grupo_117917" data-name="Grupo 117917" transform="translate(759.756 10218.44)">
      <g id="Grupo_117884" data-name="Grupo 117884" transform="translate(0)">
        <path id="Trazado_180083" data-name="Trazado 180083" d="M1245.6,483.23a43.045,43.045,0,1,1,30.463-12.6A42.947,42.947,0,0,1,1245.6,483.23Zm0-78.9a35.848,35.848,0,1,0,25.354,61.193h0a35.839,35.839,0,0,0-25.354-61.193Z" transform="translate(-1202.525 -397.11)" fill="#636363"/>
      </g>
      <g id="Grupo_117886" data-name="Grupo 117886" transform="translate(30.192 29.797)">
        <path id="Trazado_180085" data-name="Trazado 180085" d="M1271.416,454.813H1238.4V436.122a3.611,3.611,0,1,1,7.223,0v11.468h25.8a3.612,3.612,0,1,1,0,7.224Z" transform="translate(-1238.395 -432.51)" fill="#636363"/>
      </g>
    </g>
  </g>
</svg>
