<svg xmlns="http://www.w3.org/2000/svg" width="167" height="167" viewBox="0 0 167 167">
  <g id="Grupo_1009761" data-name="Grupo 1009761" transform="translate(-716.998 -9230)">
    <g id="Grupo_1009749" data-name="Grupo 1009749" transform="translate(717.535 9230.537)">
      <path id="Trazado_675973" data-name="Trazado 675973" d="M83.5,0A83.5,83.5,0,1,1,0,83.5,83.5,83.5,0,0,1,83.5,0Z" transform="translate(-0.537 -0.537)" fill="#d2e1f1"/>
    </g>
    <g id="Grupo_117914" data-name="Grupo 117914" transform="translate(758.98 9269.877)">
      <g id="Grupo_117908" data-name="Grupo 117908" transform="translate(23.152)">
        <path id="Trazado_180103" data-name="Trazado 180103" d="M1749.871,1765.279a2.606,2.606,0,0,1-.571-5.148c7.484-1.69,18.048-5.346,25.875-13.173,12.476-12.477,14.617-31.576,14.966-38.915-7.34.349-26.438,2.49-38.915,14.966-7.827,7.826-11.484,18.391-13.173,25.875a2.606,2.606,0,0,1-5.083-1.148c2.678-11.862,7.58-21.421,14.571-28.412,14.672-14.672,37.211-16.369,43.769-16.539a3.984,3.984,0,0,1,4.089,4.089c-.171,6.558-1.868,29.1-16.539,43.769-6.992,6.991-16.551,11.894-28.412,14.572A2.618,2.618,0,0,1,1749.871,1765.279Z" transform="translate(-1732.906 -1702.783)" fill="#636363"/>
      </g>
      <g id="Grupo_117909" data-name="Grupo 117909" transform="translate(1.394 53.723)">
        <path id="Trazado_180104" data-name="Trazado 180104" d="M1699.679,1815.667a2.606,2.606,0,0,1-1.833-4.457l19.4-19.195a2.606,2.606,0,1,1,3.666,3.7l-19.4,19.194A2.6,2.6,0,0,1,1699.679,1815.667Z" transform="translate(-1697.073 -1791.262)" fill="#636363"/>
      </g>
      <g id="Grupo_117910" data-name="Grupo 117910" transform="translate(14.787 60.138)">
        <path id="Trazado_180105" data-name="Trazado 180105" d="M1721.736,1819.457a2.606,2.606,0,0,1-1.843-4.448l12.419-12.419a2.606,2.606,0,0,1,3.685,3.685l-12.418,12.419A2.6,2.6,0,0,1,1721.736,1819.457Z" transform="translate(-1719.13 -1801.827)" fill="#636363"/>
      </g>
      <g id="Grupo_117911" data-name="Grupo 117911" transform="translate(44.273 17.513)">
        <path id="Trazado_180106" data-name="Trazado 180106" d="M1779.742,1755.74a12.056,12.056,0,1,1,8.526-3.531h0A11.976,11.976,0,0,1,1779.742,1755.74Zm0-18.9a6.846,6.846,0,1,0,4.841,11.687h0a6.846,6.846,0,0,0-4.841-11.687Z" transform="translate(-1767.691 -1731.626)" fill="#636363"/>
      </g>
      <g id="Grupo_117912" data-name="Grupo 117912" transform="translate(47.313 57.114)">
        <path id="Trazado_180107" data-name="Trazado 180107" d="M1775.722,1825.324a3.025,3.025,0,0,1-3.025-3.024v-15.5a2.606,2.606,0,1,1,5.211,0v10.217l6.894-6.895c.035-1.919.066-6.52.081-10.678a2.607,2.607,0,0,1,2.606-2.6h.01a2.606,2.606,0,0,1,2.6,2.615s-.011,2.932-.031,5.874c-.049,6.946-.049,6.946-.857,7.751l-11.351,11.352A3.015,3.015,0,0,1,1775.722,1825.324Zm9.8-15.927-.007.008Z" transform="translate(-1772.697 -1796.846)" fill="#636363"/>
      </g>
      <g id="Grupo_117913" data-name="Grupo 117913" transform="translate(0 20.88)">
        <path id="Trazado_180108" data-name="Trazado 180108" d="M1713.3,1754.571h-15.5a3.022,3.022,0,0,1-2.137-5.159l11.355-11.354c.8-.8.8-.8,7.747-.854,2.942-.021,5.874-.031,5.874-.031h.01a2.606,2.606,0,0,1,.01,5.212c-4.158.015-8.759.047-10.678.081l-6.895,6.895H1713.3a2.606,2.606,0,0,1,0,5.211Z" transform="translate(-1694.777 -1737.172)" fill="#636363"/>
      </g>
    </g>
  </g>
</svg>
