<svg xmlns="http://www.w3.org/2000/svg" width="115.228" height="152.076" viewBox="0 0 115.228 152.076">
  <g id="Grupo_118156" data-name="Grupo 118156" transform="translate(-322.001 -567.987)">
    <g id="Grupo_118127" data-name="Grupo 118127" transform="translate(-559.186 493.156)">
      <circle id="Elipse_6434" data-name="Elipse 6434" cx="57.614" cy="57.614" r="57.614" transform="translate(881.186 82.864)" fill="#fff"/>
      <g id="Grupo_118124" data-name="Grupo 118124" transform="translate(918.102 74.831)">
        <path id="Trazado_180422" data-name="Trazado 180422" d="M938.275,192.165c-6.619,3.822-17.383,3.8-24.044-.043s-6.694-10.06-.075-13.881,17.383-3.8,24.044.043S944.894,188.344,938.275,192.165Z" transform="translate(-909.214 -42.943)" fill="#cbcbcb"/>
        <ellipse id="Elipse_6435" data-name="Elipse 6435" cx="10.066" cy="17.435" rx="10.066" ry="17.435" transform="translate(14.118 149.362) rotate(-89.689)" fill="#cbcbcb"/>
        <g id="Grupo_118123" data-name="Grupo 118123" transform="translate(4.522)">
          <g id="Grupo_118122" data-name="Grupo 118122">
            <g id="Grupo_118121" data-name="Grupo 118121">
              <path id="Trazado_180423" data-name="Trazado 180423" d="M933.068,95.6a5.454,5.454,0,0,0-5.121,4.577c-.9,4.522-1.492,5.653-1.99,9.723s-.271,6.422-1.221,9.589-2.547,5.034-3.181,10.13-2.563,14.968-3.226,17.962-1.01,4.038-.769,4.985.452,2.425.664,2.892a12.463,12.463,0,0,0,2.215,2.081,2.935,2.935,0,0,0,1.387.18,2.586,2.586,0,0,0,1.417-.648c.121-.257-.257-.844-.257-.844s.107-3.784.076-4.523a14.485,14.485,0,0,0,.045-3.754,10.37,10.37,0,0,1,.2-4.161c.15-.528,3.588-7.627,5.066-11.065,1.357-3.157,11.469-33.039,9.813-38.268C938.035,93.994,933.338,95.676,933.068,95.6Z" transform="translate(-911.113 -68.632)" fill="#8c8c8c"/>
              <g id="Grupo_118109" data-name="Grupo 118109" transform="translate(0 135.478)">
                <path id="Trazado_180424" data-name="Trazado 180424" d="M913.051,185.3s-.371.1-.394.91,0,1.013,0,1.208a2.661,2.661,0,0,0,2.8,1.37,8.3,8.3,0,0,0,4.833-1.37c1.951-1.208,2.811-3.311,3.872-3.921s3.347-1.877,3.958-2.1a5.414,5.414,0,0,0,.9-.407.852.852,0,0,0,.39-.792,10.038,10.038,0,0,0-.159-2.487c-.232-.249-4.681,1.79-6.1,2.636S913.051,185.3,913.051,185.3Z" transform="translate(-912.647 -177.69)" fill="#ababab"/>
              </g>
              <g id="Grupo_118110" data-name="Grupo 118110" transform="translate(22.215 132.791)">
                <path id="Trazado_180425" data-name="Trazado 180425" d="M930.053,183.63s-.357,0-.47.877a7.279,7.279,0,0,0,0,2.055,4.035,4.035,0,0,0,3.256,1.361,9.355,9.355,0,0,0,4.726-1.13,13.739,13.739,0,0,0,3.529-3.664c1.108-1.741,1.379-2.442,1.786-2.962s1.13-1.507,1.13-1.507a5.34,5.34,0,0,0,0-2.043c-.225-1.018-.859-1.137-1.085-.794S930.053,183.63,930.053,183.63Z" transform="translate(-929.513 -175.65)" fill="#ababab"/>
              </g>
              <g id="Grupo_118111" data-name="Grupo 118111" transform="translate(0.399 131.06)">
                <path id="Trazado_180426" data-name="Trazado 180426" d="M928.721,175.722s.03.421.151,1.808a7.4,7.4,0,0,1-.262,3.257c-.311.784-1.607,1.116-3.779,2.412s-3.436,3.558-6.21,4.764a5.367,5.367,0,0,1-5.337-.423c-.753-.421,0-3.015,0-3.015s2.352-2.171,3.889-3.256,2.744-2.02,2.744-2.02.776-2.262,1.021-2.713.759-.03.759-.03.422-.814,2.592-1.719S928.5,174.415,928.721,175.722Z" transform="translate(-912.95 -174.336)" fill="#3f3f3f"/>
              </g>
              <g id="Grupo_118112" data-name="Grupo 118112" transform="translate(22.602 128.877)">
                <path id="Trazado_180427" data-name="Trazado 180427" d="M942.039,173.263a2.034,2.034,0,0,1,1.2,1.6,28.419,28.419,0,0,1,.294,3.1,18.188,18.188,0,0,1-2.125,3.447c-1.063,1.3-1.494,4.422-5.586,5.666s-5.517-.589-5.88-1.018.091-1.9.385-2.533,3.143-3.324,3.55-3.889a10.7,10.7,0,0,0,.973-3.165,2.9,2.9,0,0,1,.361-1.47c.249-.3,2.172-2.059,3.347-2.284A9.722,9.722,0,0,1,942.039,173.263Z" transform="translate(-929.807 -172.678)" fill="#3f3f3f"/>
              </g>
              <path id="Trazado_180428" data-name="Trazado 180428" d="M928.187,127.59c0,.5-2.849,8.546-4.206,14.449s-1.176,13-1.808,18.567-.935,8.275-.935,8.275a40.613,40.613,0,0,0-.693,9.633c.271,5.2.287,9.589-.049,11.171s-.631,3.235-.631,3.235.882,2.373,2.759,2.08,2.284-.565,2.691-1.221,1.786-7.417,2.646-10.9,2.555-6.084,2.782-8.05-.068-4,.248-4.727a16.293,16.293,0,0,0,2.443-5.789,88.629,88.629,0,0,1,3.143-10.357c.769-1.944,3.867-13.432,3.867-13.432l2.713-10.492Z" transform="translate(-910.358 -58.1)" fill="#8c8c8c"/>
              <path id="Trazado_180429" data-name="Trazado 180429" d="M951.716,130.989s1.628,6.558-2.4,19.854-4.252,13.884-3.8,17.095,1.154,4.3.022,8.661-3.55,7.734-3.754,9.747.182,3.187,0,3.8-.248.972-.655,1.152a8.383,8.383,0,0,1-3.618.431,1.79,1.79,0,0,1-1.652-2.217c.182-1.063.838-3.731.973-5.54s.225-9.046.18-11.1-1.063-4.771-1.448-7.01-.814-9.9-.9-11.488-.105-5.965-.316-6.14a4.438,4.438,0,0,1-2.713-3.342c-.634-2.713,1.748-14.322,1.748-14.322Z" transform="translate(-906.66 -57.156)" fill="#8c8c8c"/>
              <g id="Grupo_118113" data-name="Grupo 118113" transform="translate(2.815 132.964)">
                <path id="Trazado_180430" data-name="Trazado 180430" d="M924.087,177.7a.69.69,0,0,1,.12,1.131c-.394.336-.846.717-1.1.915-.52.4-1.719.45-1.99.925s-3.257,2.6-3.415,3.12.5,1.289.5,1.289a8.087,8.087,0,0,0-2.42-1.99l-.994-.316s1.334-.113,1.515-.362,2.578-2.578,2.894-2.871,1.1-3.031,1.646-3.641,2.4,1.386,2.763,1.552C923.717,177.5,923.9,177.595,924.087,177.7Z" transform="translate(-914.784 -175.781)" fill="#ababab"/>
              </g>
              <g id="Grupo_118114" data-name="Grupo 118114" transform="translate(24.704 130.993)">
                <path id="Trazado_180431" data-name="Trazado 180431" d="M939.95,176.643c-.184.339-1.56.345-1.989,1.28s-2.691,3.988-2.759,4.576a2.792,2.792,0,0,0,.452,1.4s-2.193-1.176-3.029-1.492a7.721,7.721,0,0,0-1.221-.385,5.2,5.2,0,0,0,1.537-.882,19.862,19.862,0,0,0,1.719-3.392c.136-.52.452-2.1.52-2.668s.52-.961,1.537-.73S940.494,175.647,939.95,176.643Z" transform="translate(-931.403 -174.285)" fill="#ababab"/>
              </g>
              <path id="Trazado_180432" data-name="Trazado 180432" d="M941.517,138.146c.036,2.044-2.5,10.152-3.774,14.081-.424,1.311-.706,2.156-.706,2.156s-2.276,1.22-7.613.857-7.988-3.751-7.945-3.889c.022-.061.087-.926.238-2.268.184-1.675.5-4.095,1.027-6.625.952-4.551,3.576-13.357,3.576-13.357l15.2.9S941.465,135.422,941.517,138.146Z" transform="translate(-909.846 -57.621)" fill="#6d6d6d"/>
              <path id="Trazado_180433" data-name="Trazado 180433" d="M937.743,147.416c-.424,1.311-.706,2.156-.706,2.156s-2.276,1.22-7.613.857-7.988-3.751-7.945-3.889c.022-.061.087-.926.238-2.268,1.311,1.683,5.8,4.374,10.359,4.059s5.337-1.313,5.337-1.313A2.88,2.88,0,0,1,937.743,147.416Z" transform="translate(-909.846 -52.81)" fill="#3f3f3f"/>
              <path id="Trazado_180434" data-name="Trazado 180434" d="M951.448,148.083c-.207,1.353-1.295,6.5-1.791,8.842-.151.717-.249,1.168-.249,1.168s-1.085,1.538-7.371,1.9-8.831-1.839-8.831-1.839l.075-1.552c0-.066.008-.138.012-.213.083-1.762.427-4.146.375-5.519s-2.076-5.05-2.391-7.492,1.266-10.717,1.266-10.717l19.039-2.094s1.674,5.532,1.765,6.75S951.719,146.321,951.448,148.083Z" transform="translate(-906.752 -57.156)" fill="#ababab"/>
              <path id="Trazado_180435" data-name="Trazado 180435" d="M948.452,155.219l.73-.236c-.151.717-.249,1.168-.249,1.168s-1.085,1.538-7.371,1.9-8.831-1.839-8.831-1.839l.075-1.552a16.053,16.053,0,0,0,5.894,1.545,22.73,22.73,0,0,0,8.141-.785l.275-2.518c.278-2.522,1.048-15.265,1.048-15.265l1.872-.948Z" transform="translate(-906.278 -55.214)" fill="#3f3f3f"/>
              <path id="Trazado_180436" data-name="Trazado 180436" d="M923.77,134.275l-.466,2.442a6.836,6.836,0,0,0,4.913,3.347c3.557.589,5,3.031,6.565,2.985s3.93-.948,6.773,0a12.261,12.261,0,0,0,8.461-.778,22.512,22.512,0,0,1,5.041-1.561s-.058-.79-.141-2.038C954.7,135.46,924.235,131.833,923.77,134.275Z" transform="translate(-909.267 -56.234)" fill="#6d6d6d"/>
              <path id="Trazado_180437" data-name="Trazado 180437" d="M944.444,94.083a71.877,71.877,0,0,0-7.472.252,7.147,7.147,0,0,0-5.669,3.527,47.084,47.084,0,0,0-4.207,18.271c-.09,9-3.18,26.927-3.677,29.369l-.5,2.442a7.252,7.252,0,0,0,5.247,3.347c3.8.589,5.336,3.031,7.01,2.985s4.2-.948,7.231,0a13.905,13.905,0,0,0,9.036-.778,25.27,25.27,0,0,1,5.382-1.561s-.781-10.08-.84-15.146-.427-7.84,1.021-12.3,4.764-12.784,5.187-17.307.431-5.926-1.749-7.115C956.343,97.832,950.632,92.952,944.444,94.083Z" transform="translate(-909.389 -68.779)" fill="#ababab"/>
              <g id="Grupo_118117" data-name="Grupo 118117" transform="translate(19.87 50.309)">
                <g id="Grupo_118115" data-name="Grupo 118115">
                  <path id="Trazado_180438" data-name="Trazado 180438" d="M936.322,127.67c-.122,3.5-1.857,5.55-4.46,4.937a7.019,7.019,0,0,1-3.978-3.112l1.084-3.082c.8,1.619,1.783,2.62,2.828,2.866,1.332.315,2.123-.506,2.178-2.109.059-1.682-.668-2.7-2.014-3.019l-1.694-.4.079-2.287,2.867-3.88-4.327-1.021.119-3.364,7.23,1.706-.087,2.5-3.247,4.269.57.267C935.245,122.726,936.423,124.805,936.322,127.67Z" transform="translate(-927.685 -112.972)" fill="#3f3f3f"/>
                  <path id="Trazado_180439" data-name="Trazado 180439" d="M932.793,132.948a4,4,0,0,1-.923-.112,7.185,7.185,0,0,1-4.09-3.19l-.047-.074L928.99,126l.19.386c.777,1.578,1.714,2.535,2.708,2.771a1.474,1.474,0,0,0,1.283-.188,2.227,2.227,0,0,0,.673-1.752c.054-1.553-.594-2.534-1.876-2.837l-1.839-.433.088-2.491,2.736-3.706-4.2-.992.13-3.731,7.589,1.79-.095,2.7-3.144,4.136.367.173c1.918.854,3.051,3.116,2.953,5.9h0c-.074,2.107-.726,3.734-1.836,4.581A3.1,3.1,0,0,1,932.793,132.948Zm-4.66-3.422a6.78,6.78,0,0,0,3.82,2.958,2.906,2.906,0,0,0,2.542-.46c1.022-.781,1.624-2.31,1.694-4.307.094-2.636-.958-4.767-2.742-5.561l-.776-.364,3.347-4.4.08-2.29-6.871-1.621-.105,3,4.449,1.05-3,4.057-.072,2.082,1.549.365c1.47.348,2.215,1.454,2.155,3.2a2.565,2.565,0,0,1-.817,2.027,1.843,1.843,0,0,1-1.586.252,4.692,4.692,0,0,1-2.754-2.587Z" transform="translate(-927.733 -113.027)" fill="#3f3f3f"/>
                </g>
                <g id="Grupo_118116" data-name="Grupo 118116" transform="translate(9.334 2.202)">
                  <path id="Trazado_180440" data-name="Trazado 180440" d="M943.408,129.344c-.123,3.494-1.857,5.549-4.458,4.935a7.018,7.018,0,0,1-3.978-3.111l1.084-3.083c.8,1.62,1.783,2.621,2.828,2.866,1.33.315,2.122-.5,2.178-2.109.058-1.681-.668-2.7-2.014-3.019l-1.694-.4.079-2.287,2.866-3.882-4.325-1.021.117-3.364,7.231,1.707-.088,2.5-3.245,4.269.57.267C942.331,124.4,943.508,126.477,943.408,129.344Z" transform="translate(-934.772 -114.644)" fill="#3f3f3f"/>
                  <path id="Trazado_180441" data-name="Trazado 180441" d="M939.879,134.622a3.988,3.988,0,0,1-.922-.112,7.188,7.188,0,0,1-4.09-3.191l-.047-.074,1.256-3.572.19.387c.765,1.554,1.727,2.538,2.707,2.77a1.479,1.479,0,0,0,1.283-.187,2.227,2.227,0,0,0,.673-1.752c.055-1.554-.594-2.534-1.874-2.837l-1.839-.433.088-2.492,2.736-3.705-4.2-.992.132-3.733,7.589,1.791-.095,2.7-3.145,4.137.367.171c1.918.855,3.051,3.118,2.953,5.9h0c-.074,2.107-.726,3.734-1.836,4.582A3.107,3.107,0,0,1,939.879,134.622Zm-4.66-3.423a6.8,6.8,0,0,0,3.821,2.96,2.906,2.906,0,0,0,2.542-.461c1.022-.78,1.624-2.309,1.694-4.306.092-2.637-.959-4.768-2.742-5.562l-.776-.364,3.345-4.4.08-2.29-6.87-1.621-.105,3,4.448,1.05-3,4.057-.072,2.082,1.549.366c1.47.346,2.214,1.454,2.153,3.2a2.561,2.561,0,0,1-.815,2.027,1.837,1.837,0,0,1-1.586.252,4.685,4.685,0,0,1-2.754-2.587Z" transform="translate(-934.82 -114.699)" fill="#3f3f3f"/>
                </g>
              </g>
              <path id="Trazado_180442" data-name="Trazado 180442" d="M934.791,94.136s-3.315.894-2.113,5.416,2.566,10.375,2.566,10.375l2.048.366s11.71-9.419,12.58-11.028a3.523,3.523,0,0,0-.515-4.2C948.463,94.344,936.287,92.971,934.791,94.136Z" transform="translate(-906.378 -68.852)" fill="#3f3f3f"/>
              <path id="Trazado_180443" data-name="Trazado 180443" d="M956.411,101.85s-2.334-2.849-4.536-3.789-2.414.211-4.073,4.823-2.442,15.165-2.021,18.573,1.417,4.673,2.5,3.407,4.748-10.312,5.382-12.573S956.411,101.85,956.411,101.85Z" transform="translate(-902.175 -67.56)" fill="#8c8c8c"/>
              <path id="Trazado_180444" data-name="Trazado 180444" d="M936.475,94.128s-3.531-.209-2.782,4.5a77.44,77.44,0,0,0,2.765,9.47c.091.024,7.523-5.55,10.5-8.984,2.2-2.535,1.146-3.9.965-4.166S943.3,92.2,936.475,94.128Z" transform="translate(-906.006 -68.942)" fill="#ababab"/>
              <path id="Trazado_180445" data-name="Trazado 180445" d="M919.853,138.527a8.35,8.35,0,0,0-.421,1.251c-.016.256.241,1.6.211,1.96l-.03.362s.634.512.678.768.9.386.9.386-.327-2.858-.357-3.642a7.589,7.589,0,0,0-.753-2.2Z" transform="translate(-910.496 -54.985)" fill="#6d6d6d"/>
              <g id="Grupo_118119" data-name="Grupo 118119" transform="translate(30.354 58.894)">
                <g id="Grupo_118118" data-name="Grupo 118118">
                  <path id="Trazado_180446" data-name="Trazado 180446" d="M961.856,132.627a13.082,13.082,0,1,1-13.082-13.082A13.08,13.08,0,0,1,961.856,132.627Z" transform="translate(-935.693 -119.545)" fill="#858585"/>
                </g>
                <path id="Trazado_180447" data-name="Trazado 180447" d="M949.025,128.89c-.187-.14-.37-.29-.552-.449-.132-.116-.261-.236-.383-.357.594-2.715.744-5.44-.061-7.273a4.1,4.1,0,0,1,1.154-.062C949.988,122.969,949.723,126.009,949.025,128.89Z" transform="translate(-931.781 -119.168)" fill="#3f3f3f"/>
                <path id="Trazado_180448" data-name="Trazado 180448" d="M947.178,119.666a12.96,12.96,0,0,1,1.8.415,5.5,5.5,0,0,1,.306.581c.062.138.118.281.171.425a4.1,4.1,0,0,0-1.154.062l-.016-.038A3.65,3.65,0,0,0,947.178,119.666Z" transform="translate(-932.051 -119.507)" fill="#3f3f3f"/>
                <path id="Trazado_180449" data-name="Trazado 180449" d="M952.873,137.011a18.41,18.41,0,0,0,7.614.7,13.152,13.152,0,0,1-.63,1.189,13.85,13.85,0,0,1-1.391.067,22.683,22.683,0,0,1-6.11-.951,2.807,2.807,0,0,0,.191,3.023c.74.867,2.218,1.341,4.2,1.411a13.064,13.064,0,0,1-1.42.981,5.693,5.693,0,0,1-3.613-1.682,3.768,3.768,0,0,1-.41-4.054q-.881-.286-1.782-.637c-1.523,2.855-3.382,5.751-6.246,7.083a13.106,13.106,0,0,1-1.311-.68c3.033-.958,4.935-3.824,6.538-6.819-.331-.142-.661-.286-.995-.44-.7-.327-1.392-.673-2.057-1.035-1.322,1.6-3.539,2.452-6.37,2.452q-.472,0-.968-.032c-.489-.032-.986-.088-1.49-.165q-.253-.581-.449-1.188a16.044,16.044,0,0,0,2.009.259c2.831.183,5.033-.481,6.3-1.88a24.943,24.943,0,0,1-5.984-4.767,11.609,11.609,0,0,1-1.9-2.817,12.857,12.857,0,0,1,.678-1.354,8.907,8.907,0,0,0,2.04,3.447,23.851,23.851,0,0,0,5.789,4.59c.814-1.7-.237-3.739-1.549-6.284a31.038,31.038,0,0,1-2.508-5.9q.466-.33.961-.62a28.625,28.625,0,0,0,2.52,6.022c1.413,2.745,2.643,5.135,1.53,7.323q.925.5,1.907.958.523.241,1.045.461.235-.456.465-.909a29.629,29.629,0,0,0,2.368-6.729c.122.121.251.241.383.357.182.159.365.31.552.449a30.744,30.744,0,0,1-2.329,6.421c-.138.27-.278.545-.42.822.587.224,1.172.427,1.75.61,1.359-2.337,3.652-2.857,5.877-3.363a10.9,10.9,0,0,0,4.036-1.48c0,.116.005.233.005.35q0,.484-.034.962a14.248,14.248,0,0,1-3.763,1.237C955.834,134.863,954.01,135.278,952.873,137.011Z" transform="translate(-935.539 -119.114)" fill="#3f3f3f"/>
              </g>
              <path id="Trazado_180450" data-name="Trazado 180450" d="M958.011,101.374a10.47,10.47,0,0,0-3.347-1.976c-1.242-.527-3.573.271-4.206,5.337s.723,6.093,1.99,8.729,3.572,6.287,6.06,10.4S961,128.344,961,128.344s-2.94,7.915-4.884,13.523-2.277,6.165-3.241,6.528-4.341,3.226-5.517,3.317-4.734-1.146-5.216-1.3-1.448-.875-1.508.271a2.06,2.06,0,0,0,.423,1.6,52.386,52.386,0,0,0,6.331,2.9c1.9.543,2.049-.242,4.522-1.267s4.132-1.93,5.428-3.558a124.8,124.8,0,0,0,9.2-14.262c2.321-4.613,3.588-6.225,2.834-8.75a87.721,87.721,0,0,0-4.432-12.2C962.76,110.555,960.551,103.711,958.011,101.374Z" transform="translate(-903.775 -67.084)" fill="#8c8c8c"/>
              <path id="Trazado_180451" data-name="Trazado 180451" d="M952.347,136.69a24.7,24.7,0,0,0-3.28.271c-.745.2-2.962.972-3.448.994s-2.3-.166-1.91.89,1.408,1.006,2.173.975,1.683-.3,2.118.012a4.8,4.8,0,0,0,4.188-.684C953.659,138.024,953.161,137.277,952.347,136.69Z" transform="translate(-902.814 -55.214)" fill="#8c8c8c"/>
              <path id="Trazado_180452" data-name="Trazado 180452" d="M934.751,95a11.579,11.579,0,0,1,.994,3.866c.113,2.036-.473,7.144.884,7.28s4-4.316,6.421-5.674,3.482-2.8,3.323-3.934a14.83,14.83,0,0,1,.016-4.839,14.623,14.623,0,0,1,2.227-4.256Z" transform="translate(-905.637 -70.83)" fill="#716e6e"/>
              <path id="Trazado_180453" data-name="Trazado 180453" d="M935.979,77.2a9.081,9.081,0,0,0-2.94,6.061c-.361,4.025.136,4.364,0,5.313s-.7,6.467.611,9.838,6.467,1.175,7.688.565a16.038,16.038,0,0,0,4.93-5.043c1.47-2.329,5.088-2.08,2.827-9.5S941.994,75.841,935.979,77.2Z" transform="translate(-906.255 -74.236)" fill="#8c8c8c"/>
              <g id="Grupo_118120" data-name="Grupo 118120" transform="translate(26.97)">
                <path id="Trazado_180454" data-name="Trazado 180454" d="M945.841,90.322l-1.1-.407s-.067-1.787-.407-2.059a5.463,5.463,0,0,1-.927-3.052c-.045-1.38-1.039-2.42-3.347-2.1s-4.657.227-5.427-.316a1.2,1.2,0,0,0-1.5.208,6.784,6.784,0,0,1,.394-2.447c.5-1.741,2.8-5.066,9-5.315,4.138.678,5,2.33,5,2.33a5.778,5.778,0,0,1,3.6,6.038c-.249,4.771-1.118,8.506-3.326,10.346C947.591,90.276,947.233,87.7,945.841,90.322Z" transform="translate(-933.123 -74.831)" fill="#3f3f3f"/>
              </g>
              <path id="Trazado_180455" data-name="Trazado 180455" d="M943.805,86.248a1.753,1.753,0,0,1,1.523-1.085c1.191-.105,1.7,1.453.6,3.011s-1.727,2.6-2.276,2.838-1.056-.271-.814-1.221.828-1.839.844-2.11A11.593,11.593,0,0,1,943.805,86.248Z" transform="translate(-903.092 -71.556)" fill="#8c8c8c"/>
              <path id="Trazado_180456" data-name="Trazado 180456" d="M919.923,138.107a11.458,11.458,0,0,1,.452,2.729,7.338,7.338,0,0,0,.393,2.788c.3.784,1.342.219,1.432,0a12.423,12.423,0,0,0,.241-3.2c-.149-.68.2-3.407.025-3.966S920.391,133.193,919.923,138.107Z" transform="translate(-910.34 -55.682)" fill="#8c8c8c"/>
            </g>
          </g>
          <path id="Trazado_180457" data-name="Trazado 180457" d="M951.236,80.808a15.569,15.569,0,0,1-5.29.52c-3.3-.158-10.243-.656-11.012-.881s-1.706-.5-1.706-.5a5.422,5.422,0,0,0-.423,2.616l.116,1.54a24.276,24.276,0,0,0,7.463,1.046c4.635.022,8.046-.033,9.321-.385l1.275-.352S951.572,81.757,951.236,80.808Z" transform="translate(-906.259 -73.208)" fill="#ababab"/>
          <path id="Trazado_180458" data-name="Trazado 180458" d="M950.848,136.6l1.571-4.005a4.928,4.928,0,0,1,3.148,1.041c1.689,1.205,1.679,1.72,1.679,1.72l-2.518,3.592S953.3,136.425,950.848,136.6Z" transform="translate(-900.533 -56.517)" fill="#3f3f3f"/>
          <path id="Trazado_180459" data-name="Trazado 180459" d="M922.732,134.11a2.691,2.691,0,0,0-2.134-.848,2.507,2.507,0,0,0-2.078.848l.859-4.4a1.912,1.912,0,0,1,2.1-.59,16.609,16.609,0,0,1,2.838,1.042Z" transform="translate(-910.785 -57.641)" fill="#3f3f3f"/>
        </g>
      </g>
    </g>
  </g>
</svg>
