<svg xmlns="http://www.w3.org/2000/svg" width="157" height="149.333" viewBox="0 0 157 149.333">
  <g id="Grupo_118269" data-name="Grupo 118269" transform="translate(-1041 -5172)">
    <rect id="Rectángulo_37025" data-name="Rectángulo 37025" width="86" height="86" rx="43" transform="translate(1068 5172)" fill="#fe502d"/>
    <g id="Grupo_118182" data-name="Grupo 118182" transform="translate(728.649 5078.517)">
      <g id="Layer_3" data-name="Layer 3" transform="translate(339.35 103.484)">
        <path id="Trazado_180536" data-name="Trazado 180536" d="M630.287,897.833c-.049-1.562-.1-3.125-.171-4.687-.142-3.159-.363-6.318-.807-9.451-.743-5.244-2.7-9.911-4.064-14.975a58.427,58.427,0,0,1-1.292-6.1,69.9,69.9,0,0,1-.814-11.545,32.734,32.734,0,0,1,1.638-11.2c.723-1.947,1.525-4.389,3.108-5.819.251-.226.7-.475.9-.686,0,0,0,0,0-.005.078-.06.155-.122.227-.187.054-.351.12-.7.172-1.054,0-.027.008-.054.012-.081a5.765,5.765,0,0,0-2.44.838c-1.714.746-3.474,1.382-5.182,2.145-.786.351-1.584.719-2.352,1.092-.749.365-1.338.978-2.091,1.345-.842.41-1.685.815-2.541,1.2-.647.29-1.3.576-1.941.873a17.957,17.957,0,0,0,1.784,3.547c-.023.08-.046.16-.071.24-.635,2.02-1.874,3.765-2.72,5.692-.207.473-.381.956-.553,1.435h0c.387.211.4.683.535,1.091,1.092,3.381-.7,5.335-1.189,8.5-.394,2.533.553,4.824.448,7.3-.068,1.6-.954,2.963-1.364,4.47a16.6,16.6,0,0,0-.409,2.055c-.917,6.6-2.4,13.17-3.695,19.72-.31,1.569-.578,3.264-.983,4.921h0c.417,5.066.47,10.248.432,15.368h25.386c.111-2.288.195-4.578.2-6.869C630.469,903.923,630.385,900.906,630.287,897.833Zm-5.606-8.865a1.4,1.4,0,0,1,1.068-1.979,1.326,1.326,0,0,1,1.077.271c.784.612.454,1.614-.094,2.263S624.97,889.615,624.681,888.968Zm2.946,15.294c-.544.644-1.761.092-2.051-.555a1.4,1.4,0,0,1,1.067-1.979,1.326,1.326,0,0,1,1.077.271C628.5,902.611,628.173,903.612,627.626,904.262Z" transform="translate(-583.623 -774.841)" fill="#4f95cf"/>
        <path id="Trazado_180537" data-name="Trazado 180537" d="M632.205,399a.422.422,0,0,1,.047.679,1.047,1.047,0,0,1-.848.194c-.422-.058-.862-.085-1.284-.106-.5-.025-1-.028-1.5-.045-.363-.013-1,.056-1.3-.21-.37-.338-.054-.669.336-.75a4.45,4.45,0,0,1,1.078.017c.257.01.519.023.779.032.555.019,1.111.01,1.665.015A1.915,1.915,0,0,1,632.205,399Z" transform="translate(-604.563 -375.55)" fill="#ffbc3b"/>
        <path id="Trazado_180538" data-name="Trazado 180538" d="M607.285,299.625c.472.03.438.549.15.783-.04.158-.288.2-.415.3-.191.142-1.231.948-1.393,1.121a2.989,2.989,0,0,1-.491.356c-.226.162-.978.734-1.219.29a.45.45,0,0,1,.049-.423,1.789,1.789,0,0,1,.711-.587,2.244,2.244,0,0,0,.695-.524c.166-.206,1.223-.94,1.424-1.1A.735.735,0,0,1,607.285,299.625Z" transform="translate(-583.113 -284.224)" fill="#ffbc3b"/>
        <path id="Trazado_180539" data-name="Trazado 180539" d="M602.275,470.21a.423.423,0,0,1-.445.515,1.047,1.047,0,0,1-.739-.459c-.259-.337-.551-.667-.837-.98-.338-.369-.692-.724-1.034-1.088-.249-.265-.752-.666-.772-1.061-.026-.5.433-.513.766-.3a4.425,4.425,0,0,1,.754.769c.176.19.353.382.531.572.381.4.782.788,1.173,1.183A1.929,1.929,0,0,1,602.275,470.21Z" transform="translate(-578.104 -438.19)" fill="#ffbc3b"/>
        <path id="Trazado_180540" data-name="Trazado 180540" d="M565.572,406.1c.115.723-.718.7-1.245.667a2.641,2.641,0,0,1,.624-.834C565.21,405.708,565.508,405.7,565.572,406.1Z" transform="translate(-546.663 -382.043)" fill="#ffbc3b"/>
        <path id="Trazado_180541" data-name="Trazado 180541" d="M522.629,505.56c0,.022-.074-.011-.115-.025-.078-.025-.159-.055-.233-.085a3.134,3.134,0,0,0-.488-.171c-.857-.2-1.709-.509-2.547-.776h-.024c0-.239.012-.482,0-.719-.01-.152-.067-.324-.072-.486h.013a12.754,12.754,0,0,0,1.685.649,9.8,9.8,0,0,1,1.657.545c.067.034.155.121.221.1h.029a5.962,5.962,0,0,1-.074.979Z" transform="translate(-505.029 -471.906)" fill="#dedede"/>
        <path id="Trazado_180542" data-name="Trazado 180542" d="M523.41,519.689c.041.014.115.047.115.025l.047.008c-.014.084-.031.169-.051.252a2.744,2.744,0,0,1-.229.731,1.987,1.987,0,0,1-.119.187l-.009-.006c-.226-.091-.458-.222-.7-.3-.746-.244-1.5-.572-2.222-.878h-.078a5.3,5.3,0,0,0-.024-.653,3.106,3.106,0,0,1-.025-.4h.024c.838.267,1.69.574,2.547.776a3.13,3.13,0,0,1,.488.171C523.252,519.635,523.333,519.664,523.41,519.689Z" transform="translate(-505.925 -486.06)" fill="#dedede"/>
        <path id="Trazado_180543" data-name="Trazado 180543" d="M517.16,412.235h-.011c-.06-.86-.329-1.693-.461-2.549a16.824,16.824,0,0,0-.637-3.241,4.8,4.8,0,0,0-.207-.482l.176-.01a2.291,2.291,0,0,0,.613-.154,1.75,1.75,0,0,0,.569-.378,2.591,2.591,0,0,0,.472-.454l.039-.061a2.315,2.315,0,0,0,1.149.893,2.271,2.271,0,0,0,.613.154l.175.01a4.567,4.567,0,0,0-.205.482,113.028,113.028,0,0,0-1.04,5.592c0,.072.011.146.012.218C518,412.259,517.574,412.247,517.16,412.235Z" transform="translate(-501.988 -381.24)" fill="#ffbc3b"/>
        <path id="Trazado_180544" data-name="Trazado 180544" d="M523.735,533.2l.009.006a1.855,1.855,0,0,1-.347.37,1.7,1.7,0,0,1-1.228.246,1.621,1.621,0,0,1-1.14-.753,1.829,1.829,0,0,1-.262-.671,2.515,2.515,0,0,1-.029-.376h.078c.723.307,1.476.634,2.222.878C523.278,532.977,523.509,533.108,523.735,533.2Z" transform="translate(-506.497 -498.374)" fill="#dedede"/>
        <path id="Trazado_180545" data-name="Trazado 180545" d="M534.9,380.089a2.409,2.409,0,0,1-.287,1.272,2.6,2.6,0,0,1-.4-.995c-.053-.288-.053-.817.253-.986S534.9,379.926,534.9,380.089Z" transform="translate(-518.885 -357.696)" fill="#ffbc3b"/>
        <path id="Trazado_180546" data-name="Trazado 180546" d="M531.881,252.89c.1.128-.019.35-.023.509,0,.238-.012,1.553.025,1.787a2.965,2.965,0,0,1-.022.607c-.012.278-.024,1.222-.523,1.138a.448.448,0,0,1-.3-.3,1.777,1.777,0,0,1-.024-.921,2.271,2.271,0,0,0,.015-.869c-.061-.258.014-1.543.01-1.8a.736.736,0,0,1,.135-.516C531.487,252.172,531.873,252.519,531.881,252.89Z" transform="translate(-515.919 -240.688)" fill="#ffbc3b"/>
        <path id="Trazado_180547" data-name="Trazado 180547" d="M532.468,498.253c0,.011,0,.017-.009.028,0-.009,0-.019,0-.028Z" transform="translate(-517.296 -467.258)" fill="#8cc295"/>
        <path id="Trazado_180548" data-name="Trazado 180548" d="M464.6,337.444l-.092.047-.023-.069a4.3,4.3,0,0,0-.438-.894,7.6,7.6,0,0,0-1.83-1.525,7.143,7.143,0,0,1-2.511-5.078,5.794,5.794,0,0,1,5.432-6.156,6.827,6.827,0,0,1,4.111,1.107,6.356,6.356,0,0,1,2.25,7.35,6.807,6.807,0,0,1-1,1.84c-.459.6-1.139.964-1.608,1.535-.426.517-1.02,1.038-1.079,1.749l-.008.075-.043.017c-.354.032-.716.044-1.08.046,0-.072-.012-.146-.012-.218a112.989,112.989,0,0,1,1.04-5.592,4.573,4.573,0,0,1,.205-.482c.527.031,1.36.056,1.245-.667-.064-.4-.361-.391-.62-.167a2.641,2.641,0,0,0-.624.834l-.175-.01a2.272,2.272,0,0,1-.613-.154,2.315,2.315,0,0,1-1.149-.893,2.41,2.41,0,0,0,.287-1.272c0-.163-.127-.877-.437-.708s-.306.7-.253.986a2.6,2.6,0,0,0,.4.995l-.039.061a2.594,2.594,0,0,1-.472.454,1.749,1.749,0,0,1-.569.378,2.289,2.289,0,0,1-.613.154l-.176.01a2.64,2.64,0,0,0-.624-.834c-.259-.224-.556-.234-.62.167-.115.723.718.7,1.245.667a4.774,4.774,0,0,1,.206.482,16.817,16.817,0,0,1,.637,3.241c.131.856.4,1.688.461,2.549C465.131,337.458,464.86,337.449,464.6,337.444Z" transform="translate(-450.245 -306.471)" fill="#ffbc3b"/>
        <path id="Trazado_180549" data-name="Trazado 180549" d="M519.149,498.16h-.013a.439.439,0,0,1,.142-.372l.092-.047c.265,0,.536.014.811.022,0,.009,0,.019,0,.028.011-.011.006-.017.009-.028.414.012.837.024,1.258.021.364,0,.725-.014,1.08-.046l.043-.017c.163.1.171.342.171.515,0,.235-.013.468-.008.7,0,.17.007.34.006.51h-.029c-.067.023-.155-.065-.221-.1a9.8,9.8,0,0,0-1.657-.545A12.758,12.758,0,0,1,519.149,498.16Z" transform="translate(-505.02 -466.769)" fill="#dedede"/>
        <path id="Trazado_180550" data-name="Trazado 180550" d="M500.487,405.932a2.638,2.638,0,0,1,.624.834c-.527.031-1.36.056-1.245-.667C499.931,405.7,500.228,405.708,500.487,405.932Z" transform="translate(-487.254 -382.043)" fill="#ffbc3b"/>
        <path id="Trazado_180551" data-name="Trazado 180551" d="M429.223,466.842c.334-.217.792-.206.767.3-.02.4-.523.8-.772,1.061-.343.364-.7.719-1.035,1.088-.285.313-.578.642-.837.98a1.047,1.047,0,0,1-.738.459.423.423,0,0,1-.446-.515,1.931,1.931,0,0,1,.6-.844c.391-.4.792-.779,1.173-1.183.178-.19.355-.382.531-.572A4.417,4.417,0,0,1,429.223,466.842Z" transform="translate(-419.336 -438.19)" fill="#ffbc3b"/>
        <path id="Trazado_180552" data-name="Trazado 180552" d="M405.7,306.4c.275.289.345.742-.151.808-.392.052-.878-.369-1.184-.566-.421-.271-.834-.554-1.259-.819-.359-.224-.736-.452-1.116-.644a1.052,1.052,0,0,1-.587-.643.424.424,0,0,1,.426-.531,1.924,1.924,0,0,1,.94.439c.46.313.91.636,1.378.937.218.141.441.28.658.418A4.483,4.483,0,0,1,405.7,306.4Z" transform="translate(-396.521 -288.262)" fill="#ffbc3b"/>
        <path id="Trazado_180553" data-name="Trazado 180553" d="M384.322,398.762c.391.081.708.412.337.75-.292.266-.931.2-1.294.21-.5.017-1,.02-1.5.045-.423.021-.862.049-1.283.106a1.049,1.049,0,0,1-.849-.194.423.423,0,0,1,.047-.679,1.919,1.919,0,0,1,1.023-.176c.555,0,1.111,0,1.665-.015.26-.009.521-.022.779-.032A4.443,4.443,0,0,1,384.322,398.762Z" transform="translate(-376.423 -375.55)" fill="#ffbc3b"/>
        <path id="Trazado_180554" data-name="Trazado 180554" d="M923.063,751.1l0-.051a13.171,13.171,0,0,0,6.94-2.943l.042.052c-.084.663-.044,1.391-.094,1.986a22.427,22.427,0,0,0-.07,3.546,28.312,28.312,0,0,1-4.088.319,17.218,17.218,0,0,1-4.725-1.106,15.224,15.224,0,0,1-3.549-2.172,16.516,16.516,0,0,1-1.988-1.924c-.115-.121-.236-.281-.364-.445.748.42,1.511.819,2.286,1.225a14.78,14.78,0,0,0,3,1.11A11.361,11.361,0,0,0,923.063,751.1Z" transform="translate(-869.96 -697.497)" fill="#e39476"/>
        <path id="Trazado_180555" data-name="Trazado 180555" d="M862.992,1532.023c.784.613.454,1.614-.094,2.263s-1.761.092-2.051-.555a1.4,1.4,0,0,1,1.068-1.979A1.326,1.326,0,0,1,862.992,1532.023Z" transform="translate(-819.79 -1419.604)" fill="#37628f"/>
        <path id="Trazado_180556" data-name="Trazado 180556" d="M1127.144,914.048h-20.772c.029-3.183.071-6.389-.213-9.544a68.723,68.723,0,0,1-.31-7.983c.059-2.189-.115-4.409-.041-6.614.082-2.466.612-4.919.714-7.4a31.778,31.778,0,0,1,.784-5.44c.448-2.072.42-4.207.987-6.273.573-2.087,1.18-4.162,1.594-6.3.377-1.944.609-3.9,1.007-5.839a36.368,36.368,0,0,0,.209-13.239c-.208-1.289-.3-2.571-.618-3.846a12.983,12.983,0,0,0-3.71-6.657c-.72-.641-1.706-.951-2.409-1.546-.065-.349-.142-.7-.206-1.048-.005-.026-.01-.054-.014-.08a5.765,5.765,0,0,1,2.466.76c1.737.691,3.516,1.272,5.247,1.979.8.326,1.606.668,2.385,1.017.761.341,1.369.935,2.133,1.278.854.383,1.71.762,2.578,1.117a43.9,43.9,0,0,1,5.438,2.49,25.691,25.691,0,0,1,6.278,4.635,31.5,31.5,0,0,1,4.244,6.482,51.34,51.34,0,0,1,3.179,7.783,14.939,14.939,0,0,1,.651,1.931c.232,1.237.316,2.528.5,3.779q.318,2.122.58,4.253c.357,2.887.648,5.783.9,8.681.319,3.7.28,7.414.676,11.1.387,3.614,1.8,6.857,2.406,10.4.394,2.3-.065,4.608-.215,6.908-.081,1.239.375,2.436.36,3.669-.014,1.187-.333,2.347-.365,3.539Z" transform="translate(-1044.1 -775.015)" fill="#4f95cf"/>
        <path id="Trazado_180557" data-name="Trazado 180557" d="M523.454,631.946c-.125-.587-.2-1.178-.311-1.775-.116-.631-.259-1.258-.4-1.883-.594-2.614-1.041-5.052-.217-7.671.74-2.352,2.024-4.508,2.586-6.92a19.053,19.053,0,0,0,.24-5c-.067-2.066.041-4.139.053-6.2.009-1.446-.161-3.548,1.273-4.426a.972.972,0,0,1,1.088-.057c1.24.56,1.473,2.393,1.527,3.567.15,3.288.027,6.564.013,9.854,0,.178.033.289.04.451a4.076,4.076,0,0,1,1.337.163c1.918.578,3.221,2.282,4.4,3.821a3.82,3.82,0,0,1,2.067-2.88,1.443,1.443,0,0,1,1.018-.074,2.233,2.233,0,0,1,1.294,1.063c.556,1.137-.019,2.553-.269,3.7a10.822,10.822,0,0,0-.379,2.385c0,.9.153,1.783.175,2.677.018.727.014,1.461-.041,2.189a11.565,11.565,0,0,1-.476,2.616c-.635,2.02-1.874,3.764-2.72,5.692-.207.473-.381.956-.553,1.435a7.369,7.369,0,0,1-2.256,3.715c-1.671,1.282-3.907.861-5.605-.135a8.616,8.616,0,0,1-2.412-2.107,2.716,2.716,0,0,1-.6-1.372c-.139-.743-.5-1.454-.71-2.179C523.551,632.372,523.5,632.16,523.454,631.946Z" transform="translate(-507.729 -559.053)" fill="#f5b49b"/>
        <path id="Trazado_180558" data-name="Trazado 180558" d="M960.118,606.336c.393.969-.461,2.059-1.1,2.717a4.681,4.681,0,0,1-3.995,1.525,5.068,5.068,0,0,1-2.3-.793,6.889,6.889,0,0,1-1.78-1.614,1.844,1.844,0,0,1-.25-2,1.751,1.751,0,0,1,1.574-.576c.515.053,1.045.061,1.562.1a12.433,12.433,0,0,0,1.45-.007c.633-.029,1.27,0,1.9-.079a4.983,4.983,0,0,1,1.722-.186A1.565,1.565,0,0,1,960.118,606.336Z" transform="translate(-902.504 -565.981)" fill="#fff"/>
        <path id="Trazado_180559" data-name="Trazado 180559" d="M729.352,136.252c-.089-.626-.16-1.253-.234-1.876a10.913,10.913,0,0,0-.349-2.04c-.424-1.328-1.245-2.485-1.7-3.8a5.233,5.233,0,0,1-.324-1.839c.011-.714.105-1.423.167-2.135a23.954,23.954,0,0,1,.629-3.521,14.189,14.189,0,0,0,.751-4.69c-.019-.184-.043-.366-.066-.55a4.92,4.92,0,0,1,.8-3.111,9.274,9.274,0,0,1,3.718-3.91c1.775-.931,3.942-1.245,5.8-2.05a16.057,16.057,0,0,0,2.293-1.232c.3-.193.527-.442.842-.605.475-.246.978-.447,1.466-.656a8.512,8.512,0,0,1,1.836-.559,13.181,13.181,0,0,1,5.849.311c1.829.525,3.729,1.645,4.182,3.636.117.512.5.463.964.463a5.9,5.9,0,0,1,4.071.671c1.779.974,2.38,2.666,3.337,4.316a36.036,36.036,0,0,0,3.081,4.016c1.325,1.687,2.333,3.592,2,5.8a16.8,16.8,0,0,0-.279,3.029,12.54,12.54,0,0,1-.732,3.249,15.152,15.152,0,0,1-.488,1.975,10.524,10.524,0,0,0-.642,4.587c0,.114.01.228.017.342a10.3,10.3,0,0,1-.035,1.256,3.22,3.22,0,0,1-.154.874c-.089.246-.3.625-.6.67-.98.145-.792-2.7-.807-3.227a9.728,9.728,0,0,0-1.352-5.131,8.018,8.018,0,0,1-1.047-2.616,12.251,12.251,0,0,1-.3-2.932c0-1.572.116-3.158-.726-4.587a4.708,4.708,0,0,0-3.793-1.991c-.346-.027-.566,0-.9-.025a14.957,14.957,0,0,0-6.8.932,5.35,5.35,0,0,1-2.173.391c-1.9-.034-3.7-.794-5.542-1.181a9.533,9.533,0,0,0-2.684-.173,4.692,4.692,0,0,0-2.691.731,4.47,4.47,0,0,0-1.473,2.181,8.573,8.573,0,0,0-.359,1.806c-.077.767.145,1.5.081,2.256A9.3,9.3,0,0,1,734,129.08c-.166.306-.28.634-.42.951a5.305,5.305,0,0,1-.49.759,10.613,10.613,0,0,0-1.052,1.762c-.593,1.453-.219,3.045-.2,4.558a2.719,2.719,0,0,1-.4,1.8c-.42.524-.981.379-1.382-.092a3.346,3.346,0,0,1-.57-1.72C729.434,136.816,729.391,136.535,729.352,136.252Z" transform="translate(-696.332 -103.484)" fill="#1e244a"/>
        <path id="Trazado_180560" data-name="Trazado 180560" d="M1103.578,832.359c0,.027.009.054.014.08-.027-.017-.054-.013-.063-.074Z" transform="translate(-1043.531 -775.133)" fill="#8cc295"/>
        <path id="Trazado_180561" data-name="Trazado 180561" d="M1075.542,477.061a2.214,2.214,0,0,1-.376,1.6,1.5,1.5,0,0,1-1.638.424,1.628,1.628,0,0,1-.736-2.727,1.657,1.657,0,0,1,1.893-.5A1.955,1.955,0,0,1,1075.542,477.061Z" transform="translate(-1014.771 -446.496)" fill="#2b1a0f"/>
        <path id="Trazado_180562" data-name="Trazado 180562" d="M874.388,1719.742c.784.612.455,1.614-.093,2.263s-1.761.092-2.051-.555a1.4,1.4,0,0,1,1.067-1.979A1.326,1.326,0,0,1,874.388,1719.742Z" transform="translate(-830.292 -1592.585)" fill="#37628f"/>
        <path id="Trazado_180563" data-name="Trazado 180563" d="M367.355,1035.71c1.092,3.382-.7,5.335-1.19,8.5-.394,2.533.553,4.824.448,7.3-.068,1.6-.954,2.963-1.364,4.47a16.6,16.6,0,0,0-.409,2.055c-.917,6.6-2.4,13.17-3.695,19.72-.31,1.569-.578,3.264-.983,4.921a14.793,14.793,0,0,1-2.554,5.79c-3.109,3.908-10.584,5.425-14.531,1.824-2.356-2.15-3.262-5.573-3.584-8.636-.713-6.792,1.332-14.067,3.606-20.389.8-2.212,1.87-4.311,2.68-6.517a25.68,25.68,0,0,0,1.494-6.355,11.84,11.84,0,0,1,1.274-4.466c.875-1.624,2.389-2.791,2.923-4.607.727-2.47.259-5.333,2.777-6.926a4.569,4.569,0,0,0,.826-.488c.045.214.1.426.159.638.212.725.572,1.436.71,2.179a2.717,2.717,0,0,0,.6,1.372,8.618,8.618,0,0,0,2.412,2.107c1.7,1,3.934,1.417,5.605.135a7.369,7.369,0,0,0,2.256-3.715h0C367.208,1034.83,367.223,1035.3,367.355,1035.71Z" transform="translate(-339.35 -959.009)" fill="#4f95cf"/>
        <path id="Trazado_180564" data-name="Trazado 180564" d="M909.21,755.174c0-.056,0-.11,0-.165a32.038,32.038,0,0,0,0-3.332c-.033-.555-.087-1.108-.169-1.657-.035-.233-.11-.465-.152-.686s.019-.527-.124-.7l.1-.177q.2.115.4.229c.128.163.249.324.364.445a16.526,16.526,0,0,0,1.988,1.924,15.219,15.219,0,0,0,3.549,2.172,17.216,17.216,0,0,0,4.725,1.106,28.319,28.319,0,0,0,4.088-.319q.021.3.058.605c.018.144.04.285.064.426l-.049.006c.009.061.035.057.063.074.064.353.14.7.206,1.048a6.135,6.135,0,0,1,.127,1.457,6.786,6.786,0,0,1-.717,2.655,7.555,7.555,0,0,1-3.95,3.659c-.337.132-.671.282-1.012.4a5.25,5.25,0,0,1-1.959.264,9.915,9.915,0,0,1-1.979-.333,7.809,7.809,0,0,1-2.823-1.223,7.441,7.441,0,0,1-2.813-4.062,3.579,3.579,0,0,1-.051-1.753,4.487,4.487,0,0,0,.074-.887C909.23,755.96,909.2,755.563,909.21,755.174Z" transform="translate(-864.067 -697.819)" fill="#f5b49b"/>
        <path id="Trazado_180565" data-name="Trazado 180565" d="M1064.688,399.966a.61.61,0,0,1-.453.957,2.748,2.748,0,0,1-1.279-.267c-.185-.065-.385-.142-.573-.188a3.238,3.238,0,0,0-.7.009,5.675,5.675,0,0,0-1.907.44.708.708,0,0,1-.552-.025c-.579-.334-.126-.9.222-1.21a2.277,2.277,0,0,1,.766-.466,6.592,6.592,0,0,1,1.256-.374,4.177,4.177,0,0,1,1.09-.041A3.07,3.07,0,0,1,1064.688,399.966Z" transform="translate(-1002.451 -375.597)" fill="#1e244a"/>
        <path id="Trazado_180566" data-name="Trazado 180566" d="M874.214,399.966a.61.61,0,0,1-.453.957,2.744,2.744,0,0,1-1.278-.267c-.185-.065-.385-.142-.573-.188a3.245,3.245,0,0,0-.7.009,5.679,5.679,0,0,0-1.907.44.707.707,0,0,1-.552-.025c-.579-.334-.126-.9.222-1.21a2.269,2.269,0,0,1,.766-.466,6.6,6.6,0,0,1,1.255-.374,4.179,4.179,0,0,1,1.09-.041A3.068,3.068,0,0,1,874.214,399.966Z" transform="translate(-826.933 -375.597)" fill="#1e244a"/>
        <path id="Trazado_180567" data-name="Trazado 180567" d="M888.011,477.061a2.214,2.214,0,0,1-.377,1.6,1.5,1.5,0,0,1-1.638.424,1.629,1.629,0,0,1-.736-2.727,1.657,1.657,0,0,1,1.893-.5A1.956,1.956,0,0,1,888.011,477.061Z" transform="translate(-841.963 -446.496)" fill="#2b1a0f"/>
        <path id="Trazado_180568" data-name="Trazado 180568" d="M729.3,328.35q-.2-.114-.4-.229c-.766-.44-1.518-.907-2.255-1.429a17.95,17.95,0,0,1-4.078-3.64c-.635-.85-1.291-1.663-1.955-2.495-.59-.739-.972-1.62-1.543-2.372-.608-.8-1.293-.928-2.137-1.407a7.045,7.045,0,0,1-2.246-1.962,5.027,5.027,0,0,1-.621-.907,7.758,7.758,0,0,1-.447-1.174,3.922,3.922,0,0,1,.1-2.5,2.058,2.058,0,0,1,1.644-1.214c.937-.094,1.259.585,1.746,1.226.039.282.082.564.132.845a3.347,3.347,0,0,0,.57,1.72c.4.471.962.616,1.382.092a2.719,2.719,0,0,0,.4-1.8c-.021-1.513-.4-3.1.2-4.558a10.621,10.621,0,0,1,1.052-1.762,5.309,5.309,0,0,0,.49-.759c.14-.318.254-.645.42-.951a9.3,9.3,0,0,0,.994-3.769c.064-.76-.158-1.49-.081-2.256a8.576,8.576,0,0,1,.359-1.806,4.47,4.47,0,0,1,1.473-2.181,4.692,4.692,0,0,1,2.69-.732,9.533,9.533,0,0,1,2.684.173c1.842.386,3.641,1.146,5.542,1.181a5.35,5.35,0,0,0,2.173-.391,14.958,14.958,0,0,1,6.8-.932c.339.02.559,0,.9.025a4.709,4.709,0,0,1,3.793,1.991c.842,1.429.728,3.015.726,4.587a12.248,12.248,0,0,0,.3,2.932,8.018,8.018,0,0,0,1.047,2.616,9.729,9.729,0,0,1,1.352,5.131c.015.524-.173,3.372.807,3.227.3-.045.507-.424.6-.67a3.22,3.22,0,0,0,.154-.874,10.3,10.3,0,0,0,.035-1.256c-.007-.115-.012-.229-.017-.342l.046,0c.831-1.243,2.623-.6,3.117.589a4.047,4.047,0,0,1,.1,2.578,8.035,8.035,0,0,1-.462,1.212,5.235,5.235,0,0,1-.641.937,7.273,7.273,0,0,1-2.32,2.024c-.655.372-1.346.671-2.017,1.011l-.048-.021a23.674,23.674,0,0,1-3.2,5.521,44.7,44.7,0,0,1-3.413,3.553,14.24,14.24,0,0,1-1.117.963,13.171,13.171,0,0,1-6.94,2.943l0,.051a11.359,11.359,0,0,1-2.6-.4,14.788,14.788,0,0,1-3-1.11C730.815,329.169,730.053,328.77,729.3,328.35Zm16.574-25.541a.611.611,0,0,0,.454-.957,3.07,3.07,0,0,0-2.128-1.165,4.176,4.176,0,0,0-1.09.041,6.592,6.592,0,0,0-1.256.374,2.277,2.277,0,0,0-.766.466c-.349.311-.8.876-.222,1.21a.709.709,0,0,0,.552.025,5.673,5.673,0,0,1,1.907-.44,3.232,3.232,0,0,1,.7-.009c.188.046.387.123.573.188A2.748,2.748,0,0,0,745.879,302.809Zm-1.388,6.838a2.213,2.213,0,0,0,.376-1.6,1.954,1.954,0,0,0-.857-1.2,1.656,1.656,0,0,0-1.893.5,1.628,1.628,0,0,0,.736,2.727A1.5,1.5,0,0,0,744.49,309.647Zm-3.883,10.908c.64-.658,1.495-1.748,1.1-2.717a1.565,1.565,0,0,0-1.22-.912,4.985,4.985,0,0,0-1.722.186c-.629.082-1.266.05-1.9.079a12.413,12.413,0,0,1-1.45.007c-.517-.037-1.047-.045-1.562-.1a1.751,1.751,0,0,0-1.574.576,1.844,1.844,0,0,0,.25,2,6.888,6.888,0,0,0,1.78,1.614,5.069,5.069,0,0,0,2.3.793A4.681,4.681,0,0,0,740.608,320.555Zm-9.685-17.746a.61.61,0,0,0,.454-.957,3.069,3.069,0,0,0-2.128-1.165,4.179,4.179,0,0,0-1.09.041,6.6,6.6,0,0,0-1.255.374,2.268,2.268,0,0,0-.766.466c-.349.311-.8.876-.222,1.21a.707.707,0,0,0,.552.025,5.677,5.677,0,0,1,1.907-.44,3.241,3.241,0,0,1,.7-.009c.188.046.387.123.573.188A2.744,2.744,0,0,0,730.923,302.809Zm-1.157,6.838a2.214,2.214,0,0,0,.377-1.6,1.956,1.956,0,0,0-.858-1.2,1.657,1.657,0,0,0-1.893.5,1.629,1.629,0,0,0,.736,2.727A1.5,1.5,0,0,0,729.766,309.647Z" transform="translate(-684.095 -277.483)" fill="#f5b49b"/>
        <path id="Trazado_180569" data-name="Trazado 180569" d="M484.563,355.284a1.523,1.523,0,0,0-.919.849c-.042.191.017.4-.034.585-.085.316-.427.474-.672.691a1.4,1.4,0,0,0-.369,1.51c.157.411.512.749.558,1.187.039.371-.139.808.112,1.085.213.235.59.181.887.29.382.141.61.547.981.715.537.244,1.15-.083,1.739-.11a6.518,6.518,0,0,1,1.064.124,1.41,1.41,0,0,0,1.028-.194c.312-.237.426-.649.658-.965a4.722,4.722,0,0,1,.86-.764,1.456,1.456,0,0,0,.6-.948c.039-.521-.379-.957-.529-1.457a5.616,5.616,0,0,1-.115-1.018c-.034-.319-.139-.738-.47-.863a5.23,5.23,0,0,0-.564-.119c-.591-.151-.986-.719-1.549-.954a2,2,0,0,0-1.157-.078,6.763,6.763,0,0,1-1.1.313A2.483,2.483,0,0,0,484.563,355.284Z" transform="translate(-471.247 -335.072)" fill="#fff"/>
        <path id="Trazado_180570" data-name="Trazado 180570" d="M1121.21,1270.507c-.153,2.848-2.7,4.909-3.962,7.466-1.1,2.234-1.2,4.813-1.274,7.3" transform="translate(-1055 -1178.88)" fill="none"/>
        <path id="Trazado_180571" data-name="Trazado 180571" d="M923.348,1505.4a16.547,16.547,0,0,1-.406-2.55c-.355-2.091-.589-4.2-.775-6.314a23.729,23.729,0,0,0-.26-3.119,13.756,13.756,0,0,1-.279-2.334,51.574,51.574,0,0,0-2-11.5c.045.269.088.54.126.813.426,3.009.646,6.042.789,9.076q.009.187.017.375c.071,1.562.122,3.125.171,4.687.1,3.073.183,6.09.172,9.171-.007,2.291-.091,4.581-.2,6.869h3.345c-.051-.688-.145-1.378-.24-2.059A18.012,18.012,0,0,0,923.348,1505.4Z" transform="translate(-874.072 -1371.545)" fill="#ededed"/>
        <path id="Trazado_180572" data-name="Trazado 180572" d="M870.106,858.783c-.208-1.289-.3-2.571-.618-3.846a12.985,12.985,0,0,0-3.71-6.657c-.72-.641-1.706-.95-2.409-1.546a6.135,6.135,0,0,1,.127,1.457,6.787,6.787,0,0,1-.717,2.655,7.556,7.556,0,0,1-3.95,3.659c-.337.132-.671.282-1.012.4a5.249,5.249,0,0,1-1.959.264,9.912,9.912,0,0,1-1.979-.333,7.807,7.807,0,0,1-2.823-1.223,7.44,7.44,0,0,1-2.813-4.062,3.579,3.579,0,0,1-.051-1.753,4.488,4.488,0,0,0,.074-.887c-.207.212-.651.461-.9.686-1.583,1.43-2.385,3.871-3.108,5.819a32.734,32.734,0,0,0-1.638,11.2,69.891,69.891,0,0,0,.815,11.545,58.375,58.375,0,0,0,1.292,6.1c1.3,4.8,3.118,9.245,3.937,14.162a51.581,51.581,0,0,1,2,11.5,13.776,13.776,0,0,0,.279,2.334,23.727,23.727,0,0,1,.26,3.119c.186,2.113.42,4.223.775,6.314a16.53,16.53,0,0,0,.406,2.549,18.026,18.026,0,0,1,.462,3.115c.095.681.189,1.37.24,2.059h12.293c.029-3.183.07-6.389-.213-9.544a68.722,68.722,0,0,1-.31-7.983c.059-2.189-.115-4.409-.041-6.614.082-2.466.612-4.92.714-7.4a31.771,31.771,0,0,1,.784-5.44c.448-2.072.42-4.207.987-6.273.573-2.087,1.18-4.162,1.594-6.3.377-1.944.609-3.9,1.007-5.839A36.369,36.369,0,0,0,870.106,858.783Z" transform="translate(-803.103 -788.379)" fill="#fffbf2"/>
      </g>
      <g id="Layer_2" data-name="Layer 2" transform="translate(351.704 110.056)">
        <g id="Grupo_118159" data-name="Grupo 118159" transform="translate(42.369 1.236)">
          <path id="Trazado_180573" data-name="Trazado 180573" d="M1036.565,209.127a.221.221,0,0,1-.157-.376,12.434,12.434,0,0,0,2.856-5.643.221.221,0,1,1,.426.116c-.938,3.444-2.027,4.884-2.968,5.837A.22.22,0,0,1,1036.565,209.127Z" transform="translate(-1036.345 -202.946)"/>
        </g>
        <g id="Grupo_118160" data-name="Grupo 118160" transform="translate(45.914 5.206)">
          <path id="Trazado_180574" data-name="Trazado 180574" d="M1081.707,255.8a.221.221,0,0,1-.073-.429,9.449,9.449,0,0,0,3.128-1.813.221.221,0,1,1,.291.332,9.888,9.888,0,0,1-3.273,1.9A.22.22,0,0,1,1081.707,255.8Z" transform="translate(-1081.486 -253.503)"/>
        </g>
        <g id="Grupo_118161" data-name="Grupo 118161" transform="translate(32.124 0)">
          <path id="Trazado_180575" data-name="Trazado 180575" d="M909.734,192.562a.221.221,0,0,1-.215-.174,6.4,6.4,0,0,0-3.533-4.767.221.221,0,1,1,.17-.407,6.827,6.827,0,0,1,3.794,5.081.221.221,0,0,1-.216.267Z" transform="translate(-905.849 -187.197)"/>
        </g>
        <g id="Grupo_118162" data-name="Grupo 118162" transform="translate(24.425 3.881)">
          <path id="Trazado_180576" data-name="Trazado 180576" d="M811.955,238.005a.219.219,0,0,1-.107-.028,6.06,6.06,0,0,0-3.8-.865.221.221,0,0,1-.061-.437,6.489,6.489,0,0,1,4.073.916.221.221,0,0,1-.107.413Z" transform="translate(-807.799 -236.626)"/>
        </g>
        <g id="Grupo_118163" data-name="Grupo 118163" transform="translate(39.008 21.597)">
          <path id="Trazado_180577" data-name="Trazado 180577" d="M995.349,470.832a1.835,1.835,0,0,1-.733-.167,3.321,3.321,0,0,1-1.012-.641.221.221,0,1,1,.307-.317,2.9,2.9,0,0,0,.882.553,1.268,1.268,0,0,0,.7.119,1.828,1.828,0,0,0,.483-.15c.209-.1.844-.39.427-1.76-.138-.452-.3-.906-.458-1.346-.144-.4-.292-.816-.423-1.232a3.179,3.179,0,0,1-.115-.7c-.009-.108-.018-.211-.033-.315a9.432,9.432,0,0,1,.05-2.409.221.221,0,1,1,.438.052,9.044,9.044,0,0,0-.051,2.3c.016.116.026.229.036.338a2.8,2.8,0,0,0,.1.606c.128.408.275.818.417,1.216.159.444.323.9.464,1.366.437,1.436-.119,2.038-.663,2.289a2.278,2.278,0,0,1-.6.185A1.387,1.387,0,0,1,995.349,470.832Z" transform="translate(-993.537 -462.272)" fill="#ab684d"/>
        </g>
        <g id="Grupo_118164" data-name="Grupo 118164" transform="translate(18.021 26.87)">
          <path id="Trazado_180578" data-name="Trazado 180578" d="M729.539,534.073a.221.221,0,0,1-.2-.122,1.525,1.525,0,0,0-.561-.529,1.7,1.7,0,0,1-.711-.742,1.386,1.386,0,0,1,.043-.984,2.4,2.4,0,0,0,.093-.361.727.727,0,0,0-.07-.357c-.023-.064-.048-.131-.068-.2a.851.851,0,0,0-.259-.489,1.337,1.337,0,0,0-.884-.4.43.43,0,0,0-.3.2.221.221,0,1,1-.361-.254.859.859,0,0,1,.6-.383,1.681,1.681,0,0,1,1.224.5,1.28,1.28,0,0,1,.405.714c.015.056.035.111.057.17a1.119,1.119,0,0,1,.093.572,2.79,2.79,0,0,1-.108.428.984.984,0,0,0-.055.689,1.306,1.306,0,0,0,.549.54,1.91,1.91,0,0,1,.708.7.221.221,0,0,1-.2.32Z" transform="translate(-726.227 -529.439)" fill="#ab684d"/>
        </g>
        <g id="Grupo_118165" data-name="Grupo 118165" transform="translate(56.761 26.997)">
          <path id="Trazado_180579" data-name="Trazado 180579" d="M1219.874,535.825a.221.221,0,0,1-.2-.32,1.966,1.966,0,0,1,.729-.717,1.355,1.355,0,0,0,.569-.561,1.037,1.037,0,0,0-.057-.716,2.862,2.862,0,0,1-.111-.44,1.147,1.147,0,0,1,.095-.587c.022-.06.043-.118.059-.176a1.314,1.314,0,0,1,.416-.733,1.726,1.726,0,0,1,1.257-.511.88.88,0,0,1,.612.392.221.221,0,1,1-.361.254.451.451,0,0,0-.311-.209,1.388,1.388,0,0,0-.918.415.885.885,0,0,0-.27.508c-.021.076-.046.144-.07.211a.758.758,0,0,0-.073.372,2.521,2.521,0,0,0,.1.373,1.425,1.425,0,0,1,.045,1.011,1.721,1.721,0,0,1-.732.763,1.579,1.579,0,0,0-.581.549A.221.221,0,0,1,1219.874,535.825Z" transform="translate(-1219.653 -531.055)" fill="#ab684d"/>
        </g>
        <g id="Grupo_118166" data-name="Grupo 118166" transform="translate(13.909 50.088)">
          <path id="Trazado_180580" data-name="Trazado 180580" d="M674.2,832.454a.35.35,0,0,1-.122-.023.077.077,0,0,0-.026-.006.221.221,0,1,1,.035-.44.494.494,0,0,1,.121.024.226.226,0,0,1,.064,0c.586.044,1.1-.686,1.28-1.156a5.318,5.318,0,0,0,.255-2.685,4.947,4.947,0,0,0-.728-2.32l-.261-.339a.221.221,0,0,1,.35-.268l.259.337a5.288,5.288,0,0,1,.817,2.53,5.751,5.751,0,0,1-.281,2.906,2.876,2.876,0,0,1-.624.956,1.443,1.443,0,0,1-1.064.48A.4.4,0,0,1,674.2,832.454Z" transform="translate(-673.853 -825.151)" fill="#ab684d"/>
        </g>
        <g id="Grupo_118167" data-name="Grupo 118167" transform="translate(6.394 46.046)">
          <path id="Trazado_180581" data-name="Trazado 180581" d="M578.359,775.04a.221.221,0,0,1-.133-.4,5,5,0,0,1,2.545-.966.221.221,0,0,1,.038.44,4.557,4.557,0,0,0-2.318.879A.22.22,0,0,1,578.359,775.04Z" transform="translate(-578.138 -773.677)" fill="#ab684d"/>
        </g>
        <g id="Grupo_118168" data-name="Grupo 118168" transform="translate(7.247 51.253)">
          <path id="Trazado_180582" data-name="Trazado 180582" d="M592.856,849.477a1.027,1.027,0,0,1-.78-.295.557.557,0,0,0-.1-.056.482.482,0,0,1-.339-.379.221.221,0,0,1,.435-.067.911.911,0,0,0,.089.045.732.732,0,0,1,.241.155c.331.354,1.264.033,1.671-.239A4.005,4.005,0,0,0,595.312,844a3.134,3.134,0,0,0-.416-.7c-.064-.089-.129-.182-.19-.274-.959-1.461-1.906-2.3-2.815-2.493a6.836,6.836,0,0,0-2.63.075.221.221,0,1,1-.09-.432,7.28,7.28,0,0,1,2.812-.074c1.041.222,2.053,1.1,3.092,2.682.056.085.116.17.18.26a3.452,3.452,0,0,1,.472.81,4.491,4.491,0,0,1-1.413,5.162A2.966,2.966,0,0,1,592.856,849.477Z" transform="translate(-588.996 -839.986)" fill="#ab684d"/>
        </g>
        <g id="Grupo_118169" data-name="Grupo 118169" transform="translate(5.615 55.47)">
          <path id="Trazado_180583" data-name="Trazado 180583" d="M570.745,901.315a1.322,1.322,0,0,1-1.058-.55,1.94,1.94,0,0,1-.4-.984,2.516,2.516,0,0,1,.015-.412,1.13,1.13,0,0,0-.034-.558,2.769,2.769,0,0,0-.854-.931l-.116-.094a.221.221,0,1,1,.279-.342l.114.092a3.143,3.143,0,0,1,.977,1.088,1.487,1.487,0,0,1,.073.783,2.175,2.175,0,0,0-.014.34,1.506,1.506,0,0,0,.308.748.889.889,0,0,0,1.283.188,3.262,3.262,0,0,0,1.172-2.546,4.323,4.323,0,0,0-.206-1.439,3.724,3.724,0,0,0-1.013-1.39l-.1-.1a4.452,4.452,0,0,0-1.612-1.08.221.221,0,0,1,.155-.413,4.891,4.891,0,0,1,1.773,1.185l.1.1a4.1,4.1,0,0,1,1.121,1.571,4.761,4.761,0,0,1,.225,1.587,3.6,3.6,0,0,1-1.368,2.9A1.479,1.479,0,0,1,570.745,901.315Z" transform="translate(-568.219 -893.698)" fill="#ab684d"/>
        </g>
        <g id="Grupo_118170" data-name="Grupo 118170" transform="translate(10.571 59.71)">
          <path id="Trazado_180584" data-name="Trazado 180584" d="M631.56,951.531a.221.221,0,0,1-.211-.285,7.983,7.983,0,0,1,1.245-2.579c.1-.128.183-.247.268-.363.125-.17.243-.331.384-.515a.221.221,0,1,1,.351.268c-.138.181-.255.34-.379.508-.086.118-.174.237-.271.367a7.563,7.563,0,0,0-1.176,2.442A.221.221,0,0,1,631.56,951.531Z" transform="translate(-631.339 -947.702)" fill="#ab684d"/>
        </g>
        <g id="Grupo_118171" data-name="Grupo 118171" transform="translate(8.279 68.817)">
          <path id="Trazado_180585" data-name="Trazado 180585" d="M602.362,1112.023a.225.225,0,0,1-.051-.006.221.221,0,0,1-.163-.266c.259-1.085.462-2.188.659-3.255.1-.517.185-1,.282-1.492.32-1.62.657-3.27.983-4.864.993-4.857,2.02-9.88,2.71-14.843a16.625,16.625,0,0,1,.414-2.083,15.057,15.057,0,0,1,.592-1.654,8.363,8.363,0,0,0,.765-2.767,16.6,16.6,0,0,0-.266-3.148,13.6,13.6,0,0,1-.18-4.174,17.127,17.127,0,0,1,.787-2.92c.6-1.772,1.113-3.3.411-5.477-.033-.1-.058-.205-.083-.3-.073-.292-.135-.545-.347-.66a.221.221,0,0,1,.211-.388,1.3,1.3,0,0,1,.565.942c.024.1.047.188.075.276.747,2.312.184,3.984-.412,5.753a16.778,16.778,0,0,0-.769,2.847,13.253,13.253,0,0,0,.181,4.041,16.947,16.947,0,0,1,.27,3.232,8.822,8.822,0,0,1-.8,2.913,14.709,14.709,0,0,0-.575,1.605,16.17,16.17,0,0,0-.4,2.028c-.692,4.976-1.72,10.006-2.715,14.87-.326,1.594-.663,3.243-.982,4.862-.1.485-.186.971-.281,1.487-.2,1.073-.4,2.181-.664,3.277A.221.221,0,0,1,602.362,1112.023Z" transform="translate(-602.141 -1063.693)" fill="#2e5378"/>
        </g>
        <g id="Grupo_118172" data-name="Grupo 118172" transform="translate(2.414 76.95)">
          <path id="Trazado_180586" data-name="Trazado 180586" d="M533.128,1174.218a.219.219,0,0,1-.156-.065,63.17,63.17,0,0,1-5.487-6.512.221.221,0,1,1,.351-.267,62.817,62.817,0,0,0,5.448,6.468.22.22,0,0,1-.156.376Z" transform="translate(-527.44 -1167.287)" fill="#2e5378"/>
        </g>
        <g id="Grupo_118173" data-name="Grupo 118173" transform="translate(1.017 87.857)">
          <path id="Trazado_180587" data-name="Trazado 180587" d="M513.163,1307.222a10.923,10.923,0,0,1-3.362-.59.221.221,0,1,1,.135-.42,8.962,8.962,0,0,0,4.907.378.221.221,0,0,1,.1.43A7.807,7.807,0,0,1,513.163,1307.222Z" transform="translate(-509.648 -1306.201)" fill="#2e5378"/>
        </g>
        <g id="Grupo_118174" data-name="Grupo 118174" transform="translate(67.736 71.353)">
          <path id="Trazado_180588" data-name="Trazado 180588" d="M1362.39,1157.4h0a.22.22,0,0,1-.219-.223c.014-1.516-.12-3.08-.248-4.594-.112-1.314-.228-2.673-.246-3.993-.034-2.431-.157-4.9-.276-7.294-.043-.861-.087-1.751-.127-2.627-.234-5.184-.588-10.115-1.083-15.075a95.844,95.844,0,0,1-.647-15.431,48.271,48.271,0,0,1,2.48-12.019.221.221,0,1,1,.419.137,47.836,47.836,0,0,0-2.459,11.909,95.465,95.465,0,0,0,.646,15.36c.5,4.967.85,9.906,1.085,15.1.039.875.084,1.765.127,2.625.119,2.395.242,4.871.277,7.31.019,1.3.134,2.655.245,3.962.13,1.523.264,3.1.25,4.635A.22.22,0,0,1,1362.39,1157.4Z" transform="translate(-1359.436 -1095.997)" fill="#2e5378"/>
        </g>
        <g id="Grupo_118175" data-name="Grupo 118175" transform="translate(77.206 117.879)">
          <path id="Trazado_180589" data-name="Trazado 180589" d="M1480.271,1694.943a.221.221,0,0,1-.142-.389,18.043,18.043,0,0,0,4.867-5.843.221.221,0,1,1,.4.187,18.469,18.469,0,0,1-4.982,5.993A.219.219,0,0,1,1480.271,1694.943Z" transform="translate(-1480.051 -1688.584)" fill="#2e5378"/>
        </g>
        <g id="Grupo_118176" data-name="Grupo 118176" transform="translate(1.717 26.825)">
          <path id="Trazado_180590" data-name="Trazado 180590" d="M521.737,530.538a.247.247,0,0,1-.093-.018c-.1-.039-.194-.085-.287-.128a3.573,3.573,0,0,0-.394-.167c-.69-.226-1.381-.52-2.049-.8l-.193-.082a.248.248,0,1,1,.194-.457l.193.082c.659.28,1.34.569,2.01.789a3.975,3.975,0,0,1,.45.189c.091.043.177.083.262.117a.248.248,0,0,1-.093.478Z" transform="translate(-518.57 -528.862)" fill="#a19086"/>
        </g>
        <g id="Grupo_118177" data-name="Grupo 118177" transform="translate(1.614 25.775)">
          <path id="Trazado_180591" data-name="Trazado 180591" d="M520.883,517.052a.483.483,0,0,1-.166-.036l-.021-.007c-.1-.032-.178-.062-.25-.091l-.056-.023a2.424,2.424,0,0,0-.4-.137c-.656-.155-1.311-.37-1.944-.579-.208-.068-.415-.137-.621-.2a.248.248,0,0,1,.151-.473c.208.066.416.135.625.2.624.205,1.268.418,1.9.567a2.889,2.889,0,0,1,.47.161l.055.023c.062.025.133.051.219.08l.021.007a.249.249,0,0,1,.249.167.255.255,0,0,1-.061.268A.247.247,0,0,1,520.883,517.052Zm-.229-.178h0Z" transform="translate(-517.257 -515.491)" fill="#a19086"/>
        </g>
        <g id="Grupo_118178" data-name="Grupo 118178" transform="translate(1.702 24.67)">
          <path id="Trazado_180592" data-name="Trazado 180592" d="M521.99,503.1a.5.5,0,0,1-.275-.105.411.411,0,0,0-.036-.023,5.965,5.965,0,0,0-1.154-.4c-.151-.041-.307-.083-.461-.13-.108-.033-1.112-.373-1.538-.559a.248.248,0,0,1,.2-.455c.4.175,1.382.508,1.483.539.148.045.3.086.448.126a6.442,6.442,0,0,1,1.249.435.845.845,0,0,1,.089.054l.025.017a.248.248,0,0,1,.075.483A.317.317,0,0,1,521.99,503.1Z" transform="translate(-518.376 -501.412)" fill="#a19086"/>
        </g>
        <g id="Grupo_118179" data-name="Grupo 118179" transform="translate(0 15.092)">
          <path id="Trazado_180593" data-name="Trazado 180593" d="M500.763,389.055h0a.248.248,0,0,1-.246-.25,7.327,7.327,0,0,1,.235-1.55c.065-.289.127-.562.169-.836.033-.219.064-.44.095-.663a12.675,12.675,0,0,1,.555-2.626q.034-.093.07-.181a3.356,3.356,0,0,1-.5-.146,2.544,2.544,0,0,1-1.071-.724c-.071.07-.147.133-.218.191-.042.035-.084.07-.123.1a1.992,1.992,0,0,1-.653.427,3.352,3.352,0,0,1-.5.146q.036.088.07.181a12.674,12.674,0,0,1,.555,2.626c.031.223.061.444.095.663.051.334.126.674.2,1a12.4,12.4,0,0,1,.246,1.355.248.248,0,1,1-.494.052,11.99,11.99,0,0,0-.237-1.3c-.074-.337-.151-.685-.2-1.035-.034-.221-.065-.445-.1-.67a12.3,12.3,0,0,0-.53-2.523q-.06-.165-.126-.311a1.508,1.508,0,0,1-1.172-.3.757.757,0,0,1-.165-.658.58.58,0,0,1,.355-.5.684.684,0,0,1,.673.185,2.75,2.75,0,0,1,.608.765h.017a2.119,2.119,0,0,0,.544-.14,1.546,1.546,0,0,0,.486-.329c.044-.039.09-.078.137-.117a2.141,2.141,0,0,0,.239-.219,2.88,2.88,0,0,1-.347-.945,1.172,1.172,0,0,1,.378-1.248.413.413,0,0,1,.413,0c.355.205.391.915.391.922a2.794,2.794,0,0,1-.244,1.259,2.055,2.055,0,0,0,.94.677,2.119,2.119,0,0,0,.544.14h.017a2.751,2.751,0,0,1,.607-.765.685.685,0,0,1,.673-.185.58.58,0,0,1,.355.5.757.757,0,0,1-.165.658,1.507,1.507,0,0,1-1.172.3q-.065.146-.126.311a12.3,12.3,0,0,0-.53,2.523c-.031.225-.062.449-.1.67-.044.291-.111.586-.175.871a6.959,6.959,0,0,0-.223,1.445A.248.248,0,0,1,500.763,389.055Zm2.2-7.066a.378.378,0,0,0-.173.1,2.107,2.107,0,0,0-.361.408.811.811,0,0,0,.532-.143c.017-.019.069-.077.042-.247a.218.218,0,0,0-.04-.116Zm-5.73,0a.327.327,0,0,0-.035.113c-.027.17.025.228.042.247a.811.811,0,0,0,.532.143,2.106,2.106,0,0,0-.361-.408A.317.317,0,0,0,497.237,381.992ZM500,379.951a.974.974,0,0,0-.084.685,2.455,2.455,0,0,0,.129.455,2.664,2.664,0,0,0,.069-.683A1.371,1.371,0,0,0,500,379.951Z" transform="translate(-496.699 -379.422)" fill="#a84216"/>
        </g>
        <g id="Grupo_118180" data-name="Grupo 118180" transform="translate(26.286 89.72)">
          <path id="Trazado_180594" data-name="Trazado 180594" d="M835.366,1342.992a.221.221,0,0,1-.218-.189,38.525,38.525,0,0,0-1.63-6.4c-.213-.646-.47-1.31-.718-1.952a19.945,19.945,0,0,1-1.3-4.271.221.221,0,1,1,.437-.062,19.627,19.627,0,0,0,1.273,4.174c.25.647.51,1.317.726,1.973a38.954,38.954,0,0,1,1.647,6.473.221.221,0,0,1-.186.25Z" transform="translate(-831.499 -1329.93)" fill="#2e5378"/>
        </g>
        <g id="Grupo_118181" data-name="Grupo 118181" transform="translate(71.35 65.545)">
          <path id="Trazado_180595" data-name="Trazado 180595" d="M1405.688,1026.516a.22.22,0,0,1-.2-.3,15.724,15.724,0,0,1,1.359-2.452c.333-.524.677-1.066.964-1.617a.221.221,0,1,1,.391.2c-.3.569-.645,1.119-.983,1.65a15.387,15.387,0,0,0-1.323,2.382A.221.221,0,0,1,1405.688,1026.516Z" transform="translate(-1405.468 -1022.024)" fill="#2e5378"/>
        </g>
      </g>
    </g>
    <g id="Grupo_118183" data-name="Grupo 118183" transform="translate(890 4335)">
      <g id="Grupo_117240" data-name="Grupo 117240" transform="translate(308 985) rotate(180)">
        <path id="Trazado_100600" data-name="Trazado 100600" d="M713.6-210.305l2.423-2.423,8.456,8.456,2.423,2.423-2.423,2.423-8.456,8.456-2.423-2.423,8.456-8.456Z" transform="translate(-702.564 212.728)" fill="#2d54fe"/>
        <path id="Trazado_100601" data-name="Trazado 100601" d="M776.91-201.849l-8.456-8.456,2.423-2.423,8.456,8.456,2.423,2.423-2.423,2.423-8.456,8.456-2.423-2.423Z" transform="translate(-768.453 212.728)" fill="#2d54fe"/>
      </g>
      <g id="Grupo_117241" data-name="Grupo 117241" transform="translate(166.667 950.479) rotate(90)">
        <path id="Trazado_100600-2" data-name="Trazado 100600" d="M0,13.922l1.744,1.744L7.833,9.578,9.578,7.833,7.833,6.089,1.744,0,0,1.744,6.089,7.833Z" transform="translate(7.944)" fill="#fe502d"/>
        <path id="Trazado_100601-2" data-name="Trazado 100601" d="M6.089,7.833,0,13.922l1.744,1.744L7.833,9.578,9.578,7.833,7.833,6.089,1.744,0,0,1.744Z" fill="#fe502d"/>
      </g>
      <rect id="Rectángulo_36648" data-name="Rectángulo 36648" width="39" height="10" transform="translate(275 871) rotate(180)" fill="#ffca00"/>
      <rect id="Rectángulo_36650" data-name="Rectángulo 36650" width="39" height="10" transform="translate(210 929.12) rotate(180)" fill="#2d54fe"/>
    </g>
  </g>
</svg>
