<svg xmlns="http://www.w3.org/2000/svg" width="172.742" height="148" viewBox="0 0 172.742 148">
  <g id="Grupo_118270" data-name="Grupo 118270" transform="translate(-415.258 -5375)">
    <rect id="Rectángulo_37026" data-name="Rectángulo 37026" width="86" height="86" rx="43" transform="translate(447 5375)" fill="#fe502d"/>
    <g id="Grupo_118190" data-name="Grupo 118190" transform="translate(3.292 5365.11)">
      <g id="Grupo_118185" data-name="Grupo 118185" transform="translate(415.29 26.209)">
        <path id="Trazado_180597" data-name="Trazado 180597" d="M612.493,138.841s13.638,21.3,16.494,33.865-1.286,17.406-12.445,15.08Z" transform="translate(-486.353 -69.157)" fill="#db554b"/>
        <path id="Trazado_180598" data-name="Trazado 180598" d="M471.81,154.955s1.573-5.384,4.374-7.062,20.336-3.773,20.336-3.773,7.709,1.919,10.622,2.273,5.9,1.823,6.091,11.563a34.888,34.888,0,0,1-.265,6.8l-3.442,1.236L505.995,181.7l.677,21.008H471.81l2.879-37.426Z" transform="translate(-436.498 -71.027)" fill="#5f0040"/>
        <path id="Trazado_180599" data-name="Trazado 180599" d="M496.942,140.275l.58,4.313s5.6,1.216,8.914-1.768l-.608-8.651Z" transform="translate(-445.404 -67.501)" fill="#ff7261"/>
        <path id="Trazado_180600" data-name="Trazado 180600" d="M472.079,106.663s-.546,7.922-2.363,12.07.945,8.169,2.2,8.7a8.036,8.036,0,0,1,1.058-.9l.158-1.957a1.907,1.907,0,0,0,.926.954c.652.274,2.607-1.065,3.124-.825s-.443-17.8-.443-17.8Z" transform="translate(-435.543 -57.753)" fill="#1f1200"/>
        <path id="Trazado_180601" data-name="Trazado 180601" d="M570.575,93.88l-1.368,7.826s6.288,3.386,11.045,3.95,6.046-.806,6.046-.806l-2.821-10Z" transform="translate(-471.014 -53.223)" fill="#ff7261"/>
        <path id="Trazado_180602" data-name="Trazado 180602" d="M591.943,53.913l.86,11.931s3.117.43,3.224,1.828-2.472,2.472-2.687,3.009-.107,10.534-3.117,13.543-14.08-.645-14.08-.645l-6.449-2.257-3.655-24.936S590.868,53.16,591.943,53.913Z" transform="translate(-469.891 -39.019)" fill="#ff7261"/>
        <path id="Trazado_180603" data-name="Trazado 180603" d="M592.413,62.973a6.563,6.563,0,0,0,3.432,1.771,5.9,5.9,0,0,0,3.548-.325Z" transform="translate(-479.238 -42.27)" fill="#1f1200"/>
        <path id="Trazado_180604" data-name="Trazado 180604" d="M588.9,49.135s-11.229.216-12.948,2.688a9.476,9.476,0,0,1-2.15,8.491V62.84h-2.848s-.484-3.654-3.01-3.654-2.794,5.106-1.129,7.309,3.493,1.881,3.493,1.881l-3.9,6.523s-9.859-12.059-8.892-21.034,9.19-13.7,15.1-13.543S586.908,42.472,588.9,49.135Z" transform="translate(-466.847 -34.242)" fill="#1f1200"/>
        <path id="Trazado_180605" data-name="Trazado 180605" d="M578.531,76.25l3.386-.215s-.269,4.3,2.418,4.783,5.966-2.794,8.6-3.332a6.7,6.7,0,0,1,4.834,1.075,43.431,43.431,0,0,1,1.347,11.34c-.269,5.267-6.18,9.244-11.985,6.5s-6.341-6.825-7.309-11.877S578.531,76.25,578.531,76.25Z" transform="translate(-474.318 -46.899)" fill="#1f1200"/>
        <path id="Trazado_180606" data-name="Trazado 180606" d="M564.9,39.029c-.151-.464,2.741-5.438-1.451-7.395s-9.3.139-9.566,5.03,7.524,5.375,7.524,5.375Z" transform="translate(-465.582 -30.907)" fill="#1f1200"/>
        <path id="Trazado_180607" data-name="Trazado 180607" d="M597.473,67.964c0,.875-.252,1.586-.564,1.586s-.564-.71-.564-1.586.253-1.585.564-1.585S597.473,67.089,597.473,67.964Z" transform="translate(-480.631 -43.477)" fill="#1f1200"/>
        <path id="Trazado_180608" data-name="Trazado 180608" d="M476.99,101.013s.812,9.822,1.081,12.047a12.57,12.57,0,0,0,7.667,10.126c2.22.877,5.207.85,9.524-1.4,0,0,6.174-3.913,7.709-13.346a87.275,87.275,0,0,0,1.369-14.964,22.792,22.792,0,0,0-13.149-7.94C482.624,83.863,476.636,91.547,476.99,101.013Z" transform="translate(-438.329 -50.184)" fill="#ff7261"/>
        <path id="Trazado_180609" data-name="Trazado 180609" d="M478.2,84.737c-2.039,2.16-7.175,4.933-6.769,9.737s.766,4.843.766,4.843l4.1,1.029,1.048-4.175s.475,3.247,1.274,4.342a35.36,35.36,0,0,0,7.8,1.034l.606-2.413.329,2.541,1.365.128.555-2.212.86,2.567,4.878.262,0,4.7s1.153,8.679-.247,14.045c0,0,9.249-1.42,12.862-4.681s3.746-13.994,2.2-20.26A21.279,21.279,0,0,0,503.9,85.415C497.564,78.856,484.1,78.479,478.2,84.737Z" transform="translate(-436.354 -48.397)" fill="#1f1200"/>
        <path id="Trazado_180610" data-name="Trazado 180610" d="M496.05,115.35l6.655-.494a5.431,5.431,0,0,1-3.642,1.5A6.531,6.531,0,0,1,496.05,115.35Z" transform="translate(-445.088 -60.657)" fill="#1f1200"/>
        <path id="Trazado_180611" data-name="Trazado 180611" d="M485.994,114.153l-6.326-2.123a5.434,5.434,0,0,0,3.158,2.353A6.525,6.525,0,0,0,485.994,114.153Z" transform="translate(-439.283 -59.655)" fill="#1f1200"/>
        <path id="Trazado_180612" data-name="Trazado 180612" d="M495.5,116l1.509.836A1.628,1.628,0,0,1,495.5,116Z" transform="translate(-444.895 -61.063)" fill="#1f1200"/>
        <g id="Grupo_118184" data-name="Grupo 118184" transform="translate(44.894 57.219)">
          <path id="Trazado_180613" data-name="Trazado 180613" d="M490.438,126.154a.276.276,0,0,0-.059-.535s-.611-.07-1.241-.132a2.444,2.444,0,0,1-1.9-1.118c-.032-.1-.132-.4.329-.815a5.86,5.86,0,0,0,1.446-3.739.276.276,0,0,0-.552-.013,5.4,5.4,0,0,1-1.265,3.344,1.269,1.269,0,0,0-.481,1.4,2.909,2.909,0,0,0,2.373,1.493c.626.061,1.232.13,1.232.13A.275.275,0,0,0,490.438,126.154Z" transform="translate(-486.652 -119.534)" fill="#1f1200"/>
        </g>
        <path id="Trazado_180614" data-name="Trazado 180614" d="M483.7,117.371c.014.75-.33,1.365-.768,1.373s-.8-.593-.818-1.344.33-1.365.768-1.373S483.681,116.621,483.7,117.371Z" transform="translate(-440.148 -61.072)" fill="#1f1200"/>
        <path id="Trazado_180615" data-name="Trazado 180615" d="M498.53,119.475c.014.75-.33,1.365-.768,1.373s-.8-.593-.819-1.344.33-1.364.768-1.373S498.516,118.725,498.53,119.475Z" transform="translate(-445.405 -61.818)" fill="#1f1200"/>
        <path id="Trazado_180616" data-name="Trazado 180616" d="M489.5,134.115s-.059-1.18,1.537-1.029a4.922,4.922,0,0,1,2.772,1.4S489.887,133.42,489.5,134.115Z" transform="translate(-442.769 -67.112)" fill="#1f1200"/>
        <path id="Trazado_180617" data-name="Trazado 180617" d="M514.054,174.432a13.961,13.961,0,0,0-12.063-2.53l-4.355,18.713-22.761-4.467,1.489,5.144S498.49,202,504.61,198.706,514.054,174.432,514.054,174.432Z" transform="translate(-437.584 -80.707)" fill="#db554b"/>
        <path id="Trazado_180618" data-name="Trazado 180618" d="M468.565,160.9s-7.743,19.978-5.507,27.392,21.555-.444,24.018-2.635l6.229,1.223,1.586-6.813s-4.528-2.109-8.647-.708-15.7,3.054-15.7,3.054l2.989-15.306S470.188,161.4,468.565,160.9Z" transform="translate(-433.253 -76.975)" fill="#ff7261"/>
        <path id="Trazado_180619" data-name="Trazado 180619" d="M478.756,187.7s-3.193-5.73-5.036-6.784-4.073-2.388-6.109-1.79c-.82.24-.281,1.123,2.788,1.861l1.255,1.41a17.611,17.611,0,0,0-3.938-1.269c-1.653-.176-1.861.755-1.018,1.229s2.9.966,4.056,1.861c0,0-2.95-.685-4.108-.106s-.533,1.475,1.392,1.475,2.362.526,2.362.526-2.753-.632-3.227.527,1.475.211,2.213.843a6.067,6.067,0,0,1,1.242,1.635Z" transform="translate(-434.461 -83.379)" fill="#db554b"/>
        <path id="Trazado_180620" data-name="Trazado 180620" d="M601.492,65.944s1.294-.233,1.677-.792a1.139,1.139,0,0,1-1.06,1.118,2.434,2.434,0,0,1-1.471-.147Z" transform="translate(-482.152 -43.043)" fill="#1f1200"/>
        <path id="Trazado_180621" data-name="Trazado 180621" d="M604.373,85.431s.309-.75-1.544-.75-4.1,1.809-4.1,1.809S602.977,85.1,604.373,85.431Z" transform="translate(-481.474 -49.963)" fill="#fff6f5"/>
        <path id="Trazado_180622" data-name="Trazado 180622" d="M497.082,143.1s4.069-.959,5.6-2.843a6.948,6.948,0,0,1-5.324,4.888Z" transform="translate(-445.454 -69.658)" fill="#1f1200"/>
        <path id="Trazado_180623" data-name="Trazado 180623" d="M542.3,125.308a22.984,22.984,0,0,1,3.884-15.808c5.3-7.319,15.182-3.41,15.182-3.41L577.7,109.5s6.8,2.8,12.271,21.219,0,42.431,0,42.431l.177,15.712h-37.25l-2.825-36.72S542.411,129.693,542.3,125.308Z" transform="translate(-461.419 -57.181)" fill="#7767ff"/>
        <path id="Trazado_180624" data-name="Trazado 180624" d="M544.036,141.445s9-6.2,15.536-4.612,19.772,36.96,19.772,36.96,11.56-10.116,13.725-11.71,6.4,2.336,7.46,3.46.353,4.479-1.589,6.774-5.257,18.359-13.927,21.537-17.478-1.059-24.725-12.71S544.389,147.24,544.036,141.445Z" transform="translate(-462.094 -68.353)" fill="#ff7261"/>
        <path id="Trazado_180625" data-name="Trazado 180625" d="M590.52,170.627s.832-2.932-2.918-4.006-7.818,1.816-7.124,3.366,5.5.213,5.5.213-6.837,2.193-5.341,4.248,6.964-.948,6.964-.948-4.293,2.1-3.652,3.644,5.061-.451,5.061-.451-3.832,2.107-2.711,3.5,4.218.1,4.218.1l1.775,4.217s1.752-4.749,1.378-8.328A8.384,8.384,0,0,0,590.52,170.627Z" transform="translate(-474.981 -78.919)" fill="#db554b"/>
        <path id="Trazado_180626" data-name="Trazado 180626" d="M572.2,119.533s1.776,8.168,1.269,12.466C573.464,132,578.539,126.627,572.2,119.533Z" transform="translate(-472.073 -62.314)" fill="#1f1200"/>
        <path id="Trazado_180627" data-name="Trazado 180627" d="M599.313,194.457s3.133,6.886-1.567,12.424C597.746,206.881,606.884,203.289,599.313,194.457Z" transform="translate(-481.127 -88.866)" fill="#1f1200"/>
        <path id="Trazado_180628" data-name="Trazado 180628" d="M589.043,171.931h2.764S590.974,170.45,589.043,171.931Z" transform="translate(-478.043 -80.65)" fill="#1f1200"/>
        <path id="Trazado_180629" data-name="Trazado 180629" d="M588.86,176.919l2.125-.882s-5.554.646-7.036,2.536A15.727,15.727,0,0,0,588.86,176.919Z" transform="translate(-476.238 -82.338)" fill="#1f1200"/>
        <path id="Trazado_180630" data-name="Trazado 180630" d="M586.935,182.887s3.823-1.764,5.537-1.764,1.808.389,1.808.389-2.264.376-2.726.493S587.443,183.161,586.935,182.887Z" transform="translate(-477.296 -84.141)" fill="#1f1200"/>
        <path id="Trazado_180631" data-name="Trazado 180631" d="M516.57,156.505l-.416,10.7S513.81,161.549,516.57,156.505Z" transform="translate(-451.884 -75.416)" fill="#1f1200"/>
        <path id="Trazado_180632" data-name="Trazado 180632" d="M478.789,165.238l1.509-9.618-2.813,7.545Z" transform="translate(-438.509 -75.103)" fill="#1f1200"/>
        <path id="Trazado_180633" data-name="Trazado 180633" d="M511.633,202.5l2.309,3.654S511.31,206.876,511.633,202.5Z" transform="translate(-450.601 -91.715)" fill="#1f1200"/>
      </g>
      <g id="Grupo_118186" data-name="Grupo 118186" transform="translate(411.966 67.526)">
        <path id="Trazado_180634" data-name="Trazado 180634" d="M438.3,116.936s-6.779-7.627-10.814-7.849-1.775,2.9-3.067,3.116-6.618-1.019-11.137,0,3.551-.369,10.169,2.182,5.326-.619,4.519-2.182,7.909,4.9,9.2,5.7S439.307,118.014,438.3,116.936Z" transform="translate(-411.966 -99.925)" fill="#2d54fe"/>
        <path id="Trazado_180635" data-name="Trazado 180635" d="M441.057,106.737s-4.279-9.263-8.077-10.644-2.541,2.265-3.838,2.094-6.039-2.893-10.659-3.226,3.506.675,9.1,5.033,5.277.951,4.958-.779,6.151,6.978,7.153,8.123S441.711,108.062,441.057,106.737Z" transform="translate(-413.791 -94.902)" fill="#2d54fe"/>
      </g>
      <g id="Grupo_118187" data-name="Grupo 118187" transform="translate(551.204 56.795)">
        <path id="Trazado_180636" data-name="Trazado 180636" d="M628.2,100.218s7.774-7.441,11.8-7.057,1.354,3.515,2.6,3.955,6.7-.1,11.028,1.744-3.464-.968-10.372.839-5.189-1.524-4.172-3.14-8.513,4.22-9.9,4.916S627.048,101.262,628.2,100.218Z" transform="translate(-627.633 -83.55)" fill="#2d54fe"/>
        <path id="Trazado_180637" data-name="Trazado 180637" d="M628.016,89.033s5.527-9.657,9.48-10.6,2.2,2.923,3.51,2.937,6.382-2.28,11-1.927-3.566.2-9.713,4.186-5.358.233-4.8-1.645-7.062,6.816-8.215,7.935S627.185,90.408,628.016,89.033Z" transform="translate(-627.657 -78.282)" fill="#2d54fe"/>
      </g>
      <g id="Grupo_118188" data-name="Grupo 118188" transform="translate(461.08 39.463)">
        <path id="Trazado_180638" data-name="Trazado 180638" d="M488.766,54.128l1.515,2.974-2.242,1.228,1.121,1.875,3.643-2.133-2.382-4.4Z" transform="translate(-488.039 -52.229)" fill="#2d54fe"/>
        <path id="Trazado_180639" data-name="Trazado 180639" d="M495.147,51.435l1.688,2.893,2.4-.931.965,1.947-4.026,1.432-2.41-4.383Z" transform="translate(-490.069 -51.435)" fill="#2d54fe"/>
        <path id="Trazado_180640" data-name="Trazado 180640" d="M502.588,64.575l-1.473-2.741,2.4-.948-.846-1.994-3.913,1.677,2.015,4.3Z" transform="translate(-491.836 -54.078)" fill="#2d54fe"/>
        <path id="Trazado_180641" data-name="Trazado 180641" d="M494.923,67.722l-1.472-2.676-2.259,1.2-1.221-1.821,3.8-1.884,2.668,4.262Z" transform="translate(-488.724 -55.371)" fill="#2d54fe"/>
      </g>
      <g id="Grupo_118189" data-name="Grupo 118189" transform="translate(526.774 17.65)">
        <path id="Trazado_180642" data-name="Trazado 180642" d="M597.535,17.65l-1.755,2.839-2.214-1.278-1.02,1.931,3.715,2,2.52-4.318Z" transform="translate(-590.769 -17.65)" fill="#2d54fe"/>
        <path id="Trazado_180643" data-name="Trazado 180643" d="M604.076,21.508l-1.6,2.945,2.044,1.57-1.163,1.836-3.314-2.7,2.494-4.336Z" transform="translate(-593.427 -18.776)" fill="#2d54fe"/>
        <path id="Trazado_180644" data-name="Trazado 180644" d="M596.3,34.9l1.577-2.682,2.054,1.555,1.264-1.759-3.465-2.473-2.625,3.953Z" transform="translate(-591.676 -21.863)" fill="#2d54fe"/>
        <path id="Trazado_180645" data-name="Trazado 180645" d="M590.469,30.039l1.523-2.648-2.2-1.307.922-1.989,3.584,2.269-2.257,4.493Z" transform="translate(-589.793 -19.934)" fill="#2d54fe"/>
      </g>
      <path id="Trazado_180646" data-name="Trazado 180646" d="M526.437,55.971l5.488-.673.807,9.384,2.582-13.212h-4.842V44L524.5,45.092Z" transform="translate(-39.88 -9.338)" fill="#2d54fe"/>
    </g>
    <g id="Grupo_118191" data-name="Grupo 118191" transform="translate(269 4538)">
      <g id="Grupo_117240" data-name="Grupo 117240" transform="translate(319 985) rotate(180)">
        <path id="Trazado_100600" data-name="Trazado 100600" d="M713.6-210.305l2.423-2.423,8.456,8.456,2.423,2.423-2.423,2.423-8.456,8.456-2.423-2.423,8.456-8.456Z" transform="translate(-702.564 212.728)" fill="#2d54fe"/>
        <path id="Trazado_100601" data-name="Trazado 100601" d="M776.91-201.849l-8.456-8.456,2.423-2.423,8.456,8.456,2.423,2.423-2.423,2.423-8.456,8.456-2.423-2.423Z" transform="translate(-768.453 212.728)" fill="#2d54fe"/>
      </g>
      <g id="Grupo_117241" data-name="Grupo 117241" transform="translate(171 950.479) rotate(90)">
        <path id="Trazado_100600-2" data-name="Trazado 100600" d="M0,13.922l1.744,1.744L7.833,9.578,9.578,7.833,7.833,6.089,1.744,0,0,1.744,6.089,7.833Z" transform="translate(7.944)" fill="#fe502d"/>
        <path id="Trazado_100601-2" data-name="Trazado 100601" d="M6.089,7.833,0,13.922l1.744,1.744L7.833,9.578,9.578,7.833,7.833,6.089,1.744,0,0,1.744Z" fill="#fe502d"/>
      </g>
      <rect id="Rectángulo_36648" data-name="Rectángulo 36648" width="39" height="10" transform="translate(302 871) rotate(180)" fill="#ffca00"/>
      <rect id="Rectángulo_36650" data-name="Rectángulo 36650" width="39" height="10" transform="translate(197 941.12) rotate(180)" fill="#2d54fe"/>
    </g>
  </g>
</svg>
