<svg xmlns="http://www.w3.org/2000/svg" xmlns:xlink="http://www.w3.org/1999/xlink" width="166.833" height="158" viewBox="0 0 166.833 158">
  <defs>
    <clipPath id="clip-path">
      <rect id="Rectángulo_36886" data-name="Rectángulo 36886" width="134" height="158" transform="translate(1020 5557)" fill="#fff" stroke="#707070" stroke-width="1"/>
    </clipPath>
  </defs>
  <g id="Grupo_118271" data-name="Grupo 118271" transform="translate(-1020 -5557)">
    <rect id="Rectángulo_37027" data-name="Rectángulo 37027" width="86" height="86" rx="43" transform="translate(1077 5573)" fill="#fe502d"/>
    <g id="Grupo_118202" data-name="Grupo 118202" transform="translate(899 4736)">
      <g id="Grupo_117240" data-name="Grupo 117240" transform="translate(287.834 978.879) rotate(180)">
        <path id="Trazado_100600" data-name="Trazado 100600" d="M713.6-210.305l2.423-2.423,8.456,8.456,2.423,2.423-2.423,2.423-8.456,8.456-2.423-2.423,8.456-8.456Z" transform="translate(-702.564 212.728)" fill="#2d54fe"/>
        <path id="Trazado_100601" data-name="Trazado 100601" d="M776.91-201.849l-8.456-8.456,2.423-2.423,8.456,8.456,2.423,2.423-2.423,2.423-8.456,8.456-2.423-2.423Z" transform="translate(-768.453 212.728)" fill="#2d54fe"/>
      </g>
      <g id="Grupo_117241" data-name="Grupo 117241" transform="translate(185.333 959.24) rotate(90)">
        <path id="Trazado_100600-2" data-name="Trazado 100600" d="M0,13.922l1.744,1.744L7.833,9.578,9.578,7.833,7.833,6.089,1.744,0,0,1.744,6.089,7.833Z" transform="translate(7.944)" fill="#fe502d"/>
        <path id="Trazado_100601-2" data-name="Trazado 100601" d="M6.089,7.833,0,13.922l1.744,1.744L7.833,9.578,9.578,7.833,7.833,6.089,1.744,0,0,1.744Z" fill="#fe502d"/>
      </g>
      <rect id="Rectángulo_36648" data-name="Rectángulo 36648" width="39" height="10" transform="translate(283 907) rotate(180)" fill="#ffca00"/>
      <rect id="Rectángulo_36650" data-name="Rectángulo 36650" width="39" height="10" transform="translate(197 941.12) rotate(180)" fill="#2d54fe"/>
    </g>
    <g id="Enmascarar_grupo_72" data-name="Enmascarar grupo 72" clip-path="url(#clip-path)">
      <g id="Grupo_118201" data-name="Grupo 118201" transform="translate(-253.874 5120.943)">
        <g id="Grupo_118196" data-name="Grupo 118196" transform="translate(1305.253 443.213)">
          <path id="Trazado_180647" data-name="Trazado 180647" d="M1359.41,648.4c1.032-.3,15.542-.221,15.472.383s-.309,9.034-.437,9.85c.043,1.818-2.306,4.384-7.651,4.511s-7.813-2.325-7.856-4.143c-.219-.919-.9-9.819-.9-9.819Z" transform="translate(-1348.159 -609.875)" fill="#2b478b"/>
          <path id="Trazado_180648" data-name="Trazado 180648" d="M1340.806,460.023c-.13-5.443-4.651-16.81-17.764-16.81-13.815,0-17.64,11.985-17.781,16.565-.2,6.417,3.327,11.506,7.587,15.322,2.279,2.041,2.279,7.421,2.279,7.421l16.848-.4s-.389-4.736,2.263-7.232A19.787,19.787,0,0,0,1340.806,460.023Z" transform="translate(-1305.253 -443.213)" fill="#ffcd57"/>
          <g id="Grupo_118192" data-name="Grupo 118192" transform="translate(6.653 18.358)">
            <path id="Trazado_180649" data-name="Trazado 180649" d="M1343.394,543.63l-2.366-1.024c-.3-.128-.279-.339.036-.469h0a1.505,1.505,0,0,1,1.018,0l1.325.574a.487.487,0,0,0,.347-.006l2.263-1.043a.506.506,0,0,1,.332-.012l2.689.961a.5.5,0,0,0,.332-.012l.255-.118a6.6,6.6,0,0,1,4.566-.108l.279.113a.492.492,0,0,0,.326,0l2.834-1.11a.5.5,0,0,1,.339,0l2.031.945a.487.487,0,0,0,.341,0l1.708-.7a1.5,1.5,0,0,1,1.013,0h0c.293.127.277.337-.037.466l-2.8,1.153a.491.491,0,0,1-.343,0l-2.057-.957a.5.5,0,0,0-.339,0l-2.761,1.081a.516.516,0,0,1-.328,0l-.189-.077a6.6,6.6,0,0,0-4.566.108l-.2.09a.493.493,0,0,1-.332.012l-2.69-.962a.49.49,0,0,0-.331.012l-2.359,1.088A.486.486,0,0,1,1343.394,543.63Z" transform="translate(-1340.817 -541.342)" fill="#f28933"/>
          </g>
          <g id="Grupo_118195" data-name="Grupo 118195" transform="translate(8.204 17.744)">
            <g id="Grupo_118193" data-name="Grupo 118193" transform="translate(12.442)">
              <path id="Trazado_180650" data-name="Trazado 180650" d="M1415.975,561.755a.365.365,0,0,0,.365-.365,41.632,41.632,0,0,1,5.928-22.781.365.365,0,0,0-.629-.37,42.3,42.3,0,0,0-6.029,23.15A.365.365,0,0,0,1415.975,561.755Z" transform="translate(-1415.61 -538.061)" fill="#2b478b"/>
            </g>
            <g id="Grupo_118194" data-name="Grupo 118194">
              <path id="Trazado_180651" data-name="Trazado 180651" d="M1355.447,561.755a.365.365,0,0,0,.365-.365,42.3,42.3,0,0,0-6.029-23.15.364.364,0,1,0-.628.37,41.633,41.633,0,0,1,5.928,22.781A.365.365,0,0,0,1355.447,561.755Z" transform="translate(-1349.104 -538.061)" fill="#2b478b"/>
            </g>
          </g>
          <path id="Trazado_180652" data-name="Trazado 180652" d="M1371.754,660.75l-15.885.377a1.167,1.167,0,0,1-1.194-1.139l0-.09a1.167,1.167,0,0,1,1.139-1.194l15.885-.377a1.167,1.167,0,0,1,1.195,1.139l0,.09A1.167,1.167,0,0,1,1371.754,660.75Z" transform="translate(-1345.427 -618.083)" fill="#5370b5"/>
          <path id="Trazado_180653" data-name="Trazado 180653" d="M1372.131,676.621l-15.885.377a1.167,1.167,0,0,1-1.194-1.139l0-.09a1.167,1.167,0,0,1,1.139-1.195l15.885-.377a1.167,1.167,0,0,1,1.194,1.139l0,.09A1.167,1.167,0,0,1,1372.131,676.621Z" transform="translate(-1345.733 -630.985)" fill="#5370b5"/>
          <path id="Trazado_180654" data-name="Trazado 180654" d="M1372.176,692.765l-15.885.377A1.167,1.167,0,0,1,1355.1,692l0-.09a1.167,1.167,0,0,1,1.139-1.195l15.885-.377a1.167,1.167,0,0,1,1.194,1.139l0,.09A1.167,1.167,0,0,1,1372.176,692.765Z" transform="translate(-1345.77 -644.108)" fill="#5370b5"/>
        </g>
        <g id="Grupo_118200" data-name="Grupo 118200" transform="translate(1313.557 481.984)">
          <g id="Grupo_118197" data-name="Grupo 118197" transform="translate(60.178 39.577)">
            <path id="Trazado_180655" data-name="Trazado 180655" d="M1809.615,1207.972l-.449,2.854a5.625,5.625,0,0,0,1.951,8.1s2.26,1.238,2.762-.488.035-1.115.8-3.538.239-4.884-1.37-5.908l-1.114-1.735Z" transform="translate(-1782.572 -1142.67)" fill="#ffb27d"/>
            <path id="Trazado_180656" data-name="Trazado 180656" d="M1700.22,930.032c-2.293.3-2.612.082-2.612.082s-7.061-21.116-7.811-23.068-18.484-25.6-18.484-25.6l9.19-19.441s18.552,35.811,20.354,40.793c2.976,8.233,2.372,25.99,2.372,25.99A6.447,6.447,0,0,1,1700.22,930.032Z" transform="translate(-1671.314 -862.008)" fill="#ed7d2b"/>
            <path id="Trazado_180657" data-name="Trazado 180657" d="M1839.851,1227.7a11.689,11.689,0,0,0,.912,2.982c.489.681.961,1.281.53,1.61s-2.227-1.459-2.3-1.826A16.022,16.022,0,0,1,1839.851,1227.7Z" transform="translate(-1807.625 -1159.288)" fill="#ffb27d"/>
          </g>
          <path id="Trazado_180658" data-name="Trazado 180658" d="M1654.442,796.512s-7.25,5.994-14.31,1.655a23.4,23.4,0,0,1-.411-7.167c.063-.359.121-.707.175-1.039.555-3.289.779-5.15.779-5.15h.008c.372-.081,12.479-2.662,12.4-2.279C1651.279,791.37,1654.442,796.512,1654.442,796.512Z" transform="translate(-1585.33 -757.792)" fill="#ffb27d"/>
          <path id="Trazado_180659" data-name="Trazado 180659" d="M1652.991,792.162a17.912,17.912,0,0,1-11.671,5.519c.555-3.289.779-5.149.779-5.149h.008C1642.434,792.5,1653.423,791.627,1652.991,792.162Z" transform="translate(-1586.753 -765.511)" fill="#ed975d"/>
          <path id="Trazado_180660" data-name="Trazado 180660" d="M1628.259,703.794s12.131,5.279,15.3-2.326,6.873-12.045-.738-15.738-10.336-1.422-12.012.859S1625.186,702.225,1628.259,703.794Z" transform="translate(-1575.212 -677.544)" fill="#ffb27d"/>
          <path id="Trazado_180661" data-name="Trazado 180661" d="M1633.023,676.46c.153.142,2.728,1.475,9.758-7.874a9.1,9.1,0,0,0,.961-8.29c-1.329-3.429-7.588-7.072-12.962-9.139s-7.28.823-9.162,3.733c-1.976,3.055-6.444,5.054-6.444,5.054,4.313,3.553,10.791.767,12.679,1.761s2.023,4.279,1.99,5.318.045,1.922,2.728,1.475.491,3.776-.067,4.558C1632.5,673.056,1631.746,675.272,1633.023,676.46Z" transform="translate(-1565.499 -650.457)" fill="#a9453d"/>
          <g id="Grupo_118198" data-name="Grupo 118198" transform="translate(31.677 100.005)">
            <path id="Trazado_180662" data-name="Trazado 180662" d="M1808.084,1777.845h7.8c1.634,0,3.451-1.637,3.906-4.634s3.815-4.634,4.542-7.087-3-5.906-3-5.906l-.623-.8-.648-.834-6.177,1.453s-.152,1.471-.248,3.344a42.834,42.834,0,0,0-.025,4.288c.182,3.272-.916,6.793-3.822,7.43S1808.084,1777.845,1808.084,1777.845Z" transform="translate(-1753.797 -1651.283)" fill="#2c3a64"/>
            <path id="Trazado_180663" data-name="Trazado 180663" d="M1518.968,1812.638h20.671a1.869,1.869,0,0,0,.439-.127c1.38-.691.948-5.975.782-7.607-.032-.3-.054-.48-.054-.48s-7.268-5.814-8.269-1.362c-.032.139-.068.275-.107.409v0c-1.262,4.165-6.9,6.057-10.161,6.584C1519.78,1810.462,1519.134,1811.913,1518.968,1812.638Z" transform="translate(-1518.968 -1686.076)" fill="#2c3a64"/>
            <path id="Trazado_180664" data-name="Trazado 180664" d="M1541.238,1216.068s1.1,13.773,2.4,30.328c1.764,22.489,3.884,50.114,4.094,55.347.363,9.087,1.818,23.623,1.818,23.623s3.451,3.453,10.358,2a237.8,237.8,0,0,0,7.912-42.706c.027-.36.055-.722.082-1.085,1.636-22.35,4.179-69.414,4.179-69.414Z" transform="translate(-1537.072 -1208.709)" fill="#2b478b"/>
            <path id="Trazado_180665" data-name="Trazado 180665" d="M1541.238,1216.068s1.1,13.773,2.4,30.328l24.182,38.263c.027-.36.055-.722.082-1.085,1.636-22.35,4.179-69.414,4.179-69.414Z" transform="translate(-1537.072 -1208.709)" fill="#233862"/>
            <path id="Trazado_180666" data-name="Trazado 180666" d="M1568.185,1194.016s19.9,49.88,32.98,73.32,17.172,29.982,17.172,29.982,7.5-3,8.177-5.042c0,0-5-45.253-13.765-56.285-4.951-6.234-10.766-24.94-11.039-31.481s-1.772-19.488-1.772-19.488Z" transform="translate(-1558.978 -1185.021)" fill="#2b478b"/>
          </g>
          <path id="Trazado_180667" data-name="Trazado 180667" d="M1535.436,913.835a1.23,1.23,0,0,0,.8.365c2.914.161,11.3,2.349,18.535,2.1a53.633,53.633,0,0,0,17.518-3.8c.79-.291,2.613-1.11,2.633-1.968.037-.936.037-2.3.034-4.021a214.6,214.6,0,0,1,1.464-28c.274-2.188.487-4.361.641-6.508a99.37,99.37,0,0,0-.059-15.831c-.826-9.028-3.142-16.247-7.072-19.62-.518-.425-3.968.98-7.141,2.288a12.758,12.758,0,0,1-8.419.447l-2.841,2.185a26.855,26.855,0,0,0-9.3,12.834c-2.941,9.1-5.211,33.642-5.508,38.185C1536.529,893.692,1535.1,913.528,1535.436,913.835Z" transform="translate(-1500.637 -801.678)" fill="#ff9843"/>
          <path id="Trazado_180668" data-name="Trazado 180668" d="M1546.112,892.391a83.144,83.144,0,0,1,2.418-10.869,25.8,25.8,0,0,1,7.805-11.571c4.624,1.505,9.528,3.416,11.569,5.265,4.341,3.933,3.667,12,3.667,12s-9.935,18.961-28.526,31.183C1543.561,912.031,1544.8,900.414,1546.112,892.391Z" transform="translate(-1506.864 -828.889)" fill="#ed7d2b"/>
          <g id="Grupo_118199" data-name="Grupo 118199" transform="translate(0 4.38)">
            <path id="Trazado_180669" data-name="Trazado 180669" d="M1357.266,684.2c.1-1.37.283-4.447-.117-4.36a1.708,1.708,0,0,0-.891.939c-.272,1.126-2.379-.325-3.561-3.43-.674-1.769-1.006-3.475-1.267-3.478-.512-.007-1.666,1.459-1.779,4.583s.782,6.7,3.293,8.419l1.693,1.983,3.79-1.906S1357.82,685.6,1357.266,684.2Z" transform="translate(-1349.64 -673.871)" fill="#ffb27d"/>
            <path id="Trazado_180670" data-name="Trazado 180670" d="M1370.982,735c2.015-1.41,3.019-.532,3.019-.532s16.729,19.049,18.393,20.522,27.174,7.293,27.174,7.293,10.3,1.917,11.748,7.687c1.26,5.013-1.05,8.658-3.861,11.115a10.824,10.824,0,0,1-12.113,1.418c-8.862-4.605-26.461-13.91-29.537-16.743-6.848-6.306-17.151-28.117-17.151-28.117A7.747,7.747,0,0,1,1370.982,735Z" transform="translate(-1365.097 -722.911)" fill="#ff9843"/>
          </g>
        </g>
      </g>
    </g>
  </g>
</svg>
