<svg xmlns="http://www.w3.org/2000/svg" width="150.917" height="157" viewBox="0 0 150.917 157">
  <g id="Grupo_118272" data-name="Grupo 118272" transform="translate(-447 -5760)">
    <rect id="Rectángulo_37028" data-name="Rectángulo 37028" width="86" height="86" rx="43" transform="translate(458 5760)" fill="#fe502d"/>
    <g id="Grupo_118215" data-name="Grupo 118215" transform="translate(345.694 5714.438)">
      <g id="Character" transform="translate(101.305 65.93)">
        <g id="Grupo_118210" data-name="Grupo 118210" transform="translate(0 0)">
          <path id="Trazado_180671" data-name="Trazado 180671" d="M304.654,113.683a83.392,83.392,0,0,0-10.349,3.646,4.825,4.825,0,0,0,.091-.807c-.182.328-.365.657-.547.99a1.04,1.04,0,0,0-.132.055,4.932,4.932,0,0,0-.073-1.068,3.123,3.123,0,0,1-.6,1.3l-.046.059q-.363.143-.712.287a9.136,9.136,0,0,0-.014-2.149,15.064,15.064,0,0,1-.328,2.017c-.023.1-.046.2-.073.3-.319.132-.625.255-.922.383-.064-.255-.132-.511-.2-.767-.109.328-.219.657-.328.981l-.383.16a6.9,6.9,0,0,0-.26-1.132,8.258,8.258,0,0,1-.228,1.337c-.1.046-.21.087-.31.132a10.933,10.933,0,0,0-.242-2.035c-.064.52-.128,1.036-.187,1.551-.028.233-.055.466-.087.7-1.373.584-2.231.963-2.231.963s-.1-4.964,0-12.493,1.6-13.689,4.668-16.709c3.089-3.039,9.632-3.495,12.726-.807s3.963,8.938,2.788,15.057C306,109.154,312.534,111.864,304.654,113.683Z" transform="translate(-209.194 -88.802)" fill="#263238"/>
          <path id="Trazado_180672" data-name="Trazado 180672" d="M264.1,224.654l.293-.891a2.5,2.5,0,0,1,1.46-1.548l3.863-1.521,1.93.943c-.518,2.106-2.893,4.235-2.893,4.235l-.6.663a1.724,1.724,0,0,1-2.071.393l-1.453-.848A1.179,1.179,0,0,1,264.1,224.654Z" transform="translate(-196.129 -165.658)" fill="#b55b52"/>
          <path id="Trazado_180673" data-name="Trazado 180673" d="M291.307,167.132c-.073.7-.151,1.32-.251,1.97s-.208,1.279-.32,1.916c-.24,1.271-.508,2.537-.829,3.794s-.676,2.512-1.081,3.758-.876,2.483-1.388,3.71l-.071.17a2.056,2.056,0,0,1-.415.629,21.613,21.613,0,0,1-2.813,2.368c-.935.691-1.892,1.308-2.85,1.908s-1.933,1.158-2.92,1.691-1.976,1.044-3.017,1.513a1.436,1.436,0,0,1-1.551-2.377l.019-.017c.8-.722,1.641-1.437,2.459-2.15s1.642-1.419,2.444-2.132,1.6-1.426,2.351-2.137a22.333,22.333,0,0,0,2.01-2.112l-.486.8q.531-1.672.973-3.4c.285-1.155.558-2.318.8-3.495s.469-2.359.671-3.546l.3-1.78.27-1.74.013-.082a2.868,2.868,0,0,1,5.686.739Z" transform="translate(-201.544 -132.601)" fill="#b55b52"/>
          <path id="Trazado_180674" data-name="Trazado 180674" d="M304.689,152.29c-7.819.959-9.154,15.838-8.445,18.848,1.1,2.575,5.9,1.239,5.9,1.239S309.739,161.092,304.689,152.29Z" transform="translate(-214.803 -125.798)" fill="#263238"/>
          <path id="Trazado_180675" data-name="Trazado 180675" d="M302.528,197.3a4.975,4.975,0,0,1-.7,1.2.225.225,0,0,1-.089.066c-.425.177-3.422,1.324-5.939-.381a.269.269,0,0,1-.1-.115,5.265,5.265,0,0,1-.316-2.022.243.243,0,0,1,.325-.225,18.375,18.375,0,0,0,6.572,1.137A.246.246,0,0,1,302.528,197.3Z" transform="translate(-214.399 -151.156)" fill="#fff"/>
          <path id="Trazado_180676" data-name="Trazado 180676" d="M387.053,409c3.811,0,3.532-.059,5.668-.131,1.829-.066,2.285.164,3.756.131,1.229-.026,1.095-1.205.613-2.561-.241-.681-.6-1.513-.944-2.613h-5.79a5.23,5.23,0,0,1-4.28,2.915C384.048,407.017,385.533,409,387.053,409Z" transform="translate(-266.67 -272.372)" fill="#263238"/>
          <path id="Trazado_180677" data-name="Trazado 180677" d="M312.349,402.922c4.845,0,5.307-2.092,7.109-3.191,1.543-.945,2.158-.683,3.752-1.581,1.056-.6.587-1.9-.261-2.595a11.431,11.431,0,0,1-2.058-2.162l-4.722,2.1c-.257,1.906-1.15,5.107-4,5.31C310.133,400.95,310.849,402.922,312.349,402.922Z" transform="translate(-223.447 -266.293)" fill="#263238"/>
          <path id="Trazado_180678" data-name="Trazado 180678" d="M302.121,218.872s-9.194,23.367-10.4,34.955c-.035,9.59,13.264,38.175,13.264,38.175.412.715,4.233-1.339,4.722-2.1-4.9-11.961-2.324-26.924-6.742-35.7,9.474-13.472,16.821-38.405,16.821-38.405Z" transform="translate(-212.265 -162.805)" fill="#407bff"/>
          <path id="Trazado_180679" data-name="Trazado 180679" d="M312.72,234.145a.1.1,0,0,1-.023-.206,4.782,4.782,0,0,0,2.858-1.858.1.1,0,1,1,.177.111,4.917,4.917,0,0,1-2.988,1.951Z" transform="translate(-224.439 -172.265)" fill="#fff" opacity="0.2"/>
          <path id="Trazado_180680" data-name="Trazado 180680" d="M334.133,246.731c-2.046,4.142-2.367,10.317-2.2,15.047a163.674,163.674,0,0,0,6.831-15.879l-.023-.021A2.936,2.936,0,0,0,334.133,246.731Z" transform="translate(-235.673 -179.884)" opacity="0.2"/>
          <path id="Trazado_180681" data-name="Trazado 180681" d="M329.335,217.318s2.437,21.831,7.285,36.728c2.417,7.428,16.231,24.3,21.249,39.581.932.519,4.073.55,5.79,0,0,0-7.708-33.6-16.006-40.665-.026-18.155.624-26.916-3.344-38.25Z" transform="translate(-234.182 -162.173)" fill="#407bff"/>
          <path id="Trazado_180682" data-name="Trazado 180682" d="M374.8,300.549a.1.1,0,0,1-.1-.087c-3.434-20.284-15.716-37.957-15.84-38.133a.108.108,0,0,1-.018-.069c0-.024.211-2.522.427-11.727.2-8.679-.6-18.1-.7-19.234a9.719,9.719,0,0,1-6.422-1.075.1.1,0,0,1,.114-.174c2.684,1.76,6.344,1.032,6.38,1.024a.1.1,0,0,1,.125.093c.01.1.926,10.153.709,19.371-.2,8.612-.4,11.36-.425,11.7.587.849,12.48,18.261,15.853,38.188a.1.1,0,0,1-.085.12Z" transform="translate(-247.447 -171.099)" fill="#fff" opacity="0.2"/>
          <g id="Grupo_118203" data-name="Grupo 118203" transform="translate(122.573 128.738)">
            <path id="Trazado_180683" data-name="Trazado 180683" d="M395.06,397.863a15.524,15.524,0,0,1,.416,2.141.636.636,0,0,0,.526.527,20.675,20.675,0,0,0,6.065-.328.31.31,0,0,0,.251-.368l-.261-2a.632.632,0,0,0-.6-.515l-6.087.118A.32.32,0,0,0,395.06,397.863Z" transform="translate(-395.046 -397.317)" fill="#407bff"/>
            <path id="Trazado_180684" data-name="Trazado 180684" d="M395.06,397.863a15.524,15.524,0,0,1,.416,2.141.636.636,0,0,0,.526.527,20.675,20.675,0,0,0,6.065-.328.31.31,0,0,0,.251-.368l-.261-2a.632.632,0,0,0-.6-.515l-6.087.118A.32.32,0,0,0,395.06,397.863Z" transform="translate(-395.046 -397.317)" opacity="0.2"/>
          </g>
          <g id="Grupo_118204" data-name="Grupo 118204" transform="translate(91.334 124.563)">
            <path id="Trazado_180685" data-name="Trazado 180685" d="M320.21,390.072c.188.527.519,1.468.739,2.175a.443.443,0,0,0,.551.292,30.774,30.774,0,0,0,5.186-2.372.443.443,0,0,0,.22-.469l-.375-2.023a.446.446,0,0,0-.6-.333l-5.463,2.169A.442.442,0,0,0,320.21,390.072Z" transform="translate(-320.184 -387.31)" fill="#407bff"/>
            <path id="Trazado_180686" data-name="Trazado 180686" d="M320.21,390.072c.188.527.519,1.468.739,2.175a.443.443,0,0,0,.551.292,30.774,30.774,0,0,0,5.186-2.372.443.443,0,0,0,.22-.469l-.375-2.023a.446.446,0,0,0-.6-.333l-5.463,2.169A.442.442,0,0,0,320.21,390.072Z" transform="translate(-320.184 -387.31)" opacity="0.2"/>
          </g>
          <path id="Trazado_180687" data-name="Trazado 180687" d="M315.466,214.068a7.628,7.628,0,0,1-.652,2.467c.75.508,3.323,1.073,6.6,1.214.306-.5.5-1.834.74-2.377a4.866,4.866,0,0,0,1.463,2.4,32.908,32.908,0,0,0,5.447-.536c6.367-1.2,7.866-3.173,7.866-3.173s-1.217-3.672-1.564-5.02C332.089,209.31,315.64,209.788,315.466,214.068Z" transform="translate(-225.72 -158.872)" fill="#fff"/>
          <path id="Trazado_180688" data-name="Trazado 180688" d="M301.655,156.8a92.873,92.873,0,0,0,3.235,8.84c2.479,6.384,1.9,7.789,2.54,10.411a15.92,15.92,0,0,0,5.581,1.075,8.488,8.488,0,0,1,1.133-1.864,8.487,8.487,0,0,0,2.962,1.369c4.056-.623,9.288-2.2,11.126-4.143-1.4-5.64-1.906-11.792-2.724-25.322a4.8,4.8,0,0,0-5.933-4.533c-.8.191-1.636.411-2.488.664a65.44,65.44,0,0,0-8.819,3.085c-.928.422-1.879.89-2.783,1.354A7.745,7.745,0,0,0,301.655,156.8Z" transform="translate(-217.857 -120.091)" fill="#263238"/>
          <path id="Trazado_180689" data-name="Trazado 180689" d="M383.5,218.895l-.628-.7a2.5,2.5,0,0,1-.619-2.036l.6-4.108,1.776-1.208c1.572,1.5,2.241,4.614,2.241,4.614l.275.854a1.725,1.725,0,0,1-.687,1.993l-1.457.84A1.18,1.18,0,0,1,383.5,218.895Z" transform="translate(-265.001 -159.919)" fill="#b55b52"/>
          <path id="Trazado_180690" data-name="Trazado 180690" d="M357.581,151.252c.538.5.989.943,1.458,1.428s.91.963,1.356,1.451c.881.985,1.735,2,2.546,3.044s1.6,2.121,2.335,3.234,1.428,2.27,2.084,3.449l.084.15a1.771,1.771,0,0,1,.145.348,21.677,21.677,0,0,1,.659,3.617c.135,1.155.2,2.292.241,3.421s.046,2.253.019,3.375-.075,2.233-.184,3.37a1.436,1.436,0,0,1-2.833.167l-.005-.025c-.228-1.057-.433-2.139-.646-3.2s-.417-2.129-.638-3.18-.446-2.093-.688-3.1a22.344,22.344,0,0,0-.836-2.793l.229.5c-.668-.988-1.356-1.964-2.092-2.922s-1.5-1.9-2.284-2.824-1.591-1.841-2.419-2.735l-1.245-1.332c-.411-.431-.853-.891-1.229-1.271l-.048-.048a2.868,2.868,0,0,1,3.99-4.119Z" transform="translate(-247.832 -124.747)" fill="#b55b52"/>
          <path id="Trazado_180691" data-name="Trazado 180691" d="M344.2,142.487c7.375-2.768,15.444,9.805,16.207,12.8.214,2.793-4.654,3.827-4.654,3.827S343.8,152.626,344.2,142.487Z" transform="translate(-242.839 -119.855)" fill="#263238"/>
          <path id="Trazado_180692" data-name="Trazado 180692" d="M321.168,158.983a.261.261,0,0,1-.132-.486,17.279,17.279,0,0,0,4.195-4.92.261.261,0,0,1,.466.235,17.636,17.636,0,0,1-4.4,5.136A.26.26,0,0,1,321.168,158.983Z" transform="translate(-229.271 -126.464)" fill="#407bff"/>
          <path id="Trazado_180693" data-name="Trazado 180693" d="M316.394,159.429a.258.258,0,0,1-.131-.035,5.434,5.434,0,0,1-1.99-4.729.255.255,0,0,1,.28-.241.261.261,0,0,1,.24.28,4.952,4.952,0,0,0,1.733,4.24.261.261,0,0,1-.132.486Z" transform="translate(-225.395 -127.04)" fill="#407bff"/>
          <path id="Trazado_180694" data-name="Trazado 180694" d="M321.085,121.547c.487,3.076,1.78,8.467,4.286,9.715,0,0-2.829.537-7.3,6.061-2.482-1.792-1.518-2.977-1.518-2.977,2.956-1.882,2.3-3.873.967-5.837Z" transform="translate(-226.626 -107.883)" fill="#b55b52"/>
          <path id="Trazado_180695" data-name="Trazado 180695" d="M322.727,148.615c1.973-.39,3.554,2.243,3.554,2.243s3.4-4.772,4.041-7.524a19.686,19.686,0,0,1-2.015-.47S323.445,147.147,322.727,148.615Z" transform="translate(-230.331 -120.305)" fill="#fff"/>
          <path id="Trazado_180696" data-name="Trazado 180696" d="M315.195,153.631a3.777,3.777,0,0,0-1.26,3.5c-1.878-3.988-.191-5.369-.191-5.369a2.549,2.549,0,0,1,1.614-.84A2.133,2.133,0,0,0,315.195,153.631Z" transform="translate(-224.691 -124.998)" fill="#fff"/>
          <path id="Trazado_180697" data-name="Trazado 180697" d="M321.242,128.353l-2.111,4.119a9.314,9.314,0,0,1,.828,1.446c1.106-.7,2.232-2.743,1.9-4.063A4.492,4.492,0,0,0,321.242,128.353Z" transform="translate(-228.236 -111.849)" opacity="0.2"/>
          <path id="Trazado_180698" data-name="Trazado 180698" d="M299.822,128.526h-.968a.115.115,0,0,1-.112-.139l.484-2.23a.115.115,0,0,1,.112-.09h0a.114.114,0,0,1,.111.09l.484,2.23a.115.115,0,0,1-.112.139ZM299,128.3h.685l-.342-1.579Z" transform="translate(-216.354 -110.517)" fill="#fff"/>
          <path id="Trazado_180699" data-name="Trazado 180699" d="M309.239,98.826c1.152,4.8,1.739,6.806.163,10.063-2.371,4.9-8.353,5.548-10.875,1.256-2.27-3.864-3.772-11.069.138-14.577A6.327,6.327,0,0,1,309.239,98.826Z" transform="translate(-214.903 -91.718)" fill="#b55b52"/>
          <path id="Trazado_180700" data-name="Trazado 180700" d="M295.063,99.258c4.42-.862,7.1-5.146,9.184-5.019-.318,3.244,2.228,6.914,4.737,7,3.392.117.249-8.218-2.028-9.536C304.547,90.31,294.281,90.209,295.063,99.258Z" transform="translate(-214.186 -90.088)" fill="#263238"/>
          <path id="Trazado_180701" data-name="Trazado 180701" d="M319.229,105.609a1.772,1.772,0,0,1-1.039-.363c-1.531-1.1-2.457-4.5-1.868-6.882a.228.228,0,0,1,.443.11c-.54,2.184.313,5.414,1.691,6.4a1.231,1.231,0,0,0,1.491.045.228.228,0,1,1,.246.384A1.776,1.776,0,0,1,319.229,105.609Z" transform="translate(-226.495 -94.273)" fill="#263238"/>
          <path id="Trazado_180702" data-name="Trazado 180702" d="M310.034,114.33c.114.4.006.795-.242.885s-.542-.161-.656-.56-.006-.795.242-.885S309.92,113.931,310.034,114.33Z" transform="translate(-222.385 -103.341)" fill="#263238"/>
          <ellipse id="Elipse_6438" data-name="Elipse 6438" cx="0.476" cy="0.752" rx="0.476" ry="0.752" transform="translate(81.919 12.289) rotate(-13.32)" fill="#263238"/>
          <path id="Trazado_180703" data-name="Trazado 180703" d="M297.546,117.971l-.99.054S297.237,118.6,297.546,117.971Z" transform="translate(-215.081 -105.799)" fill="#263238"/>
          <path id="Trazado_180704" data-name="Trazado 180704" d="M302.915,119.794a12.175,12.175,0,0,1-.624,3.036,1.651,1.651,0,0,0,1.428-.223Z" transform="translate(-218.423 -106.862)" fill="#a02724"/>
          <path id="Trazado_180705" data-name="Trazado 180705" d="M310.487,125.346a3.872,3.872,0,0,1-.659.18.111.111,0,0,1-.13-.1.13.13,0,0,1,.1-.142,3.444,3.444,0,0,0,2.423-1.74.116.116,0,1,1,.21.1A3.626,3.626,0,0,1,310.487,125.346Z" transform="translate(-222.738 -109.003)" fill="#263238"/>
          <path id="Trazado_180706" data-name="Trazado 180706" d="M328.433,113.111a3.4,3.4,0,0,1-1.553,2.262c-1.02.57-1.816-.564-1.771-1.91.04-1.212.62-2.968,1.759-2.969C327.989,110.494,328.7,111.867,328.433,113.111Z" transform="translate(-231.718 -101.442)" fill="#b55b52"/>
          <path id="Trazado_180707" data-name="Trazado 180707" d="M305.342,109.219a.22.22,0,0,1,.151-.1,1.775,1.775,0,0,0,1.35-1.005.221.221,0,0,1,.3-.124.262.262,0,0,1,.129.328,2.214,2.214,0,0,1-1.691,1.291.247.247,0,0,1-.274-.207A.255.255,0,0,1,305.342,109.219Z" transform="translate(-220.18 -99.968)" fill="#263238"/>
          <path id="Trazado_180708" data-name="Trazado 180708" d="M294.89,112.894a.224.224,0,0,1-.174,0,.239.239,0,0,1-.118-.318,2.537,2.537,0,0,1,1.645-1.534.221.221,0,0,1,.268.189.262.262,0,0,1-.194.293,2.024,2.024,0,0,0-1.29,1.228A.26.26,0,0,1,294.89,112.894Z" transform="translate(-213.928 -101.761)" fill="#263238"/>
          <path id="Trazado_180709" data-name="Trazado 180709" d="M308.676,113.754l-.99.054S308.367,114.387,308.676,113.754Z" transform="translate(-221.567 -103.342)" fill="#263238"/>
          <path id="Trazado_180710" data-name="Trazado 180710" d="M318.671,162.068a5.983,5.983,0,0,1,1.138-.106.447.447,0,0,1,.426.324c.123.421.347,1.177.479,1.542.188.521-1.289,1.593-1.289,1.593s-1.217-.579-1.246-1.347a10.542,10.542,0,0,1,.12-1.626A.453.453,0,0,1,318.671,162.068Z" transform="translate(-227.679 -131.434)" fill="#407bff"/>
          <path id="Trazado_180711" data-name="Trazado 180711" d="M321.4,180.112c-.1-2.4-1.685-13.4-1.685-13.4l-1.173.145c-.087,1.565-.92,10.967-.92,13.458s2.129,5.273,2.129,5.273S321.5,182.517,321.4,180.112Z" transform="translate(-227.359 -134.202)" fill="#407bff"/>
          <path id="Trazado_180712" data-name="Trazado 180712" d="M369.616,176.5a4.975,4.975,0,0,0,1.174.737.224.224,0,0,0,.109.018c.459-.04,3.647-.41,5.089-3.086a.271.271,0,0,0,.032-.146,5.256,5.256,0,0,0-.655-1.938.242.242,0,0,0-.392-.049,18.374,18.374,0,0,1-5.3,4.048A.246.246,0,0,0,369.616,176.5Z" transform="translate(-257.601 -137.256)" fill="#fff"/>
          <g id="Grupo_118209" data-name="Grupo 118209" transform="translate(0 12.046)">
            <g id="Grupo_118205" data-name="Grupo 118205" transform="translate(48.88 39.763)">
              <path id="Trazado_180713" data-name="Trazado 180713" d="M249.142,227.715l-2.05,4.177a1.612,1.612,0,0,1-2.238.694L218.444,217.7l2.326-4.74,27.594,12.578A1.612,1.612,0,0,1,249.142,227.715Z" transform="translate(-218.444 -212.961)" fill="#407bff"/>
              <path id="Trazado_180714" data-name="Trazado 180714" d="M249.142,227.715l-2.05,4.177a1.612,1.612,0,0,1-2.238.694L218.444,217.7l2.326-4.74,27.594,12.578A1.612,1.612,0,0,1,249.142,227.715Z" transform="translate(-218.444 -212.961)" opacity="0.4"/>
            </g>
            <g id="Grupo_118206" data-name="Grupo 118206" transform="translate(8.552 7.705)">
              <path id="Trazado_180715" data-name="Trazado 180715" d="M164.465,151.251c-.03-.081-.06-.163-.092-.244-.113-.29-.232-.578-.358-.864-.017-.039-.036-.077-.053-.116q-.167-.373-.348-.74-.064-.131-.131-.26-.159-.312-.328-.62c-.043-.078-.085-.157-.129-.235-.155-.275-.315-.547-.482-.817l-.06-.093q-.225-.358-.464-.709c-.055-.081-.111-.161-.168-.241q-.2-.292-.418-.578c-.055-.073-.109-.147-.165-.22-.195-.255-.394-.507-.6-.755l-.061-.071q-.283-.336-.58-.663l-.2-.218q-.247-.265-.5-.523c-.067-.068-.133-.136-.2-.2-.233-.23-.471-.457-.715-.678l-.05-.044c-.229-.207-.464-.408-.7-.607l-.233-.19q-.287-.233-.583-.458c-.078-.06-.156-.12-.235-.179-.27-.2-.543-.4-.823-.587l-.032-.021c-.27-.183-.546-.36-.826-.533-.088-.054-.176-.107-.265-.16q-.324-.2-.656-.382c-.09-.05-.179-.1-.27-.151-.3-.165-.612-.327-.926-.482-11.155-5.475-24.3-1.558-29.359,8.743L121.8,150.71c5.055-10.3,18.2-14.218,29.359-8.743.314.154.622.316.926.482.091.049.18.1.27.151q.332.187.656.381c.088.053.177.106.265.16.279.173.555.35.825.533l.032.021c.28.19.553.387.823.588.079.059.157.119.235.179q.295.225.581.457c.078.064.157.127.235.192q.357.3.7.606l.05.045c.245.222.482.449.715.678.068.067.134.134.2.2q.255.259.5.523c.068.072.135.144.2.218q.3.327.58.663l.061.071c.207.248.406.5.6.754.056.073.111.148.166.222.142.19.281.382.416.576.057.08.113.161.168.241q.239.351.464.709c.02.032.04.062.06.093.167.269.327.542.482.817.044.078.086.157.129.236q.169.308.328.62c.044.087.088.173.131.26q.181.367.348.74c.017.039.036.077.053.116.126.286.244.575.358.864.032.081.061.163.092.244.082.217.161.435.235.654.031.092.063.184.093.275q.122.375.231.753c.013.047.029.094.042.142q.123.446.227.9c.02.083.036.167.055.251q.074.337.136.676c.018.1.035.19.052.286q.064.379.115.76c.007.053.016.106.023.159.038.3.068.609.092.915.007.083.011.165.016.248q.023.345.035.691c0,.1.006.193.008.29q.007.377,0,.755c0,.058,0,.116,0,.174,0,.094-.011.189-.015.283-.012.28-.028.561-.051.841-.012.134-.028.268-.043.4-.025.238-.053.477-.088.714-.021.145-.045.289-.069.434q-.058.343-.127.685c-.03.145-.06.29-.093.435-.053.232-.113.463-.174.694-.04.147-.077.3-.12.441-.032.108-.066.216-.1.324q-.1.305-.2.608c-.039.111-.078.222-.119.333-.078.209-.16.417-.245.625-.04.1-.077.193-.118.289-.129.3-.265.6-.41.9l1.647-3.357c.146-.3.281-.6.41-.9.041-.1.079-.193.118-.289.085-.207.168-.415.245-.625.041-.111.08-.222.119-.333q.106-.3.2-.608c.034-.108.068-.216.1-.325.015-.052.033-.1.048-.157.027-.094.046-.189.071-.284.062-.231.121-.462.174-.694.033-.145.063-.29.093-.434q.07-.342.127-.686c.024-.144.048-.288.069-.433.035-.238.063-.477.088-.715.015-.134.031-.267.043-.4.024-.281.04-.561.051-.842,0-.078.012-.156.015-.235,0-.016,0-.032,0-.048,0-.058,0-.116,0-.174q.008-.377,0-.756c0-.1,0-.192-.008-.289q-.011-.346-.035-.691c-.005-.083-.01-.165-.016-.248-.025-.305-.055-.61-.093-.914-.007-.053-.015-.106-.023-.159q-.05-.381-.115-.761c-.016-.1-.034-.19-.052-.286-.041-.226-.088-.451-.137-.676-.018-.083-.035-.167-.054-.25-.07-.3-.145-.6-.228-.9-.013-.048-.028-.094-.042-.142q-.108-.378-.231-.753c-.03-.092-.061-.184-.092-.275Q164.589,151.577,164.465,151.251Z" transform="translate(-121.799 -136.136)" fill="#407bff"/>
              <path id="Trazado_180716" data-name="Trazado 180716" d="M164.465,151.251c-.03-.081-.06-.163-.092-.244-.113-.29-.232-.578-.358-.864-.017-.039-.036-.077-.053-.116q-.167-.373-.348-.74-.064-.131-.131-.26-.159-.312-.328-.62c-.043-.078-.085-.157-.129-.235-.155-.275-.315-.547-.482-.817l-.06-.093q-.225-.358-.464-.709c-.055-.081-.111-.161-.168-.241q-.2-.292-.418-.578c-.055-.073-.109-.147-.165-.22-.195-.255-.394-.507-.6-.755l-.061-.071q-.283-.336-.58-.663l-.2-.218q-.247-.265-.5-.523c-.067-.068-.133-.136-.2-.2-.233-.23-.471-.457-.715-.678l-.05-.044c-.229-.207-.464-.408-.7-.607l-.233-.19q-.287-.233-.583-.458c-.078-.06-.156-.12-.235-.179-.27-.2-.543-.4-.823-.587l-.032-.021c-.27-.183-.546-.36-.826-.533-.088-.054-.176-.107-.265-.16q-.324-.2-.656-.382c-.09-.05-.179-.1-.27-.151-.3-.165-.612-.327-.926-.482-11.155-5.475-24.3-1.558-29.359,8.743L121.8,150.71c5.055-10.3,18.2-14.218,29.359-8.743.314.154.622.316.926.482.091.049.18.1.27.151q.332.187.656.381c.088.053.177.106.265.16.279.173.555.35.825.533l.032.021c.28.19.553.387.823.588.079.059.157.119.235.179q.295.225.581.457c.078.064.157.127.235.192q.357.3.7.606l.05.045c.245.222.482.449.715.678.068.067.134.134.2.2q.255.259.5.523c.068.072.135.144.2.218q.3.327.58.663l.061.071c.207.248.406.5.6.754.056.073.111.148.166.222.142.19.281.382.416.576.057.08.113.161.168.241q.239.351.464.709c.02.032.04.062.06.093.167.269.327.542.482.817.044.078.086.157.129.236q.169.308.328.62c.044.087.088.173.131.26q.181.367.348.74c.017.039.036.077.053.116.126.286.244.575.358.864.032.081.061.163.092.244.082.217.161.435.235.654.031.092.063.184.093.275q.122.375.231.753c.013.047.029.094.042.142q.123.446.227.9c.02.083.036.167.055.251q.074.337.136.676c.018.1.035.19.052.286q.064.379.115.76c.007.053.016.106.023.159.038.3.068.609.092.915.007.083.011.165.016.248q.023.345.035.691c0,.1.006.193.008.29q.007.377,0,.755c0,.058,0,.116,0,.174,0,.094-.011.189-.015.283-.012.28-.028.561-.051.841-.012.134-.028.268-.043.4-.025.238-.053.477-.088.714-.021.145-.045.289-.069.434q-.058.343-.127.685c-.03.145-.06.29-.093.435-.053.232-.113.463-.174.694-.04.147-.077.3-.12.441-.032.108-.066.216-.1.324q-.1.305-.2.608c-.039.111-.078.222-.119.333-.078.209-.16.417-.245.625-.04.1-.077.193-.118.289-.129.3-.265.6-.41.9l1.647-3.357c.146-.3.281-.6.41-.9.041-.1.079-.193.118-.289.085-.207.168-.415.245-.625.041-.111.08-.222.119-.333q.106-.3.2-.608c.034-.108.068-.216.1-.325.015-.052.033-.1.048-.157.027-.094.046-.189.071-.284.062-.231.121-.462.174-.694.033-.145.063-.29.093-.434q.07-.342.127-.686c.024-.144.048-.288.069-.433.035-.238.063-.477.088-.715.015-.134.031-.267.043-.4.024-.281.04-.561.051-.842,0-.078.012-.156.015-.235,0-.016,0-.032,0-.048,0-.058,0-.116,0-.174q.008-.377,0-.756c0-.1,0-.192-.008-.289q-.011-.346-.035-.691c-.005-.083-.01-.165-.016-.248-.025-.305-.055-.61-.093-.914-.007-.053-.015-.106-.023-.159q-.05-.381-.115-.761c-.016-.1-.034-.19-.052-.286-.041-.226-.088-.451-.137-.676-.018-.083-.035-.167-.054-.25-.07-.3-.145-.6-.228-.9-.013-.048-.028-.094-.042-.142q-.108-.378-.231-.753c-.03-.092-.061-.184-.092-.275Q164.589,151.577,164.465,151.251Z" transform="translate(-121.799 -136.136)" opacity="0.4"/>
            </g>
            <g id="Grupo_118207" data-name="Grupo 118207" transform="translate(0 15.986)">
              <path id="Trazado_180717" data-name="Trazado 180717" d="M119.836,193.018c-.407-.2-.806-.41-1.2-.624-.117-.064-.232-.13-.348-.194q-.432-.242-.853-.5c-.114-.068-.229-.136-.342-.207-.363-.225-.722-.454-1.072-.692l-.04-.026c-.363-.247-.718-.5-1.067-.761-.1-.076-.2-.155-.306-.232q-.382-.292-.754-.593c-.1-.082-.2-.164-.3-.247q-.464-.386-.909-.786c-.022-.02-.045-.038-.067-.058-.317-.287-.624-.581-.926-.879-.089-.087-.175-.176-.262-.264q-.33-.334-.649-.676c-.088-.094-.176-.188-.262-.283q-.385-.424-.754-.861l-.078-.091c-.267-.321-.526-.648-.779-.978-.073-.1-.143-.192-.215-.288q-.277-.37-.541-.747-.11-.156-.217-.313-.309-.454-.6-.916c-.026-.041-.054-.082-.08-.124-.217-.348-.424-.7-.624-1.057-.058-.1-.113-.205-.169-.308q-.218-.4-.424-.8c-.057-.113-.115-.225-.171-.339q-.234-.475-.45-.956c-.023-.051-.048-.1-.07-.152q-.245-.556-.463-1.12c-.041-.106-.08-.212-.12-.318q-.159-.421-.3-.847c-.041-.119-.081-.237-.12-.356q-.158-.487-.3-.978c-.018-.061-.037-.122-.054-.184-.108-.385-.2-.772-.3-1.161-.025-.107-.047-.215-.071-.323q-.1-.438-.178-.878c-.023-.123-.045-.245-.066-.368q-.084-.493-.15-.988c-.009-.068-.02-.137-.029-.2q-.074-.591-.12-1.186c-.009-.107-.014-.214-.021-.322-.02-.3-.035-.6-.045-.9,0-.125-.008-.25-.01-.376q-.009-.49,0-.981c0-.075,0-.149,0-.224,0-.121.014-.243.02-.365.015-.364.035-.728.067-1.092.015-.174.036-.348.055-.522.033-.308.069-.617.114-.925.027-.188.058-.375.09-.563q.074-.445.165-.888c.038-.188.078-.376.121-.562.069-.3.146-.6.226-.9.051-.191.1-.383.156-.574.041-.14.086-.279.129-.419q.125-.4.262-.791c.05-.144.1-.288.154-.431.1-.272.208-.542.319-.812.051-.125.1-.25.153-.373.167-.39.343-.778.532-1.163l-1.648,3.357c-.189.385-.364.773-.532,1.163-.053.124-.1.249-.153.373-.111.27-.218.54-.319.812-.053.143-.1.287-.154.431q-.138.394-.262.791c-.044.14-.088.279-.129.419-.02.068-.044.136-.063.205-.035.122-.06.246-.093.368-.08.3-.157.6-.226.9-.043.187-.082.375-.121.563q-.09.443-.165.888c-.031.188-.063.375-.09.563-.044.308-.081.616-.113.925-.018.174-.04.348-.055.522-.031.363-.051.728-.067,1.092,0,.1-.015.2-.018.3,0,.02,0,.041,0,.062,0,.075,0,.149,0,.224q-.01.491,0,.982c0,.125.006.25.01.375q.014.448.045.9c.007.107.013.214.021.322.032.4.071.791.12,1.186.008.068.02.136.029.2q.066.5.15.988c.021.123.043.245.066.368q.082.441.178.878c.023.108.045.216.071.323.09.389.187.776.3,1.161.017.061.036.121.054.182q.14.491.3.979c.039.119.079.238.12.357q.145.425.3.847c.04.106.078.212.12.318.147.376.3.749.464,1.12.023.051.047.1.07.152q.216.482.45.957c.056.113.113.225.17.337q.206.4.425.8c.056.1.111.2.168.306.2.356.408.709.624,1.058.026.042.054.082.08.124q.29.463.6.916c.071.1.144.208.217.313q.264.377.541.747c.072.1.143.192.215.288.253.33.511.657.779.978.025.031.053.061.078.091q.367.437.754.861c.086.1.174.189.262.283q.319.342.65.676c.087.088.173.176.261.262.3.3.61.593.927.88l.063.055q.446.4.913.788c.1.083.2.165.3.247q.372.3.754.593c.1.077.2.156.306.232.35.26.7.515,1.067.762l.04.026c.351.237.709.467,1.073.692.113.07.227.138.341.207q.421.253.853.5c.116.065.231.131.348.194.395.215.794.425,1.2.625,14.462,7.1,31.5,2.022,38.056-11.338l1.647-3.357C151.337,195.04,134.3,200.116,119.836,193.018Z" transform="translate(-101.305 -155.979)" fill="#407bff"/>
              <path id="Trazado_180718" data-name="Trazado 180718" d="M119.836,193.018c-.407-.2-.806-.41-1.2-.624-.117-.064-.232-.13-.348-.194q-.432-.242-.853-.5c-.114-.068-.229-.136-.342-.207-.363-.225-.722-.454-1.072-.692l-.04-.026c-.363-.247-.718-.5-1.067-.761-.1-.076-.2-.155-.306-.232q-.382-.292-.754-.593c-.1-.082-.2-.164-.3-.247q-.464-.386-.909-.786c-.022-.02-.045-.038-.067-.058-.317-.287-.624-.581-.926-.879-.089-.087-.175-.176-.262-.264q-.33-.334-.649-.676c-.088-.094-.176-.188-.262-.283q-.385-.424-.754-.861l-.078-.091c-.267-.321-.526-.648-.779-.978-.073-.1-.143-.192-.215-.288q-.277-.37-.541-.747-.11-.156-.217-.313-.309-.454-.6-.916c-.026-.041-.054-.082-.08-.124-.217-.348-.424-.7-.624-1.057-.058-.1-.113-.205-.169-.308q-.218-.4-.424-.8c-.057-.113-.115-.225-.171-.339q-.234-.475-.45-.956c-.023-.051-.048-.1-.07-.152q-.245-.556-.463-1.12c-.041-.106-.08-.212-.12-.318q-.159-.421-.3-.847c-.041-.119-.081-.237-.12-.356q-.158-.487-.3-.978c-.018-.061-.037-.122-.054-.184-.108-.385-.2-.772-.3-1.161-.025-.107-.047-.215-.071-.323q-.1-.438-.178-.878c-.023-.123-.045-.245-.066-.368q-.084-.493-.15-.988c-.009-.068-.02-.137-.029-.2q-.074-.591-.12-1.186c-.009-.107-.014-.214-.021-.322-.02-.3-.035-.6-.045-.9,0-.125-.008-.25-.01-.376q-.009-.49,0-.981c0-.075,0-.149,0-.224,0-.121.014-.243.02-.365.015-.364.035-.728.067-1.092.015-.174.036-.348.055-.522.033-.308.069-.617.114-.925.027-.188.058-.375.09-.563q.074-.445.165-.888c.038-.188.078-.376.121-.562.069-.3.146-.6.226-.9.051-.191.1-.383.156-.574.041-.14.086-.279.129-.419q.125-.4.262-.791c.05-.144.1-.288.154-.431.1-.272.208-.542.319-.812.051-.125.1-.25.153-.373.167-.39.343-.778.532-1.163l-1.648,3.357c-.189.385-.364.773-.532,1.163-.053.124-.1.249-.153.373-.111.27-.218.54-.319.812-.053.143-.1.287-.154.431q-.138.394-.262.791c-.044.14-.088.279-.129.419-.02.068-.044.136-.063.205-.035.122-.06.246-.093.368-.08.3-.157.6-.226.9-.043.187-.082.375-.121.563q-.09.443-.165.888c-.031.188-.063.375-.09.563-.044.308-.081.616-.113.925-.018.174-.04.348-.055.522-.031.363-.051.728-.067,1.092,0,.1-.015.2-.018.3,0,.02,0,.041,0,.062,0,.075,0,.149,0,.224q-.01.491,0,.982c0,.125.006.25.01.375q.014.448.045.9c.007.107.013.214.021.322.032.4.071.791.12,1.186.008.068.02.136.029.2q.066.5.15.988c.021.123.043.245.066.368q.082.441.178.878c.023.108.045.216.071.323.09.389.187.776.3,1.161.017.061.036.121.054.182q.14.491.3.979c.039.119.079.238.12.357q.145.425.3.847c.04.106.078.212.12.318.147.376.3.749.464,1.12.023.051.047.1.07.152q.216.482.45.957c.056.113.113.225.17.337q.206.4.425.8c.056.1.111.2.168.306.2.356.408.709.624,1.058.026.042.054.082.08.124q.29.463.6.916c.071.1.144.208.217.313q.264.377.541.747c.072.1.143.192.215.288.253.33.511.657.779.978.025.031.053.061.078.091q.367.437.754.861c.086.1.174.189.262.283q.319.342.65.676c.087.088.173.176.261.262.3.3.61.593.927.88l.063.055q.446.4.913.788c.1.083.2.165.3.247q.372.3.754.593c.1.077.2.156.306.232.35.26.7.515,1.067.762l.04.026c.351.237.709.467,1.073.692.113.07.227.138.341.207q.421.253.853.5c.116.065.231.131.348.194.395.215.794.425,1.2.625,14.462,7.1,31.5,2.022,38.056-11.338l1.647-3.357C151.337,195.04,134.3,200.116,119.836,193.018Z" transform="translate(-101.305 -155.979)" opacity="0.4"/>
            </g>
            <path id="Trazado_180719" data-name="Trazado 180719" d="M130.932,122.784l-.229-.348a28.293,28.293,0,0,1,3.224-1.826l.182.376A27.787,27.787,0,0,0,130.932,122.784Zm6.3-3.085-.136-.394a31.126,31.126,0,0,1,15.456-1.153l-.071.411A30.708,30.708,0,0,0,137.234,119.7Z" transform="translate(-118.436 -117.67)" fill="#407bff"/>
            <path id="Trazado_180720" data-name="Trazado 180720" d="M107.817,135.677c6.554-13.356,23.59-18.428,38.053-11.33s20.873,23.676,14.318,37.032-23.594,18.435-38.056,11.338S101.261,149.036,107.817,135.677ZM154.2,158.44c5.055-10.3.113-23.1-11.043-28.57s-24.3-1.558-29.359,8.743-.109,23.1,11.046,28.572,24.3,1.563,29.355-8.745" transform="translate(-103.601 -119.691)" fill="#407bff"/>
            <path id="Trazado_180721" data-name="Trazado 180721" d="M252.529,219.67l-2.071,4.22a1.611,1.611,0,0,1-2.2.716l-26.831-14.131,2.728-5.559,27.593,12.578A1.612,1.612,0,0,1,252.529,219.67Z" transform="translate(-171.303 -168.509)" fill="#407bff"/>
            <path id="Trazado_180722" data-name="Trazado 180722" d="M163.172,166.806c5.152-10.5.115-23.536-11.253-29.115S127.152,136.1,122,146.6s-.111,23.538,11.257,29.117,24.76,1.593,29.915-8.912" transform="translate(-112.187 -127.868)" fill="#fff" opacity="0.1"/>
            <path id="Trazado_180723" data-name="Trazado 180723" d="M222.567,210.531" transform="translate(-171.966 -171.782)" fill="#fff" opacity="0.1"/>
            <g id="Grupo_118208" data-name="Grupo 118208" transform="translate(7.796 7.373)">
              <path id="Trazado_180724" data-name="Trazado 180724" d="M151.924,137.79a24.472,24.472,0,0,0-8.961-2.451l-22.737,17.015a20.63,20.63,0,0,0,.545,8.749Z" transform="translate(-119.987 -135.339)" fill="#fff" opacity="0.1"/>
            </g>
          </g>
          <path id="Trazado_180725" data-name="Trazado 180725" d="M271.361,221.323c-1.693-.608-2.858.517-4.031,1.1-.2.1-.14.69.26.75a1.849,1.849,0,0,0,1.425-.245,2.231,2.231,0,0,0,3-.129A2.288,2.288,0,0,0,271.361,221.323Z" transform="translate(-197.986 -165.922)" fill="#b55b52"/>
          <path id="Trazado_180726" data-name="Trazado 180726" d="M329.285,123.352h-.968a.114.114,0,0,1-.112-.138l.484-2.231a.114.114,0,0,1,.112-.09h0a.114.114,0,0,1,.111.09l.484,2.231a.116.116,0,0,1-.023.1A.113.113,0,0,1,329.285,123.352Zm-.827-.228h.685l-.342-1.579Z" transform="translate(-233.522 -107.502)" fill="#fff"/>
        </g>
      </g>
      <g id="Question_Marks" data-name="Question Marks" transform="translate(156.625 49.55)">
        <g id="Grupo_118214" data-name="Grupo 118214" transform="translate(0)">
          <g id="Grupo_118211" data-name="Grupo 118211" transform="translate(0 11.437)">
            <path id="Trazado_180727" data-name="Trazado 180727" d="M246.338,85.365l-2.368,3.757-.376-.237a5.483,5.483,0,0,1-1.42-1.2,4.073,4.073,0,0,1-.684-1.336,23.524,23.524,0,0,1-.522-3.03,2.052,2.052,0,0,0-.691-1.555,1.306,1.306,0,0,0-1.048-.212,1.63,1.63,0,0,0-.915.784,1.851,1.851,0,0,0-.268,1.455A3.221,3.221,0,0,0,239.3,85.4L236.4,88.94a6.176,6.176,0,0,1-2.437-3.684,6.772,6.772,0,0,1,1.3-4.921,7.193,7.193,0,0,1,3.093-2.913,4.423,4.423,0,0,1,4.377.245,3.7,3.7,0,0,1,1.329,1.487,9.446,9.446,0,0,1,.711,3.1,6.029,6.029,0,0,0,.476,2.061A3.067,3.067,0,0,0,246.338,85.365Zm-1.451,4.515,2.537-4.024,3.549,2.237-2.536,4.024Z" transform="translate(-233.876 -76.959)" fill="#407bff"/>
          </g>
          <g id="Grupo_118212" data-name="Grupo 118212" transform="translate(40.665)">
            <path id="Trazado_180728" data-name="Trazado 180728" d="M336.622,59.581l-3.128-1.7.17-.313a4.4,4.4,0,0,1,.886-1.2,3.266,3.266,0,0,1,1.034-.616,18.8,18.8,0,0,1,2.4-.573,1.644,1.644,0,0,0,1.208-.633,1.047,1.047,0,0,0,.115-.85,1.306,1.306,0,0,0-.674-.692,1.483,1.483,0,0,0-1.178-.139,2.581,2.581,0,0,0-1.224,1.083l-2.979-2.132a4.952,4.952,0,0,1,2.823-2.139,5.431,5.431,0,0,1,4,.787,5.769,5.769,0,0,1,2.49,2.325A3.547,3.547,0,0,1,342.6,56.3a2.966,2.966,0,0,1-1.121,1.14,7.587,7.587,0,0,1-2.444.729,4.832,4.832,0,0,0-1.625.487A2.468,2.468,0,0,0,336.622,59.581Zm-3.687-.928,3.35,1.823-1.608,2.955-3.35-1.823Z" transform="translate(-331.328 -49.55)" fill="#407bff"/>
          </g>
          <g id="Grupo_118213" data-name="Grupo 118213" transform="translate(46.945 12.512)">
            <path id="Trazado_180729" data-name="Trazado 180729" d="M350.455,85.841l-.83-2.661.266-.083a3.447,3.447,0,0,1,1.15-.19,2.56,2.56,0,0,1,.917.217,14.828,14.828,0,0,1,1.659.984,1.286,1.286,0,0,0,1.024.3.818.818,0,0,0,.527-.414,1.022,1.022,0,0,0,0-.756,1.162,1.162,0,0,0-.586-.72,2.02,2.02,0,0,0-1.278-.058l-.511-2.821a3.876,3.876,0,0,1,2.752.336,4.249,4.249,0,0,1,1.821,2.624,4.511,4.511,0,0,1,.131,2.663,2.774,2.774,0,0,1-1.9,1.99,2.32,2.32,0,0,1-1.251.029,5.932,5.932,0,0,1-1.77-.923,3.781,3.781,0,0,0-1.178-.612A1.931,1.931,0,0,0,350.455,85.841Zm-1.565-2.531.889,2.849-2.513.784-.889-2.849Z" transform="translate(-346.376 -79.534)" fill="#407bff"/>
          </g>
        </g>
      </g>
    </g>
    <g id="Grupo_118216" data-name="Grupo 118216" transform="translate(310.083 4927.5)">
      <g id="Grupo_117240" data-name="Grupo 117240" transform="translate(287.834 978.879) rotate(180)">
        <path id="Trazado_100600" data-name="Trazado 100600" d="M713.6-210.305l2.423-2.423,8.456,8.456,2.423,2.423-2.423,2.423-8.456,8.456-2.423-2.423,8.456-8.456Z" transform="translate(-702.564 212.728)" fill="#2d54fe"/>
        <path id="Trazado_100601" data-name="Trazado 100601" d="M776.91-201.849l-8.456-8.456,2.423-2.423,8.456,8.456,2.423,2.423-2.423,2.423-8.456,8.456-2.423-2.423Z" transform="translate(-768.453 212.728)" fill="#2d54fe"/>
      </g>
      <g id="Grupo_117241" data-name="Grupo 117241" transform="translate(185.333 959.24) rotate(90)">
        <path id="Trazado_100600-2" data-name="Trazado 100600" d="M0,13.922l1.744,1.744L7.833,9.578,9.578,7.833,7.833,6.089,1.744,0,0,1.744,6.089,7.833Z" transform="translate(7.944)" fill="#fe502d"/>
        <path id="Trazado_100601-2" data-name="Trazado 100601" d="M6.089,7.833,0,13.922l1.744,1.744L7.833,9.578,9.578,7.833,7.833,6.089,1.744,0,0,1.744Z" fill="#fe502d"/>
      </g>
      <rect id="Rectángulo_36648" data-name="Rectángulo 36648" width="39" height="10" transform="translate(283 907) rotate(180)" fill="#ffca00"/>
      <rect id="Rectángulo_36650" data-name="Rectángulo 36650" width="39" height="10" transform="translate(197 941.12) rotate(180)" fill="#2d54fe"/>
    </g>
  </g>
</svg>
