<svg xmlns="http://www.w3.org/2000/svg" width="153.834" height="135.821" viewBox="0 0 153.834 135.821">
  <g id="Grupo_118275" data-name="Grupo 118275" transform="translate(-434.666 -6186)">
    <g id="Grupo_118225" data-name="Grupo 118225" transform="translate(439.666 6145.28)">
      <circle id="Elipse_6439" data-name="Elipse 6439" cx="61" cy="61" r="61" transform="translate(12.333 40.72)" fill="#fe502d"/>
      <path id="Trazado_180730" data-name="Trazado 180730" d="M144.938,179.359l-7.895,2.265,1.006,3.505c-.865.273-1.534.5-1.954.668a29.955,29.955,0,0,1-8.76,2.367c-.163.02-.318.036-.468.05l-.1.009c-.148.012-.291.021-.429.027h-.028c-.132,0-.26.006-.386.005h-.07c-.132,0-.262-.007-.389-.015l-.031,0q-.186-.013-.368-.033l-.038,0c-.13-.016-.26-.034-.39-.055l-.024,0c-.272-.044-.548-.1-.843-.167h0c-.356-.08-.737-.175-1.169-.283a58.643,58.643,0,0,0-9.707-.947c-1.758,0-3.516-.861-5.492-1.276l-.015,0-.048-.009-.123-.024q-.2-.039-.4-.071l-.105-.017c-.161-.023-.324-.042-.488-.057l-.122-.01c-.153-.012-.308-.02-.464-.024l-.064,0c-.172,0-.346,0-.522.011l-.127.008c-.181.013-.363.029-.548.055a7.66,7.66,0,0,0-2.042.6,7.994,7.994,0,0,0-6.6.347c-2.131.947-6.155,2.131-10.89,4.025s-9.233,3.788-12.311,3.078c-1.945-.449-4.08-.425-7.656-.227l-.015-4.206-8.213.029.017,4.653-.013-3.773-13.236.047a61.315,61.315,0,0,0-.411,7.06,60.5,60.5,0,0,0,5.457,25.189l8.3-.03,0,.88,8.213-.029-.02-5.611c.842-.045,1.488-.07,1.888-.07a11.166,11.166,0,0,1,4.461.829c-.027.04-.056.075-.082.118,0,0-.129.453-.252,1.12v0h0a12.374,12.374,0,0,0-.221,2.191c0,1.657-.237,4.972,3.078,5.208a5.612,5.612,0,0,0,3.841-1.292h0l.006,0c.077-.061.151-.123.224-.187l.074-.067c.049-.044.1-.088.144-.133l.082-.08c.042-.042.083-.083.124-.126l.08-.087c.038-.041.075-.083.112-.124l.076-.089q.053-.063.1-.127l.069-.089c.034-.045.066-.089.1-.134l.06-.084c.033-.049.065-.1.1-.147.015-.024.031-.048.046-.072a4.282,4.282,0,0,0,.233-.435c.011-.023.02-.047.03-.07.021-.048.042-.1.06-.145.011-.028.02-.055.029-.082.015-.043.03-.087.043-.129.008-.026.015-.053.022-.079l.621.329c-1.31,1.787-2.96,4.277-1.537,6.767,1.872,3.276,6.284,3.772,8.443,1.726a3.326,3.326,0,0,0,.79,3.482c1.421,1.657,4.025,2.368,6.988,1h0c0,.011,0,.023,0,.035.01.088.023.175.038.263l0,.026a4.289,4.289,0,0,0,.258.873l0,.011a4.01,4.01,0,0,0,.464.824l0,.007a4.387,4.387,0,0,0,3.124,1.7c3.587.448,4.841-.8,6.974-3.552q.179.092.365.177l.036.017a8.65,8.65,0,0,0,1.051.4l.092.027q.229.067.47.123l.125.029a9.046,9.046,0,0,0,1.229.177l.18.011q.248.015.509.017c.067,0,.133,0,.2,0,.235,0,.474-.009.725-.027.137-.01.266-.027.391-.047l.094-.016c.116-.021.228-.046.334-.075l.014,0a3.113,3.113,0,0,0,.309-.107l.075-.031a2.717,2.717,0,0,0,.251-.122l.022-.011a2.444,2.444,0,0,0,.236-.153l.058-.043c.064-.049.126-.1.182-.153l.023-.021a2.42,2.42,0,0,0,.173-.185l.043-.052c.045-.056.088-.114.128-.172l.02-.028c.044-.067.084-.136.121-.2l.028-.055q.047-.091.086-.184l.013-.03c.029-.071.055-.142.078-.212l.016-.05q.029-.1.053-.188l.007-.026c.017-.071.032-.141.044-.209l.007-.038c.011-.063.021-.126.028-.186l0-.015c.008-.067.014-.132.019-.195v-.02c0-.035,0-.069.006-.1v0c0-.047,0-.091,0-.133v-.018c0-.037,0-.071,0-.1V234.2c0-.031,0-.061,0-.088v-.017c0-.065-.007-.118-.011-.157h0c0-.048-.008-.076-.008-.076a5.76,5.76,0,0,0,4.5-.71,3.607,3.607,0,0,0,1.3-3.249h0c0-.032-.005-.061-.008-.092s0-.038,0-.057q-.01-.1-.022-.185c0-.018,0-.033-.007-.049-.006-.043-.013-.082-.019-.119l-.007-.043c-.008-.043-.015-.081-.022-.113l0-.022c-.005-.025-.01-.044-.013-.06l0-.017-.005-.021.029.009h0a9.033,9.033,0,0,0,1.123.242h0l.228.033.044.006.219.026.035,0c.089.009.179.017.271.023h0c.086.006.174.011.263.015l.07,0c.071,0,.142,0,.215,0h.074c.094,0,.188,0,.283,0h0c.1,0,.192-.009.289-.017l.08-.007c.071-.006.143-.014.214-.023l.092-.012c.078-.011.156-.023.233-.036l.061-.01c.1-.018.192-.039.288-.062l.075-.02q.108-.028.215-.06l.094-.03c.07-.023.139-.048.208-.074l.078-.03c.092-.037.184-.077.274-.121l.05-.026c.073-.037.146-.077.218-.118l.083-.051q.094-.058.184-.122l.077-.054c.083-.062.165-.126.243-.2s.126-.118.185-.18c.019-.02.036-.042.054-.062.038-.043.076-.085.111-.13.02-.025.038-.052.058-.078.031-.041.062-.083.09-.125s.036-.058.054-.087.052-.084.076-.126.032-.062.048-.092.045-.086.065-.13.028-.064.042-.1.038-.089.055-.134.024-.066.035-.1.031-.091.045-.137.02-.068.029-.1.025-.093.036-.14.016-.069.023-.1.019-.1.028-.143.012-.07.017-.105.014-.1.02-.146.008-.07.012-.105.009-.1.013-.147,0-.071.007-.107,0-.1.005-.147,0-.072,0-.107,0-.1,0-.146,0-.072,0-.108,0-.1-.008-.143,0-.073-.007-.109-.009-.093-.013-.14-.007-.074-.012-.111-.012-.087-.018-.131-.01-.078-.016-.117-.013-.076-.02-.113-.015-.087-.023-.129c-.005-.026-.011-.052-.017-.078a6.075,6.075,0,0,0-.369-1.178v0c-.026-.059-.052-.116-.079-.17l0,0q-.04-.082-.082-.158l0,0c-.028-.05-.056-.1-.084-.144l0,0q-.043-.07-.086-.131h0c-.029-.041-.058-.08-.088-.116h0c-.018-.022-.036-.045-.054-.065.828-.534,1.609-1.085,2.354-1.645a4.849,4.849,0,0,0,6.285-.976c.931-1.242.438-2.687-.413-4,1.076-.959,2.106-1.855,3.135-2.627q.2-.147.39-.286l.01-.007q.189-.136.375-.265a19.775,19.775,0,0,1,7.642-3.158l1.442,5.024,7.895-2.265-1.192-4.156h0l.95,3.31,9.246-2.653a60.984,60.984,0,0,0-2.689-32.8l-15.457,4.435ZM105.52,198.739h0c0-.022.01-.044.016-.066C105.528,198.694,105.525,198.716,105.52,198.739Zm.133-.358.007-.013,0,0Zm36.136-.147.018-.006h0Z" transform="translate(-30.387 -95.237)" fill="#ccc6c6" style="mix-blend-mode: multiply;isolation: isolate"/>
      <g id="Grupo_118224" data-name="Grupo 118224" transform="translate(0 72.387)">
        <g id="Grupo_118221" data-name="Grupo 118221" transform="translate(0 3.408)">
          <g id="Grupo_118219" data-name="Grupo 118219">
            <path id="Trazado_180731" data-name="Trazado 180731" d="M245.283,218.353c-1.657,1.184-2.6,3.078-4.5,4.5s-7.813,2.131-7.813,2.131a70.551,70.551,0,0,0-8.05-4.735c-3.551-1.657-6.155-2.841-7.339-3.315-.7-.282-.571-.815-.346-1.2a1.894,1.894,0,0,1-1.311.727c-.514,0-.678-.14-.722-.268-.219.41-1.546.844-2.356,1.451-.559.419-.87.178-1.031-.09a2.138,2.138,0,0,1,.084,1.274,69.865,69.865,0,0,1-4.025,8.76c-1.2,2.1-3.627,2.2-5.431,1.459-7.7,18.037,15.138,24.347,15.138,24.347s10.654-9,16.809-12.311,9.944-7.813,13.732-10.654,6.392-3.314,12.075-4.5,17.046-.947,28.41-3.314l-.165-17.236C285.611,206.185,246.879,217.213,245.283,218.353Z" transform="translate(-141.941 -191.956)" fill="#f4926c"/>
            <path id="Trazado_180732" data-name="Trazado 180732" d="M244.809,243.769l-.079-.032c-1.338,1.178-2.272,2.8-3.946,4.057-1.894,1.421-7.813,2.131-7.813,2.131a70.552,70.552,0,0,0-8.05-4.735c-3.551-1.657-6.155-2.841-7.339-3.315-.7-.282-.571-.815-.346-1.2a1.894,1.894,0,0,1-1.311.727c-.514,0-.678-.14-.722-.268-.219.409-1.546.844-2.356,1.451-.559.419-.87.178-1.031-.09a2.138,2.138,0,0,1,.084,1.274,69.865,69.865,0,0,1-4.025,8.76c-1.2,2.1-3.627,2.2-5.431,1.459-7.7,18.037,15.138,24.347,15.138,24.347s10.654-9,16.809-12.311,9.944-7.813,13.732-10.654c.264-.2.522-.383.775-.559C250.912,249.7,248.76,245.462,244.809,243.769Z" transform="translate(-141.941 -216.898)" fill="#fc9e7a"/>
            <g id="Grupo_118217" data-name="Grupo 118217" transform="translate(0 10.8)">
              <path id="Trazado_180733" data-name="Trazado 180733" d="M0,203.986a144.971,144.971,0,0,0,26.516.71c9-.473,12.548-.947,15.626-.237s7.576-1.184,12.311-3.078,8.76-3.078,10.89-4.025a7.776,7.776,0,0,1,9,1.184c3.551,3.078,7.339,7.1,7.339,7.1l-6.866,4.025s7.813,3.788,11.6,6.156,6.156,3.788,8.523,4.972,5.208,2.368,6.629,4.025,3.314,4.025,1.894,5.919a4.808,4.808,0,0,1-6.629.71c-1.894-1.657-4.5-2.367-5.919-3.314s-7.1-3.314-7.813-3.788-1.657,0-.473.947,3.788,2.367,6.629,4.735,4.261,2.841,5.208,3.078,2.368,4.5.237,6.392-5.919.71-5.919.71.71,2.6-1.184,4.025a5.76,5.76,0,0,1-4.5.71s.473,3.315-2.841,3.551a9.542,9.542,0,0,1-6.866-2.131c-1.657-1.184-23.675-11.6-27.226-13.968s-5.445-4.025-9.707-4.025S0,231.212,0,231.212Z" transform="translate(0 -196.438)" fill="#fecca7"/>
              <path id="Trazado_180734" data-name="Trazado 180734" d="M270.543,324.695a4.446,4.446,0,0,0-.118-.777c-2.841-2.367-11.364-8.286-12.311-8.76s-2.131-.473.71,1.421,8.76,5.682,10.18,6.866C269.619,323.957,270.144,324.379,270.543,324.695Z" transform="translate(-181.644 -280.148)" fill="#edb28a"/>
              <path id="Trazado_180735" data-name="Trazado 180735" d="M235.686,326.629c-1.184-.71-1.421-.474,1.42,1.657,2.041,1.531,8.483,6.607,11.948,9.343a4.064,4.064,0,0,0,.012-.91l-.122-.146C246.34,334.678,236.87,327.339,235.686,326.629Z" transform="translate(-165.963 -288.185)" fill="#edb28a"/>
              <path id="Trazado_180736" data-name="Trazado 180736" d="M311.267,321.673c.711,2.888-1.866,6.106-4.675,7.286,1.289.2,3.379.272,4.766-.961C313.382,326.2,312.2,322.266,311.267,321.673Z" transform="translate(-216.658 -284.937)" fill="#fcd6be"/>
              <path id="Trazado_180737" data-name="Trazado 180737" d="M286.686,345.186l.03.009-.266-.2-.132.09c-.086,2.739-3.018,4.319-5.963,4.038l-.3.2.95.6a5.76,5.76,0,0,0,4.5-.71C287.4,347.79,286.686,345.186,286.686,345.186Z" transform="translate(-197.905 -301.415)" fill="#fcd6be"/>
              <path id="Trazado_180738" data-name="Trazado 180738" d="M322.074,285.232c2.443,1.926-.324,7.78-5.463,6.661a15.975,15.975,0,0,1,3.958,2.3,4.808,4.808,0,0,0,6.629-.71c1.42-1.894-.473-4.262-1.894-5.919A11.293,11.293,0,0,0,322.074,285.232Z" transform="translate(-223.738 -259.186)" fill="#fcd6be"/>
              <path id="Trazado_180739" data-name="Trazado 180739" d="M276.093,280.088l.052.032c-1.509-1.721-2.558-4.432-2.893-4.767-.474-.473.191,4,1.99,5.313l0,0C274.7,279.975,275.482,279.681,276.093,280.088Z" transform="translate(-192.993 -252.18)" fill="#edb28a"/>
              <path id="Trazado_180740" data-name="Trazado 180740" d="M261.332,363.767a2.857,2.857,0,0,0,2.862-3.008l-2.051-1.2c.575,2.658-2.232,3.971-5.907,3.2A9.024,9.024,0,0,0,261.332,363.767Z" transform="translate(-181.073 -311.71)" fill="#fcd6be"/>
            </g>
            <g id="Grupo_118218" data-name="Grupo 118218" transform="translate(40.362)">
              <path id="Trazado_180741" data-name="Trazado 180741" d="M286.6,159.618s-36.1,9.352-40.839,11.246a29.956,29.956,0,0,1-8.76,2.368,10.809,10.809,0,0,1-4.735-.474,58.645,58.645,0,0,0-9.707-.947c-2.6,0-5.208-1.894-8.523-1.421s-5.445,3.078-7.1,4.5-6.392,3.788-7.339,5.445-.237,4.972-.473,7.339-1.421,4.972-.71,7.1,5.682,3.788,7.576.473a69.865,69.865,0,0,0,4.025-8.76,2.614,2.614,0,0,0-.237-1.657s.237,1.184,1.184.473,2.6-1.184,2.367-1.657c0,0-.237.473.71.473s1.657-1.184,1.657-1.184-1.184,1.184,0,1.657,3.788,1.657,7.339,3.315a70.551,70.551,0,0,1,8.05,4.735s5.919-.71,7.813-2.131,2.841-3.314,4.5-4.5,43.325-13.021,43.325-13.021Z" transform="translate(-180.414 -159.618)" fill="#ffa579"/>
              <path id="Trazado_180742" data-name="Trazado 180742" d="M230.723,341.065c-2.367,3.078-3.551,4.5-7.339,4.025a4.18,4.18,0,0,1-3.551-5.919l4.5-9s3.315-2.368,4.262,1.42a19.45,19.45,0,0,1-.237,8.286Z" transform="translate(-195.443 -279.628)" fill="#ffa579"/>
              <path id="Trazado_180743" data-name="Trazado 180743" d="M224.332,330.174l-4.5,9a4.226,4.226,0,0,0,.629,4.475c3.944,2.107,7.183-.923,7.894-3.764a19.45,19.45,0,0,0,.237-8.286C227.647,327.807,224.332,330.174,224.332,330.174Z" transform="translate(-195.445 -279.628)" fill="#fca886"/>
              <path id="Trazado_180744" data-name="Trazado 180744" d="M200.35,330.95c-2.964,1.367-5.568.657-6.988-1a3.481,3.481,0,0,1-.71-3.788c.237-.947,5.919-9,7.1-10.18a3.879,3.879,0,0,1,5.208-.473c2.131,1.42.71,4.5.237,5.445S200.35,330.95,200.35,330.95Z" transform="translate(-176.312 -269.223)" fill="#f4a082"/>
              <path id="Trazado_180745" data-name="Trazado 180745" d="M171.449,315.776c-2.131,2.131-6.629,1.657-8.523-1.657s1.657-6.629,2.6-8.286,5.682-7.339,10.18-5.919,1.8,6.7,1.8,6.7Z" transform="translate(-155.109 -258.601)" fill="#fca886"/>
              <path id="Trazado_180746" data-name="Trazado 180746" d="M138.076,306.458c1.657-2.841,7.813,2.13,8.286,3.788s-2.368,4.972-5.682,4.735-3.078-3.551-3.078-5.208A13.847,13.847,0,0,1,138.076,306.458Z" transform="translate(-137.598 -262.777)" fill="#ffa579"/>
              <path id="Trazado_180747" data-name="Trazado 180747" d="M146.9,310.246c-.473-1.657-6.629-6.629-8.286-3.788,0,0-.129.455-.253,1.123.152,2.067,1.5,4.322,3.567,4.322,1.687,0,2.187.444,3.13,1.785C146.387,312.634,147.169,311.178,146.9,310.246Z" transform="translate(-138.139 -262.777)" fill="#f4926c"/>
              <path id="Trazado_180748" data-name="Trazado 180748" d="M218.042,208.824c.947-1.42.237-2.131-.237-3.551s1.657-3.788,2.6-7.576h0a1.168,1.168,0,0,0-.89-1.4,8.586,8.586,0,0,0-3.016-.14c-3.314.474-5.445,3.078-7.1,4.5s-6.392,3.788-7.339,5.445a3.6,3.6,0,0,0-.384,1.148c2.338-4.645,8.552-.082,10.683,3.706l.059.105c-.008-.027-.016-.052-.025-.077.161.268.472.51,1.031.09.81-.608,2.137-1.042,2.356-1.451.043.128.207.268.722.268a1.894,1.894,0,0,0,1.311-.727l-.023.041C217.872,209.079,217.956,208.953,218.042,208.824Z" transform="translate(-182.881 -185.386)" fill="#fc9e7a"/>
              <path id="Trazado_180749" data-name="Trazado 180749" d="M326.179,180.807c1.12,2.737,1.064,4.232,1.616,5.618.165-.143.335-.282.514-.41,1.657-1.184,43.325-13.021,43.325-13.021l-.119-13.377s-36.1,9.352-40.839,11.246a29.956,29.956,0,0,1-8.76,2.368,9.137,9.137,0,0,1-3.566-.19h0C326.415,174.888,324.048,175.6,326.179,180.807Z" transform="translate(-265.33 -159.618)" fill="#f79779"/>
              <path id="Trazado_180750" data-name="Trazado 180750" d="M230.428,341.119c0,1.421,2.368,1.184,2.368,1.184l2.367-3.551a4.616,4.616,0,0,0-1.894-1.421,2.2,2.2,0,0,0-1.421,0Z" transform="translate(-203.198 -285.127)" fill="#f7b69f"/>
              <path id="Trazado_180751" data-name="Trazado 180751" d="M220.079,319.4a6.507,6.507,0,0,0-2.131-1.184s-3.078,3.078-1.894,4.735,3.788-.237,4.262-.947l.947-1.421A4.1,4.1,0,0,0,220.079,319.4Z" transform="translate(-192.849 -271.692)" fill="#f7b69f"/>
              <path id="Trazado_180752" data-name="Trazado 180752" d="M192.49,306.01a19.22,19.22,0,0,0-3.315-.71s-2.6,2.841-2.367,4.5,3.347,3.5,4.988,1.75a34.638,34.638,0,0,0,3.062-3.881A5.728,5.728,0,0,0,192.49,306.01Z" transform="translate(-172.362 -262.566)" fill="#f7b69f"/>
              <path id="Trazado_180753" data-name="Trazado 180753" d="M142.248,320.28a3.714,3.714,0,0,1-3.254-2.828,2.2,2.2,0,0,0,.176,2.118c.98,1.176,2.771,1.863,3.492.722C142.532,320.284,142.4,320.28,142.248,320.28Z" transform="translate(-138.456 -271.154)" fill="#f7b69f"/>
              <path id="Trazado_180754" data-name="Trazado 180754" d="M198.547,261.945c2.367,1.184,5.208-1.894,5.208-1.894s1.894-4.972-1.657-5.208S198.547,261.945,198.547,261.945Z" transform="translate(-180.669 -226.906)" fill="#f7b69f"/>
            </g>
          </g>
          <g id="Grupo_118220" data-name="Grupo 118220" transform="translate(68.247 12.87)" opacity="0.42">
            <path id="Trazado_180755" data-name="Trazado 180755" d="M257.869,217.506c4.907-2.034,8.692-8.895,7.745-10.551" transform="translate(-250.475 -205.939)" fill="none" stroke="#af6038" stroke-linecap="round" stroke-miterlimit="10" stroke-width="1" opacity="0.44"/>
            <path id="Trazado_180756" data-name="Trazado 180756" d="M258.626,206.955c-.173,4.022-2.776,3.785-2.066,5.914s.7,3.419-.122,4.43" transform="translate(-249.463 -205.939)" fill="none" stroke="#af6038" stroke-linecap="round" stroke-miterlimit="10" stroke-width="1" opacity="0.44"/>
            <path id="Trazado_180757" data-name="Trazado 180757" d="M315.991,240.02c-.473,4.731-8.593,8.3-8.593,8.3" transform="translate(-285.475 -229.305)" fill="none" stroke="#af6038" stroke-linecap="round" stroke-miterlimit="10" stroke-width="1" opacity="0.44"/>
            <path id="Trazado_180758" data-name="Trazado 180758" d="M233.871,235.584a3.734,3.734,0,0,1,2.365,3.312" transform="translate(-233.516 -226.17)" fill="none" stroke="#af6038" stroke-linecap="round" stroke-miterlimit="10" stroke-width="1" opacity="0.44"/>
            <path id="Trazado_180759" data-name="Trazado 180759" d="M232.661,229.536a3.8,3.8,0,0,1,3.312,3.312" transform="translate(-232.661 -221.896)" fill="none" stroke="#af6038" stroke-linecap="round" stroke-miterlimit="10" stroke-width="1" opacity="0.44"/>
            <path id="Trazado_180760" data-name="Trazado 180760" d="M284.958,203.492c3.187,1.726,1.768,8.586-3.91,11.9" transform="translate(-266.854 -203.492)" fill="none" stroke="#af6038" stroke-linecap="round" stroke-miterlimit="10" stroke-width="1" opacity="0.44"/>
          </g>
          <path id="Trazado_180761" data-name="Trazado 180761" d="M252.94,294.991c1.453,1.623-.658,2.205-3.906,2.4s-4.25-3.482-2.129-3.785C250.217,293.129,251.642,293.541,252.94,294.991Z" transform="translate(-173.69 -254.168)" fill="#ffd9c0" opacity="0.39"/>
          <path id="Trazado_180762" data-name="Trazado 180762" d="M268,260.9c1.146.191.382-.955-1.529-2.866s-5-.4-4.968.573c.056,2.009,3.132,1.536,4.315,2.009A4.276,4.276,0,0,0,268,260.9Z" transform="translate(-184.793 -228.516)" fill="#ffd9c0" opacity="0.39"/>
        </g>
        <g id="Grupo_118222" data-name="Grupo 118222" transform="translate(106.657)">
          <rect id="Rectángulo_37029" data-name="Rectángulo 37029" width="8.213" height="34.027" transform="translate(0 10.48) rotate(-16.01)" fill="#fff"/>
          <path id="Trazado_180763" data-name="Trazado 180763" d="M423.216,182.027l-22.973,6.049-8.9-31.015L423.216,148Z" transform="translate(-383.206 -148)" fill="#1382bf"/>
        </g>
        <g id="Grupo_118223" data-name="Grupo 118223" transform="translate(0 17.797)">
          <rect id="Rectángulo_37030" data-name="Rectángulo 37030" width="8.213" height="34.027" transform="translate(34.592 34.027) rotate(179.795)" fill="#fff"/>
          <path id="Trazado_180764" data-name="Trazado 180764" d="M0,211.837l26.26-.068.115,32.267L0,244.178Z" transform="translate(0 -210.86)" fill="#f97d7d"/>
        </g>
      </g>
    </g>
    <g id="Grupo_118274" data-name="Grupo 118274">
      <g id="Grupo_118226" data-name="Grupo 118226" transform="translate(281.666 5309.061)">
        <g id="Grupo_117240" data-name="Grupo 117240" transform="translate(306.834 987.879) rotate(180)">
          <path id="Trazado_100600" data-name="Trazado 100600" d="M713.6-210.305l2.423-2.423,8.456,8.456,2.423,2.423-2.423,2.423-8.456,8.456-2.423-2.423,8.456-8.456Z" transform="translate(-702.564 212.728)" fill="#2d54fe"/>
          <path id="Trazado_100601" data-name="Trazado 100601" d="M776.91-201.849l-8.456-8.456,2.423-2.423,8.456,8.456,2.423,2.423-2.423,2.423-8.456,8.456-2.423-2.423Z" transform="translate(-768.453 212.728)" fill="#2d54fe"/>
        </g>
        <g id="Grupo_117241" data-name="Grupo 117241" transform="translate(180.333 995.24) rotate(90)">
          <path id="Trazado_100600-2" data-name="Trazado 100600" d="M0,13.922l1.744,1.744L7.833,9.578,9.578,7.833,7.833,6.089,1.744,0,0,1.744,6.089,7.833Z" transform="translate(7.944)" fill="#fe502d"/>
          <path id="Trazado_100601-2" data-name="Trazado 100601" d="M6.089,7.833,0,13.922l1.744,1.744L7.833,9.578,9.578,7.833,7.833,6.089,1.744,0,0,1.744Z" fill="#fe502d"/>
        </g>
        <rect id="Rectángulo_36648" data-name="Rectángulo 36648" width="39" height="10" transform="translate(291 899) rotate(180)" fill="#ffca00"/>
        <rect id="Rectángulo_36650" data-name="Rectángulo 36650" width="39" height="10" transform="translate(192 918.12) rotate(180)" fill="#2d54fe"/>
      </g>
    </g>
  </g>
</svg>
