<svg xmlns="http://www.w3.org/2000/svg" width="64.806" height="49.569" viewBox="0 0 64.806 49.569">
  <g id="_000000ff" data-name="#000000ff" transform="translate(0 -60.185)">
    <path id="Trazado_179562" data-name="Trazado 179562" d="M24.177,62.7A14.03,14.03,0,0,1,32.9,60.194a13.749,13.749,0,0,1,7.8,2.562,14.092,14.092,0,0,1,5.2,7.808,29.712,29.712,0,0,1,.809,5.672q.27,3.117.54,6.236a8.628,8.628,0,0,1,2.629-3.425,4.268,4.268,0,0,1,.091-2.557,4.763,4.763,0,0,1,3.048-2.839,5.334,5.334,0,0,1,5.726,1.562,4.253,4.253,0,0,1,.819,3.831A8.3,8.3,0,0,1,62.2,82.509a7.988,7.988,0,0,1-.332,6.629,4.5,4.5,0,0,0-.339,1.139,7.076,7.076,0,0,1-2.81,4.048c0,.663-.016,1.326.02,1.988.976.463,1.934.962,2.9,1.44a6.932,6.932,0,0,1,2.025,1.262,4.07,4.07,0,0,1,1.138,2.593v7.232a.96.96,0,0,1-1.13.89.987.987,0,0,1-.767-1.081c-.008-2.242.005-4.482,0-6.724a2.2,2.2,0,0,0-1.338-2.088q-1.492-.75-2.986-1.494a14.052,14.052,0,0,1-1.763,1.54,3.99,3.99,0,0,1-4.083.062,12.413,12.413,0,0,1-1.864-1.6c-.486.24-.967.491-1.461.714a5.54,5.54,0,0,1,1.194,3.631q0,2.916,0,5.831a1.212,1.212,0,0,1-.348,1.011.949.949,0,0,1-1.311-.1,1.333,1.333,0,0,1-.244-.92q.006-3.04,0-6.078a3.216,3.216,0,0,0-2.183-3.1c-1.7-.746-3.395-1.5-5.093-2.248a10.287,10.287,0,0,1-4.133,4.3,10.1,10.1,0,0,1-13.908-4.3c-1.815.8-3.634,1.6-5.445,2.409a3.113,3.113,0,0,0-1.829,2.723c-.027,2.183.011,4.367-.016,6.55a.946.946,0,0,1-1.033.977.959.959,0,0,1-.851-.985c-.01-2.191-.014-4.385,0-6.575A5.153,5.153,0,0,1,16.3,98.238a17.129,17.129,0,0,1-1.826-.586q-1.213,1.209-2.423,2.421c-.005,2.856,0,5.71,0,8.564a.994.994,0,0,1-.79,1.1.955.955,0,0,1-1.1-.982c-.014-2.781,0-5.563,0-8.344a.567.567,0,0,0-.161-.495q-1.116-1.122-2.24-2.238c-1.468.508-2.991.837-4.462,1.332a2.133,2.133,0,0,0-1.38,2.03c-.023,2.58.011,5.159-.015,7.739a.945.945,0,0,1-1.11.954.974.974,0,0,1-.78-.889v-8.072a4.074,4.074,0,0,1,3-3.678c1.182-.342,2.366-.676,3.548-1.011.194-.075.481-.118.521-.365A10.741,10.741,0,0,0,7.1,94.25a7.49,7.49,0,0,1-2.738-3.91,9.143,9.143,0,0,1-.3-2.842A2.059,2.059,0,0,0,3.9,86.386a6.514,6.514,0,0,1-.782-2.071,6.041,6.041,0,0,1,6-6.882c2.967-.018,5.935,0,8.9-.008a35.964,35.964,0,0,1,.914-6.963,14.046,14.046,0,0,1,5.248-7.76m-.535,2.99a14.091,14.091,0,0,0-3.472,8.631c-.495,5.958-1,11.922-1.94,17.829a22.627,22.627,0,0,0,5.944,2.507c.537-.248,1.089-.461,1.616-.728a1.077,1.077,0,0,0,.586-1c.014-1.064-.009-2.129.01-3.193a11.882,11.882,0,0,1-3.238-3.25,10.922,10.922,0,0,1-1.816-5.7,4.431,4.431,0,0,1,.415-2.674A3.887,3.887,0,0,1,23.063,76.9a5.9,5.9,0,0,0,2.073-2.226c.225-.429.313-1.027.821-1.223a.939.939,0,0,1,1.282,1.009,7.205,7.205,0,0,1-3.257,4.1c-.349.216-.746.5-.763.956a10.5,10.5,0,0,0,.316,3.307,9.192,9.192,0,0,0,17.781-.182,15.453,15.453,0,0,0,.273-4.086,2.176,2.176,0,0,0-.942-1.7,22.886,22.886,0,0,0-11.8-4.549c-.421-.073-.928-.062-1.224-.424a.946.946,0,0,1,.178-1.376c.42-.3.954-.116,1.419-.067a24.736,24.736,0,0,1,12.627,4.948,4.071,4.071,0,0,1,1.626,3.04,15.568,15.568,0,0,1-.461,5.162,11.134,11.134,0,0,1-3.793,5.545,4.6,4.6,0,0,0-.787.63c-.025,1.016,0,2.035-.01,3.052a1.134,1.134,0,0,0,.5,1.068c.548.3,1.139.514,1.7.778a22.69,22.69,0,0,0,5.944-2.509c-.463-2.929-.832-5.872-1.128-8.821-.373-3.244-.559-6.5-.892-9.751a13.194,13.194,0,0,0-4.628-9.034A12.173,12.173,0,0,0,31.765,62.1a11.543,11.543,0,0,0-8.123,3.593M52.561,76.01a2.517,2.517,0,0,0-.952,2.038,8.233,8.233,0,0,1,6.234,0,2.551,2.551,0,0,0-.548-1.632,3.49,3.49,0,0,0-4.734-.406M6.588,80.17a3.967,3.967,0,0,0-1.281,4.784,4.714,4.714,0,0,1,.646,1.661,11.306,11.306,0,0,0,.265,3.273,5.278,5.278,0,0,0,3.891,3.655A5.115,5.115,0,0,0,16.2,88.9c.071-.765.011-1.533.038-2.3.018-.632.462-1.13.657-1.709a5.013,5.013,0,0,0,.357-2.073c0-1.163,0-2.328,0-3.492q-4-.008-8.007,0a4.268,4.268,0,0,0-2.654.843m45.479-.222a6.148,6.148,0,0,0-3.24,3.854,5.907,5.907,0,0,0,.086,3.655,12.665,12.665,0,0,1,.765,1.918A5.1,5.1,0,0,0,53.157,93.4a5.132,5.132,0,0,0,6.622-3.993c-1.551-2.038-4.047-3-6.4-3.778a5.1,5.1,0,0,1-1.124,1.6.944.944,0,0,1-1.506-.6c-.1-.533.365-.89.632-1.282a4.114,4.114,0,0,0,.475-1.295.978.978,0,0,1,1.18-.477,16.913,16.913,0,0,1,7.52,3.819,6.138,6.138,0,0,0-4.1-7.793,5.925,5.925,0,0,0-4.391.349M28.27,93.069a3,3,0,0,1-.853,1.978,6.936,6.936,0,0,1-2.294,1.271,8.322,8.322,0,0,0,4.234,3.845,8.193,8.193,0,0,0,10.326-3.845,5.746,5.746,0,0,1-2.524-1.534c-.939-1.154-.551-2.715-.633-4.078a11.261,11.261,0,0,1-8.248,0c-.009.787.011,1.576-.009,2.363m19.421.6a21.646,21.646,0,0,1-4.411,2.157c1.48.658,2.963,1.31,4.444,1.967,1-.495,2-1,3-1.495.02-.656,0-1.313.014-1.968a7.466,7.466,0,0,1-2.3-2.652,2.05,2.05,0,0,1-.748,1.991m-32.6.653a5.371,5.371,0,0,0,.091,1.537c1.182.513,2.464.751,3.69,1.142.882-.395,1.773-.765,2.644-1.182a20.765,20.765,0,0,1-3.364-1.532,3.634,3.634,0,0,1-1.62-1.294,10.027,10.027,0,0,1-1.44,1.329m-6.073.9a6.893,6.893,0,0,0-.043.98c.691.729,1.419,1.424,2.125,2.138.715-.711,1.424-1.43,2.145-2.137-.025-.319-.047-.639-.059-.959a7.089,7.089,0,0,1-4.168-.022m43.617.022a4.529,4.529,0,0,1-.227,1.944c.661.6,1.3,1.428,2.282,1.4,1.016.063,1.691-.78,2.354-1.409a4.436,4.436,0,0,1-.219-1.933A7.572,7.572,0,0,1,52.632,95.242Z" transform="translate(0 0)" fill="#fe502d"/>
    <path id="Trazado_179563" data-name="Trazado 179563" d="M56.73,236.594a2.217,2.217,0,0,1,.97-.095,18.264,18.264,0,0,1,5.4.875c.386.153.852.3,1.008.734a.948.948,0,0,1-.843,1.289,14.435,14.435,0,0,1-1.487-.465,20.965,20.965,0,0,0-4.341-.534,1.2,1.2,0,0,1-1.042-.4A.946.946,0,0,1,56.73,236.594Z" transform="translate(-49.094 -153.991)" fill="#fe502d"/>
    <path id="Trazado_179564" data-name="Trazado 179564" d="M32.591,388.956a.944.944,0,0,1,1.187.337,1.545,1.545,0,0,1,.166.858q-.006,2.721,0,5.441a1.249,1.249,0,0,1-.3.978.955.955,0,0,1-1.372-.072,1.514,1.514,0,0,1-.233-1.032c.01-1.862-.008-3.724.008-5.586A.983.983,0,0,1,32.591,388.956Z" transform="translate(-27.985 -287.081)" fill="#fe502d"/>
    <path id="Trazado_179565" data-name="Trazado 179565" d="M465.485,398.827a.944.944,0,0,1,1.327.823c.029,1.57.006,3.142.011,4.711a.992.992,0,0,1-.764,1.075.951.951,0,0,1-1.126-.963c-.014-1.562-.008-3.123,0-4.683A.989.989,0,0,1,465.485,398.827Z" transform="translate(-406.076 -295.704)" fill="#fe502d"/>
    <path id="Trazado_179566" data-name="Trazado 179566" d="M168.849,405a.948.948,0,0,1,1.189.295,1.491,1.491,0,0,1,.187.887c-.008,1.183,0,2.366,0,3.549a1.041,1.041,0,0,1-.389.918.944.944,0,0,1-1.345-.237,1.715,1.715,0,0,1-.167-.944c.009-1.178-.005-2.357.005-3.535A1,1,0,0,1,168.849,405Z" transform="translate(-147.015 -301.085)" fill="#fe502d"/>
    <path id="Trazado_179567" data-name="Trazado 179567" d="M329.239,404.965a.945.945,0,0,1,1.116.322,1.725,1.725,0,0,1,.19,1.014c-.015,1.209.016,2.418-.014,3.626a.941.941,0,1,1-1.881-.078c-.014-1.307-.008-2.616,0-3.924A.98.98,0,0,1,329.239,404.965Z" transform="translate(-287.045 -301.08)" fill="#fe502d"/>
  </g>
</svg>
