<svg xmlns="http://www.w3.org/2000/svg" width="116.5" height="150.141" viewBox="0 0 116.5 150.141">
  <g id="Grupo_118027" data-name="Grupo 118027" transform="translate(-526.542 -92.058)">
    <circle id="Elipse_6424" data-name="Elipse 6424" cx="58.25" cy="58.25" r="58.25" transform="translate(526.542 92.057)" fill="#fff"/>
    <ellipse id="Elipse_6425" data-name="Elipse 6425" cx="26.225" cy="13.929" rx="26.225" ry="13.929" transform="translate(535.212 214.341)" fill="#ce6200" opacity="0.5"/>
    <g id="Grupo_118026" data-name="Grupo 118026" transform="translate(542.411 101.084)">
      <g id="Grupo_118020" data-name="Grupo 118020" transform="translate(43.055 76.645)">
        <path id="Trazado_180227" data-name="Trazado 180227" d="M604.178,159.783s-11.707-3.079-15.457-3.368a30.787,30.787,0,0,0-7.245.886,9.327,9.327,0,0,1,.358,9.091c.4-.1.794-.184,1.152-.238,5.183-.79,15.238-1.316,18.7-.176,2.08.686,4.108-1.694,4.16-3.7C605.88,160.946,604.178,159.783,604.178,159.783Z" transform="translate(-567.247 -156.391)" fill="#c1592b"/>
        <path id="Trazado_180228" data-name="Trazado 180228" d="M585.02,157.074c-2.923.614-5.445,1.313-5.445,1.313l-8.784,2.159s.332,6.427,3.5,7.581c2.835,1.031,7.678-1.124,11.082-1.962A9.327,9.327,0,0,0,585.02,157.074Z" transform="translate(-570.791 -156.165)" fill="#3f3f3f"/>
      </g>
      <path id="Trazado_180229" data-name="Trazado 180229" d="M574.1,109.309A8.664,8.664,0,0,0,568,113.06c-1.88,3.168-1.8,5.2-1.88,8.2-.055,2.109-.188,7.128-4.1,9.11-1.952.989-13.482,10.474-13.482,10.474l3.473,4.036s10.936-5.2,13.155-6.186c3.181-1.414,5.787-5.07,6.66-6.871,1.871-3.868,4.809-12.744,4.809-12.744Z" transform="translate(-535.114 -95.362)" fill="#c1592b"/>
      <path id="Trazado_180230" data-name="Trazado 180230" d="M569.758,114.889s-1.787,6.566-1.474,8.765,4.564,6.283,4.564,6.283,4.714,1.886,8.284-1.256,2.393-13.792,2.393-13.792l-8.211-5.58Z" transform="translate(-528.579 -95.362)" fill="#c1592b"/>
      <path id="Trazado_180231" data-name="Trazado 180231" d="M566.739,150.74a50.616,50.616,0,0,1,2.444-9.83c3.277-1.677,4.241,3.987,4.241,3.987Z" transform="translate(-529.08 -84.985)" fill="#e21a37"/>
      <path id="Trazado_180232" data-name="Trazado 180232" d="M585.872,148.342a20.419,20.419,0,0,0,1.236,10.785s-3.662,3.927-7.54,7.28c-4.51,3.9-10.52-2.49-10.52-2.49S580.543,146.561,585.872,148.342Z" transform="translate(-528.314 -82.459)" fill="#e21a37"/>
      <path id="Trazado_180233" data-name="Trazado 180233" d="M585.368,155.69s-2.581,1.838-3.89,2.951c-1.145.973-2.441,3.35-4.058,3.743a18.987,18.987,0,0,1-4.66.1l.882-1.922s2.5.587,3.6.194,2.277-2.245,4.083-3.714a39.389,39.389,0,0,1,3.691-2.629Z" transform="translate(-527.082 -80.401)" fill="#3f3f3f"/>
      <path id="Trazado_180234" data-name="Trazado 180234" d="M583.417,114.692s-6.7,14.768-10.966,11.462-2.561-7.5-2.561-7.5l-2.98-3.96a79.8,79.8,0,0,0,0,10.276c.39,4.7,4.115,15.579,2.762,17.534-2.936,4.241.5,5.026.5,5.026l-2.244,4.241s9.471,7.483,15.549,5.585a72.282,72.282,0,0,1,11.623-2.915s0-3.77-1.489-6.126c.7-7.068.739-17.783-.71-23.717a18.6,18.6,0,0,0-6.261-9.708,48.035,48.035,0,0,0-11.143-5.58l.883,2.4Z" transform="translate(-529.08 -95.362)" fill="#ff364a"/>
      <path id="Trazado_180235" data-name="Trazado 180235" d="M568.23,117.16a17.042,17.042,0,0,0-.431,4.417c.209,1.571,1.4,5.131,4,6.492s5.345-.534,6.8-2.675,4.7-8.737,5.85-9.785a16.851,16.851,0,0,0,1.854-1.959l-.884-.606a11.95,11.95,0,0,0-2.436,2.461c-1.047,1.466-3.9,7.879-5.6,9.685-1.454,1.543-3.568,3.718-5.681,1.729s-3.365-3.979-3.22-5.969.419-3.8.419-3.8Z" transform="translate(-528.742 -94.124)" fill="#3f3f3f"/>
      <path id="Trazado_180236" data-name="Trazado 180236" d="M575.807,101.769c-2.926-2.228-9.854-2.943-12.383,4.216-2.653,7.508,4.141,16.886,7.762,15.292,2.028-.892,6.291-4.06,7.491-8.013C580.029,108.814,578.079,103.5,575.807,101.769Z" transform="translate(-530.378 -98.374)" fill="#d87745"/>
      <path id="Trazado_180237" data-name="Trazado 180237" d="M575.083,112.934s1.341-2.8,2.6-1.983c.935.6,1.019,2.774,1.019,2.774a10.528,10.528,0,0,0,1.3-7.789c-.622-2.8-4.111-7.61-9.007-7.056-6.328.716-8.866,6.59-8.148,9.973.8-2.449,3.128-3.137,6.221-2.364A8.21,8.21,0,0,1,575.083,112.934Z" transform="translate(-530.407 -98.836)" fill="#3f3f3f"/>
      <path id="Trazado_180238" data-name="Trazado 180238" d="M583.42,115.834c-4.614,1.33-5.07,7.7-4.709,10.094.313,2.064,1.151,4.711,2.428,5.969s6.253-.386,6.736-3.524S588.175,114.462,583.42,115.834Z" transform="translate(-525.141 -93.238)" fill="#d87745"/>
      <path id="Trazado_180239" data-name="Trazado 180239" d="M591.059,117.964c4.179,3.008,9.388,3.382,12.013,5.364,2.914,2.2,5.141,3.578,4.433,5.115-1.26,2.737-1.63,5.919-3.245,8.9a40.444,40.444,0,0,0-3.5,7.97c-.443,1.332,1.075,3.77,1.075,6.489,0,2.464-1.887,7.312-3.457,9.375-1.091,1.432-3.076-1.6-2.633-3.706s-.293-7.236-.293-7.236a10.51,10.51,0,0,0-2.906,1.834c-1.116.993-1.866.156-.407-1.527,1.168-1.35,3.41-4.014,4.08-5.866a26.971,26.971,0,0,0,.726-7.332c-.282-4.946,2.468-6.973,2.466-6.925,0,0-4.8,1.009-8.383-.25-1.8-.634-7.573-.988-7.573-.988l-1.98-12.793S584.961,113.575,591.059,117.964Z" transform="translate(-524.192 -93.309)" fill="#d87745"/>
      <g id="Grupo_118021" data-name="Grupo 118021" transform="translate(19.691 72.412)">
        <path id="Trazado_180240" data-name="Trazado 180240" d="M583.728,154.34l-19.205-1.127A26,26,0,0,1,563,157.769a32.24,32.24,0,0,0-1.852,6.312,15.814,15.814,0,0,0,3.525,3.205c1.254.78,4.677,1.079,6.218,1.176C575.2,162.644,583.728,154.34,583.728,154.34Z" transform="translate(-550.625 -153.213)" fill="#d87745"/>
        <path id="Trazado_180241" data-name="Trazado 180241" d="M564.234,174.444c-2.529-.517-3.956-3.521-4.56-5.164a34.181,34.181,0,0,0-1.822,7.78c-.338,3.473-3.305,14.823-4.473,16.354s5.73,2.161,5.73,2.161,4.164-10.01,7.279-13.737a17.48,17.48,0,0,0,3.091-7.256A13.307,13.307,0,0,1,564.234,174.444Z" transform="translate(-553.246 -147.884)" fill="#d87745"/>
        <path id="Trazado_180242" data-name="Trazado 180242" d="M562.869,173.158,561.15,179.6a6.977,6.977,0,0,0,2.822-3.769c.558-2.345.939-2.67.939-2.67Z" transform="translate(-550.625 -146.598)" fill="#c1592b"/>
        <path id="Trazado_180243" data-name="Trazado 180243" d="M562.171,161.374c-.515,2.364-.942,4.457-1.627,5.327a21.247,21.247,0,0,0-2.47,5.2c.6,1.643,2.031,4.648,4.56,5.164a13.307,13.307,0,0,0,5.245.137c.606-2.57,1.033-5.24,1.735-7.531a15.171,15.171,0,0,1,2.3-3.918c-1.541-.1-4.963-.4-6.218-1.176A15.814,15.814,0,0,1,562.171,161.374Z" transform="translate(-551.645 -150.506)" fill="#3f3f3f"/>
      </g>
      <path id="Trazado_180244" data-name="Trazado 180244" d="M574.391,137.894s-3.117,11.653-3.384,11.948c-4.354,4.8-10.769,11.884-11.079,12.345,3.269,3.666,1.479,3.722,4.829,6.388,6.5,5.17,13.982,1.184,13.982,1.184s.985-4.229,5.395-9.515,9.643-6.17,11.046-11.006c1.55-5.341,0-13.823,0-13.823Z" transform="translate(-531.339 -86.704)" fill="#ff364a"/>
      <path id="Trazado_180245" data-name="Trazado 180245" d="M570.54,135.735s5.955,1.518,9.653.314,7.938-5.865,7.938-5.865-4.031,2.043-5.917,2.88A58.955,58.955,0,0,1,570.54,135.735Z" transform="translate(-527.819 -88.439)" fill="#e21a37"/>
      <path id="Trazado_180246" data-name="Trazado 180246" d="M569.316,138.207a18.941,18.941,0,0,0,7.86,3.449c4.765.9,11.99-2.087,11.99-2.087s-.523-1.571-1.571-1.886-8.812-.314-9.956-.209S571.509,138.155,569.316,138.207Z" transform="translate(-528.225 -86.042)" fill="#e21a37"/>
      <path id="Trazado_180247" data-name="Trazado 180247" d="M568.751,142.007a62.385,62.385,0,0,0,8.406,3.786c3.453,1.1,8.218-.232,10.731-.86s4.934-1.068,4.934-1.068a13.394,13.394,0,0,1-.567,3.185,18.868,18.868,0,0,0-5.556,0c-1.847.314-6.813,1.028-9.23.261C569.613,144.818,568.751,142.007,568.751,142.007Z" transform="translate(-528.412 -84.518)" fill="#e21a37"/>
      <g id="Grupo_118022" data-name="Grupo 118022" transform="translate(6.022 113.448)">
        <path id="Trazado_180248" data-name="Trazado 180248" d="M558.021,185a62.707,62.707,0,0,1-5.425,4.153c-1.674.983-4.291,2.947-6.469,4.07s-3.169,2.737-2.751,3.634a5.569,5.569,0,0,0,5.44,3.2c1.486-.013,4.709-2.622,7.174-3.464s6.276-2.241,6.91-3.735c1.256-2.956,1.446-4.405,1.121-5.75-.525-.258-1.723,1.2-2.3.421C560.463,185.838,559.486,185,558.021,185Z" transform="translate(-542.881 -183.708)" fill="#3f3f3f"/>
        <path id="Trazado_180249" data-name="Trazado 180249" d="M551.7,187.457a5.765,5.765,0,0,1,2.7,1.955c.831,1.328,2.477,1.081,1.641-.819a4.7,4.7,0,0,0-2.646-2.464Z" transform="translate(-540.09 -183.332)" fill="#fff"/>
        <path id="Trazado_180250" data-name="Trazado 180250" d="M549.416,188.938a11.028,11.028,0,0,1,2.6,2.553c.831,1.328,2.441.895,1.6-1a5.8,5.8,0,0,0-2.386-2.689Z" transform="translate(-540.846 -182.779)" fill="#fff"/>
        <path id="Trazado_180251" data-name="Trazado 180251" d="M547.127,190.48a9.382,9.382,0,0,1,2.679,2.433c.831,1.328,2.441.9,1.6-1a5.805,5.805,0,0,0-2.386-2.689Z" transform="translate(-541.606 -182.307)" fill="#fff"/>
        <path id="Trazado_180252" data-name="Trazado 180252" d="M543.515,194.307s1.587-.746,2.424.47,1.647,2.619,2.4,2.9,4.364-1.4,6.373-2.433,5.068-1.63,6.332-3.35a14.968,14.968,0,0,1,2.7-2.474,5.267,5.267,0,0,1-.752,3.112,4.622,4.622,0,0,1-3.422,1.828A20.457,20.457,0,0,0,554,196.4c-.843.523-3.283,2.538-5.5,2.882C545.807,199.7,541.46,196.979,543.515,194.307Z" transform="translate(-542.981 -182.241)" fill="#ff364a"/>
        <path id="Trazado_180253" data-name="Trazado 180253" d="M553.792,185.936V184.16a3.69,3.69,0,0,1,3.115.55,9.494,9.494,0,0,1,2.12,2.116l-.393,1.244S556.567,189.6,553.792,185.936Z" transform="translate(-539.395 -184.029)" fill="#ff364a"/>
      </g>
      <g id="Grupo_118023" data-name="Grupo 118023" transform="translate(75.22 78.374)">
        <path id="Trazado_180254" data-name="Trazado 180254" d="M595.958,165.568a19.078,19.078,0,0,0,2.8,3.281c2.284,1.884,2.457,7.088,3.508,8.69,1.1,1.675,3.4.734,3.4.734a13.862,13.862,0,0,0,.838-11.311c-.71-1.892.328-4.771-.157-6.015a10.188,10.188,0,0,0-1.936-3.209s-6.127-.142-6.544,1.341c-.16.567,1.71,1.3,1.982,2.321a1.135,1.135,0,0,1-.4,1.119A30.587,30.587,0,0,1,595.958,165.568Z" transform="translate(-594.609 -157.676)" fill="#3f3f3f"/>
        <path id="Trazado_180255" data-name="Trazado 180255" d="M601.8,157.7a22.274,22.274,0,0,1,1.7,2.9c.434.983.178,2.918.341,4.5a32.818,32.818,0,0,0,1.152,5.026,11.868,11.868,0,0,1-.943,5.969c-.441.743-3.088.629-3.35,1.466s1.513,1.049,2.775,1.065c1.99.024,3.26-4.625,2.729-8.186s-1.6-4.542-1.2-5.909,1.42-2.494.258-4.576S604.217,157.65,601.8,157.7Z" transform="translate(-593.044 -157.69)" fill="#ff364a"/>
        <path id="Trazado_180256" data-name="Trazado 180256" d="M597.693,166.221a7.68,7.68,0,0,1,1.694-1.65c.838-.654,1.938.079,1.081.786-1.049.866-2.044,1.539-2.044,1.539Z" transform="translate(-594.033 -155.492)" fill="#fff"/>
        <path id="Trazado_180257" data-name="Trazado 180257" d="M598.74,167.191s1.275-.7,1.992-1.124,1.607.521.586,1.124-2.012,1.1-2.012,1.1Z" transform="translate(-593.686 -154.946)" fill="#fff"/>
        <path id="Trazado_180258" data-name="Trazado 180258" d="M599.463,168.805s1.413-.787,2.076-1.077,1.345.611.4,1.077-2.177,1.021-2.177,1.021Z" transform="translate(-593.446 -154.38)" fill="#fff"/>
        <path id="Trazado_180259" data-name="Trazado 180259" d="M597.328,165.771s-1.916-.774-2.239-1.333-.182-1.562,1.205-2.037,3.5-1.073,3.5-1.073S599.486,164.512,597.328,165.771Z" transform="translate(-594.945 -156.484)" fill="#ff364a"/>
      </g>
      <path id="Trazado_180260" data-name="Trazado 180260" d="M561.15,154.41s1.614,2.326,3.342,5.257c1.478,2.509,5.122,3.293,7.443,2.86a52.731,52.731,0,0,1,7.009-.422l.75-1.681s-6.139.743-8.026.411-5.019-.027-6.548-2.482c-1.743-2.8-2.9-5.142-2.9-5.142Z" transform="translate(-530.933 -80.801)" fill="#3f3f3f"/>
      <path id="Trazado_180261" data-name="Trazado 180261" d="M575.648,129.5c1.585,2.309.364,5.48-.229,6.526s-2.827,4.175-2.827,4.175l5.07,1.667-.654,2.195-6.929-2.731a13.149,13.149,0,0,1,2.931-5.305c1.788-1.927,1.667-5.166.621-5.375s-2.105,2.354-2.105,2.354l-2.276-1.151S572.591,125.05,575.648,129.5Z" transform="translate(-528.247 -89.167)" fill="#3f3f3f"/>
      <path id="Trazado_180262" data-name="Trazado 180262" d="M568.112,140.473a58.588,58.588,0,0,0,6.191,3.489c2.356,1.021,4.634,2.394,8.169,1.629s12.1-2.448,12.1-2.448l-.108-.906s-5.163.735-8.283,1.529c-2.324.59-4.963,2.015-10.034-.2-3.462-1.51-7.634-3.856-7.634-3.856Z" transform="translate(-528.624 -85.279)" fill="#3f3f3f"/>
      <path id="Trazado_180263" data-name="Trazado 180263" d="M586.457,126.176a24.5,24.5,0,0,0-3.069-.4c-1.256-.044-1.706,3.2-1.706,3.2a5.647,5.647,0,0,0,2.911-.81C586.2,127.078,586.457,126.176,586.457,126.176Z" transform="translate(-524.123 -89.901)" fill="#c1592b"/>
      <g id="Grupo_118025" data-name="Grupo 118025" transform="translate(0 44.197)">
        <g id="Grupo_118024" data-name="Grupo 118024">
          <path id="Trazado_180264" data-name="Trazado 180264" d="M557.024,135.148a10.318,10.318,0,0,1-18.446,7.911,10.325,10.325,0,1,0,18.446-7.911Z" transform="translate(-538.42 -130.989)" fill="#ce6200"/>
          <path id="Trazado_180265" data-name="Trazado 180265" d="M546.888,148.254a10.279,10.279,0,0,0,10.175-12.07,10.306,10.306,0,0,0-18.446,7.911A10.3,10.3,0,0,0,546.888,148.254Z" transform="translate(-538.459 -132.025)" fill="#ffa31d"/>
        </g>
        <path id="Trazado_180266" data-name="Trazado 180266" d="M541.854,133.413s5.513,4.81,7.9,10.167,3.073,7.3,3.073,7.3l.356-.19a48.2,48.2,0,0,0-4.006-9.415,30.7,30.7,0,0,0-7.048-8.042Z" transform="translate(-537.333 -131.624)" fill="#3f3f3f"/>
        <path id="Trazado_180267" data-name="Trazado 180267" d="M539.648,135.741s3.268.218,3.974,4.485c.554,3.345.069,6.5,1.518,8.665a6.284,6.284,0,0,0,3.257,2.659l.382-.007s-3.07-1.571-3.9-4.04c-.862-2.558-.027-8.14-2.293-10.655a3.88,3.88,0,0,0-2.766-1.392Z" transform="translate(-538.065 -130.887)" fill="#3f3f3f"/>
        <path id="Trazado_180268" data-name="Trazado 180268" d="M544.772,132.174s.292,3.08,2.962,3.81c1.081.3,3.863-.013,5.335,1.515,2.7,2.807,3.116,8.911,3.116,8.911l.256-.643a14.78,14.78,0,0,0-2.188-7.32c-1.91-2.856-3.437-2.539-6.02-2.827-2.346-.261-3.168-3.482-3.168-3.482Z" transform="translate(-536.365 -131.988)" fill="#3f3f3f"/>
      </g>
    </g>
  </g>
</svg>
