<svg xmlns="http://www.w3.org/2000/svg" width="1251.713" height="802.431" viewBox="0 0 1251.713 802.431">
  <g id="Grupo_1009750" data-name="Grupo 1009750" transform="translate(-180 -2966)">
    <rect id="Rectángulo_36910" data-name="Rectángulo 36910" width="1202" height="783" rx="20" transform="translate(199 2966)" fill="#ffca00" opacity="0.3"/>
    <g id="Grupo_118259" data-name="Grupo 118259" transform="translate(235.01 3436)">
      <circle id="Elipse_4053" data-name="Elipse 4053" cx="3.798" cy="3.798" r="3.798" transform="translate(193.457)" fill="#ffca00"/>
      <circle id="Elipse_4064" data-name="Elipse 4064" cx="3.798" cy="3.798" r="3.798" transform="translate(154.968)" fill="#ffca00"/>
      <circle id="Elipse_4070" data-name="Elipse 4070" cx="3.798" cy="3.798" r="3.798" transform="translate(116.479)" fill="#ffca00"/>
      <circle id="Elipse_4076" data-name="Elipse 4076" cx="3.798" cy="3.798" r="3.798" transform="translate(77.991)" fill="#ffca00"/>
      <circle id="Elipse_4082" data-name="Elipse 4082" cx="3.798" cy="3.798" r="3.798" transform="translate(39.502)" fill="#ffca00"/>
      <circle id="Elipse_4088" data-name="Elipse 4088" cx="3.798" cy="3.798" r="3.798" fill="#ffca00"/>
      <circle id="Elipse_4054" data-name="Elipse 4054" cx="3.798" cy="3.798" r="3.798" transform="translate(193.457 40.515)" fill="#ffca00"/>
      <circle id="Elipse_4063" data-name="Elipse 4063" cx="3.798" cy="3.798" r="3.798" transform="translate(154.968 40.515)" fill="#ffca00"/>
      <circle id="Elipse_4069" data-name="Elipse 4069" cx="3.798" cy="3.798" r="3.798" transform="translate(116.479 40.515)" fill="#ffca00"/>
      <circle id="Elipse_4075" data-name="Elipse 4075" cx="3.798" cy="3.798" r="3.798" transform="translate(77.991 40.515)" fill="#ffca00"/>
      <circle id="Elipse_4081" data-name="Elipse 4081" cx="3.798" cy="3.798" r="3.798" transform="translate(39.502 40.515)" fill="#ffca00"/>
      <circle id="Elipse_4087" data-name="Elipse 4087" cx="3.798" cy="3.798" r="3.798" transform="translate(0 40.515)" fill="#ffca00"/>
      <circle id="Elipse_4055" data-name="Elipse 4055" cx="3.798" cy="3.798" r="3.798" transform="translate(193.457 81.029)" fill="#ffca00"/>
      <circle id="Elipse_4062" data-name="Elipse 4062" cx="3.798" cy="3.798" r="3.798" transform="translate(154.968 81.029)" fill="#ffca00"/>
      <circle id="Elipse_4068" data-name="Elipse 4068" cx="3.798" cy="3.798" r="3.798" transform="translate(116.479 81.029)" fill="#ffca00"/>
      <circle id="Elipse_4074" data-name="Elipse 4074" cx="3.798" cy="3.798" r="3.798" transform="translate(77.991 81.029)" fill="#ffca00"/>
      <circle id="Elipse_4080" data-name="Elipse 4080" cx="3.798" cy="3.798" r="3.798" transform="translate(39.502 81.029)" fill="#ffca00"/>
      <circle id="Elipse_4086" data-name="Elipse 4086" cx="3.798" cy="3.798" r="3.798" transform="translate(0 81.029)" fill="#ffca00"/>
      <circle id="Elipse_4056" data-name="Elipse 4056" cx="3.798" cy="3.798" r="3.798" transform="translate(193.457 121.544)" fill="#ffca00"/>
      <circle id="Elipse_4061" data-name="Elipse 4061" cx="3.798" cy="3.798" r="3.798" transform="translate(154.968 121.544)" fill="#ffca00"/>
      <circle id="Elipse_4067" data-name="Elipse 4067" cx="3.798" cy="3.798" r="3.798" transform="translate(116.479 121.544)" fill="#ffca00"/>
      <circle id="Elipse_4073" data-name="Elipse 4073" cx="3.798" cy="3.798" r="3.798" transform="translate(77.991 121.544)" fill="#ffca00"/>
      <circle id="Elipse_4079" data-name="Elipse 4079" cx="3.798" cy="3.798" r="3.798" transform="translate(39.502 121.544)" fill="#ffca00"/>
      <circle id="Elipse_4085" data-name="Elipse 4085" cx="3.798" cy="3.798" r="3.798" transform="translate(0 121.544)" fill="#ffca00"/>
      <circle id="Elipse_4057" data-name="Elipse 4057" cx="3.798" cy="3.798" r="3.798" transform="translate(193.457 162.058)" fill="#ffca00"/>
      <circle id="Elipse_4060" data-name="Elipse 4060" cx="3.798" cy="3.798" r="3.798" transform="translate(154.968 162.058)" fill="#ffca00"/>
      <circle id="Elipse_4066" data-name="Elipse 4066" cx="3.798" cy="3.798" r="3.798" transform="translate(116.479 162.058)" fill="#ffca00"/>
      <circle id="Elipse_4072" data-name="Elipse 4072" cx="3.798" cy="3.798" r="3.798" transform="translate(77.991 162.058)" fill="#ffca00"/>
      <circle id="Elipse_4078" data-name="Elipse 4078" cx="3.798" cy="3.798" r="3.798" transform="translate(39.502 162.058)" fill="#ffca00"/>
      <circle id="Elipse_4084" data-name="Elipse 4084" cx="3.798" cy="3.798" r="3.798" transform="translate(0 162.058)" fill="#ffca00"/>
      <circle id="Elipse_4058" data-name="Elipse 4058" cx="3.798" cy="3.798" r="3.798" transform="translate(193.457 202.573)" fill="#ffca00"/>
      <circle id="Elipse_4059" data-name="Elipse 4059" cx="3.798" cy="3.798" r="3.798" transform="translate(154.968 202.573)" fill="#ffca00"/>
      <circle id="Elipse_4065" data-name="Elipse 4065" cx="3.798" cy="3.798" r="3.798" transform="translate(116.479 202.573)" fill="#ffca00"/>
      <circle id="Elipse_4071" data-name="Elipse 4071" cx="3.798" cy="3.798" r="3.798" transform="translate(77.991 202.573)" fill="#ffca00"/>
      <circle id="Elipse_4077" data-name="Elipse 4077" cx="3.798" cy="3.798" r="3.798" transform="translate(39.502 202.573)" fill="#ffca00"/>
      <circle id="Elipse_4083" data-name="Elipse 4083" cx="3.798" cy="3.798" r="3.798" transform="translate(0 202.573)" fill="#ffca00"/>
    </g>
    <g id="Grupo_118260" data-name="Grupo 118260" transform="translate(292.57 2996) rotate(90)">
      <path id="Trazado_100597" data-name="Trazado 100597" d="M0,3.308,3.308,0,14.857,11.548l3.308,3.308-3.308,3.308L3.308,29.713,0,26.4,11.548,14.857Z" transform="translate(60.265)" fill="#fe502d"/>
      <path id="Trazado_100598" data-name="Trazado 100598" d="M0,3.308,3.308,0,14.857,11.548l3.308,3.308-3.308,3.308L3.308,29.713,0,26.4,11.548,14.857Z" transform="translate(45.199)" fill="#fe502d"/>
      <path id="Trazado_100599" data-name="Trazado 100599" d="M0,3.308,3.308,0,14.857,11.548l3.308,3.308-3.308,3.308L3.308,29.713,0,26.4,11.548,14.857Z" transform="translate(30.133)" fill="#fe502d"/>
      <path id="Trazado_100600" data-name="Trazado 100600" d="M0,3.308,3.308,0,14.857,11.548l3.308,3.308-3.308,3.308L3.308,29.713,0,26.4,11.548,14.857Z" transform="translate(15.066)" fill="#fe502d"/>
      <path id="Trazado_100601" data-name="Trazado 100601" d="M11.548,14.857,0,3.308,3.308,0,14.857,11.548l3.308,3.308-3.308,3.308L3.308,29.713,0,26.4Z" fill="#fe502d"/>
    </g>
    <g id="Grupo_118261" data-name="Grupo 118261" transform="translate(1337 3768.431) rotate(-90)">
      <path id="Trazado_100597-2" data-name="Trazado 100597" d="M0,3.308,3.308,0,14.857,11.548l3.308,3.308-3.308,3.308L3.308,29.713,0,26.4,11.548,14.857Z" transform="translate(60.265)" fill="#2d54fe"/>
      <path id="Trazado_100598-2" data-name="Trazado 100598" d="M0,3.308,3.308,0,14.857,11.548l3.308,3.308-3.308,3.308L3.308,29.713,0,26.4,11.548,14.857Z" transform="translate(45.199)" fill="#2d54fe"/>
      <path id="Trazado_100599-2" data-name="Trazado 100599" d="M0,3.308,3.308,0,14.857,11.548l3.308,3.308-3.308,3.308L3.308,29.713,0,26.4,11.548,14.857Z" transform="translate(30.133)" fill="#2d54fe"/>
      <path id="Trazado_100600-2" data-name="Trazado 100600" d="M0,3.308,3.308,0,14.857,11.548l3.308,3.308-3.308,3.308L3.308,29.713,0,26.4,11.548,14.857Z" transform="translate(15.066)" fill="#2d54fe"/>
      <path id="Trazado_100601-2" data-name="Trazado 100601" d="M11.548,14.857,0,3.308,3.308,0,14.857,11.548l3.308,3.308-3.308,3.308L3.308,29.713,0,26.4Z" fill="#2d54fe"/>
    </g>
    <rect id="Rectángulo_37033" data-name="Rectángulo 37033" width="162" height="53.5" rx="10" transform="translate(658.875 3004)" fill="#2d54fe"/>
    <rect id="Rectángulo_37034" data-name="Rectángulo 37034" width="161.5" height="53.5" rx="10" transform="translate(659.375 3076)" fill="#2d54fe"/>
    <rect id="Rectángulo_37035" data-name="Rectángulo 37035" width="323.5" height="53.5" rx="10" transform="translate(399.125 3235)" fill="#2d54fe"/>
    <rect id="Rectángulo_37036" data-name="Rectángulo 37036" width="323.5" height="53.5" rx="10" transform="translate(399.125 3305)" fill="#2d54fe"/>
    <rect id="Rectángulo_37037" data-name="Rectángulo 37037" width="323.5" height="53.5" rx="10" transform="translate(399.125 3375)" fill="#2d54fe"/>
    <rect id="Rectángulo_37038" data-name="Rectángulo 37038" width="323.5" height="53.5" rx="10" transform="translate(399.125 3445)" fill="#2d54fe"/>
    <rect id="Rectángulo_37039" data-name="Rectángulo 37039" width="323.5" height="53.5" rx="10" transform="translate(399.125 3515)" fill="#2d54fe"/>
    <rect id="Rectángulo_37040" data-name="Rectángulo 37040" width="214.75" height="53.5" transform="translate(394 3658)" fill="#2d54fe"/>
    <rect id="Rectángulo_37041" data-name="Rectángulo 37041" width="273.375" height="53.5" transform="translate(637.375 3658)" fill="#2d54fe"/>
    <rect id="Rectángulo_37042" data-name="Rectángulo 37042" width="161.5" height="53.5" transform="translate(935.25 3658)" fill="#2d54fe"/>
    <rect id="Rectángulo_37043" data-name="Rectángulo 37043" width="85.5" height="53.5" transform="translate(1121.25 3658)" fill="#2d54fe"/>
    <rect id="Rectángulo_37044" data-name="Rectángulo 37044" width="63.5" height="53.5" rx="10" transform="translate(757.375 3150)" fill="#2d54fe"/>
    <rect id="Rectángulo_37045" data-name="Rectángulo 37045" width="63.5" height="53.5" rx="10" transform="translate(659.375 3150)" fill="#2d54fe"/>
    <rect id="Rectángulo_37046" data-name="Rectángulo 37046" width="63.5" height="53.5" rx="10" transform="translate(578.125 3589)" fill="#2d54fe"/>
    <rect id="Rectángulo_37047" data-name="Rectángulo 37047" width="63.5" height="53.5" rx="10" transform="translate(480.125 3589)" fill="#2d54fe"/>
    <path id="Trazado_180875" data-name="Trazado 180875" d="M495,224.25H838.625V705.5" transform="translate(325.375 2952.5)" fill="none" stroke="#fe502d" stroke-miterlimit="10" stroke-width="3"/>
    <line id="Línea_142" data-name="Línea 142" x2="522" transform="translate(641.875 3615.75)" fill="none" stroke="#fe502d" stroke-miterlimit="10" stroke-width="3"/>
    <path id="Trazado_180876" data-name="Trazado 180876" d="M413.75,251v13H285v18.5" transform="translate(277.125 2952.5)" fill="none" stroke="#fe502d" stroke-miterlimit="10" stroke-width="3"/>
    <line id="Línea_143" data-name="Línea 143" y2="16.5" transform="translate(562.125 3288.5)" fill="none" stroke="#fe502d" stroke-miterlimit="10" stroke-width="3"/>
    <line id="Línea_144" data-name="Línea 144" y2="19" transform="translate(740.125 3057.5)" fill="none" stroke="#fe502d" stroke-miterlimit="10" stroke-width="3"/>
    <line id="Línea_145" data-name="Línea 145" y2="16.5" transform="translate(562.125 3358.5)" fill="none" stroke="#fe502d" stroke-miterlimit="10" stroke-width="3"/>
    <line id="Línea_146" data-name="Línea 146" y2="16.5" transform="translate(562.125 3428.5)" fill="none" stroke="#fe502d" stroke-miterlimit="10" stroke-width="3"/>
    <line id="Línea_147" data-name="Línea 147" y2="16.5" transform="translate(562.125 3498.5)" fill="none" stroke="#fe502d" stroke-miterlimit="10" stroke-width="3"/>
    <path id="Trazado_180877" data-name="Trazado 180877" d="M293.059,616v11.5H333.5v9" transform="translate(276.125 2952.5)" fill="none" stroke="#fe502d" stroke-miterlimit="10" stroke-width="3"/>
    <path id="Trazado_180878" data-name="Trazado 180878" d="M277.529,616v10.5H235.5v10" transform="translate(276.125 2952.5)" fill="none" stroke="#fe502d" stroke-miterlimit="10" stroke-width="3"/>
    <path id="Trazado_180879" data-name="Trazado 180879" d="M423.059,177v11.5H463.5v9" transform="translate(325.375 2952.5)" fill="none" stroke="#fe502d" stroke-miterlimit="10" stroke-width="3"/>
    <path id="Trazado_180880" data-name="Trazado 180880" d="M407.529,177v10.5H365.5v10" transform="translate(325.375 2952.5)" fill="none" stroke="#fe502d" stroke-miterlimit="10" stroke-width="3"/>
    <line id="Línea_148" data-name="Línea 148" y2="15.5" transform="translate(511.875 3642.5)" fill="none" stroke="#fe502d" stroke-miterlimit="10" stroke-width="3"/>
    <line id="Línea_149" data-name="Línea 149" y1="0.044" x2="29.125" transform="translate(608.75 3684.75)" fill="none" stroke="#fe502d" stroke-miterlimit="10" stroke-width="3"/>
    <line id="Línea_150" data-name="Línea 150" x2="24.5" transform="translate(910.75 3684.794)" fill="none" stroke="#fe502d" stroke-miterlimit="10" stroke-width="3"/>
    <line id="Línea_151" data-name="Línea 151" x2="24.5" transform="translate(1096.75 3684.794)" fill="none" stroke="#fe502d" stroke-miterlimit="10" stroke-width="3"/>
    <path id="Trazado_675993" data-name="Trazado 675993" d="M-86.949,0V-11.375h4.086a5.786,5.786,0,0,1,3.34.8,2.677,2.677,0,0,1,1.145,2.336,2.706,2.706,0,0,1-.406,1.508,2.367,2.367,0,0,1-1.2.922,2.4,2.4,0,0,1,1.367.875,2.544,2.544,0,0,1,.477,1.563A3.012,3.012,0,0,1-79.2-.855,5.038,5.038,0,0,1-82.332,0Zm2.742-4.836v2.727h1.8a1.709,1.709,0,0,0,1.141-.34,1.189,1.189,0,0,0,.4-.957,1.261,1.261,0,0,0-1.414-1.43Zm0-1.8h1.43A2.031,2.031,0,0,0-81.5-6.962a1.168,1.168,0,0,0,.383-.948,1.226,1.226,0,0,0-.414-1.038,2.216,2.216,0,0,0-1.336-.317h-1.344Zm16.5-4.742V-3.93a4.279,4.279,0,0,1-.539,2.191,3.492,3.492,0,0,1-1.547,1.41,5.449,5.449,0,0,1-2.383.484A4.708,4.708,0,0,1-75.449-.922a3.845,3.845,0,0,1-1.219-2.953v-7.5h2.758V-3.82q.047,1.867,1.734,1.867a1.679,1.679,0,0,0,1.289-.469,2.191,2.191,0,0,0,.438-1.523v-7.43Zm7.578,8.352a1.127,1.127,0,0,0-.426-.937,5.292,5.292,0,0,0-1.5-.7,14.353,14.353,0,0,1-1.75-.7,3.314,3.314,0,0,1-2.211-2.984A2.676,2.676,0,0,1-65.461-10,3.562,3.562,0,0,1-63.9-11.129a6.065,6.065,0,0,1,2.266-.4,5.305,5.305,0,0,1,2.2.438,3.482,3.482,0,0,1,1.512,1.246A3.254,3.254,0,0,1-57.387-8h-2.734a1.375,1.375,0,0,0-.426-1.078A1.66,1.66,0,0,0-61.7-9.461a1.872,1.872,0,0,0-1.16.324,1,1,0,0,0-.426.824,1,1,0,0,0,.469.793,5.911,5.911,0,0,0,1.648.734,10.1,10.1,0,0,1,1.938.816,3.256,3.256,0,0,1,1.844,2.93A2.778,2.778,0,0,1-58.512-.7,5,5,0,0,1-61.6.156a6.122,6.122,0,0,1-2.5-.5A3.775,3.775,0,0,1-65.789-1.7a3.542,3.542,0,0,1-.566-1.988h2.75a1.744,1.744,0,0,0,.473,1.348,2.234,2.234,0,0,0,1.535.434A1.765,1.765,0,0,0-60.523-2.2.967.967,0,0,0-60.129-3.023Zm13.352-.828a4.154,4.154,0,0,1-.641,2.1,3.866,3.866,0,0,1-1.645,1.41,5.6,5.6,0,0,1-2.418.5A4.467,4.467,0,0,1-55.012-1.3,6.032,6.032,0,0,1-56.3-5.43v-.562a6.885,6.885,0,0,1,.582-2.926,4.41,4.41,0,0,1,1.676-1.937,4.676,4.676,0,0,1,2.531-.684,4.9,4.9,0,0,1,3.328,1.09,4.306,4.306,0,0,1,1.43,3h-2.734a2.037,2.037,0,0,0-.523-1.492,2.153,2.153,0,0,0-1.5-.453,1.638,1.638,0,0,0-1.5.766,4.921,4.921,0,0,0-.5,2.445v.8a5.445,5.445,0,0,0,.457,2.6,1.672,1.672,0,0,0,1.574.781,2.106,2.106,0,0,0,1.445-.445A1.89,1.89,0,0,0-49.5-3.852Zm7.758,1.727h-3.758L-43.434,0h-2.93l4.172-11.375h2.578L-35.41,0h-2.945Zm-3.1-2.117h2.445L-40.9-8.187Zm11.766.219H-31.84V0h-2.742V-11.375h4.477a5,5,0,0,1,3.164.9A3.041,3.041,0,0,1-25.8-7.941a3.693,3.693,0,0,1-.48,1.967,3.41,3.41,0,0,1-1.5,1.264L-25.41-.117V0h-2.937ZM-31.84-6.133h1.734a1.557,1.557,0,0,0,1.176-.411,1.59,1.59,0,0,0,.395-1.147,1.608,1.608,0,0,0-.4-1.155,1.542,1.542,0,0,0-1.172-.419H-31.84ZM-17.238,0h-2.734V-11.375h2.734ZM-5.832,0H-8.559L-12.59-7.078V0h-2.742V-11.375h2.742L-8.566-4.3v-7.078h2.734Zm8.9-4.531H-1.355V0H-4.1V-11.375H3.512v2.117H-1.355v2.617H3.066Zm11.219-.922a6.708,6.708,0,0,1-.617,2.945A4.561,4.561,0,0,1,11.914-.535a4.884,4.884,0,0,1-2.59.691A4.953,4.953,0,0,1,6.746-.512a4.554,4.554,0,0,1-1.754-1.91,6.515,6.515,0,0,1-.66-2.852v-.641a6.737,6.737,0,0,1,.613-2.949A4.55,4.55,0,0,1,6.7-10.836a4.918,4.918,0,0,1,2.605-.7,4.87,4.87,0,0,1,2.578.688,4.632,4.632,0,0,1,1.762,1.957,6.544,6.544,0,0,1,.637,2.91ZM11.5-5.93A4.783,4.783,0,0,0,10.93-8.5a1.817,1.817,0,0,0-1.621-.879q-2.062,0-2.18,3.094l-.008.836a4.92,4.92,0,0,0,.555,2.57,1.814,1.814,0,0,0,1.648.9,1.792,1.792,0,0,0,1.6-.883,4.785,4.785,0,0,0,.57-2.539Zm8.43,1.906H18.441V0H15.7V-11.375h4.477a5,5,0,0,1,3.164.9A3.041,3.041,0,0,1,24.48-7.941,3.693,3.693,0,0,1,24-5.974,3.41,3.41,0,0,1,22.5-4.71L24.871-.117V0H21.934ZM18.441-6.133h1.734a1.557,1.557,0,0,0,1.176-.411,1.59,1.59,0,0,0,.395-1.147,1.608,1.608,0,0,0-.4-1.155,1.542,1.542,0,0,0-1.172-.419H18.441Zm11.3-5.242,2.539,7.914,2.531-7.914h3.609V0h-2.75V-2.656l.266-5.437L33.184,0H31.371L28.613-8.1l.266,5.445V0H26.137V-11.375Zm16.883,9.25H42.863L42.207,0h-2.93l4.172-11.375h2.578L50.23,0H47.285Zm-3.1-2.117h2.445L44.738-8.187Zm16.742.391a4.154,4.154,0,0,1-.641,2.1,3.866,3.866,0,0,1-1.645,1.41,5.6,5.6,0,0,1-2.418.5A4.467,4.467,0,0,1,52.027-1.3,6.032,6.032,0,0,1,50.738-5.43v-.562a6.885,6.885,0,0,1,.582-2.926A4.41,4.41,0,0,1,53-10.855a4.676,4.676,0,0,1,2.531-.684,4.9,4.9,0,0,1,3.328,1.09,4.306,4.306,0,0,1,1.43,3H57.551a2.037,2.037,0,0,0-.523-1.492,2.153,2.153,0,0,0-1.5-.453,1.638,1.638,0,0,0-1.5.766,4.921,4.921,0,0,0-.5,2.445v.8a5.445,5.445,0,0,0,.457,2.6,1.672,1.672,0,0,0,1.574.781A2.106,2.106,0,0,0,57-2.437a1.89,1.89,0,0,0,.531-1.414ZM64.48,0H61.746V-11.375H64.48ZM76.02-5.453A6.708,6.708,0,0,1,75.4-2.508,4.561,4.561,0,0,1,73.648-.535a4.884,4.884,0,0,1-2.59.691A4.953,4.953,0,0,1,68.48-.512a4.554,4.554,0,0,1-1.754-1.91,6.515,6.515,0,0,1-.66-2.852v-.641a6.738,6.738,0,0,1,.613-2.949,4.55,4.55,0,0,1,1.758-1.973,4.918,4.918,0,0,1,2.605-.7,4.87,4.87,0,0,1,2.578.688,4.632,4.632,0,0,1,1.762,1.957,6.544,6.544,0,0,1,.637,2.91ZM73.23-5.93A4.783,4.783,0,0,0,72.664-8.5a1.817,1.817,0,0,0-1.621-.879q-2.062,0-2.18,3.094l-.008.836a4.92,4.92,0,0,0,.555,2.57,1.814,1.814,0,0,0,1.648.9,1.792,1.792,0,0,0,1.6-.883,4.785,4.785,0,0,0,.57-2.539ZM86.934,0H84.207L80.176-7.078V0H77.434V-11.375h2.742L84.2-4.3v-7.078h2.734ZM-66.281,20V8.625h3.664a5.39,5.39,0,0,1,2.711.684,4.805,4.805,0,0,1,1.879,1.93,5.826,5.826,0,0,1,.684,2.793v.523a5.86,5.86,0,0,1-.66,2.8,4.826,4.826,0,0,1-1.859,1.938A5.271,5.271,0,0,1-62.539,20Zm2.742-9.258v7.148h.953a2.133,2.133,0,0,0,1.813-.84,4.116,4.116,0,0,0,.633-2.5v-.492a4.082,4.082,0,0,0-.633-2.484,2.17,2.17,0,0,0-1.844-.836Zm14.656,4.43H-53.2v2.719H-48.1V20h-7.836V8.625h7.852v2.117H-53.2v2.4h4.313Zm8.625.969V20H-43V8.625h4.539a5.287,5.287,0,0,1,2.309.48A3.621,3.621,0,0,1-34.6,10.473a3.734,3.734,0,0,1,.551,2.012,3.291,3.291,0,0,1-1.191,2.66,4.943,4.943,0,0,1-3.27,1Zm0-2.117h1.8a1.7,1.7,0,0,0,1.215-.4,1.48,1.48,0,0,0,.418-1.125,1.83,1.83,0,0,0-.43-1.273,1.522,1.522,0,0,0-1.172-.484h-1.828Zm11.9,1.953h-1.484V20h-2.742V8.625h4.477a5,5,0,0,1,3.164.9A3.041,3.041,0,0,1-23.8,12.059a3.693,3.693,0,0,1-.48,1.967,3.41,3.41,0,0,1-1.5,1.264l2.375,4.593V20h-2.937Zm-1.484-2.109h1.734a1.557,1.557,0,0,0,1.176-.411,1.59,1.59,0,0,0,.395-1.147,1.608,1.608,0,0,0-.4-1.155,1.542,1.542,0,0,0-1.172-.419h-1.734Zm17.328.68a6.708,6.708,0,0,1-.617,2.945,4.561,4.561,0,0,1-1.754,1.973,4.884,4.884,0,0,1-2.59.691,4.953,4.953,0,0,1-2.578-.668,4.554,4.554,0,0,1-1.754-1.91,6.515,6.515,0,0,1-.66-2.852v-.641a6.737,6.737,0,0,1,.613-2.949A4.55,4.55,0,0,1-20.1,9.164a4.918,4.918,0,0,1,2.605-.7,4.87,4.87,0,0,1,2.578.688,4.632,4.632,0,0,1,1.762,1.957,6.544,6.544,0,0,1,.637,2.91ZM-15.3,14.07a4.783,4.783,0,0,0-.566-2.574,1.817,1.817,0,0,0-1.621-.879q-2.062,0-2.18,3.094l-.008.836a4.92,4.92,0,0,0,.555,2.57,1.814,1.814,0,0,0,1.648.9,1.792,1.792,0,0,0,1.6-.883,4.785,4.785,0,0,0,.57-2.539Zm8.445,2.836,2.266-8.281h3.063L-5.359,20h-3l-3.8-11.375h3.039ZM6.352,15.172H2.039v2.719H7.133V20H-.7V8.625H7.148v2.117H2.039v2.4H6.352Zm8.953,0H10.992v2.719h5.094V20H8.25V8.625H16.1v2.117H10.992v2.4H15.3ZM17.2,20V8.625h3.664a5.39,5.39,0,0,1,2.711.684,4.805,4.805,0,0,1,1.879,1.93,5.826,5.826,0,0,1,.684,2.793v.523a5.86,5.86,0,0,1-.66,2.8,4.826,4.826,0,0,1-1.859,1.938A5.271,5.271,0,0,1,20.945,20Zm2.742-9.258v7.148H20.9a2.133,2.133,0,0,0,1.813-.84,4.116,4.116,0,0,0,.633-2.5v-.492a4.082,4.082,0,0,0-.633-2.484,2.17,2.17,0,0,0-1.844-.836Zm17.234,3.8a6.708,6.708,0,0,1-.617,2.945,4.561,4.561,0,0,1-1.754,1.973,4.884,4.884,0,0,1-2.59.691,4.953,4.953,0,0,1-2.578-.668,4.554,4.554,0,0,1-1.754-1.91,6.515,6.515,0,0,1-.66-2.852v-.641a6.737,6.737,0,0,1,.613-2.949A4.55,4.55,0,0,1,29.6,9.164a5.2,5.2,0,0,1,5.184-.008,4.632,4.632,0,0,1,1.762,1.957,6.544,6.544,0,0,1,.637,2.91Zm-2.789-.477a4.783,4.783,0,0,0-.566-2.574,1.817,1.817,0,0,0-1.621-.879q-2.062,0-2.18,3.094l-.008.836a4.92,4.92,0,0,0,.555,2.57,1.814,1.814,0,0,0,1.648.9,1.792,1.792,0,0,0,1.6-.883,4.785,4.785,0,0,0,.57-2.539Zm8.43,1.906H41.336V20H38.594V8.625H43.07a5,5,0,0,1,3.164.9,3.041,3.041,0,0,1,1.141,2.536,3.693,3.693,0,0,1-.48,1.967,3.41,3.41,0,0,1-1.5,1.264l2.375,4.593V20H44.828Zm-1.484-2.109H43.07a1.557,1.557,0,0,0,1.176-.411,1.59,1.59,0,0,0,.395-1.147,1.608,1.608,0,0,0-.4-1.155,1.542,1.542,0,0,0-1.172-.419H41.336Zm14.75,1.3H51.773v2.719h5.094V20H49.031V8.625h7.852v2.117H51.773v2.4h4.313Zm7.766,1.8a1.127,1.127,0,0,0-.426-.937,5.292,5.292,0,0,0-1.5-.7,14.353,14.353,0,0,1-1.75-.7,3.314,3.314,0,0,1-2.211-2.984A2.676,2.676,0,0,1,58.52,10a3.562,3.562,0,0,1,1.559-1.125,6.065,6.065,0,0,1,2.266-.4,5.305,5.305,0,0,1,2.2.438,3.482,3.482,0,0,1,1.512,1.246A3.254,3.254,0,0,1,66.594,12H63.859a1.375,1.375,0,0,0-.426-1.078,1.66,1.66,0,0,0-1.152-.383,1.872,1.872,0,0,0-1.16.324.955.955,0,0,0,.043,1.617,5.911,5.911,0,0,0,1.648.734,10.1,10.1,0,0,1,1.938.816,3.256,3.256,0,0,1,1.844,2.93A2.778,2.778,0,0,1,65.469,19.3a5,5,0,0,1-3.086.852,6.122,6.122,0,0,1-2.5-.5A3.775,3.775,0,0,1,58.191,18.3a3.542,3.542,0,0,1-.566-1.988h2.75a1.744,1.744,0,0,0,.473,1.348,2.234,2.234,0,0,0,1.535.434,1.765,1.765,0,0,0,1.074-.293A.967.967,0,0,0,63.852,16.977Z" transform="translate(562.125 3257.25)" fill="#fff"/>
    <path id="Trazado_675994" data-name="Trazado 675994" d="M-98.59,0V-11.375H-94.5a5.786,5.786,0,0,1,3.34.8A2.677,2.677,0,0,1-90.02-8.234a2.706,2.706,0,0,1-.406,1.508,2.367,2.367,0,0,1-1.2.922,2.4,2.4,0,0,1,1.367.875,2.544,2.544,0,0,1,.477,1.563A3.012,3.012,0,0,1-90.836-.855,5.038,5.038,0,0,1-93.973,0Zm2.742-4.836v2.727h1.8a1.709,1.709,0,0,0,1.141-.34,1.189,1.189,0,0,0,.4-.957,1.261,1.261,0,0,0-1.414-1.43Zm0-1.8h1.43a2.031,2.031,0,0,0,1.281-.329,1.168,1.168,0,0,0,.383-.948,1.226,1.226,0,0,0-.414-1.038A2.216,2.216,0,0,0-94.5-9.266h-1.344Zm16.5-4.742V-3.93a4.279,4.279,0,0,1-.539,2.191,3.492,3.492,0,0,1-1.547,1.41,5.449,5.449,0,0,1-2.383.484A4.708,4.708,0,0,1-87.09-.922a3.845,3.845,0,0,1-1.219-2.953v-7.5h2.758V-3.82q.047,1.867,1.734,1.867a1.679,1.679,0,0,0,1.289-.469,2.191,2.191,0,0,0,.438-1.523v-7.43Zm7.578,8.352a1.127,1.127,0,0,0-.426-.937,5.292,5.292,0,0,0-1.5-.7,14.353,14.353,0,0,1-1.75-.7,3.314,3.314,0,0,1-2.211-2.984A2.676,2.676,0,0,1-77.1-10a3.562,3.562,0,0,1,1.559-1.125,6.065,6.065,0,0,1,2.266-.4,5.305,5.305,0,0,1,2.2.438,3.482,3.482,0,0,1,1.512,1.246A3.254,3.254,0,0,1-69.027-8h-2.734a1.375,1.375,0,0,0-.426-1.078,1.66,1.66,0,0,0-1.152-.383,1.872,1.872,0,0,0-1.16.324,1,1,0,0,0-.426.824,1,1,0,0,0,.469.793,5.911,5.911,0,0,0,1.648.734,10.1,10.1,0,0,1,1.938.816,3.256,3.256,0,0,1,1.844,2.93A2.778,2.778,0,0,1-70.152-.7a5,5,0,0,1-3.086.852,6.122,6.122,0,0,1-2.5-.5A3.775,3.775,0,0,1-77.43-1.7,3.542,3.542,0,0,1-78-3.687h2.75a1.745,1.745,0,0,0,.473,1.348,2.234,2.234,0,0,0,1.535.434A1.765,1.765,0,0,0-72.164-2.2.967.967,0,0,0-71.77-3.023Zm13.352-.828a4.154,4.154,0,0,1-.641,2.1A3.866,3.866,0,0,1-60.7-.344a5.6,5.6,0,0,1-2.418.5A4.467,4.467,0,0,1-66.652-1.3,6.032,6.032,0,0,1-67.941-5.43v-.562a6.885,6.885,0,0,1,.582-2.926,4.41,4.41,0,0,1,1.676-1.937,4.676,4.676,0,0,1,2.531-.684,4.9,4.9,0,0,1,3.328,1.09,4.306,4.306,0,0,1,1.43,3h-2.734a2.037,2.037,0,0,0-.523-1.492,2.153,2.153,0,0,0-1.5-.453,1.638,1.638,0,0,0-1.5.766,4.921,4.921,0,0,0-.5,2.445v.8a5.445,5.445,0,0,0,.457,2.6,1.672,1.672,0,0,0,1.574.781,2.106,2.106,0,0,0,1.445-.445,1.89,1.89,0,0,0,.531-1.414Zm7.758,1.727h-3.758L-55.074,0H-58l4.172-11.375h2.578L-47.051,0H-50Zm-3.1-2.117h2.445l-1.227-3.945ZM-42-4.023H-43.48V0h-2.742V-11.375h4.477a5,5,0,0,1,3.164.9,3.041,3.041,0,0,1,1.141,2.536,3.693,3.693,0,0,1-.48,1.967,3.41,3.41,0,0,1-1.5,1.264l2.375,4.593V0h-2.937ZM-43.48-6.133h1.734a1.557,1.557,0,0,0,1.176-.411,1.59,1.59,0,0,0,.395-1.147,1.608,1.608,0,0,0-.4-1.155,1.542,1.542,0,0,0-1.172-.419H-43.48ZM-28.879,0h-2.734V-11.375h2.734Zm11.406,0H-20.2L-24.23-7.078V0h-2.742V-11.375h2.742L-20.207-4.3v-7.078h2.734Zm8.9-4.531H-13V0h-2.742V-11.375h7.609v2.117H-13v2.617h4.422ZM2.645-5.453a6.708,6.708,0,0,1-.617,2.945A4.561,4.561,0,0,1,.273-.535a4.884,4.884,0,0,1-2.59.691A4.953,4.953,0,0,1-4.895-.512a4.554,4.554,0,0,1-1.754-1.91,6.515,6.515,0,0,1-.66-2.852v-.641A6.737,6.737,0,0,1-6.7-8.863a4.55,4.55,0,0,1,1.758-1.973,4.918,4.918,0,0,1,2.605-.7,4.87,4.87,0,0,1,2.578.688A4.632,4.632,0,0,1,2.008-8.887a6.544,6.544,0,0,1,.637,2.91ZM-.145-5.93A4.783,4.783,0,0,0-.711-8.5a1.817,1.817,0,0,0-1.621-.879q-2.062,0-2.18,3.094l-.008.836a4.92,4.92,0,0,0,.555,2.57,1.814,1.814,0,0,0,1.648.9,1.792,1.792,0,0,0,1.6-.883,4.785,4.785,0,0,0,.57-2.539Zm8.43,1.906H6.8V0H4.059V-11.375H8.535a5,5,0,0,1,3.164.9A3.041,3.041,0,0,1,12.84-7.941a3.693,3.693,0,0,1-.48,1.967,3.41,3.41,0,0,1-1.5,1.264L13.23-.117V0H10.293ZM6.8-6.133H8.535a1.557,1.557,0,0,0,1.176-.411,1.59,1.59,0,0,0,.395-1.147,1.608,1.608,0,0,0-.4-1.155,1.542,1.542,0,0,0-1.172-.419H6.8Zm11.3-5.242,2.539,7.914,2.531-7.914h3.609V0h-2.75V-2.656l.266-5.437L21.543,0H19.73L16.973-8.1l.266,5.445V0H14.5V-11.375ZM34.98-2.125H31.223L30.566,0h-2.93l4.172-11.375h2.578L38.59,0H35.645Zm-3.1-2.117h2.445L33.1-8.187Zm16.742.391a4.154,4.154,0,0,1-.641,2.1,3.866,3.866,0,0,1-1.645,1.41,5.6,5.6,0,0,1-2.418.5A4.467,4.467,0,0,1,40.387-1.3,6.032,6.032,0,0,1,39.1-5.43v-.562a6.885,6.885,0,0,1,.582-2.926,4.41,4.41,0,0,1,1.676-1.937,4.676,4.676,0,0,1,2.531-.684,4.9,4.9,0,0,1,3.328,1.09,4.306,4.306,0,0,1,1.43,3H45.91a2.037,2.037,0,0,0-.523-1.492,2.153,2.153,0,0,0-1.5-.453,1.638,1.638,0,0,0-1.5.766,4.921,4.921,0,0,0-.5,2.445v.8a5.445,5.445,0,0,0,.457,2.6,1.672,1.672,0,0,0,1.574.781,2.106,2.106,0,0,0,1.445-.445,1.89,1.89,0,0,0,.531-1.414ZM52.84,0H50.105V-11.375H52.84ZM64.379-5.453a6.708,6.708,0,0,1-.617,2.945A4.561,4.561,0,0,1,62.008-.535a4.884,4.884,0,0,1-2.59.691A4.953,4.953,0,0,1,56.84-.512a4.554,4.554,0,0,1-1.754-1.91,6.515,6.515,0,0,1-.66-2.852v-.641a6.737,6.737,0,0,1,.613-2.949A4.55,4.55,0,0,1,56.8-10.836a4.918,4.918,0,0,1,2.605-.7,4.87,4.87,0,0,1,2.578.688,4.632,4.632,0,0,1,1.762,1.957,6.544,6.544,0,0,1,.637,2.91ZM61.59-5.93A4.783,4.783,0,0,0,61.023-8.5,1.817,1.817,0,0,0,59.4-9.383q-2.062,0-2.18,3.094l-.008.836a4.92,4.92,0,0,0,.555,2.57,1.814,1.814,0,0,0,1.648.9,1.792,1.792,0,0,0,1.6-.883,4.785,4.785,0,0,0,.57-2.539ZM75.293,0H72.566L68.535-7.078V0H65.793V-11.375h2.742L72.559-4.3v-7.078h2.734Zm5.719,0V-11.375h3.664a5.39,5.39,0,0,1,2.711.684,4.805,4.805,0,0,1,1.879,1.93,5.826,5.826,0,0,1,.684,2.793v.523a5.86,5.86,0,0,1-.66,2.8A4.826,4.826,0,0,1,87.43-.707,5.271,5.271,0,0,1,84.754,0Zm2.742-9.258v7.148h.953a2.133,2.133,0,0,0,1.813-.84,4.116,4.116,0,0,0,.633-2.5v-.492a4.082,4.082,0,0,0-.633-2.484,2.17,2.17,0,0,0-1.844-.836ZM98.41-4.828H94.1v2.719h5.094V0H91.355V-11.375h7.852v2.117H94.1v2.4H98.41ZM-137.41,16.141V20h-2.742V8.625h4.539a5.287,5.287,0,0,1,2.309.48,3.621,3.621,0,0,1,1.555,1.367,3.734,3.734,0,0,1,.551,2.012,3.291,3.291,0,0,1-1.191,2.66,4.943,4.943,0,0,1-3.27,1Zm0-2.117h1.8a1.7,1.7,0,0,0,1.215-.4,1.48,1.48,0,0,0,.418-1.125,1.83,1.83,0,0,0-.43-1.273,1.522,1.522,0,0,0-1.172-.484h-1.828Zm11.9,1.953H-127V20h-2.742V8.625h4.477a5,5,0,0,1,3.164.9,3.041,3.041,0,0,1,1.141,2.536,3.693,3.693,0,0,1-.48,1.967,3.41,3.41,0,0,1-1.5,1.264l2.375,4.593V20H-123.5ZM-127,13.867h1.734a1.557,1.557,0,0,0,1.176-.411,1.59,1.59,0,0,0,.395-1.147,1.608,1.608,0,0,0-.4-1.155,1.542,1.542,0,0,0-1.172-.419H-127Zm17.328.68a6.708,6.708,0,0,1-.617,2.945,4.561,4.561,0,0,1-1.754,1.973,4.884,4.884,0,0,1-2.59.691,4.953,4.953,0,0,1-2.578-.668,4.554,4.554,0,0,1-1.754-1.91,6.515,6.515,0,0,1-.66-2.852v-.641a6.738,6.738,0,0,1,.613-2.949,4.55,4.55,0,0,1,1.758-1.973,4.918,4.918,0,0,1,2.605-.7,4.87,4.87,0,0,1,2.578.688,4.632,4.632,0,0,1,1.762,1.957,6.544,6.544,0,0,1,.637,2.91Zm-2.789-.477a4.783,4.783,0,0,0-.566-2.574,1.817,1.817,0,0,0-1.621-.879q-2.062,0-2.18,3.094l-.008.836a4.92,4.92,0,0,0,.555,2.57,1.814,1.814,0,0,0,1.648.9,1.792,1.792,0,0,0,1.6-.883,4.785,4.785,0,0,0,.57-2.539Zm8.445,2.836,2.266-8.281h3.063L-102.512,20h-3l-3.8-11.375h3.039ZM-90.8,15.172h-4.312v2.719h5.094V20h-7.836V8.625H-90v2.117h-5.109v2.4H-90.8Zm8.953,0H-86.16v2.719h5.094V20H-88.9V8.625h7.852v2.117H-86.16v2.4h4.313Zm1.9,4.828V8.625h3.664a5.39,5.39,0,0,1,2.711.684,4.805,4.805,0,0,1,1.879,1.93,5.826,5.826,0,0,1,.684,2.793v.523a5.86,5.86,0,0,1-.66,2.8,4.826,4.826,0,0,1-1.859,1.938A5.271,5.271,0,0,1-76.207,20Zm2.742-9.258v7.148h.953a2.133,2.133,0,0,0,1.813-.84,4.116,4.116,0,0,0,.633-2.5v-.492a4.082,4.082,0,0,0-.633-2.484,2.17,2.17,0,0,0-1.844-.836Zm17.234,3.8a6.708,6.708,0,0,1-.617,2.945,4.561,4.561,0,0,1-1.754,1.973,4.884,4.884,0,0,1-2.59.691,4.953,4.953,0,0,1-2.578-.668,4.554,4.554,0,0,1-1.754-1.91,6.515,6.515,0,0,1-.66-2.852v-.641a6.738,6.738,0,0,1,.613-2.949,4.55,4.55,0,0,1,1.758-1.973,4.918,4.918,0,0,1,2.605-.7,4.87,4.87,0,0,1,2.578.688,4.632,4.632,0,0,1,1.762,1.957,6.544,6.544,0,0,1,.637,2.91Zm-2.789-.477a4.783,4.783,0,0,0-.566-2.574,1.817,1.817,0,0,0-1.621-.879q-2.062,0-2.18,3.094l-.008.836a4.92,4.92,0,0,0,.555,2.57,1.814,1.814,0,0,0,1.648.9,1.792,1.792,0,0,0,1.6-.883,4.785,4.785,0,0,0,.57-2.539Zm8.43,1.906h-1.484V20h-2.742V8.625h4.477a5,5,0,0,1,3.164.9,3.041,3.041,0,0,1,1.141,2.536,3.693,3.693,0,0,1-.48,1.967,3.41,3.41,0,0,1-1.5,1.264l2.375,4.593V20h-2.937Zm-1.484-2.109h1.734a1.557,1.557,0,0,0,1.176-.411,1.59,1.59,0,0,0,.395-1.147,1.608,1.608,0,0,0-.4-1.155,1.542,1.542,0,0,0-1.172-.419h-1.734Zm14.75,1.3h-4.312v2.719h5.094V20h-7.836V8.625h7.852v2.117h-5.109v2.4h4.313Zm7.766,1.8a1.127,1.127,0,0,0-.426-.937,5.292,5.292,0,0,0-1.5-.7,14.353,14.353,0,0,1-1.75-.7,3.314,3.314,0,0,1-2.211-2.984A2.676,2.676,0,0,1-38.633,10a3.562,3.562,0,0,1,1.559-1.125,6.065,6.065,0,0,1,2.266-.4,5.305,5.305,0,0,1,2.2.438A3.482,3.482,0,0,1-31.1,10.152,3.254,3.254,0,0,1-30.559,12h-2.734a1.375,1.375,0,0,0-.426-1.078,1.66,1.66,0,0,0-1.152-.383,1.872,1.872,0,0,0-1.16.324,1,1,0,0,0-.426.824,1,1,0,0,0,.469.793,5.911,5.911,0,0,0,1.648.734,10.1,10.1,0,0,1,1.938.816,3.256,3.256,0,0,1,1.844,2.93A2.778,2.778,0,0,1-31.684,19.3a5,5,0,0,1-3.086.852,6.122,6.122,0,0,1-2.5-.5A3.775,3.775,0,0,1-38.961,18.3a3.542,3.542,0,0,1-.566-1.988h2.75A1.744,1.744,0,0,0-36.3,17.66a2.234,2.234,0,0,0,1.535.434A1.765,1.765,0,0,0-33.7,17.8.967.967,0,0,0-33.3,16.977Zm8.914,4h-1.867l3.883-12.352H-20.5Zm18.023-4.828A4.154,4.154,0,0,1-7,18.246a3.866,3.866,0,0,1-1.645,1.41,5.6,5.6,0,0,1-2.418.5A4.467,4.467,0,0,1-14.6,18.7a6.032,6.032,0,0,1-1.289-4.125v-.562a6.885,6.885,0,0,1,.582-2.926,4.41,4.41,0,0,1,1.676-1.937A4.676,4.676,0,0,1-11.1,8.461,4.9,4.9,0,0,1-7.77,9.551a4.306,4.306,0,0,1,1.43,3H-9.074A2.037,2.037,0,0,0-9.6,11.063a2.153,2.153,0,0,0-1.5-.453,1.638,1.638,0,0,0-1.5.766,4.921,4.921,0,0,0-.5,2.445v.8a5.445,5.445,0,0,0,.457,2.6,1.672,1.672,0,0,0,1.574.781,2.106,2.106,0,0,0,1.445-.445,1.89,1.89,0,0,0,.531-1.414Zm10.93-1.6a6.708,6.708,0,0,1-.617,2.945A4.561,4.561,0,0,1,2.2,19.465a4.884,4.884,0,0,1-2.59.691,4.953,4.953,0,0,1-2.578-.668,4.554,4.554,0,0,1-1.754-1.91,6.515,6.515,0,0,1-.66-2.852v-.641a6.737,6.737,0,0,1,.613-2.949A4.55,4.55,0,0,1-3.016,9.164a4.918,4.918,0,0,1,2.605-.7,4.87,4.87,0,0,1,2.578.688A4.632,4.632,0,0,1,3.93,11.113a6.544,6.544,0,0,1,.637,2.91ZM1.777,14.07A4.783,4.783,0,0,0,1.211,11.5,1.817,1.817,0,0,0-.41,10.617q-2.062,0-2.18,3.094l-.008.836a4.92,4.92,0,0,0,.555,2.57,1.814,1.814,0,0,0,1.648.9,1.792,1.792,0,0,0,1.6-.883,4.785,4.785,0,0,0,.57-2.539ZM15.48,20H12.754L8.723,12.922V20H5.98V8.625H8.723L12.746,15.7V8.625H15.48Zm10.664-9.258H22.73V20H19.988V10.742H16.637V8.625h9.508Zm6.68,7.133H29.066L28.41,20H25.48L29.652,8.625H32.23L36.434,20H33.488Zm-3.1-2.117h2.445l-1.227-3.945Zm16.742.391a4.154,4.154,0,0,1-.641,2.1,3.866,3.866,0,0,1-1.645,1.41,5.6,5.6,0,0,1-2.418.5A4.467,4.467,0,0,1,38.23,18.7a6.032,6.032,0,0,1-1.289-4.125v-.562a6.885,6.885,0,0,1,.582-2.926A4.41,4.41,0,0,1,39.2,9.145a4.676,4.676,0,0,1,2.531-.684,4.9,4.9,0,0,1,3.328,1.09,4.306,4.306,0,0,1,1.43,3H43.754a2.037,2.037,0,0,0-.523-1.492,2.153,2.153,0,0,0-1.5-.453,1.638,1.638,0,0,0-1.5.766,4.921,4.921,0,0,0-.5,2.445v.8a5.445,5.445,0,0,0,.457,2.6,1.672,1.672,0,0,0,1.574.781,2.106,2.106,0,0,0,1.445-.445,1.89,1.89,0,0,0,.531-1.414Zm10-5.406H53.051V20H50.309V10.742H46.957V8.625h9.508Zm10.57,3.8a6.708,6.708,0,0,1-.617,2.945,4.561,4.561,0,0,1-1.754,1.973,4.884,4.884,0,0,1-2.59.691,4.953,4.953,0,0,1-2.578-.668,4.554,4.554,0,0,1-1.754-1.91,6.515,6.515,0,0,1-.66-2.852v-.641a6.737,6.737,0,0,1,.613-2.949,4.55,4.55,0,0,1,1.758-1.973,5.2,5.2,0,0,1,5.184-.008A4.632,4.632,0,0,1,66.4,11.113a6.544,6.544,0,0,1,.637,2.91Zm-2.789-.477A4.783,4.783,0,0,0,63.68,11.5a1.817,1.817,0,0,0-1.621-.879q-2.062,0-2.18,3.094l-.008.836a4.92,4.92,0,0,0,.555,2.57,1.814,1.814,0,0,0,1.648.9,1.792,1.792,0,0,0,1.6-.883,4.785,4.785,0,0,0,.57-2.539Zm10.07,2.906a1.127,1.127,0,0,0-.426-.937,5.292,5.292,0,0,0-1.5-.7,14.353,14.353,0,0,1-1.75-.7,3.314,3.314,0,0,1-2.211-2.984A2.676,2.676,0,0,1,68.984,10a3.562,3.562,0,0,1,1.559-1.125,6.065,6.065,0,0,1,2.266-.4,5.305,5.305,0,0,1,2.2.438,3.482,3.482,0,0,1,1.512,1.246A3.254,3.254,0,0,1,77.059,12H74.324a1.375,1.375,0,0,0-.426-1.078,1.66,1.66,0,0,0-1.152-.383,1.872,1.872,0,0,0-1.16.324.955.955,0,0,0,.043,1.617,5.911,5.911,0,0,0,1.648.734,10.1,10.1,0,0,1,1.938.816,3.256,3.256,0,0,1,1.844,2.93A2.778,2.778,0,0,1,75.934,19.3a5,5,0,0,1-3.086.852,6.122,6.122,0,0,1-2.5-.5A3.775,3.775,0,0,1,68.656,18.3a3.542,3.542,0,0,1-.566-1.988h2.75a1.745,1.745,0,0,0,.473,1.348,2.234,2.234,0,0,0,1.535.434,1.765,1.765,0,0,0,1.074-.293A.967.967,0,0,0,74.316,16.977Zm12.3-3.414,2.094-4.937h2.961L88,15.914V20H85.223V15.914L81.566,8.625h2.945Zm19.07,2.586a4.154,4.154,0,0,1-.641,2.1,3.866,3.866,0,0,1-1.645,1.41,5.6,5.6,0,0,1-2.418.5A4.467,4.467,0,0,1,97.449,18.7,6.032,6.032,0,0,1,96.16,14.57v-.562a6.885,6.885,0,0,1,.582-2.926,4.41,4.41,0,0,1,1.676-1.937,4.676,4.676,0,0,1,2.531-.684,4.9,4.9,0,0,1,3.328,1.09,4.306,4.306,0,0,1,1.43,3h-2.734a2.037,2.037,0,0,0-.523-1.492,2.153,2.153,0,0,0-1.5-.453,1.638,1.638,0,0,0-1.5.766,4.921,4.921,0,0,0-.5,2.445v.8a5.445,5.445,0,0,0,.457,2.6,1.672,1.672,0,0,0,1.574.781,2.106,2.106,0,0,0,1.445-.445,1.89,1.89,0,0,0,.531-1.414ZM109.9,20h-2.734V8.625H109.9Zm10.836-9.258h-3.414V20h-2.742V10.742H111.23V8.625h9.508Zm6.68,7.133H123.66L123,20h-2.93l4.172-11.375h2.578L131.027,20h-2.945Zm-3.1-2.117h2.445l-1.227-3.945Zm13.406,1.219a1.127,1.127,0,0,0-.426-.937,5.292,5.292,0,0,0-1.5-.7,14.353,14.353,0,0,1-1.75-.7,3.314,3.314,0,0,1-2.211-2.984A2.676,2.676,0,0,1,132.391,10a3.562,3.562,0,0,1,1.559-1.125,6.065,6.065,0,0,1,2.266-.4,5.305,5.305,0,0,1,2.2.438,3.482,3.482,0,0,1,1.512,1.246A3.254,3.254,0,0,1,140.465,12H137.73a1.375,1.375,0,0,0-.426-1.078,1.66,1.66,0,0,0-1.152-.383,1.872,1.872,0,0,0-1.16.324.955.955,0,0,0,.043,1.617,5.911,5.911,0,0,0,1.648.734,10.1,10.1,0,0,1,1.938.816,3.256,3.256,0,0,1,1.844,2.93A2.778,2.778,0,0,1,139.34,19.3a5,5,0,0,1-3.086.852,6.122,6.122,0,0,1-2.5-.5,3.775,3.775,0,0,1-1.687-1.359,3.542,3.542,0,0,1-.566-1.988h2.75a1.744,1.744,0,0,0,.473,1.348,2.234,2.234,0,0,0,1.535.434,1.765,1.765,0,0,0,1.074-.293A.967.967,0,0,0,137.723,16.977Z" transform="translate(562.125 3326.25)" fill="#fff"/>
    <path id="Trazado_675995" data-name="Trazado 675995" d="M-78.047-4.023h-1.484V0h-2.742V-11.375H-77.8a5,5,0,0,1,3.164.9,3.041,3.041,0,0,1,1.141,2.536,3.693,3.693,0,0,1-.48,1.967,3.41,3.41,0,0,1-1.5,1.264L-73.1-.117V0h-2.937Zm-1.484-2.109H-77.8a1.557,1.557,0,0,0,1.176-.411,1.59,1.59,0,0,0,.395-1.147,1.608,1.608,0,0,0-.4-1.155A1.542,1.542,0,0,0-77.8-9.266h-1.734Zm14.75,1.3h-4.312v2.719H-64V0h-7.836V-11.375h7.852v2.117h-5.109v2.4h4.313Zm11.1.977a4.154,4.154,0,0,1-.641,2.1,3.866,3.866,0,0,1-1.645,1.41,5.6,5.6,0,0,1-2.418.5A4.467,4.467,0,0,1-61.914-1.3,6.032,6.032,0,0,1-63.2-5.43v-.562a6.885,6.885,0,0,1,.582-2.926,4.41,4.41,0,0,1,1.676-1.937,4.676,4.676,0,0,1,2.531-.684,4.9,4.9,0,0,1,3.328,1.09,4.306,4.306,0,0,1,1.43,3h-2.734a2.037,2.037,0,0,0-.523-1.492,2.153,2.153,0,0,0-1.5-.453,1.638,1.638,0,0,0-1.5.766,4.921,4.921,0,0,0-.5,2.445v.8a5.445,5.445,0,0,0,.457,2.6,1.672,1.672,0,0,0,1.574.781,2.106,2.106,0,0,0,1.445-.445,1.89,1.89,0,0,0,.531-1.414ZM-49.461,0H-52.2V-11.375h2.734Zm1.906,0V-11.375h4.086a5.786,5.786,0,0,1,3.34.8,2.677,2.677,0,0,1,1.145,2.336,2.707,2.707,0,0,1-.406,1.508,2.367,2.367,0,0,1-1.2.922,2.4,2.4,0,0,1,1.367.875,2.544,2.544,0,0,1,.477,1.563A3.012,3.012,0,0,1-39.8-.855,5.038,5.038,0,0,1-42.937,0Zm2.742-4.836v2.727h1.8a1.709,1.709,0,0,0,1.141-.34,1.189,1.189,0,0,0,.4-.957,1.261,1.261,0,0,0-1.414-1.43Zm0-1.8h1.43A2.031,2.031,0,0,0-42.1-6.962a1.168,1.168,0,0,0,.383-.948,1.226,1.226,0,0,0-.414-1.038,2.216,2.216,0,0,0-1.336-.317h-1.344ZM-34.312,0h-2.734V-11.375h2.734Zm6.133-4.023h-1.484V0h-2.742V-11.375h4.477a5,5,0,0,1,3.164.9,3.041,3.041,0,0,1,1.141,2.536,3.693,3.693,0,0,1-.48,1.967,3.41,3.41,0,0,1-1.5,1.264l2.375,4.593V0h-2.937Zm-1.484-2.109h1.734a1.557,1.557,0,0,0,1.176-.411,1.59,1.59,0,0,0,.395-1.147,1.608,1.608,0,0,0-.4-1.155,1.542,1.542,0,0,0-1.172-.419h-1.734Zm14.422,2.273V0h-2.742V-11.375h4.539a5.287,5.287,0,0,1,2.309.48A3.621,3.621,0,0,1-9.582-9.527a3.734,3.734,0,0,1,.551,2.012,3.291,3.291,0,0,1-1.191,2.66,4.943,4.943,0,0,1-3.27,1Zm0-2.117h1.8a1.7,1.7,0,0,0,1.215-.4A1.48,1.48,0,0,0-11.812-7.5a1.83,1.83,0,0,0-.43-1.273,1.522,1.522,0,0,0-1.172-.484h-1.828Zm11.9,1.953H-4.828V0H-7.57V-11.375h4.477a5,5,0,0,1,3.164.9A3.041,3.041,0,0,1,1.211-7.941,3.693,3.693,0,0,1,.73-5.974,3.41,3.41,0,0,1-.773-4.71L1.6-.117V0H-1.336ZM-4.828-6.133h1.734a1.557,1.557,0,0,0,1.176-.411,1.59,1.59,0,0,0,.395-1.147,1.608,1.608,0,0,0-.4-1.155,1.542,1.542,0,0,0-1.172-.419H-4.828Zm17.328.68a6.708,6.708,0,0,1-.617,2.945A4.561,4.561,0,0,1,10.129-.535a4.884,4.884,0,0,1-2.59.691A4.953,4.953,0,0,1,4.961-.512a4.554,4.554,0,0,1-1.754-1.91,6.515,6.515,0,0,1-.66-2.852v-.641A6.737,6.737,0,0,1,3.16-8.863a4.55,4.55,0,0,1,1.758-1.973,4.918,4.918,0,0,1,2.605-.7,4.87,4.87,0,0,1,2.578.688,4.632,4.632,0,0,1,1.762,1.957,6.544,6.544,0,0,1,.637,2.91ZM9.711-5.93A4.783,4.783,0,0,0,9.145-8.5a1.817,1.817,0,0,0-1.621-.879q-2.062,0-2.18,3.094l-.008.836a4.92,4.92,0,0,0,.555,2.57,1.814,1.814,0,0,0,1.648.9,1.792,1.792,0,0,0,1.6-.883,4.785,4.785,0,0,0,.57-2.539Zm6.945,2.07V0H13.914V-11.375h4.539a5.287,5.287,0,0,1,2.309.48,3.621,3.621,0,0,1,1.555,1.367,3.734,3.734,0,0,1,.551,2.012,3.291,3.291,0,0,1-1.191,2.66,4.943,4.943,0,0,1-3.27,1Zm0-2.117h1.8a1.7,1.7,0,0,0,1.215-.4A1.48,1.48,0,0,0,20.086-7.5a1.83,1.83,0,0,0-.43-1.273,1.522,1.522,0,0,0-1.172-.484H16.656Zm16.594-5.4V-3.93a4.279,4.279,0,0,1-.539,2.191,3.492,3.492,0,0,1-1.547,1.41,5.449,5.449,0,0,1-2.383.484A4.708,4.708,0,0,1,25.508-.922a3.845,3.845,0,0,1-1.219-2.953v-7.5h2.758V-3.82q.047,1.867,1.734,1.867a1.679,1.679,0,0,0,1.289-.469,2.191,2.191,0,0,0,.438-1.523v-7.43Zm8.766,6.547H37.7v2.719H42.8V0H34.961V-11.375h7.852v2.117H37.7v2.4h4.313Zm7.766,1.8a1.127,1.127,0,0,0-.426-.937,5.292,5.292,0,0,0-1.5-.7,14.353,14.353,0,0,1-1.75-.7A3.314,3.314,0,0,1,43.9-8.336,2.676,2.676,0,0,1,44.449-10a3.562,3.562,0,0,1,1.559-1.125,6.065,6.065,0,0,1,2.266-.4,5.305,5.305,0,0,1,2.2.438,3.482,3.482,0,0,1,1.512,1.246A3.254,3.254,0,0,1,52.523-8H49.789a1.375,1.375,0,0,0-.426-1.078,1.66,1.66,0,0,0-1.152-.383,1.872,1.872,0,0,0-1.16.324,1,1,0,0,0-.426.824,1,1,0,0,0,.469.793,5.911,5.911,0,0,0,1.648.734,10.1,10.1,0,0,1,1.938.816,3.256,3.256,0,0,1,1.844,2.93A2.778,2.778,0,0,1,51.4-.7a5,5,0,0,1-3.086.852,6.122,6.122,0,0,1-2.5-.5A3.775,3.775,0,0,1,44.121-1.7a3.542,3.542,0,0,1-.566-1.988H46.3a1.744,1.744,0,0,0,.473,1.348,2.234,2.234,0,0,0,1.535.434A1.765,1.765,0,0,0,49.387-2.2.967.967,0,0,0,49.781-3.023ZM62.859-9.258H59.445V0H56.7V-9.258H53.352v-2.117h9.508Zm6.68,7.133H65.781L65.125,0H62.2l4.172-11.375h2.578L73.148,0H70.2Zm-3.1-2.117h2.445L67.656-8.187ZM79.844-3.023a1.127,1.127,0,0,0-.426-.937,5.292,5.292,0,0,0-1.5-.7,14.353,14.353,0,0,1-1.75-.7,3.314,3.314,0,0,1-2.211-2.984A2.676,2.676,0,0,1,74.512-10a3.562,3.562,0,0,1,1.559-1.125,6.065,6.065,0,0,1,2.266-.4,5.305,5.305,0,0,1,2.2.438,3.482,3.482,0,0,1,1.512,1.246A3.254,3.254,0,0,1,82.586-8H79.852a1.375,1.375,0,0,0-.426-1.078,1.66,1.66,0,0,0-1.152-.383,1.872,1.872,0,0,0-1.16.324,1,1,0,0,0-.426.824,1,1,0,0,0,.469.793,5.911,5.911,0,0,0,1.648.734,10.1,10.1,0,0,1,1.938.816,3.256,3.256,0,0,1,1.844,2.93A2.778,2.778,0,0,1,81.461-.7a5,5,0,0,1-3.086.852,6.122,6.122,0,0,1-2.5-.5A3.775,3.775,0,0,1,74.184-1.7a3.542,3.542,0,0,1-.566-1.988h2.75A1.745,1.745,0,0,0,76.84-2.34a2.234,2.234,0,0,0,1.535.434A1.765,1.765,0,0,0,79.449-2.2.967.967,0,0,0,79.844-3.023Z" transform="translate(562.125 3407.25)" fill="#fff"/>
    <path id="Trazado_675996" data-name="Trazado 675996" d="M-80.125-4.828h-4.312v2.719h5.094V0H-87.18V-11.375h7.852v2.117h-5.109v2.4h4.313Zm6.313,1.734,2.266-8.281h3.063L-72.312,0h-3l-3.8-11.375h3.039Zm12.031.969h-3.758L-66.2,0h-2.93l4.172-11.375h2.578L-58.172,0h-2.945Zm-3.1-2.117h2.445l-1.227-3.945ZM-54.6-2.109h4.773V0h-7.516V-11.375H-54.6Zm14.664-9.266V-3.93a4.279,4.279,0,0,1-.539,2.191,3.492,3.492,0,0,1-1.547,1.41,5.449,5.449,0,0,1-2.383.484A4.708,4.708,0,0,1-47.68-.922,3.845,3.845,0,0,1-48.9-3.875v-7.5h2.758V-3.82q.047,1.867,1.734,1.867a1.679,1.679,0,0,0,1.289-.469,2.191,2.191,0,0,0,.438-1.523v-7.43Zm8,9.25H-35.7L-36.352,0h-2.93l4.172-11.375h2.578L-28.328,0h-2.945Zm-3.1-2.117h2.445L-33.82-8.187Zm11.766.219h-1.484V0H-27.5V-11.375h4.477a5,5,0,0,1,3.164.9,3.041,3.041,0,0,1,1.141,2.536,3.693,3.693,0,0,1-.48,1.967A3.41,3.41,0,0,1-20.7-4.71l2.375,4.593V0h-2.937Zm-1.484-2.109h1.734a1.557,1.557,0,0,0,1.176-.411,1.59,1.59,0,0,0,.395-1.147,1.608,1.608,0,0,0-.4-1.155,1.542,1.542,0,0,0-1.172-.419h-1.734Zm14.422,2.273V0h-2.742V-11.375h4.539a5.287,5.287,0,0,1,2.309.48A3.621,3.621,0,0,1-4.676-9.527a3.734,3.734,0,0,1,.551,2.012,3.291,3.291,0,0,1-1.191,2.66,4.943,4.943,0,0,1-3.27,1Zm0-2.117h1.8a1.7,1.7,0,0,0,1.215-.4A1.48,1.48,0,0,0-6.906-7.5a1.83,1.83,0,0,0-.43-1.273,1.522,1.522,0,0,0-1.172-.484h-1.828Zm11.9,1.953H.078V0H-2.664V-11.375H1.813a5,5,0,0,1,3.164.9A3.041,3.041,0,0,1,6.117-7.941a3.693,3.693,0,0,1-.48,1.967,3.41,3.41,0,0,1-1.5,1.264L6.508-.117V0H3.57ZM.078-6.133H1.813a1.557,1.557,0,0,0,1.176-.411,1.59,1.59,0,0,0,.395-1.147,1.608,1.608,0,0,0-.4-1.155,1.542,1.542,0,0,0-1.172-.419H.078Zm17.328.68a6.708,6.708,0,0,1-.617,2.945A4.561,4.561,0,0,1,15.035-.535a4.884,4.884,0,0,1-2.59.691A4.953,4.953,0,0,1,9.867-.512a4.554,4.554,0,0,1-1.754-1.91,6.515,6.515,0,0,1-.66-2.852v-.641a6.737,6.737,0,0,1,.613-2.949,4.55,4.55,0,0,1,1.758-1.973,4.918,4.918,0,0,1,2.605-.7,4.87,4.87,0,0,1,2.578.688A4.632,4.632,0,0,1,16.77-8.887a6.544,6.544,0,0,1,.637,2.91ZM14.617-5.93A4.783,4.783,0,0,0,14.051-8.5a1.817,1.817,0,0,0-1.621-.879q-2.062,0-2.18,3.094l-.008.836a4.92,4.92,0,0,0,.555,2.57,1.814,1.814,0,0,0,1.648.9,1.792,1.792,0,0,0,1.6-.883,4.785,4.785,0,0,0,.57-2.539Zm6.945,2.07V0H18.82V-11.375h4.539a5.287,5.287,0,0,1,2.309.48,3.621,3.621,0,0,1,1.555,1.367,3.734,3.734,0,0,1,.551,2.012,3.291,3.291,0,0,1-1.191,2.66,4.943,4.943,0,0,1-3.27,1Zm0-2.117h1.8a1.7,1.7,0,0,0,1.215-.4A1.48,1.48,0,0,0,24.992-7.5a1.83,1.83,0,0,0-.43-1.273,1.522,1.522,0,0,0-1.172-.484H21.563Zm16.594-5.4V-3.93a4.279,4.279,0,0,1-.539,2.191A3.492,3.492,0,0,1,36.07-.328a5.449,5.449,0,0,1-2.383.484A4.708,4.708,0,0,1,30.414-.922,3.845,3.845,0,0,1,29.2-3.875v-7.5h2.758V-3.82Q32-1.953,33.688-1.953a1.679,1.679,0,0,0,1.289-.469,2.191,2.191,0,0,0,.438-1.523v-7.43Zm8.766,6.547H42.609v2.719H47.7V0H39.867V-11.375h7.852v2.117H42.609v2.4h4.313Zm7.766,1.8a1.127,1.127,0,0,0-.426-.937,5.292,5.292,0,0,0-1.5-.7,14.353,14.353,0,0,1-1.75-.7A3.314,3.314,0,0,1,48.8-8.336,2.676,2.676,0,0,1,49.355-10a3.562,3.562,0,0,1,1.559-1.125,6.065,6.065,0,0,1,2.266-.4,5.305,5.305,0,0,1,2.2.438,3.482,3.482,0,0,1,1.512,1.246A3.254,3.254,0,0,1,57.43-8H54.7a1.375,1.375,0,0,0-.426-1.078,1.66,1.66,0,0,0-1.152-.383,1.872,1.872,0,0,0-1.16.324,1,1,0,0,0-.426.824A1,1,0,0,0,52-7.52a5.911,5.911,0,0,0,1.648.734,10.1,10.1,0,0,1,1.938.816,3.256,3.256,0,0,1,1.844,2.93A2.778,2.778,0,0,1,56.3-.7a5,5,0,0,1-3.086.852,6.122,6.122,0,0,1-2.5-.5A3.775,3.775,0,0,1,49.027-1.7a3.542,3.542,0,0,1-.566-1.988h2.75a1.744,1.744,0,0,0,.473,1.348,2.234,2.234,0,0,0,1.535.434A1.765,1.765,0,0,0,54.293-2.2.967.967,0,0,0,54.688-3.023ZM67.766-9.258H64.352V0H61.609V-9.258H58.258v-2.117h9.508Zm6.68,7.133H70.688L70.031,0H67.1l4.172-11.375h2.578L78.055,0H75.109Zm-3.1-2.117h2.445L72.563-8.187ZM84.75-3.023a1.127,1.127,0,0,0-.426-.937,5.292,5.292,0,0,0-1.5-.7,14.353,14.353,0,0,1-1.75-.7,3.314,3.314,0,0,1-2.211-2.984A2.676,2.676,0,0,1,79.418-10a3.562,3.562,0,0,1,1.559-1.125,6.065,6.065,0,0,1,2.266-.4,5.305,5.305,0,0,1,2.2.438,3.482,3.482,0,0,1,1.512,1.246A3.254,3.254,0,0,1,87.492-8H84.758a1.375,1.375,0,0,0-.426-1.078,1.66,1.66,0,0,0-1.152-.383,1.872,1.872,0,0,0-1.16.324,1,1,0,0,0-.426.824,1,1,0,0,0,.469.793,5.911,5.911,0,0,0,1.648.734,10.1,10.1,0,0,1,1.938.816,3.256,3.256,0,0,1,1.844,2.93A2.778,2.778,0,0,1,86.367-.7a5,5,0,0,1-3.086.852,6.122,6.122,0,0,1-2.5-.5A3.775,3.775,0,0,1,79.09-1.7a3.542,3.542,0,0,1-.566-1.988h2.75a1.745,1.745,0,0,0,.473,1.348,2.234,2.234,0,0,0,1.535.434A1.765,1.765,0,0,0,84.355-2.2.967.967,0,0,0,84.75-3.023Z" transform="translate(562.125 3477.25)" fill="#fff"/>
    <path id="Trazado_675997" data-name="Trazado 675997" d="M-113.383-3.852a4.154,4.154,0,0,1-.641,2.1,3.866,3.866,0,0,1-1.645,1.41,5.6,5.6,0,0,1-2.418.5A4.467,4.467,0,0,1-121.617-1.3a6.032,6.032,0,0,1-1.289-4.125v-.562a6.885,6.885,0,0,1,.582-2.926,4.41,4.41,0,0,1,1.676-1.937,4.676,4.676,0,0,1,2.531-.684,4.9,4.9,0,0,1,3.328,1.09,4.306,4.306,0,0,1,1.43,3h-2.734a2.037,2.037,0,0,0-.523-1.492,2.153,2.153,0,0,0-1.5-.453,1.638,1.638,0,0,0-1.5.766,4.921,4.921,0,0,0-.5,2.445v.8a5.445,5.445,0,0,0,.457,2.6,1.672,1.672,0,0,0,1.574.781,2.106,2.106,0,0,0,1.445-.445,1.89,1.89,0,0,0,.531-1.414Zm10.219-7.523V-3.93a4.279,4.279,0,0,1-.539,2.191,3.492,3.492,0,0,1-1.547,1.41,5.449,5.449,0,0,1-2.383.484,4.708,4.708,0,0,1-3.273-1.078,3.845,3.845,0,0,1-1.219-2.953v-7.5h2.758V-3.82q.047,1.867,1.734,1.867a1.679,1.679,0,0,0,1.289-.469,2.191,2.191,0,0,0,.438-1.523v-7.43Zm5.313,0,2.539,7.914,2.531-7.914h3.609V0h-2.75V-2.656l.266-5.437L-94.406,0h-1.812l-2.758-8.1.266,5.445V0h-2.742V-11.375Zm13.164,7.516V0H-87.43V-11.375h4.539a5.287,5.287,0,0,1,2.309.48,3.621,3.621,0,0,1,1.555,1.367,3.734,3.734,0,0,1,.551,2.012,3.291,3.291,0,0,1-1.191,2.66,4.943,4.943,0,0,1-3.27,1Zm0-2.117h1.8a1.7,1.7,0,0,0,1.215-.4A1.48,1.48,0,0,0-81.258-7.5a1.83,1.83,0,0,0-.43-1.273,1.522,1.522,0,0,0-1.172-.484h-1.828Zm10.414,3.867H-69.5V0h-7.516V-11.375h2.742Zm12.984-2.719H-65.6v2.719h5.094V0h-7.836V-11.375h7.852v2.117H-65.6v2.4h4.313ZM-49.891,0h-2.727l-4.031-7.078V0h-2.742V-11.375h2.742L-52.625-4.3v-7.078h2.734Zm8.461-2.109h4.773V0h-7.516V-11.375h2.742Zm15.063-3.344a6.708,6.708,0,0,1-.617,2.945A4.561,4.561,0,0,1-28.738-.535a4.884,4.884,0,0,1-2.59.691,4.953,4.953,0,0,1-2.578-.668,4.554,4.554,0,0,1-1.754-1.91,6.515,6.515,0,0,1-.66-2.852v-.641a6.737,6.737,0,0,1,.613-2.949,4.55,4.55,0,0,1,1.758-1.973,4.918,4.918,0,0,1,2.605-.7,4.87,4.87,0,0,1,2.578.688A4.632,4.632,0,0,1-27-8.887a6.544,6.544,0,0,1,.637,2.91Zm-2.789-.477A4.783,4.783,0,0,0-29.723-8.5a1.817,1.817,0,0,0-1.621-.879q-2.062,0-2.18,3.094l-.008.836a4.92,4.92,0,0,0,.555,2.57,1.814,1.814,0,0,0,1.648.9,1.792,1.792,0,0,0,1.6-.883,4.785,4.785,0,0,0,.57-2.539Zm10.07,2.906a1.127,1.127,0,0,0-.426-.937,5.292,5.292,0,0,0-1.5-.7,14.353,14.353,0,0,1-1.75-.7,3.314,3.314,0,0,1-2.211-2.984A2.676,2.676,0,0,1-24.418-10a3.562,3.562,0,0,1,1.559-1.125,6.065,6.065,0,0,1,2.266-.4,5.305,5.305,0,0,1,2.2.438,3.482,3.482,0,0,1,1.512,1.246A3.254,3.254,0,0,1-16.344-8h-2.734A1.375,1.375,0,0,0-19.5-9.078a1.66,1.66,0,0,0-1.152-.383,1.872,1.872,0,0,0-1.16.324,1,1,0,0,0-.426.824,1,1,0,0,0,.469.793,5.911,5.911,0,0,0,1.648.734,10.1,10.1,0,0,1,1.938.816,3.256,3.256,0,0,1,1.844,2.93A2.778,2.778,0,0,1-17.469-.7a5,5,0,0,1-3.086.852,6.122,6.122,0,0,1-2.5-.5A3.775,3.775,0,0,1-24.746-1.7a3.542,3.542,0,0,1-.566-1.988h2.75A1.744,1.744,0,0,0-22.09-2.34a2.234,2.234,0,0,0,1.535.434A1.765,1.765,0,0,0-19.48-2.2.967.967,0,0,0-19.086-3.023Zm12.359-1H-8.211V0h-2.742V-11.375h4.477a5,5,0,0,1,3.164.9A3.041,3.041,0,0,1-2.172-7.941a3.693,3.693,0,0,1-.48,1.967,3.41,3.41,0,0,1-1.5,1.264L-1.781-.117V0H-4.719ZM-8.211-6.133h1.734A1.557,1.557,0,0,0-5.3-6.544a1.59,1.59,0,0,0,.395-1.147,1.608,1.608,0,0,0-.4-1.155,1.542,1.542,0,0,0-1.172-.419H-8.211Zm14.75,1.3H2.227v2.719H7.32V0H-.516V-11.375H7.336v2.117H2.227v2.4H6.539Zm11.547-.625A6.722,6.722,0,0,1,17.563-2.7,4.787,4.787,0,0,1,16.117-.812L17.953.641l-1.7,1.438L13.813.109a5.083,5.083,0,0,1-.687.047,4.93,4.93,0,0,1-2.578-.672A4.57,4.57,0,0,1,8.793-2.437a6.527,6.527,0,0,1-.652-2.875v-.6a6.731,6.731,0,0,1,.613-2.953,4.57,4.57,0,0,1,1.75-1.969,4.892,4.892,0,0,1,2.605-.7,4.87,4.87,0,0,1,2.578.688,4.632,4.632,0,0,1,1.762,1.957,6.544,6.544,0,0,1,.637,2.91ZM15.3-5.93A4.783,4.783,0,0,0,14.73-8.5a1.817,1.817,0,0,0-1.621-.879,1.8,1.8,0,0,0-1.633.867,4.845,4.845,0,0,0-.555,2.539v.523a4.916,4.916,0,0,0,.555,2.574,1.816,1.816,0,0,0,1.648.895,1.79,1.79,0,0,0,1.605-.883A4.813,4.813,0,0,0,15.3-5.406Zm13.109-5.445V-3.93a4.279,4.279,0,0,1-.539,2.191A3.492,3.492,0,0,1,26.32-.328a5.449,5.449,0,0,1-2.383.484A4.708,4.708,0,0,1,20.664-.922a3.845,3.845,0,0,1-1.219-2.953v-7.5H22.2V-3.82q.047,1.867,1.734,1.867a1.679,1.679,0,0,0,1.289-.469,2.191,2.191,0,0,0,.438-1.523v-7.43Zm8.766,6.547H32.859v2.719h5.094V0H30.117V-11.375h7.852v2.117H32.859v2.4h4.313Zm6.125.8H41.813V0H39.07V-11.375h4.477a5,5,0,0,1,3.164.9,3.041,3.041,0,0,1,1.141,2.536,3.693,3.693,0,0,1-.48,1.967,3.41,3.41,0,0,1-1.5,1.264L48.242-.117V0H45.3ZM41.813-6.133h1.734a1.557,1.557,0,0,0,1.176-.411,1.59,1.59,0,0,0,.395-1.147,1.608,1.608,0,0,0-.4-1.155,1.542,1.542,0,0,0-1.172-.419H41.813ZM52.43,0H49.7V-11.375H52.43Zm5.508-11.375,2.539,7.914,2.531-7.914h3.609V0h-2.75V-2.656l.266-5.437L61.383,0H59.57L56.813-8.1l.266,5.445V0H54.336V-11.375ZM71.281,0H68.547V-11.375h2.734Zm8.961-4.828H75.93v2.719h5.094V0H73.188V-11.375h7.852v2.117H75.93v2.4h4.313ZM91.641,0H88.914L84.883-7.078V0H82.141V-11.375h2.742L88.906-4.3v-7.078h2.734ZM102.3-9.258H98.891V0H96.148V-9.258H92.8v-2.117H102.3Zm10.57,3.8a6.708,6.708,0,0,1-.617,2.945A4.561,4.561,0,0,1,110.5-.535a4.884,4.884,0,0,1-2.59.691,4.953,4.953,0,0,1-2.578-.668,4.554,4.554,0,0,1-1.754-1.91,6.515,6.515,0,0,1-.66-2.852v-.641a6.738,6.738,0,0,1,.613-2.949,4.55,4.55,0,0,1,1.758-1.973,4.918,4.918,0,0,1,2.605-.7,4.87,4.87,0,0,1,2.578.688,4.632,4.632,0,0,1,1.762,1.957,6.544,6.544,0,0,1,.637,2.91Zm-2.789-.477A4.783,4.783,0,0,0,109.52-8.5a1.817,1.817,0,0,0-1.621-.879q-2.062,0-2.18,3.094l-.008.836a4.92,4.92,0,0,0,.555,2.57,1.814,1.814,0,0,0,1.648.9,1.792,1.792,0,0,0,1.6-.883,4.785,4.785,0,0,0,.57-2.539Zm10.07,2.906a1.127,1.127,0,0,0-.426-.937,5.292,5.292,0,0,0-1.5-.7,14.353,14.353,0,0,1-1.75-.7,3.314,3.314,0,0,1-2.211-2.984A2.676,2.676,0,0,1,114.824-10a3.562,3.562,0,0,1,1.559-1.125,6.065,6.065,0,0,1,2.266-.4,5.305,5.305,0,0,1,2.2.438,3.482,3.482,0,0,1,1.512,1.246A3.254,3.254,0,0,1,122.9-8h-2.734a1.375,1.375,0,0,0-.426-1.078,1.66,1.66,0,0,0-1.152-.383,1.872,1.872,0,0,0-1.16.324,1,1,0,0,0-.426.824,1,1,0,0,0,.469.793,5.911,5.911,0,0,0,1.648.734,10.1,10.1,0,0,1,1.938.816,3.256,3.256,0,0,1,1.844,2.93A2.778,2.778,0,0,1,121.773-.7a5,5,0,0,1-3.086.852,6.122,6.122,0,0,1-2.5-.5A3.775,3.775,0,0,1,114.5-1.7a3.542,3.542,0,0,1-.566-1.988h2.75a1.745,1.745,0,0,0,.473,1.348,2.234,2.234,0,0,0,1.535.434,1.765,1.765,0,0,0,1.074-.293A.967.967,0,0,0,120.156-3.023ZM-58.758,13.563l2.094-4.937H-53.7l-3.664,7.289V20h-2.781V15.914L-63.8,8.625h2.945Zm16.922,1.609h-4.312v2.719h5.094V20h-7.836V8.625h7.852v2.117h-5.109v2.4h4.313Zm7.766,1.8a1.127,1.127,0,0,0-.426-.937,5.292,5.292,0,0,0-1.5-.7,14.353,14.353,0,0,1-1.75-.7,3.314,3.314,0,0,1-2.211-2.984A2.676,2.676,0,0,1-39.4,10a3.562,3.562,0,0,1,1.559-1.125,6.065,6.065,0,0,1,2.266-.4,5.305,5.305,0,0,1,2.2.438,3.482,3.482,0,0,1,1.512,1.246A3.254,3.254,0,0,1-31.328,12h-2.734a1.375,1.375,0,0,0-.426-1.078,1.66,1.66,0,0,0-1.152-.383,1.872,1.872,0,0,0-1.16.324,1,1,0,0,0-.426.824,1,1,0,0,0,.469.793,5.911,5.911,0,0,0,1.648.734,10.1,10.1,0,0,1,1.938.816,3.256,3.256,0,0,1,1.844,2.93A2.778,2.778,0,0,1-32.453,19.3a5,5,0,0,1-3.086.852,6.122,6.122,0,0,1-2.5-.5A3.775,3.775,0,0,1-39.73,18.3a3.542,3.542,0,0,1-.566-1.988h2.75a1.744,1.744,0,0,0,.473,1.348,2.234,2.234,0,0,0,1.535.434,1.765,1.765,0,0,0,1.074-.293A.967.967,0,0,0-34.07,16.977Zm6.891-.836V20h-2.742V8.625h4.539a5.287,5.287,0,0,1,2.309.48,3.621,3.621,0,0,1,1.555,1.367,3.734,3.734,0,0,1,.551,2.012,3.291,3.291,0,0,1-1.191,2.66,4.943,4.943,0,0,1-3.27,1Zm0-2.117h1.8a1.7,1.7,0,0,0,1.215-.4A1.48,1.48,0,0,0-23.75,12.5a1.83,1.83,0,0,0-.43-1.273,1.522,1.522,0,0,0-1.172-.484H-27.18Zm14.727,1.148h-4.312v2.719h5.094V20h-7.836V8.625h7.852v2.117h-5.109v2.4h4.313Zm11.1.977a4.154,4.154,0,0,1-.641,2.1,3.866,3.866,0,0,1-1.645,1.41,5.6,5.6,0,0,1-2.418.5A4.467,4.467,0,0,1-9.586,18.7a6.032,6.032,0,0,1-1.289-4.125v-.562a6.885,6.885,0,0,1,.582-2.926A4.41,4.41,0,0,1-8.617,9.145a4.676,4.676,0,0,1,2.531-.684,4.9,4.9,0,0,1,3.328,1.09,4.306,4.306,0,0,1,1.43,3H-4.062a2.037,2.037,0,0,0-.523-1.492,2.153,2.153,0,0,0-1.5-.453,1.638,1.638,0,0,0-1.5.766,4.921,4.921,0,0,0-.5,2.445v.8a5.445,5.445,0,0,0,.457,2.6,1.672,1.672,0,0,0,1.574.781,2.106,2.106,0,0,0,1.445-.445,1.89,1.89,0,0,0,.531-1.414Zm10-5.406H5.234V20H2.492V10.742H-.859V8.625H8.648Zm6.68,7.133H11.57L10.914,20H7.984L12.156,8.625h2.578L18.938,20H15.992Zm-3.1-2.117h2.445l-1.227-3.945Zm15.531-5.016H24.344V20H21.6V10.742H18.25V8.625h9.508ZM31.836,20H29.1V8.625h2.734Zm6.32-3.094,2.266-8.281h3.063L39.656,20h-3l-3.8-11.375H35.9Zm12.031.969H46.43L45.773,20h-2.93L47.016,8.625h2.578L53.8,20H50.852Zm-3.1-2.117h2.445L48.3,11.813Zm13.406,1.219a1.127,1.127,0,0,0-.426-.937,5.292,5.292,0,0,0-1.5-.7,14.353,14.353,0,0,1-1.75-.7,3.314,3.314,0,0,1-2.211-2.984A2.676,2.676,0,0,1,55.16,10a3.562,3.562,0,0,1,1.559-1.125,6.065,6.065,0,0,1,2.266-.4,5.305,5.305,0,0,1,2.2.438A3.482,3.482,0,0,1,62.7,10.152,3.254,3.254,0,0,1,63.234,12H60.5a1.375,1.375,0,0,0-.426-1.078,1.66,1.66,0,0,0-1.152-.383,1.872,1.872,0,0,0-1.16.324A.955.955,0,0,0,57.8,12.48a5.911,5.911,0,0,0,1.648.734,10.1,10.1,0,0,1,1.938.816,3.256,3.256,0,0,1,1.844,2.93A2.778,2.778,0,0,1,62.109,19.3a5,5,0,0,1-3.086.852,6.122,6.122,0,0,1-2.5-.5A3.775,3.775,0,0,1,54.832,18.3a3.542,3.542,0,0,1-.566-1.988h2.75a1.744,1.744,0,0,0,.473,1.348,2.234,2.234,0,0,0,1.535.434A1.765,1.765,0,0,0,60.1,17.8.967.967,0,0,0,60.492,16.977Z" transform="translate(562.125 3537.25)" fill="#fff"/>
    <path id="Trazado_676000" data-name="Trazado 676000" d="M-63.715-4.023H-65.2V0h-2.742V-11.375h4.477a5,5,0,0,1,3.164.9A3.041,3.041,0,0,1-59.16-7.941a3.693,3.693,0,0,1-.48,1.967,3.41,3.41,0,0,1-1.5,1.264L-58.77-.117V0h-2.937ZM-65.2-6.133h1.734a1.557,1.557,0,0,0,1.176-.411,1.59,1.59,0,0,0,.395-1.147,1.608,1.608,0,0,0-.4-1.155,1.542,1.542,0,0,0-1.172-.419H-65.2Zm14.75,1.3h-4.312v2.719h5.094V0H-57.5V-11.375h7.852v2.117h-5.109v2.4h4.313Zm11.211,3.422A4.409,4.409,0,0,1-41.09-.273a7.986,7.986,0,0,1-2.672.43,4.764,4.764,0,0,1-3.57-1.367,5.534,5.534,0,0,1-1.43-3.8L-48.77-6a6.788,6.788,0,0,1,.594-2.934,4.409,4.409,0,0,1,1.7-1.93,4.807,4.807,0,0,1,2.559-.676,5.039,5.039,0,0,1,3.3.973,4.121,4.121,0,0,1,1.371,2.9h-2.641A2.157,2.157,0,0,0-42.5-9.023a1.966,1.966,0,0,0-1.328-.406,1.789,1.789,0,0,0-1.594.875,4.672,4.672,0,0,0-.57,2.5v.688a4.574,4.574,0,0,0,.582,2.559,2.059,2.059,0,0,0,1.832.855A2.3,2.3,0,0,0-41.98-2.43V-4.2h-1.906V-6.078h4.648ZM-34.723,0h-2.734V-11.375h2.734Zm7.773-3.023a1.127,1.127,0,0,0-.426-.937,5.292,5.292,0,0,0-1.5-.7,14.353,14.353,0,0,1-1.75-.7,3.314,3.314,0,0,1-2.211-2.984A2.676,2.676,0,0,1-32.281-10a3.562,3.562,0,0,1,1.559-1.125,6.065,6.065,0,0,1,2.266-.4,5.305,5.305,0,0,1,2.2.438,3.482,3.482,0,0,1,1.512,1.246A3.254,3.254,0,0,1-24.207-8h-2.734a1.375,1.375,0,0,0-.426-1.078,1.66,1.66,0,0,0-1.152-.383,1.872,1.872,0,0,0-1.16.324,1,1,0,0,0-.426.824,1,1,0,0,0,.469.793,5.911,5.911,0,0,0,1.648.734,10.1,10.1,0,0,1,1.938.816,3.256,3.256,0,0,1,1.844,2.93A2.778,2.778,0,0,1-25.332-.7a5,5,0,0,1-3.086.852,6.122,6.122,0,0,1-2.5-.5A3.775,3.775,0,0,1-32.609-1.7a3.542,3.542,0,0,1-.566-1.988h2.75a1.744,1.744,0,0,0,.473,1.348,2.234,2.234,0,0,0,1.535.434A1.765,1.765,0,0,0-27.344-2.2.967.967,0,0,0-26.949-3.023Zm13.078-6.234h-3.414V0h-2.742V-9.258h-3.352v-2.117h9.508Zm5.383,5.234H-9.973V0h-2.742V-11.375h4.477a5,5,0,0,1,3.164.9A3.041,3.041,0,0,1-3.934-7.941a3.693,3.693,0,0,1-.48,1.967,3.41,3.41,0,0,1-1.5,1.264L-3.543-.117V0H-6.48ZM-9.973-6.133h1.734a1.557,1.557,0,0,0,1.176-.411,1.59,1.59,0,0,0,.395-1.147,1.608,1.608,0,0,0-.4-1.155,1.542,1.542,0,0,0-1.172-.419H-9.973ZM4.184-2.125H.426L-.23,0H-3.16L1.012-11.375H3.59L7.793,0H4.848Zm-3.1-2.117H3.527L2.3-8.187Zm11.766.219H11.363V0H8.621V-11.375H13.1a5,5,0,0,1,3.164.9A3.041,3.041,0,0,1,17.4-7.941a3.693,3.693,0,0,1-.48,1.967,3.41,3.41,0,0,1-1.5,1.264L17.793-.117V0H14.855ZM11.363-6.133H13.1a1.557,1.557,0,0,0,1.176-.411,1.59,1.59,0,0,0,.395-1.147,1.608,1.608,0,0,0-.4-1.155A1.542,1.542,0,0,0,13.1-9.266H11.363ZM32.246-3.852a4.154,4.154,0,0,1-.641,2.1,3.866,3.866,0,0,1-1.645,1.41,5.6,5.6,0,0,1-2.418.5A4.467,4.467,0,0,1,24.012-1.3,6.032,6.032,0,0,1,22.723-5.43v-.562A6.885,6.885,0,0,1,23.3-8.918a4.41,4.41,0,0,1,1.676-1.937,4.676,4.676,0,0,1,2.531-.684,4.9,4.9,0,0,1,3.328,1.09,4.306,4.306,0,0,1,1.43,3H29.535a2.037,2.037,0,0,0-.523-1.492,2.153,2.153,0,0,0-1.5-.453,1.638,1.638,0,0,0-1.5.766,4.921,4.921,0,0,0-.5,2.445v.8a5.445,5.445,0,0,0,.457,2.6,1.672,1.672,0,0,0,1.574.781,2.106,2.106,0,0,0,1.445-.445,1.89,1.89,0,0,0,.531-1.414Zm10.93-1.6a6.708,6.708,0,0,1-.617,2.945A4.561,4.561,0,0,1,40.8-.535a4.884,4.884,0,0,1-2.59.691,4.953,4.953,0,0,1-2.578-.668,4.554,4.554,0,0,1-1.754-1.91,6.515,6.515,0,0,1-.66-2.852v-.641a6.737,6.737,0,0,1,.613-2.949,4.55,4.55,0,0,1,1.758-1.973,4.918,4.918,0,0,1,2.605-.7,4.87,4.87,0,0,1,2.578.688,4.632,4.632,0,0,1,1.762,1.957,6.544,6.544,0,0,1,.637,2.91ZM40.387-5.93A4.783,4.783,0,0,0,39.82-8.5,1.817,1.817,0,0,0,38.2-9.383q-2.062,0-2.18,3.094l-.008.836a4.92,4.92,0,0,0,.555,2.57,1.814,1.814,0,0,0,1.648.9,1.792,1.792,0,0,0,1.6-.883,4.785,4.785,0,0,0,.57-2.539Zm7.8-5.445L50.73-3.461l2.531-7.914h3.609V0h-2.75V-2.656l.266-5.437L51.637,0H49.824L47.066-8.1l.266,5.445V0H44.59V-11.375ZM68.246-5.453a6.708,6.708,0,0,1-.617,2.945A4.561,4.561,0,0,1,65.875-.535a4.884,4.884,0,0,1-2.59.691,4.953,4.953,0,0,1-2.578-.668,4.554,4.554,0,0,1-1.754-1.91,6.515,6.515,0,0,1-.66-2.852v-.641a6.737,6.737,0,0,1,.613-2.949,4.55,4.55,0,0,1,1.758-1.973,4.918,4.918,0,0,1,2.605-.7,4.87,4.87,0,0,1,2.578.688,4.632,4.632,0,0,1,1.762,1.957,6.544,6.544,0,0,1,.637,2.91ZM65.457-5.93A4.783,4.783,0,0,0,64.891-8.5a1.817,1.817,0,0,0-1.621-.879q-2.062,0-2.18,3.094l-.008.836a4.92,4.92,0,0,0,.555,2.57,1.814,1.814,0,0,0,1.648.9,1.792,1.792,0,0,0,1.6-.883,4.785,4.785,0,0,0,.57-2.539ZM-76.531,16.141V20h-2.742V8.625h4.539a5.287,5.287,0,0,1,2.309.48,3.621,3.621,0,0,1,1.555,1.367,3.734,3.734,0,0,1,.551,2.012,3.291,3.291,0,0,1-1.191,2.66,4.943,4.943,0,0,1-3.27,1Zm0-2.117h1.8a1.7,1.7,0,0,0,1.215-.4A1.48,1.48,0,0,0-73.1,12.5a1.83,1.83,0,0,0-.43-1.273,1.522,1.522,0,0,0-1.172-.484h-1.828Zm17.3.523a6.708,6.708,0,0,1-.617,2.945A4.561,4.561,0,0,1-61.6,19.465a4.884,4.884,0,0,1-2.59.691,4.953,4.953,0,0,1-2.578-.668,4.554,4.554,0,0,1-1.754-1.91,6.515,6.515,0,0,1-.66-2.852v-.641a6.738,6.738,0,0,1,.613-2.949,4.55,4.55,0,0,1,1.758-1.973,4.918,4.918,0,0,1,2.605-.7,4.87,4.87,0,0,1,2.578.688,4.632,4.632,0,0,1,1.762,1.957,6.544,6.544,0,0,1,.637,2.91Zm-2.789-.477a4.783,4.783,0,0,0-.566-2.574,1.817,1.817,0,0,0-1.621-.879q-2.062,0-2.18,3.094l-.008.836a4.92,4.92,0,0,0,.555,2.57,1.814,1.814,0,0,0,1.648.9,1.792,1.792,0,0,0,1.6-.883,4.785,4.785,0,0,0,.57-2.539Zm10.07,2.906a1.127,1.127,0,0,0-.426-.937,5.292,5.292,0,0,0-1.5-.7,14.353,14.353,0,0,1-1.75-.7,3.314,3.314,0,0,1-2.211-2.984A2.676,2.676,0,0,1-57.277,10a3.562,3.562,0,0,1,1.559-1.125,6.065,6.065,0,0,1,2.266-.4,5.305,5.305,0,0,1,2.2.438,3.482,3.482,0,0,1,1.512,1.246A3.254,3.254,0,0,1-49.2,12h-2.734a1.375,1.375,0,0,0-.426-1.078,1.66,1.66,0,0,0-1.152-.383,1.872,1.872,0,0,0-1.16.324,1,1,0,0,0-.426.824,1,1,0,0,0,.469.793,5.911,5.911,0,0,0,1.648.734,10.1,10.1,0,0,1,1.938.816,3.256,3.256,0,0,1,1.844,2.93A2.778,2.778,0,0,1-50.328,19.3a5,5,0,0,1-3.086.852,6.122,6.122,0,0,1-2.5-.5A3.775,3.775,0,0,1-57.605,18.3a3.542,3.542,0,0,1-.566-1.988h2.75a1.744,1.744,0,0,0,.473,1.348,2.234,2.234,0,0,0,1.535.434A1.765,1.765,0,0,0-52.34,17.8.967.967,0,0,0-51.945,16.977ZM-44.875,20h-2.734V8.625h2.734Zm1.906,0V8.625h4.086a5.786,5.786,0,0,1,3.34.8A2.677,2.677,0,0,1-34.4,11.766a2.707,2.707,0,0,1-.406,1.508A2.367,2.367,0,0,1-36,14.2a2.4,2.4,0,0,1,1.367.875,2.544,2.544,0,0,1,.477,1.563,3.012,3.012,0,0,1-1.059,2.512A5.038,5.038,0,0,1-38.352,20Zm2.742-4.836v2.727h1.8a1.709,1.709,0,0,0,1.141-.34,1.189,1.189,0,0,0,.4-.957,1.261,1.261,0,0,0-1.414-1.43Zm0-1.8h1.43a2.031,2.031,0,0,0,1.281-.329,1.168,1.168,0,0,0,.383-.948,1.226,1.226,0,0,0-.414-1.038,2.216,2.216,0,0,0-1.336-.317h-1.344Zm10.32,4.523h4.773V20h-7.516V8.625h2.742Zm12.984-2.719h-4.312v2.719h5.094V20h-7.836V8.625h7.852v2.117h-5.109v2.4h4.313Zm8.625.969V20h-2.742V8.625H-6.5a5.287,5.287,0,0,1,2.309.48,3.621,3.621,0,0,1,1.555,1.367,3.734,3.734,0,0,1,.551,2.012,3.291,3.291,0,0,1-1.191,2.66,4.943,4.943,0,0,1-3.27,1Zm0-2.117h1.8a1.7,1.7,0,0,0,1.215-.4A1.48,1.48,0,0,0-4.867,12.5a1.83,1.83,0,0,0-.43-1.273,1.522,1.522,0,0,0-1.172-.484H-8.3ZM3.6,15.977H2.117V20H-.625V8.625H3.852a5,5,0,0,1,3.164.9,3.041,3.041,0,0,1,1.141,2.536,3.693,3.693,0,0,1-.48,1.967,3.41,3.41,0,0,1-1.5,1.264l2.375,4.593V20H5.609ZM2.117,13.867H3.852a1.557,1.557,0,0,0,1.176-.411,1.59,1.59,0,0,0,.395-1.147,1.608,1.608,0,0,0-.4-1.155,1.542,1.542,0,0,0-1.172-.419H2.117Zm17.328.68a6.708,6.708,0,0,1-.617,2.945,4.561,4.561,0,0,1-1.754,1.973,4.884,4.884,0,0,1-2.59.691,4.953,4.953,0,0,1-2.578-.668,4.554,4.554,0,0,1-1.754-1.91,6.515,6.515,0,0,1-.66-2.852v-.641a6.737,6.737,0,0,1,.613-2.949,4.55,4.55,0,0,1,1.758-1.973,4.918,4.918,0,0,1,2.605-.7,4.87,4.87,0,0,1,2.578.688,4.632,4.632,0,0,1,1.762,1.957,6.544,6.544,0,0,1,.637,2.91Zm-2.789-.477A4.783,4.783,0,0,0,16.09,11.5a1.817,1.817,0,0,0-1.621-.879q-2.062,0-2.18,3.094l-.008.836a4.92,4.92,0,0,0,.555,2.57,1.814,1.814,0,0,0,1.648.9,1.792,1.792,0,0,0,1.6-.883,4.785,4.785,0,0,0,.57-2.539ZM25.1,16.906l2.266-8.281H30.43L26.6,20h-3L19.8,8.625h3.039Zm13.211-1.734H34v2.719h5.094V20H31.258V8.625h7.852v2.117H34v2.4h4.313Zm8.953,0H42.953v2.719h5.094V20H40.211V8.625h7.852v2.117H42.953v2.4h4.313ZM49.164,20V8.625h3.664a5.39,5.39,0,0,1,2.711.684,4.805,4.805,0,0,1,1.879,1.93,5.826,5.826,0,0,1,.684,2.793v.523a5.86,5.86,0,0,1-.66,2.8,4.826,4.826,0,0,1-1.859,1.938A5.271,5.271,0,0,1,52.906,20Zm2.742-9.258v7.148h.953a2.133,2.133,0,0,0,1.813-.84,4.116,4.116,0,0,0,.633-2.5v-.492a4.082,4.082,0,0,0-.633-2.484,2.17,2.17,0,0,0-1.844-.836Zm17.234,3.8a6.708,6.708,0,0,1-.617,2.945,4.561,4.561,0,0,1-1.754,1.973,4.884,4.884,0,0,1-2.59.691,4.953,4.953,0,0,1-2.578-.668,4.554,4.554,0,0,1-1.754-1.91,6.515,6.515,0,0,1-.66-2.852v-.641a6.737,6.737,0,0,1,.613-2.949,4.55,4.55,0,0,1,1.758-1.973,5.2,5.2,0,0,1,5.184-.008A4.632,4.632,0,0,1,68.5,11.113a6.544,6.544,0,0,1,.637,2.91Zm-2.789-.477a4.783,4.783,0,0,0-.566-2.574,1.817,1.817,0,0,0-1.621-.879q-2.062,0-2.18,3.094l-.008.836a4.92,4.92,0,0,0,.555,2.57,1.814,1.814,0,0,0,1.648.9,1.792,1.792,0,0,0,1.6-.883,4.785,4.785,0,0,0,.57-2.539Zm8.43,1.906H73.3V20H70.555V8.625h4.477a5,5,0,0,1,3.164.9,3.041,3.041,0,0,1,1.141,2.536,3.693,3.693,0,0,1-.48,1.967,3.41,3.41,0,0,1-1.5,1.264l2.375,4.593V20H76.789ZM73.3,13.867h1.734a1.557,1.557,0,0,0,1.176-.411,1.59,1.59,0,0,0,.395-1.147,1.608,1.608,0,0,0-.4-1.155,1.542,1.542,0,0,0-1.172-.419H73.3Z" transform="translate(501.25 3680.25)" fill="#fff"/>
    <path id="Trazado_676001" data-name="Trazado 676001" d="M-94.3-3.023a1.127,1.127,0,0,0-.426-.937,5.292,5.292,0,0,0-1.5-.7,14.353,14.353,0,0,1-1.75-.7,3.314,3.314,0,0,1-2.211-2.984A2.676,2.676,0,0,1-99.633-10a3.562,3.562,0,0,1,1.559-1.125,6.065,6.065,0,0,1,2.266-.4,5.305,5.305,0,0,1,2.2.438A3.482,3.482,0,0,1-92.1-9.848,3.254,3.254,0,0,1-91.559-8h-2.734a1.375,1.375,0,0,0-.426-1.078,1.66,1.66,0,0,0-1.152-.383,1.872,1.872,0,0,0-1.16.324,1,1,0,0,0-.426.824,1,1,0,0,0,.469.793,5.911,5.911,0,0,0,1.648.734,10.1,10.1,0,0,1,1.938.816,3.256,3.256,0,0,1,1.844,2.93A2.778,2.778,0,0,1-92.684-.7,5,5,0,0,1-95.77.156a6.122,6.122,0,0,1-2.5-.5A3.775,3.775,0,0,1-99.961-1.7a3.542,3.542,0,0,1-.566-1.988h2.75A1.745,1.745,0,0,0-97.3-2.34a2.234,2.234,0,0,0,1.535.434A1.765,1.765,0,0,0-94.7-2.2.967.967,0,0,0-94.3-3.023Zm11.2-1.8H-87.41v2.719h5.094V0h-7.836V-11.375H-82.3v2.117H-87.41v2.4H-83.1Zm4.641,2.719h4.773V0H-81.2V-11.375h2.742Zm12.984-2.719h-4.312v2.719h5.094V0h-7.836V-11.375h7.852v2.117h-5.109v2.4h4.313Zm11.1.977a4.154,4.154,0,0,1-.641,2.1,3.866,3.866,0,0,1-1.645,1.41,5.6,5.6,0,0,1-2.418.5A4.467,4.467,0,0,1-62.605-1.3,6.032,6.032,0,0,1-63.895-5.43v-.562a6.885,6.885,0,0,1,.582-2.926,4.41,4.41,0,0,1,1.676-1.937,4.676,4.676,0,0,1,2.531-.684,4.9,4.9,0,0,1,3.328,1.09,4.306,4.306,0,0,1,1.43,3h-2.734a2.037,2.037,0,0,0-.523-1.492,2.153,2.153,0,0,0-1.5-.453,1.638,1.638,0,0,0-1.5.766,4.921,4.921,0,0,0-.5,2.445v.8a5.445,5.445,0,0,0,.457,2.6,1.672,1.672,0,0,0,1.574.781,2.106,2.106,0,0,0,1.445-.445A1.89,1.89,0,0,0-57.1-3.852Zm10.5,0a4.154,4.154,0,0,1-.641,2.1,3.866,3.866,0,0,1-1.645,1.41,5.6,5.6,0,0,1-2.418.5A4.467,4.467,0,0,1-52.105-1.3,6.032,6.032,0,0,1-53.395-5.43v-.562a6.885,6.885,0,0,1,.582-2.926,4.41,4.41,0,0,1,1.676-1.937,4.676,4.676,0,0,1,2.531-.684,4.9,4.9,0,0,1,3.328,1.09,4.306,4.306,0,0,1,1.43,3h-2.734a2.037,2.037,0,0,0-.523-1.492,2.153,2.153,0,0,0-1.5-.453,1.638,1.638,0,0,0-1.5.766,4.921,4.921,0,0,0-.5,2.445v.8a5.445,5.445,0,0,0,.457,2.6,1.672,1.672,0,0,0,1.574.781,2.106,2.106,0,0,0,1.445-.445A1.89,1.89,0,0,0-46.6-3.852ZM-39.652,0h-2.734V-11.375h2.734Zm11.539-5.453a6.708,6.708,0,0,1-.617,2.945A4.561,4.561,0,0,1-30.484-.535a4.884,4.884,0,0,1-2.59.691,4.953,4.953,0,0,1-2.578-.668,4.554,4.554,0,0,1-1.754-1.91,6.515,6.515,0,0,1-.66-2.852v-.641a6.737,6.737,0,0,1,.613-2.949A4.55,4.55,0,0,1-35.7-10.836a4.918,4.918,0,0,1,2.605-.7,4.87,4.87,0,0,1,2.578.688A4.632,4.632,0,0,1-28.75-8.887a6.544,6.544,0,0,1,.637,2.91ZM-30.9-5.93A4.783,4.783,0,0,0-31.469-8.5a1.817,1.817,0,0,0-1.621-.879q-2.062,0-2.18,3.094l-.008.836a4.92,4.92,0,0,0,.555,2.57,1.814,1.814,0,0,0,1.648.9,1.792,1.792,0,0,0,1.6-.883,4.785,4.785,0,0,0,.57-2.539ZM-17.2,0h-2.727l-4.031-7.078V0H-26.7V-11.375h2.742L-19.934-4.3v-7.078H-17.2ZM-9-2.125h-3.758L-13.418,0h-2.93l4.172-11.375H-9.6L-5.395,0H-8.34Zm-3.1-2.117H-9.66l-1.227-3.945ZM-.34-4.023H-1.824V0H-4.566V-11.375H-.09a5,5,0,0,1,3.164.9A3.041,3.041,0,0,1,4.215-7.941a3.693,3.693,0,0,1-.48,1.967A3.41,3.41,0,0,1,2.23-4.71L4.605-.117V0H1.668ZM-1.824-6.133H-.09a1.557,1.557,0,0,0,1.176-.411A1.59,1.59,0,0,0,1.48-7.691a1.608,1.608,0,0,0-.4-1.155A1.542,1.542,0,0,0-.09-9.266H-1.824ZM12.6-3.859V0H9.855V-11.375h4.539a5.287,5.287,0,0,1,2.309.48,3.621,3.621,0,0,1,1.555,1.367,3.734,3.734,0,0,1,.551,2.012,3.291,3.291,0,0,1-1.191,2.66,4.943,4.943,0,0,1-3.27,1Zm0-2.117h1.8a1.7,1.7,0,0,0,1.215-.4A1.48,1.48,0,0,0,16.027-7.5a1.83,1.83,0,0,0-.43-1.273,1.522,1.522,0,0,0-1.172-.484H12.6ZM24.5-4.023H23.012V0H20.27V-11.375h4.477a5,5,0,0,1,3.164.9,3.041,3.041,0,0,1,1.141,2.536,3.693,3.693,0,0,1-.48,1.967,3.41,3.41,0,0,1-1.5,1.264L29.441-.117V0H26.5ZM23.012-6.133h1.734a1.557,1.557,0,0,0,1.176-.411,1.59,1.59,0,0,0,.395-1.147,1.608,1.608,0,0,0-.4-1.155,1.542,1.542,0,0,0-1.172-.419H23.012Zm17.328.68a6.708,6.708,0,0,1-.617,2.945A4.561,4.561,0,0,1,37.969-.535a4.884,4.884,0,0,1-2.59.691A4.953,4.953,0,0,1,32.8-.512a4.554,4.554,0,0,1-1.754-1.91,6.515,6.515,0,0,1-.66-2.852v-.641A6.737,6.737,0,0,1,31-8.863a4.55,4.55,0,0,1,1.758-1.973,4.918,4.918,0,0,1,2.605-.7,4.87,4.87,0,0,1,2.578.688A4.632,4.632,0,0,1,39.7-8.887a6.544,6.544,0,0,1,.637,2.91ZM37.551-5.93A4.783,4.783,0,0,0,36.984-8.5a1.817,1.817,0,0,0-1.621-.879q-2.062,0-2.18,3.094l-.008.836a4.92,4.92,0,0,0,.555,2.57,1.814,1.814,0,0,0,1.648.9,1.792,1.792,0,0,0,1.6-.883,4.785,4.785,0,0,0,.57-2.539ZM46-3.094l2.266-8.281h3.063L47.5,0h-3L40.7-11.375h3.039ZM59.207-4.828H54.895v2.719h5.094V0H52.152V-11.375H60v2.117H54.895v2.4h4.313Zm8.953,0H63.848v2.719h5.094V0H61.105V-11.375h7.852v2.117H63.848v2.4H68.16ZM70.059,0V-11.375h3.664a5.39,5.39,0,0,1,2.711.684,4.805,4.805,0,0,1,1.879,1.93A5.826,5.826,0,0,1,79-5.969v.523a5.86,5.86,0,0,1-.66,2.8A4.826,4.826,0,0,1,76.477-.707,5.271,5.271,0,0,1,73.8,0ZM72.8-9.258v7.148h.953a2.133,2.133,0,0,0,1.813-.84,4.116,4.116,0,0,0,.633-2.5v-.492a4.082,4.082,0,0,0-.633-2.484,2.17,2.17,0,0,0-1.844-.836Zm17.234,3.8a6.708,6.708,0,0,1-.617,2.945A4.561,4.561,0,0,1,87.664-.535a4.884,4.884,0,0,1-2.59.691A4.953,4.953,0,0,1,82.5-.512a4.554,4.554,0,0,1-1.754-1.91,6.515,6.515,0,0,1-.66-2.852v-.641A6.738,6.738,0,0,1,80.7-8.863a4.55,4.55,0,0,1,1.758-1.973,4.918,4.918,0,0,1,2.605-.7,4.87,4.87,0,0,1,2.578.688A4.632,4.632,0,0,1,89.4-8.887a6.544,6.544,0,0,1,.637,2.91ZM87.246-5.93A4.783,4.783,0,0,0,86.68-8.5a1.817,1.817,0,0,0-1.621-.879q-2.062,0-2.18,3.094l-.008.836a4.92,4.92,0,0,0,.555,2.57,1.814,1.814,0,0,0,1.648.9,1.792,1.792,0,0,0,1.6-.883,4.785,4.785,0,0,0,.57-2.539Zm8.43,1.906H94.191V0H91.449V-11.375h4.477a5,5,0,0,1,3.164.9,3.041,3.041,0,0,1,1.141,2.536,3.693,3.693,0,0,1-.48,1.967,3.41,3.41,0,0,1-1.5,1.264l2.375,4.593V0H97.684ZM94.191-6.133h1.734A1.557,1.557,0,0,0,97.1-6.544,1.59,1.59,0,0,0,97.5-7.691a1.608,1.608,0,0,0-.4-1.155,1.542,1.542,0,0,0-1.172-.419H94.191ZM-120.543,16.977a1.127,1.127,0,0,0-.426-.937,5.292,5.292,0,0,0-1.5-.7,14.353,14.353,0,0,1-1.75-.7,3.314,3.314,0,0,1-2.211-2.984A2.676,2.676,0,0,1-125.875,10a3.562,3.562,0,0,1,1.559-1.125,6.065,6.065,0,0,1,2.266-.4,5.305,5.305,0,0,1,2.2.438,3.482,3.482,0,0,1,1.512,1.246A3.254,3.254,0,0,1-117.8,12h-2.734a1.375,1.375,0,0,0-.426-1.078,1.66,1.66,0,0,0-1.152-.383,1.872,1.872,0,0,0-1.16.324,1,1,0,0,0-.426.824,1,1,0,0,0,.469.793,5.911,5.911,0,0,0,1.648.734,10.1,10.1,0,0,1,1.938.816,3.256,3.256,0,0,1,1.844,2.93,2.778,2.778,0,0,1-1.125,2.344,5,5,0,0,1-3.086.852,6.122,6.122,0,0,1-2.5-.5A3.775,3.775,0,0,1-126.2,18.3a3.542,3.542,0,0,1-.566-1.988h2.75a1.745,1.745,0,0,0,.473,1.348,2.234,2.234,0,0,0,1.535.434,1.765,1.765,0,0,0,1.074-.293A.967.967,0,0,0-120.543,16.977Zm11.2-1.8h-4.312v2.719h5.094V20h-7.836V8.625h7.852v2.117h-5.109v2.4h4.313Zm11.211,3.422a4.409,4.409,0,0,1-1.852,1.133,7.986,7.986,0,0,1-2.672.43,4.764,4.764,0,0,1-3.57-1.367,5.534,5.534,0,0,1-1.43-3.8L-107.66,14a6.788,6.788,0,0,1,.594-2.934,4.409,4.409,0,0,1,1.7-1.93,4.807,4.807,0,0,1,2.559-.676,5.039,5.039,0,0,1,3.3.973,4.121,4.121,0,0,1,1.371,2.9h-2.641a2.157,2.157,0,0,0-.609-1.359,1.966,1.966,0,0,0-1.328-.406,1.789,1.789,0,0,0-1.594.875,4.672,4.672,0,0,0-.57,2.5v.688a4.574,4.574,0,0,0,.582,2.559,2.059,2.059,0,0,0,1.832.855,2.3,2.3,0,0,0,1.594-.477V15.8h-1.906V13.922h4.648Zm10.516-9.969V16.07a4.279,4.279,0,0,1-.539,2.191,3.492,3.492,0,0,1-1.547,1.41,5.449,5.449,0,0,1-2.383.484,4.708,4.708,0,0,1-3.273-1.078,3.845,3.845,0,0,1-1.219-2.953v-7.5h2.758V16.18q.047,1.867,1.734,1.867a1.679,1.679,0,0,0,1.289-.469,2.191,2.191,0,0,0,.438-1.523V8.625Zm-4.18-3.047h2.781l-2.172,2.453-2.148,0ZM-76.4,20h-2.727l-4.031-7.078V20H-85.9V8.625h2.742l4.023,7.078V8.625H-76.4Zm14.922-3.852a4.154,4.154,0,0,1-.641,2.1,3.866,3.866,0,0,1-1.645,1.41,5.6,5.6,0,0,1-2.418.5A4.467,4.467,0,0,1-69.715,18.7,6.032,6.032,0,0,1-71,14.57v-.562a6.885,6.885,0,0,1,.582-2.926,4.41,4.41,0,0,1,1.676-1.937,4.676,4.676,0,0,1,2.531-.684,4.9,4.9,0,0,1,3.328,1.09,4.306,4.306,0,0,1,1.43,3h-2.734a2.037,2.037,0,0,0-.523-1.492,2.153,2.153,0,0,0-1.5-.453,1.638,1.638,0,0,0-1.5.766,4.921,4.921,0,0,0-.5,2.445v.8a5.445,5.445,0,0,0,.457,2.6,1.672,1.672,0,0,0,1.574.781,2.106,2.106,0,0,0,1.445-.445,1.89,1.89,0,0,0,.531-1.414Zm5.523-.172h-1.484V20h-2.742V8.625h4.477a5,5,0,0,1,3.164.9A3.041,3.041,0,0,1-51.4,12.059a3.693,3.693,0,0,1-.48,1.967,3.41,3.41,0,0,1-1.5,1.264l2.375,4.593V20h-2.937Zm-1.484-2.109h1.734a1.557,1.557,0,0,0,1.176-.411,1.59,1.59,0,0,0,.395-1.147,1.608,1.608,0,0,0-.4-1.155,1.542,1.542,0,0,0-1.172-.419h-1.734ZM-46.824,20h-2.734V8.625h2.734Zm10.836-9.258H-39.4V20h-2.742V10.742H-45.5V8.625h9.508Zm8.211,4.43H-32.09v2.719H-27V20h-7.836V8.625h7.852v2.117H-32.09v2.4h4.313Zm6.125.8h-1.484V20h-2.742V8.625H-21.4a5,5,0,0,1,3.164.9A3.041,3.041,0,0,1-17.1,12.059a3.693,3.693,0,0,1-.48,1.967,3.41,3.41,0,0,1-1.5,1.264l2.375,4.593V20h-2.937Zm-1.484-2.109H-21.4a1.557,1.557,0,0,0,1.176-.411,1.59,1.59,0,0,0,.395-1.147,1.608,1.608,0,0,0-.4-1.155,1.542,1.542,0,0,0-1.172-.419h-1.734ZM-12.52,20h-2.734V8.625h2.734ZM-.98,14.547A6.708,6.708,0,0,1-1.6,17.492a4.561,4.561,0,0,1-1.754,1.973,4.884,4.884,0,0,1-2.59.691,4.953,4.953,0,0,1-2.578-.668,4.554,4.554,0,0,1-1.754-1.91,6.515,6.515,0,0,1-.66-2.852v-.641a6.737,6.737,0,0,1,.613-2.949A4.55,4.55,0,0,1-8.562,9.164a4.918,4.918,0,0,1,2.605-.7,4.87,4.87,0,0,1,2.578.688,4.632,4.632,0,0,1,1.762,1.957,6.544,6.544,0,0,1,.637,2.91ZM-3.77,14.07A4.783,4.783,0,0,0-4.336,11.5a1.817,1.817,0,0,0-1.621-.879q-2.062,0-2.18,3.094l-.008.836a4.92,4.92,0,0,0,.555,2.57,1.814,1.814,0,0,0,1.648.9,1.792,1.792,0,0,0,1.6-.883,4.785,4.785,0,0,0,.57-2.539ZM6.3,16.977a1.127,1.127,0,0,0-.426-.937,5.292,5.292,0,0,0-1.5-.7,14.353,14.353,0,0,1-1.75-.7A3.314,3.314,0,0,1,.418,11.664,2.676,2.676,0,0,1,.969,10,3.562,3.562,0,0,1,2.527,8.871a6.065,6.065,0,0,1,2.266-.4,5.305,5.305,0,0,1,2.2.438A3.482,3.482,0,0,1,8.5,10.152,3.254,3.254,0,0,1,9.043,12H6.309a1.375,1.375,0,0,0-.426-1.078,1.66,1.66,0,0,0-1.152-.383,1.872,1.872,0,0,0-1.16.324.955.955,0,0,0,.043,1.617,5.911,5.911,0,0,0,1.648.734,10.1,10.1,0,0,1,1.938.816,3.256,3.256,0,0,1,1.844,2.93A2.778,2.778,0,0,1,7.918,19.3a5,5,0,0,1-3.086.852,6.122,6.122,0,0,1-2.5-.5A3.775,3.775,0,0,1,.641,18.3a3.542,3.542,0,0,1-.566-1.988h2.75A1.744,1.744,0,0,0,3.3,17.66a2.234,2.234,0,0,0,1.535.434A1.765,1.765,0,0,0,5.906,17.8.967.967,0,0,0,6.3,16.977Zm15.188-1.8H17.176v2.719H22.27V20H14.434V8.625h7.852v2.117H17.176v2.4h4.313Zm7.766,1.8a1.127,1.127,0,0,0-.426-.937,5.292,5.292,0,0,0-1.5-.7,14.353,14.353,0,0,1-1.75-.7,3.314,3.314,0,0,1-2.211-2.984A2.676,2.676,0,0,1,23.922,10,3.562,3.562,0,0,1,25.48,8.871a6.065,6.065,0,0,1,2.266-.4,5.305,5.305,0,0,1,2.2.438,3.482,3.482,0,0,1,1.512,1.246A3.254,3.254,0,0,1,32,12H29.262a1.375,1.375,0,0,0-.426-1.078,1.66,1.66,0,0,0-1.152-.383,1.872,1.872,0,0,0-1.16.324.955.955,0,0,0,.043,1.617,5.911,5.911,0,0,0,1.648.734,10.1,10.1,0,0,1,1.938.816A3.256,3.256,0,0,1,32,16.961,2.778,2.778,0,0,1,30.871,19.3a5,5,0,0,1-3.086.852,6.122,6.122,0,0,1-2.5-.5A3.775,3.775,0,0,1,23.594,18.3a3.542,3.542,0,0,1-.566-1.988h2.75a1.744,1.744,0,0,0,.473,1.348,2.234,2.234,0,0,0,1.535.434,1.765,1.765,0,0,0,1.074-.293A.967.967,0,0,0,29.254,16.977Zm13.078-6.234H38.918V20H36.176V10.742H32.824V8.625h9.508Zm6.68,7.133H45.254L44.6,20h-2.93L45.84,8.625h2.578L52.621,20H49.676Zm-3.1-2.117h2.445l-1.227-3.945ZM53.449,20V8.625h4.086a5.786,5.786,0,0,1,3.34.8,2.677,2.677,0,0,1,1.145,2.336,2.707,2.707,0,0,1-.406,1.508,2.367,2.367,0,0,1-1.2.922,2.4,2.4,0,0,1,1.367.875,2.544,2.544,0,0,1,.477,1.563A3.012,3.012,0,0,1,61.2,19.145,5.038,5.038,0,0,1,58.066,20Zm2.742-4.836v2.727h1.8a1.709,1.709,0,0,0,1.141-.34,1.189,1.189,0,0,0,.4-.957,1.261,1.261,0,0,0-1.414-1.43Zm0-1.8h1.43a2.031,2.031,0,0,0,1.281-.329,1.168,1.168,0,0,0,.383-.948,1.226,1.226,0,0,0-.414-1.038,2.216,2.216,0,0,0-1.336-.317H56.191Zm10.32,4.523h4.773V20H63.77V8.625h2.742ZM79.5,15.172H75.184v2.719h5.094V20H72.441V8.625h7.852v2.117H75.184v2.4H79.5Zm11.1.977a4.154,4.154,0,0,1-.641,2.1,3.866,3.866,0,0,1-1.645,1.41,5.6,5.6,0,0,1-2.418.5A4.467,4.467,0,0,1,82.363,18.7a6.032,6.032,0,0,1-1.289-4.125v-.562a6.885,6.885,0,0,1,.582-2.926,4.41,4.41,0,0,1,1.676-1.937,4.676,4.676,0,0,1,2.531-.684,4.9,4.9,0,0,1,3.328,1.09,4.306,4.306,0,0,1,1.43,3H87.887a2.037,2.037,0,0,0-.523-1.492,2.153,2.153,0,0,0-1.5-.453,1.638,1.638,0,0,0-1.5.766,4.921,4.921,0,0,0-.5,2.445v.8a5.445,5.445,0,0,0,.457,2.6,1.672,1.672,0,0,0,1.574.781,2.106,2.106,0,0,0,1.445-.445,1.89,1.89,0,0,0,.531-1.414ZM94.816,20H92.082V8.625h2.734Zm1.906,0V8.625h3.664a5.39,5.39,0,0,1,2.711.684,4.805,4.805,0,0,1,1.879,1.93,5.826,5.826,0,0,1,.684,2.793v.523a5.86,5.86,0,0,1-.66,2.8,4.826,4.826,0,0,1-1.859,1.938,5.271,5.271,0,0,1-2.676.707Zm2.742-9.258v7.148h.953a2.133,2.133,0,0,0,1.813-.84,4.116,4.116,0,0,0,.633-2.5v-.492a4.082,4.082,0,0,0-.633-2.484,2.17,2.17,0,0,0-1.844-.836Zm17.234,3.8a6.708,6.708,0,0,1-.617,2.945,4.561,4.561,0,0,1-1.754,1.973,4.884,4.884,0,0,1-2.59.691,4.953,4.953,0,0,1-2.578-.668,4.554,4.554,0,0,1-1.754-1.91,6.515,6.515,0,0,1-.66-2.852v-.641a6.738,6.738,0,0,1,.613-2.949,4.55,4.55,0,0,1,1.758-1.973,5.2,5.2,0,0,1,5.184-.008,4.632,4.632,0,0,1,1.762,1.957,6.544,6.544,0,0,1,.637,2.91Zm-2.789-.477a4.783,4.783,0,0,0-.566-2.574,1.817,1.817,0,0,0-1.621-.879q-2.062,0-2.18,3.094l-.008.836a4.92,4.92,0,0,0,.555,2.57,1.814,1.814,0,0,0,1.648.9,1.792,1.792,0,0,0,1.6-.883,4.785,4.785,0,0,0,.57-2.539Zm10.07,2.906a1.127,1.127,0,0,0-.426-.937,5.292,5.292,0,0,0-1.5-.7,14.353,14.353,0,0,1-1.75-.7,3.314,3.314,0,0,1-2.211-2.984A2.676,2.676,0,0,1,118.648,10a3.562,3.562,0,0,1,1.559-1.125,6.065,6.065,0,0,1,2.266-.4,5.305,5.305,0,0,1,2.2.438,3.482,3.482,0,0,1,1.512,1.246A3.254,3.254,0,0,1,126.723,12h-2.734a1.375,1.375,0,0,0-.426-1.078,1.66,1.66,0,0,0-1.152-.383,1.872,1.872,0,0,0-1.16.324.955.955,0,0,0,.043,1.617,5.911,5.911,0,0,0,1.648.734,10.1,10.1,0,0,1,1.938.816,3.256,3.256,0,0,1,1.844,2.93A2.778,2.778,0,0,1,125.6,19.3a5,5,0,0,1-3.086.852,6.122,6.122,0,0,1-2.5-.5A3.775,3.775,0,0,1,118.32,18.3a3.542,3.542,0,0,1-.566-1.988h2.75a1.745,1.745,0,0,0,.473,1.348,2.234,2.234,0,0,0,1.535.434,1.765,1.765,0,0,0,1.074-.293A.967.967,0,0,0,123.98,16.977Z" transform="translate(771.125 3680.25)" fill="#fff"/>
    <path id="Trazado_676002" data-name="Trazado 676002" d="M-15.551-3.852a4.154,4.154,0,0,1-.641,2.1,3.866,3.866,0,0,1-1.645,1.41,5.6,5.6,0,0,1-2.418.5A4.467,4.467,0,0,1-23.785-1.3,6.032,6.032,0,0,1-25.074-5.43v-.562a6.885,6.885,0,0,1,.582-2.926,4.41,4.41,0,0,1,1.676-1.937,4.676,4.676,0,0,1,2.531-.684,4.9,4.9,0,0,1,3.328,1.09,4.306,4.306,0,0,1,1.43,3h-2.734a2.037,2.037,0,0,0-.523-1.492,2.153,2.153,0,0,0-1.5-.453,1.638,1.638,0,0,0-1.5.766,4.921,4.921,0,0,0-.5,2.445v.8a5.445,5.445,0,0,0,.457,2.6,1.672,1.672,0,0,0,1.574.781,2.106,2.106,0,0,0,1.445-.445,1.89,1.89,0,0,0,.531-1.414Zm5.523-.172h-1.484V0h-2.742V-11.375h4.477a5,5,0,0,1,3.164.9A3.041,3.041,0,0,1-5.473-7.941a3.693,3.693,0,0,1-.48,1.967,3.41,3.41,0,0,1-1.5,1.264L-5.082-.117V0H-8.02Zm-1.484-2.109h1.734A1.557,1.557,0,0,0-8.6-6.544a1.59,1.59,0,0,0,.395-1.147,1.608,1.608,0,0,0-.4-1.155,1.542,1.542,0,0,0-1.172-.419h-1.734Zm14.75,1.3H-1.074v2.719H4.02V0H-3.816V-11.375H4.035v2.117H-1.074v2.4H3.238Zm8.359,2.7H7.84L7.184,0H4.254L8.426-11.375H11L15.207,0H12.262ZM8.5-4.242h2.445L9.715-8.187Zm11.766.219H18.777V0H16.035V-11.375h4.477a5,5,0,0,1,3.164.9,3.041,3.041,0,0,1,1.141,2.536,3.693,3.693,0,0,1-.48,1.967,3.41,3.41,0,0,1-1.5,1.264L25.207-.117V0H22.27ZM18.777-6.133h1.734a1.557,1.557,0,0,0,1.176-.411,1.59,1.59,0,0,0,.395-1.147,1.608,1.608,0,0,0-.4-1.155,1.542,1.542,0,0,0-1.172-.419H18.777ZM-58.484,20V8.625H-54.4a5.786,5.786,0,0,1,3.34.8,2.677,2.677,0,0,1,1.145,2.336,2.707,2.707,0,0,1-.406,1.508,2.367,2.367,0,0,1-1.2.922,2.4,2.4,0,0,1,1.367.875,2.544,2.544,0,0,1,.477,1.563,3.012,3.012,0,0,1-1.059,2.512A5.038,5.038,0,0,1-53.867,20Zm2.742-4.836v2.727h1.8a1.709,1.709,0,0,0,1.141-.34,1.189,1.189,0,0,0,.4-.957,1.261,1.261,0,0,0-1.414-1.43Zm0-1.8h1.43a2.031,2.031,0,0,0,1.281-.329,1.168,1.168,0,0,0,.383-.948,1.226,1.226,0,0,0-.414-1.038,2.216,2.216,0,0,0-1.336-.317h-1.344ZM-41.7,17.875h-3.758L-46.117,20h-2.93l4.172-11.375H-42.3L-38.094,20h-2.945Zm-3.1-2.117h2.445l-1.227-3.945ZM-31.4,16.977a1.127,1.127,0,0,0-.426-.937,5.292,5.292,0,0,0-1.5-.7,14.353,14.353,0,0,1-1.75-.7,3.314,3.314,0,0,1-2.211-2.984A2.676,2.676,0,0,1-36.73,10a3.562,3.562,0,0,1,1.559-1.125,6.065,6.065,0,0,1,2.266-.4,5.305,5.305,0,0,1,2.2.438A3.482,3.482,0,0,1-29.2,10.152,3.254,3.254,0,0,1-28.656,12h-2.734a1.375,1.375,0,0,0-.426-1.078,1.66,1.66,0,0,0-1.152-.383,1.872,1.872,0,0,0-1.16.324,1,1,0,0,0-.426.824,1,1,0,0,0,.469.793,5.911,5.911,0,0,0,1.648.734,10.1,10.1,0,0,1,1.938.816,3.256,3.256,0,0,1,1.844,2.93A2.778,2.778,0,0,1-29.781,19.3a5,5,0,0,1-3.086.852,6.122,6.122,0,0,1-2.5-.5A3.775,3.775,0,0,1-37.059,18.3a3.542,3.542,0,0,1-.566-1.988h2.75A1.744,1.744,0,0,0-34.4,17.66a2.234,2.234,0,0,0,1.535.434,1.765,1.765,0,0,0,1.074-.293A.967.967,0,0,0-31.4,16.977Zm11.2-1.8h-4.312v2.719h5.094V20H-27.25V8.625H-19.4v2.117h-5.109v2.4H-20.2ZM-14.312,20V8.625h3.664a5.39,5.39,0,0,1,2.711.684,4.805,4.805,0,0,1,1.879,1.93,5.826,5.826,0,0,1,.684,2.793v.523a5.86,5.86,0,0,1-.66,2.8,4.826,4.826,0,0,1-1.859,1.938A5.271,5.271,0,0,1-10.57,20Zm2.742-9.258v7.148h.953a2.133,2.133,0,0,0,1.813-.84,4.116,4.116,0,0,0,.633-2.5v-.492A4.082,4.082,0,0,0-8.8,11.578a2.17,2.17,0,0,0-1.844-.836Zm14.656,4.43H-1.227v2.719H3.867V20H-3.969V8.625H3.883v2.117H-1.227v2.4H3.086ZM8.969,20V8.625h3.664a5.39,5.39,0,0,1,2.711.684,4.805,4.805,0,0,1,1.879,1.93,5.826,5.826,0,0,1,.684,2.793v.523a5.86,5.86,0,0,1-.66,2.8,4.826,4.826,0,0,1-1.859,1.938A5.271,5.271,0,0,1,12.711,20Zm2.742-9.258v7.148h.953a2.133,2.133,0,0,0,1.813-.84,4.116,4.116,0,0,0,.633-2.5v-.492a4.082,4.082,0,0,0-.633-2.484,2.17,2.17,0,0,0-1.844-.836Zm14.063,7.133H22.016L21.359,20H18.43L22.6,8.625H25.18L29.383,20H26.438Zm-3.1-2.117h2.445l-1.227-3.945ZM38.2,10.742H34.789V20H32.047V10.742H28.7V8.625H38.2Zm10.57,3.8a6.708,6.708,0,0,1-.617,2.945A4.561,4.561,0,0,1,46.4,19.465a4.884,4.884,0,0,1-2.59.691,4.953,4.953,0,0,1-2.578-.668,4.554,4.554,0,0,1-1.754-1.91,6.515,6.515,0,0,1-.66-2.852v-.641a6.737,6.737,0,0,1,.613-2.949,4.55,4.55,0,0,1,1.758-1.973,5.2,5.2,0,0,1,5.184-.008,4.632,4.632,0,0,1,1.762,1.957,6.544,6.544,0,0,1,.637,2.91Zm-2.789-.477a4.783,4.783,0,0,0-.566-2.574,1.817,1.817,0,0,0-1.621-.879q-2.062,0-2.18,3.094l-.008.836a4.92,4.92,0,0,0,.555,2.57,1.814,1.814,0,0,0,1.648.9,1.792,1.792,0,0,0,1.6-.883,4.785,4.785,0,0,0,.57-2.539Zm10.07,2.906a1.127,1.127,0,0,0-.426-.937,5.292,5.292,0,0,0-1.5-.7,14.353,14.353,0,0,1-1.75-.7,3.314,3.314,0,0,1-2.211-2.984A2.676,2.676,0,0,1,50.723,10a3.562,3.562,0,0,1,1.559-1.125,6.065,6.065,0,0,1,2.266-.4,5.305,5.305,0,0,1,2.2.438,3.482,3.482,0,0,1,1.512,1.246A3.254,3.254,0,0,1,58.8,12H56.063a1.375,1.375,0,0,0-.426-1.078,1.66,1.66,0,0,0-1.152-.383,1.872,1.872,0,0,0-1.16.324.955.955,0,0,0,.043,1.617,5.911,5.911,0,0,0,1.648.734,10.1,10.1,0,0,1,1.938.816,3.256,3.256,0,0,1,1.844,2.93A2.778,2.778,0,0,1,57.672,19.3a5,5,0,0,1-3.086.852,6.122,6.122,0,0,1-2.5-.5A3.775,3.775,0,0,1,50.395,18.3a3.542,3.542,0,0,1-.566-1.988h2.75a1.744,1.744,0,0,0,.473,1.348,2.234,2.234,0,0,0,1.535.434A1.765,1.765,0,0,0,55.66,17.8.967.967,0,0,0,56.055,16.977Z" transform="translate(1016 3680.25)" fill="#fff"/>
    <path id="Trazado_675998" data-name="Trazado 675998" d="M-.7-3.023a1.127,1.127,0,0,0-.426-.937,5.292,5.292,0,0,0-1.5-.7,14.353,14.353,0,0,1-1.75-.7A3.314,3.314,0,0,1-6.578-8.336,2.676,2.676,0,0,1-6.027-10a3.562,3.562,0,0,1,1.559-1.125,6.065,6.065,0,0,1,2.266-.4,5.305,5.305,0,0,1,2.2.438A3.482,3.482,0,0,1,1.508-9.848,3.254,3.254,0,0,1,2.047-8H-.687a1.375,1.375,0,0,0-.426-1.078,1.66,1.66,0,0,0-1.152-.383,1.872,1.872,0,0,0-1.16.324,1,1,0,0,0-.426.824,1,1,0,0,0,.469.793,5.911,5.911,0,0,0,1.648.734A10.1,10.1,0,0,1,.2-5.969a3.256,3.256,0,0,1,1.844,2.93A2.778,2.778,0,0,1,.922-.7,5,5,0,0,1-2.164.156a6.122,6.122,0,0,1-2.5-.5A3.775,3.775,0,0,1-6.355-1.7a3.542,3.542,0,0,1-.566-1.988h2.75A1.744,1.744,0,0,0-3.7-2.34a2.234,2.234,0,0,0,1.535.434A1.765,1.765,0,0,0-1.09-2.2.967.967,0,0,0-.7-3.023ZM6.375,0H3.641V-11.375H6.375Z" transform="translate(508.375 3621.25)" fill="#fff"/>
    <path id="Trazado_675999" data-name="Trazado 675999" d="M-.781,0H-3.508L-7.539-7.078V0h-2.742V-11.375h2.742L-3.516-4.3v-7.078H-.781ZM10.586-5.453a6.708,6.708,0,0,1-.617,2.945A4.561,4.561,0,0,1,8.215-.535a4.884,4.884,0,0,1-2.59.691A4.953,4.953,0,0,1,3.047-.512a4.554,4.554,0,0,1-1.754-1.91,6.515,6.515,0,0,1-.66-2.852v-.641a6.737,6.737,0,0,1,.613-2.949A4.55,4.55,0,0,1,3-10.836a4.918,4.918,0,0,1,2.605-.7,4.87,4.87,0,0,1,2.578.688A4.632,4.632,0,0,1,9.949-8.887a6.544,6.544,0,0,1,.637,2.91ZM7.8-5.93A4.783,4.783,0,0,0,7.23-8.5a1.817,1.817,0,0,0-1.621-.879q-2.062,0-2.18,3.094l-.008.836a4.92,4.92,0,0,0,.555,2.57,1.814,1.814,0,0,0,1.648.9,1.792,1.792,0,0,0,1.6-.883A4.785,4.785,0,0,0,7.8-5.406Z" transform="translate(611.375 3621.25)" fill="#fff"/>
    <path id="Trazado_675989" data-name="Trazado 675989" d="M-19.852,0h-2.734V-11.375h2.734ZM-8.445,0h-2.727L-15.2-7.078V0h-2.742V-11.375H-15.2L-11.18-4.3v-7.078h2.734Zm4.656,0H-6.523V-11.375h2.734ZM7.32-3.852a4.154,4.154,0,0,1-.641,2.1A3.866,3.866,0,0,1,5.035-.344a5.6,5.6,0,0,1-2.418.5A4.467,4.467,0,0,1-.914-1.3,6.032,6.032,0,0,1-2.2-5.43v-.562a6.885,6.885,0,0,1,.582-2.926A4.41,4.41,0,0,1,.055-10.855a4.676,4.676,0,0,1,2.531-.684,4.9,4.9,0,0,1,3.328,1.09,4.306,4.306,0,0,1,1.43,3H4.609a2.037,2.037,0,0,0-.523-1.492,2.153,2.153,0,0,0-1.5-.453,1.638,1.638,0,0,0-1.5.766,4.921,4.921,0,0,0-.5,2.445v.8a5.445,5.445,0,0,0,.457,2.6,1.672,1.672,0,0,0,1.574.781,2.106,2.106,0,0,0,1.445-.445,1.89,1.89,0,0,0,.531-1.414ZM11.539,0H8.8V-11.375h2.734ZM23.078-5.453a6.708,6.708,0,0,1-.617,2.945A4.561,4.561,0,0,1,20.707-.535a4.884,4.884,0,0,1-2.59.691,4.953,4.953,0,0,1-2.578-.668,4.554,4.554,0,0,1-1.754-1.91,6.515,6.515,0,0,1-.66-2.852v-.641a6.737,6.737,0,0,1,.613-2.949A4.55,4.55,0,0,1,15.5-10.836a4.918,4.918,0,0,1,2.605-.7,4.87,4.87,0,0,1,2.578.688,4.632,4.632,0,0,1,1.762,1.957,6.544,6.544,0,0,1,.637,2.91ZM20.289-5.93A4.783,4.783,0,0,0,19.723-8.5,1.817,1.817,0,0,0,18.1-9.383q-2.062,0-2.18,3.094l-.008.836a4.92,4.92,0,0,0,.555,2.57,1.814,1.814,0,0,0,1.648.9,1.792,1.792,0,0,0,1.6-.883,4.785,4.785,0,0,0,.57-2.539Z" transform="translate(739.375 3037.25)" fill="#fff"/>
    <path id="Trazado_675990" data-name="Trazado 675990" d="M-32.523,0H-35.25l-4.031-7.078V0h-2.742V-11.375h2.742L-35.258-4.3v-7.078h2.734Zm8.789-4.828h-4.312v2.719h5.094V0h-7.836V-11.375h7.852v2.117h-5.109v2.4h4.313Zm11.1.977a4.154,4.154,0,0,1-.641,2.1,3.866,3.866,0,0,1-1.645,1.41,5.6,5.6,0,0,1-2.418.5A4.467,4.467,0,0,1-20.867-1.3,6.032,6.032,0,0,1-22.156-5.43v-.562a6.885,6.885,0,0,1,.582-2.926A4.41,4.41,0,0,1-19.9-10.855a4.676,4.676,0,0,1,2.531-.684,4.9,4.9,0,0,1,3.328,1.09,4.306,4.306,0,0,1,1.43,3h-2.734a2.037,2.037,0,0,0-.523-1.492,2.153,2.153,0,0,0-1.5-.453,1.638,1.638,0,0,0-1.5.766,4.921,4.921,0,0,0-.5,2.445v.8a5.445,5.445,0,0,0,.457,2.6,1.672,1.672,0,0,0,1.574.781,2.106,2.106,0,0,0,1.445-.445,1.89,1.89,0,0,0,.531-1.414Zm8.352-.977H-8.594v2.719H-3.5V0h-7.836V-11.375h7.852v2.117H-8.594v2.4h4.313Zm7.766,1.8a1.127,1.127,0,0,0-.426-.937,5.292,5.292,0,0,0-1.5-.7,14.353,14.353,0,0,1-1.75-.7A3.314,3.314,0,0,1-2.4-8.336,2.676,2.676,0,0,1-1.848-10,3.562,3.562,0,0,1-.289-11.129a6.065,6.065,0,0,1,2.266-.4,5.305,5.305,0,0,1,2.2.438A3.482,3.482,0,0,1,5.688-9.848,3.254,3.254,0,0,1,6.227-8H3.492a1.375,1.375,0,0,0-.426-1.078,1.66,1.66,0,0,0-1.152-.383,1.872,1.872,0,0,0-1.16.324,1,1,0,0,0-.426.824A1,1,0,0,0,.8-7.52a5.911,5.911,0,0,0,1.648.734,10.1,10.1,0,0,1,1.938.816,3.256,3.256,0,0,1,1.844,2.93A2.778,2.778,0,0,1,5.1-.7,5,5,0,0,1,2.016.156a6.122,6.122,0,0,1-2.5-.5A3.775,3.775,0,0,1-2.176-1.7a3.542,3.542,0,0,1-.566-1.988H.008A1.744,1.744,0,0,0,.48-2.34a2.234,2.234,0,0,0,1.535.434A1.765,1.765,0,0,0,3.09-2.2.967.967,0,0,0,3.484-3.023ZM10.555,0H7.82V-11.375h2.734ZM21.391-9.258H17.977V0H15.234V-9.258H11.883v-2.117h9.508Zm6.68,7.133H24.313L23.656,0h-2.93L24.9-11.375h2.578L31.68,0H28.734Zm-3.1-2.117h2.445L26.188-8.187ZM42.008,0H39.281L35.25-7.078V0H32.508V-11.375H35.25L39.273-4.3v-7.078h2.734ZM-51.9,16.141V20h-2.742V8.625H-50.1a5.287,5.287,0,0,1,2.309.48,3.621,3.621,0,0,1,1.555,1.367,3.734,3.734,0,0,1,.551,2.012,3.291,3.291,0,0,1-1.191,2.66,4.943,4.943,0,0,1-3.27,1Zm0-2.117h1.8a1.7,1.7,0,0,0,1.215-.4,1.48,1.48,0,0,0,.418-1.125,1.83,1.83,0,0,0-.43-1.273,1.522,1.522,0,0,0-1.172-.484H-51.9ZM-40,15.977h-1.484V20h-2.742V8.625h4.477a5,5,0,0,1,3.164.9,3.041,3.041,0,0,1,1.141,2.536,3.693,3.693,0,0,1-.48,1.967,3.41,3.41,0,0,1-1.5,1.264l2.375,4.593V20h-2.937Zm-1.484-2.109h1.734a1.557,1.557,0,0,0,1.176-.411,1.59,1.59,0,0,0,.395-1.147,1.608,1.608,0,0,0-.4-1.155,1.542,1.542,0,0,0-1.172-.419h-1.734Zm17.328.68a6.708,6.708,0,0,1-.617,2.945,4.561,4.561,0,0,1-1.754,1.973,4.884,4.884,0,0,1-2.59.691,4.953,4.953,0,0,1-2.578-.668,4.554,4.554,0,0,1-1.754-1.91,6.515,6.515,0,0,1-.66-2.852v-.641a6.737,6.737,0,0,1,.613-2.949,4.55,4.55,0,0,1,1.758-1.973,4.918,4.918,0,0,1,2.605-.7,4.87,4.87,0,0,1,2.578.688,4.632,4.632,0,0,1,1.762,1.957,6.544,6.544,0,0,1,.637,2.91Zm-2.789-.477a4.783,4.783,0,0,0-.566-2.574,1.817,1.817,0,0,0-1.621-.879q-2.062,0-2.18,3.094l-.008.836a4.92,4.92,0,0,0,.555,2.57,1.814,1.814,0,0,0,1.648.9,1.792,1.792,0,0,0,1.6-.883,4.785,4.785,0,0,0,.57-2.539Zm8.445,2.836,2.266-8.281h3.063L-17,20h-3L-23.8,8.625h3.039Zm13.211-1.734H-9.6v2.719h5.094V20h-7.836V8.625h7.852v2.117H-9.6v2.4h4.313Zm8.953,0H-.648v2.719H4.445V20H-3.391V8.625H4.461v2.117H-.648v2.4H3.664ZM5.563,20V8.625H9.227a5.39,5.39,0,0,1,2.711.684,4.805,4.805,0,0,1,1.879,1.93,5.826,5.826,0,0,1,.684,2.793v.523a5.86,5.86,0,0,1-.66,2.8,4.826,4.826,0,0,1-1.859,1.938A5.271,5.271,0,0,1,9.3,20ZM8.3,10.742v7.148h.953a2.133,2.133,0,0,0,1.813-.84,4.116,4.116,0,0,0,.633-2.5v-.492a4.082,4.082,0,0,0-.633-2.484,2.17,2.17,0,0,0-1.844-.836Zm17.234,3.8a6.708,6.708,0,0,1-.617,2.945,4.561,4.561,0,0,1-1.754,1.973,4.884,4.884,0,0,1-2.59.691A4.953,4.953,0,0,1,18,19.488a4.554,4.554,0,0,1-1.754-1.91,6.515,6.515,0,0,1-.66-2.852v-.641a6.737,6.737,0,0,1,.613-2.949,4.55,4.55,0,0,1,1.758-1.973,5.2,5.2,0,0,1,5.184-.008A4.632,4.632,0,0,1,24.9,11.113a6.544,6.544,0,0,1,.637,2.91ZM22.75,14.07a4.783,4.783,0,0,0-.566-2.574,1.817,1.817,0,0,0-1.621-.879q-2.062,0-2.18,3.094l-.008.836a4.92,4.92,0,0,0,.555,2.57,1.814,1.814,0,0,0,1.648.9,1.792,1.792,0,0,0,1.6-.883,4.785,4.785,0,0,0,.57-2.539Zm8.43,1.906H29.7V20H26.953V8.625H31.43a5,5,0,0,1,3.164.9,3.041,3.041,0,0,1,1.141,2.536,3.693,3.693,0,0,1-.48,1.967,3.41,3.41,0,0,1-1.5,1.264l2.375,4.593V20H33.188ZM29.7,13.867H31.43a1.557,1.557,0,0,0,1.176-.411A1.59,1.59,0,0,0,33,12.309a1.608,1.608,0,0,0-.4-1.155,1.542,1.542,0,0,0-1.172-.419H29.7Zm14.75,1.3H40.133v2.719h5.094V20H37.391V8.625h7.852v2.117H40.133v2.4h4.313Zm7.766,1.8a1.127,1.127,0,0,0-.426-.937,5.292,5.292,0,0,0-1.5-.7,14.353,14.353,0,0,1-1.75-.7,3.314,3.314,0,0,1-2.211-2.984A2.676,2.676,0,0,1,46.879,10a3.562,3.562,0,0,1,1.559-1.125,6.065,6.065,0,0,1,2.266-.4,5.305,5.305,0,0,1,2.2.438,3.482,3.482,0,0,1,1.512,1.246A3.254,3.254,0,0,1,54.953,12H52.219a1.375,1.375,0,0,0-.426-1.078,1.66,1.66,0,0,0-1.152-.383,1.872,1.872,0,0,0-1.16.324.955.955,0,0,0,.043,1.617,5.911,5.911,0,0,0,1.648.734,10.1,10.1,0,0,1,1.938.816,3.256,3.256,0,0,1,1.844,2.93A2.778,2.778,0,0,1,53.828,19.3a5,5,0,0,1-3.086.852,6.122,6.122,0,0,1-2.5-.5A3.775,3.775,0,0,1,46.551,18.3a3.542,3.542,0,0,1-.566-1.988h2.75a1.744,1.744,0,0,0,.473,1.348,2.234,2.234,0,0,0,1.535.434,1.765,1.765,0,0,0,1.074-.293A.967.967,0,0,0,52.211,16.977Z" transform="translate(739.375 3098.25)" fill="#fff"/>
    <path id="Trazado_675992" data-name="Trazado 675992" d="M-.7-3.023a1.127,1.127,0,0,0-.426-.937,5.292,5.292,0,0,0-1.5-.7,14.353,14.353,0,0,1-1.75-.7A3.314,3.314,0,0,1-6.578-8.336,2.676,2.676,0,0,1-6.027-10a3.562,3.562,0,0,1,1.559-1.125,6.065,6.065,0,0,1,2.266-.4,5.305,5.305,0,0,1,2.2.438A3.482,3.482,0,0,1,1.508-9.848,3.254,3.254,0,0,1,2.047-8H-.687a1.375,1.375,0,0,0-.426-1.078,1.66,1.66,0,0,0-1.152-.383,1.872,1.872,0,0,0-1.16.324,1,1,0,0,0-.426.824,1,1,0,0,0,.469.793,5.911,5.911,0,0,0,1.648.734A10.1,10.1,0,0,1,.2-5.969a3.256,3.256,0,0,1,1.844,2.93A2.778,2.778,0,0,1,.922-.7,5,5,0,0,1-2.164.156a6.122,6.122,0,0,1-2.5-.5A3.775,3.775,0,0,1-6.355-1.7a3.542,3.542,0,0,1-.566-1.988h2.75A1.744,1.744,0,0,0-3.7-2.34a2.234,2.234,0,0,0,1.535.434A1.765,1.765,0,0,0-1.09-2.2.967.967,0,0,0-.7-3.023ZM6.375,0H3.641V-11.375H6.375Z" transform="translate(691.375 3181.25)" fill="#fff"/>
    <path id="Trazado_675991" data-name="Trazado 675991" d="M-.781,0H-3.508L-7.539-7.078V0h-2.742V-11.375h2.742L-3.516-4.3v-7.078H-.781ZM10.586-5.453a6.708,6.708,0,0,1-.617,2.945A4.561,4.561,0,0,1,8.215-.535a4.884,4.884,0,0,1-2.59.691A4.953,4.953,0,0,1,3.047-.512a4.554,4.554,0,0,1-1.754-1.91,6.515,6.515,0,0,1-.66-2.852v-.641a6.737,6.737,0,0,1,.613-2.949A4.55,4.55,0,0,1,3-10.836a4.918,4.918,0,0,1,2.605-.7,4.87,4.87,0,0,1,2.578.688A4.632,4.632,0,0,1,9.949-8.887a6.544,6.544,0,0,1,.637,2.91ZM7.8-5.93A4.783,4.783,0,0,0,7.23-8.5a1.817,1.817,0,0,0-1.621-.879q-2.062,0-2.18,3.094l-.008.836a4.92,4.92,0,0,0,.555,2.57,1.814,1.814,0,0,0,1.648.9,1.792,1.792,0,0,0,1.6-.883A4.785,4.785,0,0,0,7.8-5.406Z" transform="translate(787.375 3181.25)" fill="#fff"/>
    <path id="Trazado_676003" data-name="Trazado 676003" d="M-4.383-4.531H-8.8V0h-2.742V-11.375h7.609v2.117H-8.8v2.617h4.422ZM.125,0H-2.609V-11.375H.125ZM11.531,0H8.8L4.773-7.078V0H2.031V-11.375H4.773L8.8-4.3v-7.078h2.734Z" transform="translate(1164.375 3690.25)" fill="#fff"/>
    <rect id="Rectángulo_37048" data-name="Rectángulo 37048" width="315" height="37.977" transform="translate(180 3100.431)" fill="#ffca00"/>
    <rect id="Rectángulo_37049" data-name="Rectángulo 37049" width="213.713" height="37.977" transform="translate(1218 3594.431)" fill="#fe502d"/>
    <path id="Unión_14" data-name="Unión 14" d="M16.672,95.524l-8.054,8.054-2.12-2.12L14.552,93.4,6.5,85.35l2.12-2.119,8.054,8.054,8.054-8.054,2.12,2.119L18.791,93.4l8.054,8.054-2.12,2.12Zm0-38.366L8.618,65.212,6.5,63.091l8.054-8.054L6.5,46.983l2.12-2.12,8.054,8.054,8.054-8.054,2.12,2.12-8.054,8.054,8.054,8.054-2.12,2.121Zm0-38.366L8.618,26.845,6.5,24.726l8.054-8.054L6.5,8.618,8.618,6.5l8.054,8.054L24.726,6.5l2.12,2.12-8.054,8.054,8.054,8.054-2.12,2.12Z" transform="translate(1233.422 3051.887) rotate(-90)" fill="#ffca00"/>
  </g>
</svg>
