<svg xmlns="http://www.w3.org/2000/svg" width="400.231" height="1373" viewBox="0 0 400.231 1373">
  <g id="Grupo_1009751" data-name="Grupo 1009751" transform="translate(5385.231 8777)">
    <g id="Grupo_118307" data-name="Grupo 118307" transform="translate(-2034 -4129)">
      <circle id="Elipse_4070" data-name="Elipse 4070" cx="3.798" cy="3.798" r="3.798" transform="translate(-3203.868 -3551)" fill="#ffca00"/>
      <circle id="Elipse_4076" data-name="Elipse 4076" cx="3.798" cy="3.798" r="3.798" transform="translate(-3242.356 -3551)" fill="#ffca00"/>
      <circle id="Elipse_4082" data-name="Elipse 4082" cx="3.798" cy="3.798" r="3.798" transform="translate(-3280.845 -3551)" fill="#ffca00"/>
      <circle id="Elipse_4088" data-name="Elipse 4088" cx="3.798" cy="3.798" r="3.798" transform="translate(-3320.347 -3551)" fill="#ffca00"/>
      <circle id="Elipse_4069" data-name="Elipse 4069" cx="3.798" cy="3.798" r="3.798" transform="translate(-3203.868 -3510.485)" fill="#ffca00"/>
      <circle id="Elipse_4075" data-name="Elipse 4075" cx="3.798" cy="3.798" r="3.798" transform="translate(-3242.356 -3510.485)" fill="#ffca00"/>
      <circle id="Elipse_4081" data-name="Elipse 4081" cx="3.798" cy="3.798" r="3.798" transform="translate(-3280.845 -3510.485)" fill="#ffca00"/>
      <circle id="Elipse_4087" data-name="Elipse 4087" cx="3.798" cy="3.798" r="3.798" transform="translate(-3320.347 -3510.485)" fill="#ffca00"/>
      <circle id="Elipse_4068" data-name="Elipse 4068" cx="3.798" cy="3.798" r="3.798" transform="translate(-3203.868 -3469.971)" fill="#ffca00"/>
      <circle id="Elipse_4074" data-name="Elipse 4074" cx="3.798" cy="3.798" r="3.798" transform="translate(-3242.356 -3469.971)" fill="#ffca00"/>
      <circle id="Elipse_4080" data-name="Elipse 4080" cx="3.798" cy="3.798" r="3.798" transform="translate(-3280.845 -3469.971)" fill="#ffca00"/>
      <circle id="Elipse_4086" data-name="Elipse 4086" cx="3.798" cy="3.798" r="3.798" transform="translate(-3320.347 -3469.971)" fill="#ffca00"/>
      <circle id="Elipse_4067" data-name="Elipse 4067" cx="3.798" cy="3.798" r="3.798" transform="translate(-3203.868 -3429.456)" fill="#ffca00"/>
      <circle id="Elipse_4073" data-name="Elipse 4073" cx="3.798" cy="3.798" r="3.798" transform="translate(-3242.356 -3429.456)" fill="#ffca00"/>
      <circle id="Elipse_4079" data-name="Elipse 4079" cx="3.798" cy="3.798" r="3.798" transform="translate(-3280.845 -3429.456)" fill="#ffca00"/>
      <circle id="Elipse_4085" data-name="Elipse 4085" cx="3.798" cy="3.798" r="3.798" transform="translate(-3320.347 -3429.456)" fill="#ffca00"/>
      <circle id="Elipse_4066" data-name="Elipse 4066" cx="3.798" cy="3.798" r="3.798" transform="translate(-3203.868 -3388.942)" fill="#ffca00"/>
      <circle id="Elipse_4072" data-name="Elipse 4072" cx="3.798" cy="3.798" r="3.798" transform="translate(-3242.356 -3388.942)" fill="#ffca00"/>
      <circle id="Elipse_4078" data-name="Elipse 4078" cx="3.798" cy="3.798" r="3.798" transform="translate(-3280.845 -3388.942)" fill="#ffca00"/>
      <circle id="Elipse_4084" data-name="Elipse 4084" cx="3.798" cy="3.798" r="3.798" transform="translate(-3320.347 -3388.942)" fill="#ffca00"/>
      <circle id="Elipse_4065" data-name="Elipse 4065" cx="3.798" cy="3.798" r="3.798" transform="translate(-3203.868 -3348.427)" fill="#ffca00"/>
      <circle id="Elipse_4071" data-name="Elipse 4071" cx="3.798" cy="3.798" r="3.798" transform="translate(-3242.356 -3348.427)" fill="#ffca00"/>
      <circle id="Elipse_4077" data-name="Elipse 4077" cx="3.798" cy="3.798" r="3.798" transform="translate(-3280.845 -3348.427)" fill="#ffca00"/>
      <circle id="Elipse_4083" data-name="Elipse 4083" cx="3.798" cy="3.798" r="3.798" transform="translate(-3320.347 -3348.427)" fill="#ffca00"/>
    </g>
    <rect id="Rectángulo_37075" data-name="Rectángulo 37075" width="400.231" height="1373" rx="20" transform="translate(-5385.231 -8777)" fill="#ffca00" opacity="0.3"/>
    <rect id="Rectángulo_37076" data-name="Rectángulo 37076" width="162" height="53.5" rx="10" transform="translate(-5266 -8741.051)" fill="#2d54fe"/>
    <rect id="Rectángulo_37077" data-name="Rectángulo 37077" width="161.5" height="53.5" rx="10" transform="translate(-5265.5 -8669.051)" fill="#2d54fe"/>
    <rect id="Rectángulo_37079" data-name="Rectángulo 37079" width="63.5" height="53.5" rx="10" transform="translate(-5167.5 -8583.051)" fill="#2d54fe"/>
    <rect id="Rectángulo_37094" data-name="Rectángulo 37094" width="63.5" height="53.5" rx="10" transform="translate(-5238.5 -7921.5)" fill="#2d54fe"/>
    <rect id="Rectángulo_37078" data-name="Rectángulo 37078" width="63.5" height="53.5" rx="10" transform="translate(-5265.5 -8583.051)" fill="#2d54fe"/>
    <rect id="Rectángulo_37093" data-name="Rectángulo 37093" width="63.5" height="53.5" rx="10" transform="translate(-5346.866 -7921.5)" fill="#2d54fe"/>
    <path id="Trazado_676018" data-name="Trazado 676018" d="M-19.852,0h-2.734V-11.375h2.734ZM-8.445,0h-2.727L-15.2-7.078V0h-2.742V-11.375H-15.2L-11.18-4.3v-7.078h2.734Zm4.656,0H-6.523V-11.375h2.734ZM7.32-3.852a4.154,4.154,0,0,1-.641,2.1A3.866,3.866,0,0,1,5.035-.344a5.6,5.6,0,0,1-2.418.5A4.467,4.467,0,0,1-.914-1.3,6.032,6.032,0,0,1-2.2-5.43v-.562a6.885,6.885,0,0,1,.582-2.926A4.41,4.41,0,0,1,.055-10.855a4.676,4.676,0,0,1,2.531-.684,4.9,4.9,0,0,1,3.328,1.09,4.306,4.306,0,0,1,1.43,3H4.609a2.037,2.037,0,0,0-.523-1.492,2.153,2.153,0,0,0-1.5-.453,1.638,1.638,0,0,0-1.5.766,4.921,4.921,0,0,0-.5,2.445v.8a5.445,5.445,0,0,0,.457,2.6,1.672,1.672,0,0,0,1.574.781,2.106,2.106,0,0,0,1.445-.445,1.89,1.89,0,0,0,.531-1.414ZM11.539,0H8.8V-11.375h2.734ZM23.078-5.453a6.708,6.708,0,0,1-.617,2.945A4.561,4.561,0,0,1,20.707-.535a4.884,4.884,0,0,1-2.59.691,4.953,4.953,0,0,1-2.578-.668,4.554,4.554,0,0,1-1.754-1.91,6.515,6.515,0,0,1-.66-2.852v-.641a6.737,6.737,0,0,1,.613-2.949A4.55,4.55,0,0,1,15.5-10.836a4.918,4.918,0,0,1,2.605-.7,4.87,4.87,0,0,1,2.578.688,4.632,4.632,0,0,1,1.762,1.957,6.544,6.544,0,0,1,.637,2.91ZM20.289-5.93A4.783,4.783,0,0,0,19.723-8.5,1.817,1.817,0,0,0,18.1-9.383q-2.062,0-2.18,3.094l-.008.836a4.92,4.92,0,0,0,.555,2.57,1.814,1.814,0,0,0,1.648.9,1.792,1.792,0,0,0,1.6-.883,4.785,4.785,0,0,0,.57-2.539Z" transform="translate(-5185.5 -8707.801)" fill="#fff"/>
    <path id="Trazado_676017" data-name="Trazado 676017" d="M-32.523,0H-35.25l-4.031-7.078V0h-2.742V-11.375h2.742L-35.258-4.3v-7.078h2.734Zm8.789-4.828h-4.312v2.719h5.094V0h-7.836V-11.375h7.852v2.117h-5.109v2.4h4.313Zm11.1.977a4.154,4.154,0,0,1-.641,2.1,3.866,3.866,0,0,1-1.645,1.41,5.6,5.6,0,0,1-2.418.5A4.467,4.467,0,0,1-20.867-1.3,6.032,6.032,0,0,1-22.156-5.43v-.562a6.885,6.885,0,0,1,.582-2.926A4.41,4.41,0,0,1-19.9-10.855a4.676,4.676,0,0,1,2.531-.684,4.9,4.9,0,0,1,3.328,1.09,4.306,4.306,0,0,1,1.43,3h-2.734a2.037,2.037,0,0,0-.523-1.492,2.153,2.153,0,0,0-1.5-.453,1.638,1.638,0,0,0-1.5.766,4.921,4.921,0,0,0-.5,2.445v.8a5.445,5.445,0,0,0,.457,2.6,1.672,1.672,0,0,0,1.574.781,2.106,2.106,0,0,0,1.445-.445,1.89,1.89,0,0,0,.531-1.414Zm8.352-.977H-8.594v2.719H-3.5V0h-7.836V-11.375h7.852v2.117H-8.594v2.4h4.313Zm7.766,1.8a1.127,1.127,0,0,0-.426-.937,5.292,5.292,0,0,0-1.5-.7,14.353,14.353,0,0,1-1.75-.7A3.314,3.314,0,0,1-2.4-8.336,2.676,2.676,0,0,1-1.848-10,3.562,3.562,0,0,1-.289-11.129a6.065,6.065,0,0,1,2.266-.4,5.305,5.305,0,0,1,2.2.438A3.482,3.482,0,0,1,5.688-9.848,3.254,3.254,0,0,1,6.227-8H3.492a1.375,1.375,0,0,0-.426-1.078,1.66,1.66,0,0,0-1.152-.383,1.872,1.872,0,0,0-1.16.324,1,1,0,0,0-.426.824A1,1,0,0,0,.8-7.52a5.911,5.911,0,0,0,1.648.734,10.1,10.1,0,0,1,1.938.816,3.256,3.256,0,0,1,1.844,2.93A2.778,2.778,0,0,1,5.1-.7,5,5,0,0,1,2.016.156a6.122,6.122,0,0,1-2.5-.5A3.775,3.775,0,0,1-2.176-1.7a3.542,3.542,0,0,1-.566-1.988H.008A1.744,1.744,0,0,0,.48-2.34a2.234,2.234,0,0,0,1.535.434A1.765,1.765,0,0,0,3.09-2.2.967.967,0,0,0,3.484-3.023ZM10.555,0H7.82V-11.375h2.734ZM21.391-9.258H17.977V0H15.234V-9.258H11.883v-2.117h9.508Zm6.68,7.133H24.313L23.656,0h-2.93L24.9-11.375h2.578L31.68,0H28.734Zm-3.1-2.117h2.445L26.188-8.187ZM42.008,0H39.281L35.25-7.078V0H32.508V-11.375H35.25L39.273-4.3v-7.078h2.734ZM-51.9,16.141V20h-2.742V8.625H-50.1a5.287,5.287,0,0,1,2.309.48,3.621,3.621,0,0,1,1.555,1.367,3.734,3.734,0,0,1,.551,2.012,3.291,3.291,0,0,1-1.191,2.66,4.943,4.943,0,0,1-3.27,1Zm0-2.117h1.8a1.7,1.7,0,0,0,1.215-.4,1.48,1.48,0,0,0,.418-1.125,1.83,1.83,0,0,0-.43-1.273,1.522,1.522,0,0,0-1.172-.484H-51.9ZM-40,15.977h-1.484V20h-2.742V8.625h4.477a5,5,0,0,1,3.164.9,3.041,3.041,0,0,1,1.141,2.536,3.693,3.693,0,0,1-.48,1.967,3.41,3.41,0,0,1-1.5,1.264l2.375,4.593V20h-2.937Zm-1.484-2.109h1.734a1.557,1.557,0,0,0,1.176-.411,1.59,1.59,0,0,0,.395-1.147,1.608,1.608,0,0,0-.4-1.155,1.542,1.542,0,0,0-1.172-.419h-1.734Zm17.328.68a6.708,6.708,0,0,1-.617,2.945,4.561,4.561,0,0,1-1.754,1.973,4.884,4.884,0,0,1-2.59.691,4.953,4.953,0,0,1-2.578-.668,4.554,4.554,0,0,1-1.754-1.91,6.515,6.515,0,0,1-.66-2.852v-.641a6.737,6.737,0,0,1,.613-2.949,4.55,4.55,0,0,1,1.758-1.973,4.918,4.918,0,0,1,2.605-.7,4.87,4.87,0,0,1,2.578.688,4.632,4.632,0,0,1,1.762,1.957,6.544,6.544,0,0,1,.637,2.91Zm-2.789-.477a4.783,4.783,0,0,0-.566-2.574,1.817,1.817,0,0,0-1.621-.879q-2.062,0-2.18,3.094l-.008.836a4.92,4.92,0,0,0,.555,2.57,1.814,1.814,0,0,0,1.648.9,1.792,1.792,0,0,0,1.6-.883,4.785,4.785,0,0,0,.57-2.539Zm8.445,2.836,2.266-8.281h3.063L-17,20h-3L-23.8,8.625h3.039Zm13.211-1.734H-9.6v2.719h5.094V20h-7.836V8.625h7.852v2.117H-9.6v2.4h4.313Zm8.953,0H-.648v2.719H4.445V20H-3.391V8.625H4.461v2.117H-.648v2.4H3.664ZM5.563,20V8.625H9.227a5.39,5.39,0,0,1,2.711.684,4.805,4.805,0,0,1,1.879,1.93,5.826,5.826,0,0,1,.684,2.793v.523a5.86,5.86,0,0,1-.66,2.8,4.826,4.826,0,0,1-1.859,1.938A5.271,5.271,0,0,1,9.3,20ZM8.3,10.742v7.148h.953a2.133,2.133,0,0,0,1.813-.84,4.116,4.116,0,0,0,.633-2.5v-.492a4.082,4.082,0,0,0-.633-2.484,2.17,2.17,0,0,0-1.844-.836Zm17.234,3.8a6.708,6.708,0,0,1-.617,2.945,4.561,4.561,0,0,1-1.754,1.973,4.884,4.884,0,0,1-2.59.691A4.953,4.953,0,0,1,18,19.488a4.554,4.554,0,0,1-1.754-1.91,6.515,6.515,0,0,1-.66-2.852v-.641a6.737,6.737,0,0,1,.613-2.949,4.55,4.55,0,0,1,1.758-1.973,5.2,5.2,0,0,1,5.184-.008A4.632,4.632,0,0,1,24.9,11.113a6.544,6.544,0,0,1,.637,2.91ZM22.75,14.07a4.783,4.783,0,0,0-.566-2.574,1.817,1.817,0,0,0-1.621-.879q-2.062,0-2.18,3.094l-.008.836a4.92,4.92,0,0,0,.555,2.57,1.814,1.814,0,0,0,1.648.9,1.792,1.792,0,0,0,1.6-.883,4.785,4.785,0,0,0,.57-2.539Zm8.43,1.906H29.7V20H26.953V8.625H31.43a5,5,0,0,1,3.164.9,3.041,3.041,0,0,1,1.141,2.536,3.693,3.693,0,0,1-.48,1.967,3.41,3.41,0,0,1-1.5,1.264l2.375,4.593V20H33.188ZM29.7,13.867H31.43a1.557,1.557,0,0,0,1.176-.411A1.59,1.59,0,0,0,33,12.309a1.608,1.608,0,0,0-.4-1.155,1.542,1.542,0,0,0-1.172-.419H29.7Zm14.75,1.3H40.133v2.719h5.094V20H37.391V8.625h7.852v2.117H40.133v2.4h4.313Zm7.766,1.8a1.127,1.127,0,0,0-.426-.937,5.292,5.292,0,0,0-1.5-.7,14.353,14.353,0,0,1-1.75-.7,3.314,3.314,0,0,1-2.211-2.984A2.676,2.676,0,0,1,46.879,10a3.562,3.562,0,0,1,1.559-1.125,6.065,6.065,0,0,1,2.266-.4,5.305,5.305,0,0,1,2.2.438,3.482,3.482,0,0,1,1.512,1.246A3.254,3.254,0,0,1,54.953,12H52.219a1.375,1.375,0,0,0-.426-1.078,1.66,1.66,0,0,0-1.152-.383,1.872,1.872,0,0,0-1.16.324.955.955,0,0,0,.043,1.617,5.911,5.911,0,0,0,1.648.734,10.1,10.1,0,0,1,1.938.816,3.256,3.256,0,0,1,1.844,2.93A2.778,2.778,0,0,1,53.828,19.3a5,5,0,0,1-3.086.852,6.122,6.122,0,0,1-2.5-.5A3.775,3.775,0,0,1,46.551,18.3a3.542,3.542,0,0,1-.566-1.988h2.75a1.744,1.744,0,0,0,.473,1.348,2.234,2.234,0,0,0,1.535.434,1.765,1.765,0,0,0,1.074-.293A.967.967,0,0,0,52.211,16.977Z" transform="translate(-5185.5 -8646.801)" fill="#fff"/>
    <path id="Trazado_676015" data-name="Trazado 676015" d="M-.7-3.023a1.127,1.127,0,0,0-.426-.937,5.292,5.292,0,0,0-1.5-.7,14.353,14.353,0,0,1-1.75-.7A3.314,3.314,0,0,1-6.578-8.336,2.676,2.676,0,0,1-6.027-10a3.562,3.562,0,0,1,1.559-1.125,6.065,6.065,0,0,1,2.266-.4,5.305,5.305,0,0,1,2.2.438A3.482,3.482,0,0,1,1.508-9.848,3.254,3.254,0,0,1,2.047-8H-.687a1.375,1.375,0,0,0-.426-1.078,1.66,1.66,0,0,0-1.152-.383,1.872,1.872,0,0,0-1.16.324,1,1,0,0,0-.426.824,1,1,0,0,0,.469.793,5.911,5.911,0,0,0,1.648.734A10.1,10.1,0,0,1,.2-5.969a3.256,3.256,0,0,1,1.844,2.93A2.778,2.778,0,0,1,.922-.7,5,5,0,0,1-2.164.156a6.122,6.122,0,0,1-2.5-.5A3.775,3.775,0,0,1-6.355-1.7a3.542,3.542,0,0,1-.566-1.988h2.75A1.744,1.744,0,0,0-3.7-2.34a2.234,2.234,0,0,0,1.535.434A1.765,1.765,0,0,0-1.09-2.2.967.967,0,0,0-.7-3.023ZM6.375,0H3.641V-11.375H6.375Z" transform="translate(-5233.5 -8551.801)" fill="#fff"/>
    <path id="Trazado_676009" data-name="Trazado 676009" d="M-.7-3.023a1.127,1.127,0,0,0-.426-.937,5.292,5.292,0,0,0-1.5-.7,14.353,14.353,0,0,1-1.75-.7A3.314,3.314,0,0,1-6.578-8.336,2.676,2.676,0,0,1-6.027-10a3.562,3.562,0,0,1,1.559-1.125,6.065,6.065,0,0,1,2.266-.4,5.305,5.305,0,0,1,2.2.438A3.482,3.482,0,0,1,1.508-9.848,3.254,3.254,0,0,1,2.047-8H-.687a1.375,1.375,0,0,0-.426-1.078,1.66,1.66,0,0,0-1.152-.383,1.872,1.872,0,0,0-1.16.324,1,1,0,0,0-.426.824,1,1,0,0,0,.469.793,5.911,5.911,0,0,0,1.648.734A10.1,10.1,0,0,1,.2-5.969a3.256,3.256,0,0,1,1.844,2.93A2.778,2.778,0,0,1,.922-.7,5,5,0,0,1-2.164.156a6.122,6.122,0,0,1-2.5-.5A3.775,3.775,0,0,1-6.355-1.7a3.542,3.542,0,0,1-.566-1.988h2.75A1.744,1.744,0,0,0-3.7-2.34a2.234,2.234,0,0,0,1.535.434A1.765,1.765,0,0,0-1.09-2.2.967.967,0,0,0-.7-3.023ZM6.375,0H3.641V-11.375H6.375Z" transform="translate(-5314.866 -7890.25)" fill="#fff"/>
    <path id="Trazado_676016" data-name="Trazado 676016" d="M-.781,0H-3.508L-7.539-7.078V0h-2.742V-11.375h2.742L-3.516-4.3v-7.078H-.781ZM10.586-5.453a6.708,6.708,0,0,1-.617,2.945A4.561,4.561,0,0,1,8.215-.535a4.884,4.884,0,0,1-2.59.691A4.953,4.953,0,0,1,3.047-.512a4.554,4.554,0,0,1-1.754-1.91,6.515,6.515,0,0,1-.66-2.852v-.641a6.737,6.737,0,0,1,.613-2.949A4.55,4.55,0,0,1,3-10.836a4.918,4.918,0,0,1,2.605-.7,4.87,4.87,0,0,1,2.578.688A4.632,4.632,0,0,1,9.949-8.887a6.544,6.544,0,0,1,.637,2.91ZM7.8-5.93A4.783,4.783,0,0,0,7.23-8.5a1.817,1.817,0,0,0-1.621-.879q-2.062,0-2.18,3.094l-.008.836a4.92,4.92,0,0,0,.555,2.57,1.814,1.814,0,0,0,1.648.9,1.792,1.792,0,0,0,1.6-.883A4.785,4.785,0,0,0,7.8-5.406Z" transform="translate(-5134.5 -8551.801)" fill="#fff"/>
    <path id="Trazado_676008" data-name="Trazado 676008" d="M-.781,0H-3.508L-7.539-7.078V0h-2.742V-11.375h2.742L-3.516-4.3v-7.078H-.781ZM10.586-5.453a6.708,6.708,0,0,1-.617,2.945A4.561,4.561,0,0,1,8.215-.535a4.884,4.884,0,0,1-2.59.691A4.953,4.953,0,0,1,3.047-.512a4.554,4.554,0,0,1-1.754-1.91,6.515,6.515,0,0,1-.66-2.852v-.641a6.737,6.737,0,0,1,.613-2.949A4.55,4.55,0,0,1,3-10.836a4.918,4.918,0,0,1,2.605-.7,4.87,4.87,0,0,1,2.578.688A4.632,4.632,0,0,1,9.949-8.887a6.544,6.544,0,0,1,.637,2.91ZM7.8-5.93A4.783,4.783,0,0,0,7.23-8.5a1.817,1.817,0,0,0-1.621-.879q-2.062,0-2.18,3.094l-.008.836a4.92,4.92,0,0,0,.555,2.57,1.814,1.814,0,0,0,1.648.9,1.792,1.792,0,0,0,1.6-.883A4.785,4.785,0,0,0,7.8-5.406Z" transform="translate(-5205.5 -7890.25)" fill="#fff"/>
    <path id="Trazado_180903" data-name="Trazado 180903" d="M-4967.933-3788.4v371.2" transform="translate(-293 -4605.25)" fill="none" stroke="#fe502d" stroke-width="3"/>
    <path id="Trazado_180904" data-name="Trazado 180904" d="M-4967.933-3788.4v346.2" transform="translate(-208.067 -4029.85)" fill="none" stroke="#fe502d" stroke-width="3"/>
    <rect id="Rectángulo_37080" data-name="Rectángulo 37080" width="171.866" height="100.5" rx="10" transform="translate(-5346.866 -8486.25)" fill="#2d54fe"/>
    <path id="Trazado_676014" data-name="Trazado 676014" d="M29.5,17V5.625h3.984a5.232,5.232,0,0,1,3.141.793A2.712,2.712,0,0,1,37.7,8.742a2.57,2.57,0,0,1-.43,1.473,2.482,2.482,0,0,1-1.2.934,2.4,2.4,0,0,1,1.379.883,2.61,2.61,0,0,1,.5,1.625,3,3,0,0,1-1.047,2.484A4.713,4.713,0,0,1,33.926,17Zm2.344-4.953v3.07h2.008a1.938,1.938,0,0,0,1.293-.395,1.353,1.353,0,0,0,.465-1.09A1.428,1.428,0,0,0,34,12.047Zm0-1.656h1.734q1.773-.031,1.773-1.414a1.307,1.307,0,0,0-.449-1.113,2.363,2.363,0,0,0-1.418-.34H31.848ZM48.324,5.625v7.492a3.836,3.836,0,0,1-1.168,2.953,4.5,4.5,0,0,1-3.191,1.086A4.553,4.553,0,0,1,40.8,16.1a3.77,3.77,0,0,1-1.2-2.9V5.625h2.344v7.508a2.167,2.167,0,0,0,.535,1.629,2.054,2.054,0,0,0,1.48.512q1.977,0,2.008-2.078V5.625Zm7.82,8.391A1.2,1.2,0,0,0,55.676,13a6.148,6.148,0,0,0-1.687-.75,11.963,11.963,0,0,1-1.93-.777,3.153,3.153,0,0,1-1.937-2.82A2.747,2.747,0,0,1,50.641,7a3.389,3.389,0,0,1,1.492-1.129,5.616,5.616,0,0,1,2.184-.406,5.112,5.112,0,0,1,2.172.441,3.458,3.458,0,0,1,1.48,1.246A3.261,3.261,0,0,1,58.5,8.984H56.152A1.534,1.534,0,0,0,55.66,7.77a2.023,2.023,0,0,0-1.383-.434,2.162,2.162,0,0,0-1.336.363,1.146,1.146,0,0,0-.477.957,1.1,1.1,0,0,0,.559.93,6.311,6.311,0,0,0,1.645.7,7.106,7.106,0,0,1,2.914,1.492A2.972,2.972,0,0,1,58.5,14a2.737,2.737,0,0,1-1.117,2.316,4.891,4.891,0,0,1-3.008.84,5.808,5.808,0,0,1-2.391-.48,3.783,3.783,0,0,1-1.645-1.316,3.371,3.371,0,0,1-.566-1.937h2.352q0,1.883,2.25,1.883a2.189,2.189,0,0,0,1.3-.34A1.106,1.106,0,0,0,56.145,14.016Zm12.867-.8A4.025,4.025,0,0,1,67.656,16.1a4.76,4.76,0,0,1-3.223,1.055,4.28,4.28,0,0,1-3.441-1.473,6.038,6.038,0,0,1-1.254-4.043v-.7a6.819,6.819,0,0,1,.578-2.891,4.332,4.332,0,0,1,1.652-1.918,5.164,5.164,0,0,1,5.668.387,4.326,4.326,0,0,1,1.391,2.961H66.684a2.376,2.376,0,0,0-.613-1.6,2.271,2.271,0,0,0-1.605-.5,1.991,1.991,0,0,0-1.754.84,4.707,4.707,0,0,0-.6,2.605V11.7a5.038,5.038,0,0,0,.559,2.7,1.954,1.954,0,0,0,1.762.852,2.314,2.314,0,0,0,1.621-.5,2.241,2.241,0,0,0,.613-1.535Zm7.961,1.445H72.863L72.082,17H69.59L73.824,5.625H76L80.254,17H77.762Zm-3.477-1.9H76.34L74.91,8.5Zm12.031.078H83.66V17H81.316V5.625h4.227a4.778,4.778,0,0,1,3.109.9,3.1,3.1,0,0,1,1.094,2.539,3.5,3.5,0,0,1-.5,1.941,3.437,3.437,0,0,1-1.527,1.238l2.461,4.648V17H87.66Zm-1.867-1.9h1.891a1.936,1.936,0,0,0,1.367-.449A1.606,1.606,0,0,0,87.4,9.25a1.719,1.719,0,0,0-.457-1.266,1.9,1.9,0,0,0-1.4-.461H83.66ZM8.887,36H6.543V24.625H8.887Zm11.422,0H17.965L13.4,28.516V36H11.059V24.625H13.4l4.57,7.5v-7.5h2.336ZM29.2,31.352H24.7V36H22.355V24.625h7.406v1.9H24.7v2.938h4.5Zm11.266-.781a6.867,6.867,0,0,1-.594,2.945,4.472,4.472,0,0,1-1.7,1.953,5.021,5.021,0,0,1-5.059.008,4.515,4.515,0,0,1-1.719-1.941,6.67,6.67,0,0,1-.617-2.9V30.07a6.831,6.831,0,0,1,.605-2.957,4.508,4.508,0,0,1,1.711-1.961,5.014,5.014,0,0,1,5.055,0,4.508,4.508,0,0,1,1.711,1.961,6.811,6.811,0,0,1,.605,2.949Zm-2.375-.516a4.787,4.787,0,0,0-.641-2.719,2.263,2.263,0,0,0-3.648-.012,4.732,4.732,0,0,0-.648,2.691v.555a4.847,4.847,0,0,0,.641,2.7,2.243,2.243,0,0,0,3.656.035,4.819,4.819,0,0,0,.641-2.7Zm8.289,1.781H44.512V36H42.168V24.625h4.227a4.778,4.778,0,0,1,3.109.9A3.1,3.1,0,0,1,50.6,28.063a3.5,3.5,0,0,1-.5,1.941,3.437,3.437,0,0,1-1.527,1.238l2.461,4.648V36H48.512Zm-1.867-1.9H46.4a1.936,1.936,0,0,0,1.367-.449,1.606,1.606,0,0,0,.484-1.238,1.719,1.719,0,0,0-.457-1.266,1.9,1.9,0,0,0-1.4-.461H44.512Zm10.93-5.312,2.922,8.25,2.906-8.25h3.078V36H62V32.891l.234-5.367L59.16,36H57.551l-3.062-8.469.234,5.359V36H52.379V24.625Zm17.375,9.031H68.707L67.926,36H65.434l4.234-11.375H71.84L76.1,36H73.605Zm-3.477-1.9h2.844L70.754,27.5Zm16.75.453A4.025,4.025,0,0,1,84.734,35.1a4.76,4.76,0,0,1-3.223,1.055,4.28,4.28,0,0,1-3.441-1.473,6.038,6.038,0,0,1-1.254-4.043v-.7a6.819,6.819,0,0,1,.578-2.891,4.332,4.332,0,0,1,1.652-1.918,5.164,5.164,0,0,1,5.668.387,4.326,4.326,0,0,1,1.391,2.961H83.762a2.376,2.376,0,0,0-.613-1.6,2.271,2.271,0,0,0-1.605-.5,1.991,1.991,0,0,0-1.754.84,4.707,4.707,0,0,0-.6,2.605V30.7a5.038,5.038,0,0,0,.559,2.7,1.954,1.954,0,0,0,1.762.852,2.314,2.314,0,0,0,1.621-.5,2.241,2.241,0,0,0,.613-1.535ZM90.121,36H87.777V24.625h2.344Zm11.516-5.43a6.867,6.867,0,0,1-.594,2.945,4.472,4.472,0,0,1-1.7,1.953,5.021,5.021,0,0,1-5.059.008,4.515,4.515,0,0,1-1.719-1.941,6.67,6.67,0,0,1-.617-2.9V30.07a6.831,6.831,0,0,1,.605-2.957,4.508,4.508,0,0,1,1.711-1.961,5.014,5.014,0,0,1,5.055,0,4.508,4.508,0,0,1,1.711,1.961,6.811,6.811,0,0,1,.605,2.949Zm-2.375-.516a4.787,4.787,0,0,0-.641-2.719,2.263,2.263,0,0,0-3.648-.012,4.732,4.732,0,0,0-.648,2.691v.555a4.847,4.847,0,0,0,.641,2.7,2.243,2.243,0,0,0,3.656.035,4.819,4.819,0,0,0,.641-2.7ZM112.59,36h-2.344l-4.562-7.484V36H103.34V24.625h2.344l4.57,7.5v-7.5h2.336ZM50.816,55V43.625h3.5A5.315,5.315,0,0,1,57,44.3a4.712,4.712,0,0,1,1.848,1.922,5.928,5.928,0,0,1,.664,2.832v.523a5.945,5.945,0,0,1-.652,2.82,4.672,4.672,0,0,1-1.84,1.914A5.355,5.355,0,0,1,54.34,55Zm2.344-9.477v7.594h1.133a2.545,2.545,0,0,0,2.1-.9,4.06,4.06,0,0,0,.742-2.57v-.6a4.124,4.124,0,0,0-.719-2.629,2.537,2.537,0,0,0-2.1-.895Zm14.9,4.547h-4.5v3.047H68.84V55H61.215V43.625h7.609v1.9H63.559v2.711h4.5ZM7.68,69.992V74H5.336V62.625H9.773a5.134,5.134,0,0,1,2.254.469,3.454,3.454,0,0,1,1.5,1.332,3.714,3.714,0,0,1,.523,1.965A3.266,3.266,0,0,1,12.9,69.027a4.767,4.767,0,0,1-3.168.965Zm0-1.9H9.773a2.059,2.059,0,0,0,1.418-.437,1.591,1.591,0,0,0,.488-1.25,1.876,1.876,0,0,0-.492-1.352,1.839,1.839,0,0,0-1.359-.531H7.68Zm12.188,1.742H18V74H15.656V62.625h4.227a4.778,4.778,0,0,1,3.109.9,3.1,3.1,0,0,1,1.094,2.539,3.5,3.5,0,0,1-.5,1.941,3.437,3.437,0,0,1-1.527,1.238l2.461,4.648V74H22ZM18,67.938h1.891a1.936,1.936,0,0,0,1.367-.449,1.606,1.606,0,0,0,.484-1.238,1.719,1.719,0,0,0-.457-1.266,1.9,1.9,0,0,0-1.4-.461H18Zm17.211.633a6.867,6.867,0,0,1-.594,2.945,4.472,4.472,0,0,1-1.7,1.953,5.021,5.021,0,0,1-5.059.008,4.515,4.515,0,0,1-1.719-1.941,6.67,6.67,0,0,1-.617-2.9V68.07a6.831,6.831,0,0,1,.605-2.957,4.508,4.508,0,0,1,1.711-1.961,5.014,5.014,0,0,1,5.055,0,4.508,4.508,0,0,1,1.711,1.961,6.811,6.811,0,0,1,.605,2.949Zm-2.375-.516a4.787,4.787,0,0,0-.641-2.719,2.263,2.263,0,0,0-3.648-.012,4.732,4.732,0,0,0-.648,2.691v.555a4.847,4.847,0,0,0,.641,2.7,2.243,2.243,0,0,0,3.656.035,4.819,4.819,0,0,0,.641-2.7Zm8.109,3.125,2.578-8.555h2.609L42.172,74H39.727L35.781,62.625h2.6Zm13.1-2.109h-4.5v3.047h5.281V74H47.2V62.625h7.609v1.9H49.547v2.711h4.5Zm9,0h-4.5v3.047h5.281V74H56.2V62.625h7.609v1.9H58.547v2.711h4.5ZM65.2,74V62.625h3.5a5.315,5.315,0,0,1,2.684.676,4.712,4.712,0,0,1,1.848,1.922,5.928,5.928,0,0,1,.664,2.832v.523a5.945,5.945,0,0,1-.652,2.82,4.672,4.672,0,0,1-1.84,1.914,5.355,5.355,0,0,1-2.68.688Zm2.344-9.477v7.594H68.68a2.545,2.545,0,0,0,2.1-.9,4.06,4.06,0,0,0,.742-2.57v-.6a4.124,4.124,0,0,0-.719-2.629,2.537,2.537,0,0,0-2.1-.895Zm17.4,4.047a6.867,6.867,0,0,1-.594,2.945,4.472,4.472,0,0,1-1.7,1.953,5.021,5.021,0,0,1-5.059.008,4.515,4.515,0,0,1-1.719-1.941,6.67,6.67,0,0,1-.617-2.9V68.07a6.831,6.831,0,0,1,.605-2.957,4.508,4.508,0,0,1,1.711-1.961,5.014,5.014,0,0,1,5.055,0,4.508,4.508,0,0,1,1.711,1.961,6.811,6.811,0,0,1,.605,2.949Zm-2.375-.516a4.787,4.787,0,0,0-.641-2.719,2.263,2.263,0,0,0-3.648-.012,4.732,4.732,0,0,0-.648,2.691v.555a4.847,4.847,0,0,0,.641,2.7,2.243,2.243,0,0,0,3.656.035,4.819,4.819,0,0,0,.641-2.7Zm8.289,1.781H88.992V74H86.648V62.625h4.227a4.778,4.778,0,0,1,3.109.9,3.1,3.1,0,0,1,1.094,2.539,3.5,3.5,0,0,1-.5,1.941,3.437,3.437,0,0,1-1.527,1.238l2.461,4.648V74H92.992Zm-1.867-1.9h1.891a1.936,1.936,0,0,0,1.367-.449,1.606,1.606,0,0,0,.484-1.238,1.719,1.719,0,0,0-.457-1.266,1.9,1.9,0,0,0-1.4-.461H88.992ZM103.7,69.07H99.2v3.047h5.281V74H96.859V62.625h7.609v1.9H99.2v2.711h4.5Zm8.055,1.945a1.2,1.2,0,0,0-.469-1.02,6.148,6.148,0,0,0-1.687-.75,11.963,11.963,0,0,1-1.93-.777,3.153,3.153,0,0,1-1.937-2.82,2.747,2.747,0,0,1,.52-1.645,3.389,3.389,0,0,1,1.492-1.129,5.616,5.616,0,0,1,2.184-.406,5.112,5.112,0,0,1,2.172.441,3.458,3.458,0,0,1,1.48,1.246,3.261,3.261,0,0,1,.527,1.828h-2.344a1.534,1.534,0,0,0-.492-1.215,2.023,2.023,0,0,0-1.383-.434,2.162,2.162,0,0,0-1.336.363,1.146,1.146,0,0,0-.477.957,1.1,1.1,0,0,0,.559.93,6.311,6.311,0,0,0,1.645.7,7.106,7.106,0,0,1,2.914,1.492A2.972,2.972,0,0,1,114.109,71a2.737,2.737,0,0,1-1.117,2.316,4.891,4.891,0,0,1-3.008.84,5.808,5.808,0,0,1-2.391-.48,3.783,3.783,0,0,1-1.645-1.316,3.371,3.371,0,0,1-.566-1.937h2.352q0,1.883,2.25,1.883a2.189,2.189,0,0,0,1.3-.34A1.106,1.106,0,0,0,111.758,71.016Z" transform="translate(-5320 -8474)" fill="#fff"/>
    <rect id="Rectángulo_37085" data-name="Rectángulo 37085" width="171.866" height="144.5" rx="10" transform="translate(-5346.866 -8366.25)" fill="#2d54fe"/>
    <path id="Trazado_676013" data-name="Trazado 676013" d="M29.5,17V5.625h3.984a5.232,5.232,0,0,1,3.141.793A2.712,2.712,0,0,1,37.7,8.742a2.57,2.57,0,0,1-.43,1.473,2.482,2.482,0,0,1-1.2.934,2.4,2.4,0,0,1,1.379.883,2.61,2.61,0,0,1,.5,1.625,3,3,0,0,1-1.047,2.484A4.713,4.713,0,0,1,33.926,17Zm2.344-4.953v3.07h2.008a1.938,1.938,0,0,0,1.293-.395,1.353,1.353,0,0,0,.465-1.09A1.428,1.428,0,0,0,34,12.047Zm0-1.656h1.734q1.773-.031,1.773-1.414a1.307,1.307,0,0,0-.449-1.113,2.363,2.363,0,0,0-1.418-.34H31.848ZM48.324,5.625v7.492a3.836,3.836,0,0,1-1.168,2.953,4.5,4.5,0,0,1-3.191,1.086A4.553,4.553,0,0,1,40.8,16.1a3.77,3.77,0,0,1-1.2-2.9V5.625h2.344v7.508a2.167,2.167,0,0,0,.535,1.629,2.054,2.054,0,0,0,1.48.512q1.977,0,2.008-2.078V5.625Zm7.82,8.391A1.2,1.2,0,0,0,55.676,13a6.148,6.148,0,0,0-1.687-.75,11.963,11.963,0,0,1-1.93-.777,3.153,3.153,0,0,1-1.937-2.82A2.747,2.747,0,0,1,50.641,7a3.389,3.389,0,0,1,1.492-1.129,5.616,5.616,0,0,1,2.184-.406,5.112,5.112,0,0,1,2.172.441,3.458,3.458,0,0,1,1.48,1.246A3.261,3.261,0,0,1,58.5,8.984H56.152A1.534,1.534,0,0,0,55.66,7.77a2.023,2.023,0,0,0-1.383-.434,2.162,2.162,0,0,0-1.336.363,1.146,1.146,0,0,0-.477.957,1.1,1.1,0,0,0,.559.93,6.311,6.311,0,0,0,1.645.7,7.106,7.106,0,0,1,2.914,1.492A2.972,2.972,0,0,1,58.5,14a2.737,2.737,0,0,1-1.117,2.316,4.891,4.891,0,0,1-3.008.84,5.808,5.808,0,0,1-2.391-.48,3.783,3.783,0,0,1-1.645-1.316,3.371,3.371,0,0,1-.566-1.937h2.352q0,1.883,2.25,1.883a2.189,2.189,0,0,0,1.3-.34A1.106,1.106,0,0,0,56.145,14.016Zm12.867-.8A4.025,4.025,0,0,1,67.656,16.1a4.76,4.76,0,0,1-3.223,1.055,4.28,4.28,0,0,1-3.441-1.473,6.038,6.038,0,0,1-1.254-4.043v-.7a6.819,6.819,0,0,1,.578-2.891,4.332,4.332,0,0,1,1.652-1.918,5.164,5.164,0,0,1,5.668.387,4.326,4.326,0,0,1,1.391,2.961H66.684a2.376,2.376,0,0,0-.613-1.6,2.271,2.271,0,0,0-1.605-.5,1.991,1.991,0,0,0-1.754.84,4.707,4.707,0,0,0-.6,2.605V11.7a5.038,5.038,0,0,0,.559,2.7,1.954,1.954,0,0,0,1.762.852,2.314,2.314,0,0,0,1.621-.5,2.241,2.241,0,0,0,.613-1.535Zm7.961,1.445H72.863L72.082,17H69.59L73.824,5.625H76L80.254,17H77.762Zm-3.477-1.9H76.34L74.91,8.5Zm12.031.078H83.66V17H81.316V5.625h4.227a4.778,4.778,0,0,1,3.109.9,3.1,3.1,0,0,1,1.094,2.539,3.5,3.5,0,0,1-.5,1.941,3.437,3.437,0,0,1-1.527,1.238l2.461,4.648V17H87.66Zm-1.867-1.9h1.891a1.936,1.936,0,0,0,1.367-.449A1.606,1.606,0,0,0,87.4,9.25a1.719,1.719,0,0,0-.457-1.266,1.9,1.9,0,0,0-1.4-.461H83.66ZM8.887,36H6.543V24.625H8.887Zm11.422,0H17.965L13.4,28.516V36H11.059V24.625H13.4l4.57,7.5v-7.5h2.336ZM29.2,31.352H24.7V36H22.355V24.625h7.406v1.9H24.7v2.938h4.5Zm11.266-.781a6.867,6.867,0,0,1-.594,2.945,4.472,4.472,0,0,1-1.7,1.953,5.021,5.021,0,0,1-5.059.008,4.515,4.515,0,0,1-1.719-1.941,6.67,6.67,0,0,1-.617-2.9V30.07a6.831,6.831,0,0,1,.605-2.957,4.508,4.508,0,0,1,1.711-1.961,5.014,5.014,0,0,1,5.055,0,4.508,4.508,0,0,1,1.711,1.961,6.811,6.811,0,0,1,.605,2.949Zm-2.375-.516a4.787,4.787,0,0,0-.641-2.719,2.263,2.263,0,0,0-3.648-.012,4.732,4.732,0,0,0-.648,2.691v.555a4.847,4.847,0,0,0,.641,2.7,2.243,2.243,0,0,0,3.656.035,4.819,4.819,0,0,0,.641-2.7Zm8.289,1.781H44.512V36H42.168V24.625h4.227a4.778,4.778,0,0,1,3.109.9A3.1,3.1,0,0,1,50.6,28.063a3.5,3.5,0,0,1-.5,1.941,3.437,3.437,0,0,1-1.527,1.238l2.461,4.648V36H48.512Zm-1.867-1.9H46.4a1.936,1.936,0,0,0,1.367-.449,1.606,1.606,0,0,0,.484-1.238,1.719,1.719,0,0,0-.457-1.266,1.9,1.9,0,0,0-1.4-.461H44.512Zm10.93-5.312,2.922,8.25,2.906-8.25h3.078V36H62V32.891l.234-5.367L59.16,36H57.551l-3.062-8.469.234,5.359V36H52.379V24.625Zm17.375,9.031H68.707L67.926,36H65.434l4.234-11.375H71.84L76.1,36H73.605Zm-3.477-1.9h2.844L70.754,27.5Zm16.75.453A4.025,4.025,0,0,1,84.734,35.1a4.76,4.76,0,0,1-3.223,1.055,4.28,4.28,0,0,1-3.441-1.473,6.038,6.038,0,0,1-1.254-4.043v-.7a6.819,6.819,0,0,1,.578-2.891,4.332,4.332,0,0,1,1.652-1.918,5.164,5.164,0,0,1,5.668.387,4.326,4.326,0,0,1,1.391,2.961H83.762a2.376,2.376,0,0,0-.613-1.6,2.271,2.271,0,0,0-1.605-.5,1.991,1.991,0,0,0-1.754.84,4.707,4.707,0,0,0-.6,2.605V30.7a5.038,5.038,0,0,0,.559,2.7,1.954,1.954,0,0,0,1.762.852,2.314,2.314,0,0,0,1.621-.5,2.241,2.241,0,0,0,.613-1.535ZM90.121,36H87.777V24.625h2.344Zm11.516-5.43a6.867,6.867,0,0,1-.594,2.945,4.472,4.472,0,0,1-1.7,1.953,5.021,5.021,0,0,1-5.059.008,4.515,4.515,0,0,1-1.719-1.941,6.67,6.67,0,0,1-.617-2.9V30.07a6.831,6.831,0,0,1,.605-2.957,4.508,4.508,0,0,1,1.711-1.961,5.014,5.014,0,0,1,5.055,0,4.508,4.508,0,0,1,1.711,1.961,6.811,6.811,0,0,1,.605,2.949Zm-2.375-.516a4.787,4.787,0,0,0-.641-2.719,2.263,2.263,0,0,0-3.648-.012,4.732,4.732,0,0,0-.648,2.691v.555a4.847,4.847,0,0,0,.641,2.7,2.243,2.243,0,0,0,3.656.035,4.819,4.819,0,0,0,.641-2.7ZM112.59,36h-2.344l-4.562-7.484V36H103.34V24.625h2.344l4.57,7.5v-7.5h2.336ZM50.816,55V43.625h3.5A5.315,5.315,0,0,1,57,44.3a4.712,4.712,0,0,1,1.848,1.922,5.928,5.928,0,0,1,.664,2.832v.523a5.945,5.945,0,0,1-.652,2.82,4.672,4.672,0,0,1-1.84,1.914A5.355,5.355,0,0,1,54.34,55Zm2.344-9.477v7.594h1.133a2.545,2.545,0,0,0,2.1-.9,4.06,4.06,0,0,0,.742-2.57v-.6a4.124,4.124,0,0,0-.719-2.629,2.537,2.537,0,0,0-2.1-.895Zm14.9,4.547h-4.5v3.047H68.84V55H61.215V43.625h7.609v1.9H63.559v2.711h4.5ZM7.68,69.992V74H5.336V62.625H9.773a5.134,5.134,0,0,1,2.254.469,3.454,3.454,0,0,1,1.5,1.332,3.714,3.714,0,0,1,.523,1.965A3.266,3.266,0,0,1,12.9,69.027a4.767,4.767,0,0,1-3.168.965Zm0-1.9H9.773a2.059,2.059,0,0,0,1.418-.437,1.591,1.591,0,0,0,.488-1.25,1.876,1.876,0,0,0-.492-1.352,1.839,1.839,0,0,0-1.359-.531H7.68Zm12.188,1.742H18V74H15.656V62.625h4.227a4.778,4.778,0,0,1,3.109.9,3.1,3.1,0,0,1,1.094,2.539,3.5,3.5,0,0,1-.5,1.941,3.437,3.437,0,0,1-1.527,1.238l2.461,4.648V74H22ZM18,67.938h1.891a1.936,1.936,0,0,0,1.367-.449,1.606,1.606,0,0,0,.484-1.238,1.719,1.719,0,0,0-.457-1.266,1.9,1.9,0,0,0-1.4-.461H18Zm17.211.633a6.867,6.867,0,0,1-.594,2.945,4.472,4.472,0,0,1-1.7,1.953,5.021,5.021,0,0,1-5.059.008,4.515,4.515,0,0,1-1.719-1.941,6.67,6.67,0,0,1-.617-2.9V68.07a6.831,6.831,0,0,1,.605-2.957,4.508,4.508,0,0,1,1.711-1.961,5.014,5.014,0,0,1,5.055,0,4.508,4.508,0,0,1,1.711,1.961,6.811,6.811,0,0,1,.605,2.949Zm-2.375-.516a4.787,4.787,0,0,0-.641-2.719,2.263,2.263,0,0,0-3.648-.012,4.732,4.732,0,0,0-.648,2.691v.555a4.847,4.847,0,0,0,.641,2.7,2.243,2.243,0,0,0,3.656.035,4.819,4.819,0,0,0,.641-2.7Zm8.109,3.125,2.578-8.555h2.609L42.172,74H39.727L35.781,62.625h2.6Zm13.1-2.109h-4.5v3.047h5.281V74H47.2V62.625h7.609v1.9H49.547v2.711h4.5Zm9,0h-4.5v3.047h5.281V74H56.2V62.625h7.609v1.9H58.547v2.711h4.5ZM65.2,74V62.625h3.5a5.315,5.315,0,0,1,2.684.676,4.712,4.712,0,0,1,1.848,1.922,5.928,5.928,0,0,1,.664,2.832v.523a5.945,5.945,0,0,1-.652,2.82,4.672,4.672,0,0,1-1.84,1.914,5.355,5.355,0,0,1-2.68.688Zm2.344-9.477v7.594H68.68a2.545,2.545,0,0,0,2.1-.9,4.06,4.06,0,0,0,.742-2.57v-.6a4.124,4.124,0,0,0-.719-2.629,2.537,2.537,0,0,0-2.1-.895Zm17.4,4.047a6.867,6.867,0,0,1-.594,2.945,4.472,4.472,0,0,1-1.7,1.953,5.021,5.021,0,0,1-5.059.008,4.515,4.515,0,0,1-1.719-1.941,6.67,6.67,0,0,1-.617-2.9V68.07a6.831,6.831,0,0,1,.605-2.957,4.508,4.508,0,0,1,1.711-1.961,5.014,5.014,0,0,1,5.055,0,4.508,4.508,0,0,1,1.711,1.961,6.811,6.811,0,0,1,.605,2.949Zm-2.375-.516a4.787,4.787,0,0,0-.641-2.719,2.263,2.263,0,0,0-3.648-.012,4.732,4.732,0,0,0-.648,2.691v.555a4.847,4.847,0,0,0,.641,2.7,2.243,2.243,0,0,0,3.656.035,4.819,4.819,0,0,0,.641-2.7Zm8.289,1.781H88.992V74H86.648V62.625h4.227a4.778,4.778,0,0,1,3.109.9,3.1,3.1,0,0,1,1.094,2.539,3.5,3.5,0,0,1-.5,1.941,3.437,3.437,0,0,1-1.527,1.238l2.461,4.648V74H92.992Zm-1.867-1.9h1.891a1.936,1.936,0,0,0,1.367-.449,1.606,1.606,0,0,0,.484-1.238,1.719,1.719,0,0,0-.457-1.266,1.9,1.9,0,0,0-1.4-.461H88.992ZM103.7,69.07H99.2v3.047h5.281V74H96.859V62.625h7.609v1.9H99.2v2.711h4.5Zm8.055,1.945a1.2,1.2,0,0,0-.469-1.02,6.148,6.148,0,0,0-1.687-.75,11.963,11.963,0,0,1-1.93-.777,3.153,3.153,0,0,1-1.937-2.82,2.747,2.747,0,0,1,.52-1.645,3.389,3.389,0,0,1,1.492-1.129,5.616,5.616,0,0,1,2.184-.406,5.112,5.112,0,0,1,2.172.441,3.458,3.458,0,0,1,1.48,1.246,3.261,3.261,0,0,1,.527,1.828h-2.344a1.534,1.534,0,0,0-.492-1.215,2.023,2.023,0,0,0-1.383-.434,2.162,2.162,0,0,0-1.336.363,1.146,1.146,0,0,0-.477.957,1.1,1.1,0,0,0,.559.93,6.311,6.311,0,0,0,1.645.7,7.106,7.106,0,0,1,2.914,1.492A2.972,2.972,0,0,1,114.109,71a2.737,2.737,0,0,1-1.117,2.316,4.891,4.891,0,0,1-3.008.84,5.808,5.808,0,0,1-2.391-.48,3.783,3.783,0,0,1-1.645-1.316,3.371,3.371,0,0,1-.566-1.937h2.352q0,1.883,2.25,1.883a2.189,2.189,0,0,0,1.3-.34A1.106,1.106,0,0,0,111.758,71.016ZM2.488,93.977H.809L5,81.625h1.68Zm18.328-4.766A4.025,4.025,0,0,1,19.461,92.1a4.76,4.76,0,0,1-3.223,1.055A4.28,4.28,0,0,1,12.8,91.684a6.038,6.038,0,0,1-1.254-4.043v-.7a6.819,6.819,0,0,1,.578-2.891,4.332,4.332,0,0,1,1.652-1.918,4.629,4.629,0,0,1,2.5-.668,4.637,4.637,0,0,1,3.172,1.055,4.326,4.326,0,0,1,1.391,2.961H18.488a2.376,2.376,0,0,0-.613-1.6,2.271,2.271,0,0,0-1.605-.5,1.991,1.991,0,0,0-1.754.84,4.707,4.707,0,0,0-.6,2.605V87.7a5.038,5.038,0,0,0,.559,2.7,1.954,1.954,0,0,0,1.762.852,2.314,2.314,0,0,0,1.621-.5,2.241,2.241,0,0,0,.613-1.535ZM31.7,87.57a6.867,6.867,0,0,1-.594,2.945,4.472,4.472,0,0,1-1.7,1.953,5.021,5.021,0,0,1-5.059.008,4.515,4.515,0,0,1-1.719-1.941,6.67,6.67,0,0,1-.617-2.9V87.07a6.831,6.831,0,0,1,.605-2.957,4.508,4.508,0,0,1,1.711-1.961,5.014,5.014,0,0,1,5.055,0,4.508,4.508,0,0,1,1.711,1.961,6.811,6.811,0,0,1,.605,2.949Zm-2.375-.516a4.787,4.787,0,0,0-.641-2.719,2.263,2.263,0,0,0-3.648-.012,4.732,4.732,0,0,0-.648,2.691v.555a4.847,4.847,0,0,0,.641,2.7,2.243,2.243,0,0,0,3.656.035,4.819,4.819,0,0,0,.641-2.7ZM42.652,93H40.309l-4.562-7.484V93H33.4V81.625h2.344l4.57,7.5v-7.5h2.336Zm10.609-9.477H49.777V93H47.434V83.523H44v-1.9h9.266Zm6.82,7.133H55.973L55.191,93H52.7l4.234-11.375h2.172L63.363,93H60.871Zm-3.477-1.9h2.844L58.02,84.5Zm16.75.453A4.025,4.025,0,0,1,72,92.1a4.76,4.76,0,0,1-3.223,1.055,4.28,4.28,0,0,1-3.441-1.473,6.038,6.038,0,0,1-1.254-4.043v-.7a6.819,6.819,0,0,1,.578-2.891,4.332,4.332,0,0,1,1.652-1.918,5.164,5.164,0,0,1,5.668.387,4.326,4.326,0,0,1,1.391,2.961H71.027a2.376,2.376,0,0,0-.613-1.6,2.271,2.271,0,0,0-1.605-.5,1.991,1.991,0,0,0-1.754.84,4.707,4.707,0,0,0-.6,2.605V87.7a5.038,5.038,0,0,0,.559,2.7,1.954,1.954,0,0,0,1.762.852,2.314,2.314,0,0,0,1.621-.5,2.241,2.241,0,0,0,.613-1.535Zm9.875-5.687H79.746V93H77.4V83.523H73.965v-1.9H83.23ZM93.691,87.57a6.867,6.867,0,0,1-.594,2.945,4.472,4.472,0,0,1-1.7,1.953,5.021,5.021,0,0,1-5.059.008,4.515,4.515,0,0,1-1.719-1.941,6.67,6.67,0,0,1-.617-2.9V87.07a6.831,6.831,0,0,1,.605-2.957,4.508,4.508,0,0,1,1.711-1.961,5.014,5.014,0,0,1,5.055,0,4.508,4.508,0,0,1,1.711,1.961,6.811,6.811,0,0,1,.605,2.949Zm-2.375-.516a4.787,4.787,0,0,0-.641-2.719,2.263,2.263,0,0,0-3.648-.012,4.732,4.732,0,0,0-.648,2.691v.555a4.847,4.847,0,0,0,.641,2.7,2.243,2.243,0,0,0,3.656.035,4.819,4.819,0,0,0,.641-2.7Zm9.977,2.961a1.2,1.2,0,0,0-.469-1.02,6.148,6.148,0,0,0-1.687-.75,11.963,11.963,0,0,1-1.93-.777,3.153,3.153,0,0,1-1.937-2.82A2.747,2.747,0,0,1,95.789,83a3.389,3.389,0,0,1,1.492-1.129,5.616,5.616,0,0,1,2.184-.406,5.112,5.112,0,0,1,2.172.441,3.458,3.458,0,0,1,1.48,1.246,3.261,3.261,0,0,1,.527,1.828H101.3a1.534,1.534,0,0,0-.492-1.215,2.023,2.023,0,0,0-1.383-.434,2.162,2.162,0,0,0-1.336.363,1.146,1.146,0,0,0-.477.957,1.1,1.1,0,0,0,.559.93,6.311,6.311,0,0,0,1.645.7,7.106,7.106,0,0,1,2.914,1.492A2.972,2.972,0,0,1,103.645,90a2.737,2.737,0,0,1-1.117,2.316,4.891,4.891,0,0,1-3.008.84,5.808,5.808,0,0,1-2.391-.48,3.783,3.783,0,0,1-1.645-1.316,3.371,3.371,0,0,1-.566-1.937H97.27q0,1.883,2.25,1.883a2.189,2.189,0,0,0,1.3-.34A1.106,1.106,0,0,0,101.293,90.016Zm11.844-3.266,2.367-5.125h2.563l-3.734,7.25V93h-2.383V88.875l-3.734-7.25h2.57ZM47.1,108.211a4.025,4.025,0,0,1-1.355,2.891,4.76,4.76,0,0,1-3.223,1.055,4.28,4.28,0,0,1-3.441-1.473,6.038,6.038,0,0,1-1.254-4.043v-.7a6.819,6.819,0,0,1,.578-2.891,4.332,4.332,0,0,1,1.652-1.918,5.164,5.164,0,0,1,5.668.387,4.326,4.326,0,0,1,1.391,2.961H44.77a2.376,2.376,0,0,0-.613-1.6,2.271,2.271,0,0,0-1.605-.5,1.991,1.991,0,0,0-1.754.84,4.707,4.707,0,0,0-.6,2.605v.859a5.038,5.038,0,0,0,.559,2.7,1.954,1.954,0,0,0,1.762.852,2.314,2.314,0,0,0,1.621-.5,2.241,2.241,0,0,0,.613-1.535ZM51.129,112H48.785V100.625h2.344Zm10.734-9.477H58.379V112H56.035v-9.477H52.6v-1.9h9.266Zm6.82,7.133H64.574L63.793,112H61.3l4.234-11.375h2.172L71.965,112H69.473Zm-3.477-1.9h2.844l-1.43-4.258Zm13.719,1.258a1.2,1.2,0,0,0-.469-1.02,6.148,6.148,0,0,0-1.687-.75,11.963,11.963,0,0,1-1.93-.777,3.153,3.153,0,0,1-1.937-2.82,2.747,2.747,0,0,1,.52-1.645,3.389,3.389,0,0,1,1.492-1.129,5.616,5.616,0,0,1,2.184-.406,5.112,5.112,0,0,1,2.172.441,3.458,3.458,0,0,1,1.48,1.246,3.261,3.261,0,0,1,.527,1.828H78.934a1.534,1.534,0,0,0-.492-1.215,2.023,2.023,0,0,0-1.383-.434,2.162,2.162,0,0,0-1.336.363,1.146,1.146,0,0,0-.477.957,1.1,1.1,0,0,0,.559.93,6.311,6.311,0,0,0,1.645.7,7.106,7.106,0,0,1,2.914,1.492A2.972,2.972,0,0,1,81.277,109a2.737,2.737,0,0,1-1.117,2.316,4.891,4.891,0,0,1-3.008.84,5.808,5.808,0,0,1-2.391-.48,3.783,3.783,0,0,1-1.645-1.316,3.371,3.371,0,0,1-.566-1.937H74.9q0,1.883,2.25,1.883a2.189,2.189,0,0,0,1.3-.34A1.106,1.106,0,0,0,78.926,109.016Z" transform="translate(-5320 -8354)" fill="#fff"/>
    <rect id="Rectángulo_37086" data-name="Rectángulo 37086" width="171.866" height="64.5" rx="10" transform="translate(-5346.866 -8202.25)" fill="#2d54fe"/>
    <path id="Trazado_676012" data-name="Trazado 676012" d="M35.012,12.836H33.145V17H30.8V5.625h4.227a4.778,4.778,0,0,1,3.109.9A3.1,3.1,0,0,1,39.23,9.063a3.5,3.5,0,0,1-.5,1.941A3.437,3.437,0,0,1,37.2,12.242l2.461,4.648V17H37.145Zm-1.867-1.9h1.891a1.936,1.936,0,0,0,1.367-.449,1.606,1.606,0,0,0,.484-1.238,1.719,1.719,0,0,0-.457-1.266,1.9,1.9,0,0,0-1.4-.461H33.145ZM47.855,12.07h-4.5v3.047h5.281V17H41.012V5.625h7.609v1.9H43.355v2.711h4.5Zm11.086,1.141A4.025,4.025,0,0,1,57.586,16.1a4.76,4.76,0,0,1-3.223,1.055,4.28,4.28,0,0,1-3.441-1.473,6.038,6.038,0,0,1-1.254-4.043v-.7a6.819,6.819,0,0,1,.578-2.891A4.332,4.332,0,0,1,51.9,6.137a5.164,5.164,0,0,1,5.668.387,4.326,4.326,0,0,1,1.391,2.961H56.613A2.376,2.376,0,0,0,56,7.887a2.271,2.271,0,0,0-1.605-.5,1.991,1.991,0,0,0-1.754.84,4.707,4.707,0,0,0-.6,2.605V11.7a5.038,5.038,0,0,0,.559,2.7,1.954,1.954,0,0,0,1.762.852,2.314,2.314,0,0,0,1.621-.5,2.241,2.241,0,0,0,.613-1.535ZM62.973,17H60.629V5.625h2.344Zm2.172,0V5.625h3.984a5.232,5.232,0,0,1,3.141.793,2.712,2.712,0,0,1,1.07,2.324,2.57,2.57,0,0,1-.43,1.473,2.482,2.482,0,0,1-1.2.934,2.4,2.4,0,0,1,1.379.883,2.61,2.61,0,0,1,.5,1.625,3,3,0,0,1-1.047,2.484A4.713,4.713,0,0,1,69.566,17Zm2.344-4.953v3.07H69.5a1.938,1.938,0,0,0,1.293-.395,1.353,1.353,0,0,0,.465-1.09,1.428,1.428,0,0,0-1.617-1.586Zm0-1.656h1.734Q71,10.359,71,8.977a1.307,1.307,0,0,0-.449-1.113,2.363,2.363,0,0,0-1.418-.34H67.488ZM77.848,17H75.5V5.625h2.344Zm6.383-4.164H82.363V17H80.02V5.625h4.227a4.778,4.778,0,0,1,3.109.9,3.1,3.1,0,0,1,1.094,2.539,3.5,3.5,0,0,1-.5,1.941,3.437,3.437,0,0,1-1.527,1.238l2.461,4.648V17H86.363Zm-1.867-1.9h1.891a1.936,1.936,0,0,0,1.367-.449,1.606,1.606,0,0,0,.484-1.238,1.719,1.719,0,0,0-.457-1.266,1.9,1.9,0,0,0-1.4-.461H82.363ZM12.445,31.992V36H10.1V24.625h4.438a5.134,5.134,0,0,1,2.254.469,3.454,3.454,0,0,1,1.5,1.332,3.714,3.714,0,0,1,.523,1.965,3.266,3.266,0,0,1-1.145,2.637,4.767,4.767,0,0,1-3.168.965Zm0-1.9h2.094a2.059,2.059,0,0,0,1.418-.437,1.591,1.591,0,0,0,.488-1.25,1.876,1.876,0,0,0-.492-1.352,1.839,1.839,0,0,0-1.359-.531H12.445Zm12.188,1.742H22.766V36H20.422V24.625h4.227a4.778,4.778,0,0,1,3.109.9,3.1,3.1,0,0,1,1.094,2.539,3.5,3.5,0,0,1-.5,1.941,3.437,3.437,0,0,1-1.527,1.238l2.461,4.648V36H26.766Zm-1.867-1.9h1.891a1.936,1.936,0,0,0,1.367-.449,1.606,1.606,0,0,0,.484-1.238,1.719,1.719,0,0,0-.457-1.266,1.9,1.9,0,0,0-1.4-.461H22.766Zm17.211.633a6.867,6.867,0,0,1-.594,2.945,4.472,4.472,0,0,1-1.7,1.953,5.021,5.021,0,0,1-5.059.008,4.515,4.515,0,0,1-1.719-1.941,6.67,6.67,0,0,1-.617-2.9V30.07a6.831,6.831,0,0,1,.605-2.957,4.508,4.508,0,0,1,1.711-1.961,5.014,5.014,0,0,1,5.055,0,4.508,4.508,0,0,1,1.711,1.961,6.811,6.811,0,0,1,.605,2.949ZM37.6,30.055a4.787,4.787,0,0,0-.641-2.719,2.263,2.263,0,0,0-3.648-.012,4.732,4.732,0,0,0-.648,2.691v.555a4.847,4.847,0,0,0,.641,2.7,2.243,2.243,0,0,0,3.656.035,4.819,4.819,0,0,0,.641-2.7Zm6.422,1.938V36H41.68V24.625h4.438a5.134,5.134,0,0,1,2.254.469,3.454,3.454,0,0,1,1.5,1.332,3.714,3.714,0,0,1,.523,1.965,3.266,3.266,0,0,1-1.145,2.637,4.767,4.767,0,0,1-3.168.965Zm0-1.9h2.094a2.059,2.059,0,0,0,1.418-.437,1.591,1.591,0,0,0,.488-1.25,1.876,1.876,0,0,0-.492-1.352,1.839,1.839,0,0,0-1.359-.531H44.023Zm16.586-5.469v7.492a3.836,3.836,0,0,1-1.168,2.953,4.5,4.5,0,0,1-3.191,1.086A4.553,4.553,0,0,1,53.086,35.1a3.77,3.77,0,0,1-1.2-2.9V24.625h2.344v7.508a2.167,2.167,0,0,0,.535,1.629,2.054,2.054,0,0,0,1.48.512q1.977,0,2.008-2.078v-7.57Zm8.766,6.445h-4.5v3.047h5.281V36H62.531V24.625h7.609v1.9H64.875v2.711h4.5Zm8.055,1.945A1.2,1.2,0,0,0,76.961,32a6.148,6.148,0,0,0-1.687-.75,11.963,11.963,0,0,1-1.93-.777,3.153,3.153,0,0,1-1.937-2.82A2.747,2.747,0,0,1,71.926,26a3.389,3.389,0,0,1,1.492-1.129,5.616,5.616,0,0,1,2.184-.406,5.112,5.112,0,0,1,2.172.441,3.458,3.458,0,0,1,1.48,1.246,3.261,3.261,0,0,1,.527,1.828H77.438a1.534,1.534,0,0,0-.492-1.215,2.023,2.023,0,0,0-1.383-.434,2.162,2.162,0,0,0-1.336.363,1.146,1.146,0,0,0-.477.957,1.1,1.1,0,0,0,.559.93,6.311,6.311,0,0,0,1.645.7,7.106,7.106,0,0,1,2.914,1.492A2.972,2.972,0,0,1,79.781,33a2.737,2.737,0,0,1-1.117,2.316,4.891,4.891,0,0,1-3.008.84,5.808,5.808,0,0,1-2.391-.48,3.783,3.783,0,0,1-1.645-1.316,3.371,3.371,0,0,1-.566-1.937h2.352q0,1.883,2.25,1.883a2.189,2.189,0,0,0,1.3-.34A1.106,1.106,0,0,0,77.43,33.016Zm12.5-6.492H86.445V36H84.1V26.523H80.664v-1.9H89.93Zm6.82,7.133H92.641L91.859,36H89.367L93.6,24.625h2.172L100.031,36H97.539Zm-3.477-1.9h2.844L94.688,27.5Zm13.719,1.258a1.2,1.2,0,0,0-.469-1.02,6.148,6.148,0,0,0-1.687-.75,11.963,11.963,0,0,1-1.93-.777,3.153,3.153,0,0,1-1.937-2.82,2.747,2.747,0,0,1,.52-1.645,3.389,3.389,0,0,1,1.492-1.129,5.616,5.616,0,0,1,2.184-.406,5.112,5.112,0,0,1,2.172.441,3.458,3.458,0,0,1,1.48,1.246,3.261,3.261,0,0,1,.527,1.828H107a1.534,1.534,0,0,0-.492-1.215,2.023,2.023,0,0,0-1.383-.434,2.162,2.162,0,0,0-1.336.363,1.146,1.146,0,0,0-.477.957,1.1,1.1,0,0,0,.559.93,6.311,6.311,0,0,0,1.645.7,7.106,7.106,0,0,1,2.914,1.492A2.972,2.972,0,0,1,109.344,33a2.737,2.737,0,0,1-1.117,2.316,4.891,4.891,0,0,1-3.008.84,5.808,5.808,0,0,1-2.391-.48,3.783,3.783,0,0,1-1.645-1.316,3.371,3.371,0,0,1-.566-1.937h2.352q0,1.883,2.25,1.883a2.189,2.189,0,0,0,1.3-.34A1.106,1.106,0,0,0,106.992,33.016Z" transform="translate(-5320 -8190)" fill="#fff"/>
    <rect id="Rectángulo_37087" data-name="Rectángulo 37087" width="171.866" height="64.5" rx="10" transform="translate(-5346.866 -8118.25)" fill="#2d54fe"/>
    <path id="Trazado_676011" data-name="Trazado 676011" d="M32.633,12.07h-4.5v3.047h5.281V17H25.789V5.625H33.4v1.9H28.133v2.711h4.5Zm6.359,2.109L41.57,5.625H44.18L40.219,17H37.773L33.828,5.625h2.6Zm12.094.477H46.977L46.2,17H43.7L47.938,5.625h2.172L54.367,17H51.875Zm-3.477-1.9h2.844L49.023,8.5Zm10.164,2.359H62.75V17H55.43V5.625h2.344ZM72.516,5.625v7.492a3.836,3.836,0,0,1-1.168,2.953,4.5,4.5,0,0,1-3.191,1.086A4.553,4.553,0,0,1,64.992,16.1a3.77,3.77,0,0,1-1.2-2.9V5.625h2.344v7.508a2.167,2.167,0,0,0,.535,1.629,2.054,2.054,0,0,0,1.48.512q1.977,0,2.008-2.078V5.625Zm8.172,9.031H76.578L75.8,17H73.3L77.539,5.625h2.172L83.969,17H81.477Zm-3.477-1.9h2.844L78.625,8.5Zm12.031.078H87.375V17H85.031V5.625h4.227a4.778,4.778,0,0,1,3.109.9,3.1,3.1,0,0,1,1.094,2.539,3.5,3.5,0,0,1-.5,1.941,3.437,3.437,0,0,1-1.527,1.238l2.461,4.648V17H91.375Zm-1.867-1.9h1.891a1.936,1.936,0,0,0,1.367-.449,1.606,1.606,0,0,0,.484-1.238,1.719,1.719,0,0,0-.457-1.266,1.9,1.9,0,0,0-1.4-.461H87.375ZM12.445,31.992V36H10.1V24.625h4.438a5.134,5.134,0,0,1,2.254.469,3.454,3.454,0,0,1,1.5,1.332,3.714,3.714,0,0,1,.523,1.965,3.266,3.266,0,0,1-1.145,2.637,4.767,4.767,0,0,1-3.168.965Zm0-1.9h2.094a2.059,2.059,0,0,0,1.418-.437,1.591,1.591,0,0,0,.488-1.25,1.876,1.876,0,0,0-.492-1.352,1.839,1.839,0,0,0-1.359-.531H12.445Zm12.188,1.742H22.766V36H20.422V24.625h4.227a4.778,4.778,0,0,1,3.109.9,3.1,3.1,0,0,1,1.094,2.539,3.5,3.5,0,0,1-.5,1.941,3.437,3.437,0,0,1-1.527,1.238l2.461,4.648V36H26.766Zm-1.867-1.9h1.891a1.936,1.936,0,0,0,1.367-.449,1.606,1.606,0,0,0,.484-1.238,1.719,1.719,0,0,0-.457-1.266,1.9,1.9,0,0,0-1.4-.461H22.766Zm17.211.633a6.867,6.867,0,0,1-.594,2.945,4.472,4.472,0,0,1-1.7,1.953,5.021,5.021,0,0,1-5.059.008,4.515,4.515,0,0,1-1.719-1.941,6.67,6.67,0,0,1-.617-2.9V30.07a6.831,6.831,0,0,1,.605-2.957,4.508,4.508,0,0,1,1.711-1.961,5.014,5.014,0,0,1,5.055,0,4.508,4.508,0,0,1,1.711,1.961,6.811,6.811,0,0,1,.605,2.949ZM37.6,30.055a4.787,4.787,0,0,0-.641-2.719,2.263,2.263,0,0,0-3.648-.012,4.732,4.732,0,0,0-.648,2.691v.555a4.847,4.847,0,0,0,.641,2.7,2.243,2.243,0,0,0,3.656.035,4.819,4.819,0,0,0,.641-2.7Zm6.422,1.938V36H41.68V24.625h4.438a5.134,5.134,0,0,1,2.254.469,3.454,3.454,0,0,1,1.5,1.332,3.714,3.714,0,0,1,.523,1.965,3.266,3.266,0,0,1-1.145,2.637,4.767,4.767,0,0,1-3.168.965Zm0-1.9h2.094a2.059,2.059,0,0,0,1.418-.437,1.591,1.591,0,0,0,.488-1.25,1.876,1.876,0,0,0-.492-1.352,1.839,1.839,0,0,0-1.359-.531H44.023Zm16.586-5.469v7.492a3.836,3.836,0,0,1-1.168,2.953,4.5,4.5,0,0,1-3.191,1.086A4.553,4.553,0,0,1,53.086,35.1a3.77,3.77,0,0,1-1.2-2.9V24.625h2.344v7.508a2.167,2.167,0,0,0,.535,1.629,2.054,2.054,0,0,0,1.48.512q1.977,0,2.008-2.078v-7.57Zm8.766,6.445h-4.5v3.047h5.281V36H62.531V24.625h7.609v1.9H64.875v2.711h4.5Zm8.055,1.945A1.2,1.2,0,0,0,76.961,32a6.148,6.148,0,0,0-1.687-.75,11.963,11.963,0,0,1-1.93-.777,3.153,3.153,0,0,1-1.937-2.82A2.747,2.747,0,0,1,71.926,26a3.389,3.389,0,0,1,1.492-1.129,5.616,5.616,0,0,1,2.184-.406,5.112,5.112,0,0,1,2.172.441,3.458,3.458,0,0,1,1.48,1.246,3.261,3.261,0,0,1,.527,1.828H77.438a1.534,1.534,0,0,0-.492-1.215,2.023,2.023,0,0,0-1.383-.434,2.162,2.162,0,0,0-1.336.363,1.146,1.146,0,0,0-.477.957,1.1,1.1,0,0,0,.559.93,6.311,6.311,0,0,0,1.645.7,7.106,7.106,0,0,1,2.914,1.492A2.972,2.972,0,0,1,79.781,33a2.737,2.737,0,0,1-1.117,2.316,4.891,4.891,0,0,1-3.008.84,5.808,5.808,0,0,1-2.391-.48,3.783,3.783,0,0,1-1.645-1.316,3.371,3.371,0,0,1-.566-1.937h2.352q0,1.883,2.25,1.883a2.189,2.189,0,0,0,1.3-.34A1.106,1.106,0,0,0,77.43,33.016Zm12.5-6.492H86.445V36H84.1V26.523H80.664v-1.9H89.93Zm6.82,7.133H92.641L91.859,36H89.367L93.6,24.625h2.172L100.031,36H97.539Zm-3.477-1.9h2.844L94.688,27.5Zm13.719,1.258a1.2,1.2,0,0,0-.469-1.02,6.148,6.148,0,0,0-1.687-.75,11.963,11.963,0,0,1-1.93-.777,3.153,3.153,0,0,1-1.937-2.82,2.747,2.747,0,0,1,.52-1.645,3.389,3.389,0,0,1,1.492-1.129,5.616,5.616,0,0,1,2.184-.406,5.112,5.112,0,0,1,2.172.441,3.458,3.458,0,0,1,1.48,1.246,3.261,3.261,0,0,1,.527,1.828H107a1.534,1.534,0,0,0-.492-1.215,2.023,2.023,0,0,0-1.383-.434,2.162,2.162,0,0,0-1.336.363,1.146,1.146,0,0,0-.477.957,1.1,1.1,0,0,0,.559.93,6.311,6.311,0,0,0,1.645.7,7.106,7.106,0,0,1,2.914,1.492A2.972,2.972,0,0,1,109.344,33a2.737,2.737,0,0,1-1.117,2.316,4.891,4.891,0,0,1-3.008.84,5.808,5.808,0,0,1-2.391-.48,3.783,3.783,0,0,1-1.645-1.316,3.371,3.371,0,0,1-.566-1.937h2.352q0,1.883,2.25,1.883a2.189,2.189,0,0,0,1.3-.34A1.106,1.106,0,0,0,106.992,33.016Z" transform="translate(-5320 -8106)" fill="#fff"/>
    <rect id="Rectángulo_37088" data-name="Rectángulo 37088" width="171.866" height="79" rx="10" transform="translate(-5346.866 -8033.25)" fill="#2d54fe"/>
    <path id="Trazado_676010" data-name="Trazado 676010" d="M28.781,13.211A4.025,4.025,0,0,1,27.426,16.1,4.76,4.76,0,0,1,24.2,17.156a4.28,4.28,0,0,1-3.441-1.473,6.038,6.038,0,0,1-1.254-4.043v-.7a6.819,6.819,0,0,1,.578-2.891,4.332,4.332,0,0,1,1.652-1.918,4.629,4.629,0,0,1,2.5-.668,4.637,4.637,0,0,1,3.172,1.055A4.326,4.326,0,0,1,28.8,9.484H26.453a2.376,2.376,0,0,0-.613-1.6,2.271,2.271,0,0,0-1.605-.5,1.991,1.991,0,0,0-1.754.84,4.707,4.707,0,0,0-.6,2.605V11.7a5.038,5.038,0,0,0,.559,2.7,1.954,1.954,0,0,0,1.762.852,2.314,2.314,0,0,0,1.621-.5,2.241,2.241,0,0,0,.613-1.535ZM38.93,5.625v7.492a3.836,3.836,0,0,1-1.168,2.953,4.5,4.5,0,0,1-3.191,1.086A4.553,4.553,0,0,1,31.406,16.1a3.77,3.77,0,0,1-1.2-2.9V5.625h2.344v7.508a2.167,2.167,0,0,0,.535,1.629,2.054,2.054,0,0,0,1.48.512q1.977,0,2.008-2.078V5.625Zm4.984,0,2.922,8.25,2.906-8.25H52.82V17H50.469V13.891L50.7,8.523,47.633,17H46.023L42.961,8.531l.234,5.359V17H40.852V5.625Zm13.3,7.367V17H54.867V5.625H59.3a5.134,5.134,0,0,1,2.254.469,3.454,3.454,0,0,1,1.5,1.332,3.714,3.714,0,0,1,.523,1.965,3.266,3.266,0,0,1-1.145,2.637,4.767,4.767,0,0,1-3.168.965Zm0-1.9H59.3a2.059,2.059,0,0,0,1.418-.437,1.591,1.591,0,0,0,.488-1.25,1.876,1.876,0,0,0-.492-1.352,1.839,1.839,0,0,0-1.359-.531H57.211Zm10.32,4.023h4.977V17h-7.32V5.625h2.344ZM80.7,12.07H76.2v3.047h5.281V17H73.852V5.625h7.609v1.9H76.2v2.711h4.5ZM92.1,17H89.758L85.2,9.516V17H82.852V5.625H85.2l4.57,7.5v-7.5H92.1Zm8.375-1.883h4.977V17h-7.32V5.625h2.344Zm15.164-3.547a6.867,6.867,0,0,1-.594,2.945,4.472,4.472,0,0,1-1.7,1.953,5.021,5.021,0,0,1-5.059.008,4.515,4.515,0,0,1-1.719-1.941,6.67,6.67,0,0,1-.617-2.9V11.07a6.831,6.831,0,0,1,.605-2.957,4.508,4.508,0,0,1,1.711-1.961,5.014,5.014,0,0,1,5.055,0,4.508,4.508,0,0,1,1.711,1.961,6.811,6.811,0,0,1,.605,2.949Zm-2.375-.516a4.787,4.787,0,0,0-.641-2.719,2.263,2.263,0,0,0-3.648-.012,4.732,4.732,0,0,0-.648,2.691v.555a4.847,4.847,0,0,0,.641,2.7,2.243,2.243,0,0,0,3.656.035,4.819,4.819,0,0,0,.641-2.7Zm9.977,2.961a1.2,1.2,0,0,0-.469-1.02,6.148,6.148,0,0,0-1.687-.75,11.963,11.963,0,0,1-1.93-.777,3.153,3.153,0,0,1-1.937-2.82A2.747,2.747,0,0,1,117.738,7a3.389,3.389,0,0,1,1.492-1.129,5.616,5.616,0,0,1,2.184-.406,5.112,5.112,0,0,1,2.172.441,3.458,3.458,0,0,1,1.48,1.246,3.261,3.261,0,0,1,.527,1.828H123.25a1.534,1.534,0,0,0-.492-1.215,2.023,2.023,0,0,0-1.383-.434,2.162,2.162,0,0,0-1.336.363,1.146,1.146,0,0,0-.477.957,1.1,1.1,0,0,0,.559.93,6.311,6.311,0,0,0,1.645.7,7.106,7.106,0,0,1,2.914,1.492A2.972,2.972,0,0,1,125.594,14a2.737,2.737,0,0,1-1.117,2.316,4.891,4.891,0,0,1-3.008.84,5.808,5.808,0,0,1-2.391-.48,3.783,3.783,0,0,1-1.645-1.316,3.371,3.371,0,0,1-.566-1.937h2.352q0,1.883,2.25,1.883a2.189,2.189,0,0,0,1.3-.34A1.106,1.106,0,0,0,123.242,14.016ZM10.625,31.836H8.758V36H6.414V24.625h4.227a4.778,4.778,0,0,1,3.109.9,3.1,3.1,0,0,1,1.094,2.539A3.5,3.5,0,0,1,14.34,30a3.437,3.437,0,0,1-1.527,1.238l2.461,4.648V36H12.758Zm-1.867-1.9h1.891a1.936,1.936,0,0,0,1.367-.449A1.606,1.606,0,0,0,12.5,28.25a1.719,1.719,0,0,0-.457-1.266,1.9,1.9,0,0,0-1.4-.461H8.758ZM23.469,31.07h-4.5v3.047H24.25V36H16.625V24.625h7.609v1.9H18.969v2.711h4.5Zm11.484-.5a6.853,6.853,0,0,1-.516,2.77,4.754,4.754,0,0,1-1.43,1.887L34.9,36.711l-1.492,1.32-2.422-1.945a5.126,5.126,0,0,1-.859.07,4.732,4.732,0,0,1-2.523-.68,4.515,4.515,0,0,1-1.719-1.941,6.67,6.67,0,0,1-.617-2.9V30.07a6.831,6.831,0,0,1,.605-2.957,4.508,4.508,0,0,1,1.711-1.961,5.014,5.014,0,0,1,5.055,0,4.508,4.508,0,0,1,1.711,1.961,6.811,6.811,0,0,1,.605,2.949Zm-2.375-.516a4.787,4.787,0,0,0-.641-2.719,2.263,2.263,0,0,0-3.648-.012,4.732,4.732,0,0,0-.648,2.691v.555a4.847,4.847,0,0,0,.641,2.7,2.243,2.243,0,0,0,3.656.035,4.819,4.819,0,0,0,.641-2.7Zm12.7-5.43v7.492a3.836,3.836,0,0,1-1.168,2.953,4.5,4.5,0,0,1-3.191,1.086A4.553,4.553,0,0,1,37.758,35.1a3.77,3.77,0,0,1-1.2-2.9V24.625h2.344v7.508a2.167,2.167,0,0,0,.535,1.629,2.054,2.054,0,0,0,1.48.512q1.977,0,2.008-2.078v-7.57Zm8.766,6.445h-4.5v3.047h5.281V36H47.2V24.625h7.609v1.9H49.547v2.711h4.5Zm6.367.766H58.547V36H56.2V24.625H60.43a4.778,4.778,0,0,1,3.109.9,3.1,3.1,0,0,1,1.094,2.539,3.5,3.5,0,0,1-.5,1.941A3.437,3.437,0,0,1,62.6,31.242l2.461,4.648V36H62.547Zm-1.867-1.9h1.891a1.936,1.936,0,0,0,1.367-.449,1.606,1.606,0,0,0,.484-1.238,1.719,1.719,0,0,0-.457-1.266,1.9,1.9,0,0,0-1.4-.461H58.547ZM68.906,36H66.563V24.625h2.344Zm5.234-11.375,2.922,8.25,2.906-8.25h3.078V36H80.7V32.891l.234-5.367L77.859,36H76.25l-3.062-8.469.234,5.359V36H71.078V24.625ZM87.586,36H85.242V24.625h2.344ZM96.6,31.07H92.1v3.047h5.281V36H89.758V24.625h7.609v1.9H92.1v2.711h4.5ZM108.008,36h-2.344L101.1,28.516V36H98.758V24.625H101.1l4.57,7.5v-7.5h2.336Zm10.609-9.477h-3.484V36h-2.344V26.523h-3.437v-1.9h9.266Zm10.461,4.047a6.867,6.867,0,0,1-.594,2.945,4.472,4.472,0,0,1-1.7,1.953,5.021,5.021,0,0,1-5.059.008,4.515,4.515,0,0,1-1.719-1.941,6.67,6.67,0,0,1-.617-2.9V30.07A6.831,6.831,0,0,1,120,27.113a4.508,4.508,0,0,1,1.711-1.961,5.014,5.014,0,0,1,5.055,0,4.508,4.508,0,0,1,1.711,1.961,6.811,6.811,0,0,1,.605,2.949Zm-2.375-.516a4.787,4.787,0,0,0-.641-2.719,2.263,2.263,0,0,0-3.648-.012,4.732,4.732,0,0,0-.648,2.691v.555a4.847,4.847,0,0,0,.641,2.7,2.243,2.243,0,0,0,3.656.035,4.819,4.819,0,0,0,.641-2.7Zm9.977,2.961a1.2,1.2,0,0,0-.469-1.02,6.148,6.148,0,0,0-1.687-.75,11.962,11.962,0,0,1-1.93-.777,3.153,3.153,0,0,1-1.937-2.82,2.747,2.747,0,0,1,.52-1.645,3.389,3.389,0,0,1,1.492-1.129,5.616,5.616,0,0,1,2.184-.406,5.112,5.112,0,0,1,2.172.441,3.458,3.458,0,0,1,1.48,1.246,3.261,3.261,0,0,1,.527,1.828h-2.344a1.534,1.534,0,0,0-.492-1.215,2.023,2.023,0,0,0-1.383-.434,2.162,2.162,0,0,0-1.336.363,1.146,1.146,0,0,0-.477.957,1.1,1.1,0,0,0,.559.93,6.311,6.311,0,0,0,1.645.7,7.106,7.106,0,0,1,2.914,1.492A2.972,2.972,0,0,1,139.031,33a2.737,2.737,0,0,1-1.117,2.316,4.891,4.891,0,0,1-3.008.84,5.808,5.808,0,0,1-2.391-.48,3.783,3.783,0,0,1-1.645-1.316,3.371,3.371,0,0,1-.566-1.937h2.352q0,1.883,2.25,1.883a2.189,2.189,0,0,0,1.3-.34A1.106,1.106,0,0,0,136.68,33.016ZM14.387,48.75l2.367-5.125h2.563l-3.734,7.25V55H13.2V50.875l-3.734-7.25h2.57Zm16.8,1.32h-4.5v3.047h5.281V55H24.34V43.625h7.609v1.9H26.684v2.711h4.5Zm8.055,1.945A1.2,1.2,0,0,0,38.77,51a6.148,6.148,0,0,0-1.687-.75,11.963,11.963,0,0,1-1.93-.777,3.153,3.153,0,0,1-1.937-2.82A2.747,2.747,0,0,1,33.734,45a3.389,3.389,0,0,1,1.492-1.129,5.616,5.616,0,0,1,2.184-.406,5.112,5.112,0,0,1,2.172.441,3.458,3.458,0,0,1,1.48,1.246,3.261,3.261,0,0,1,.527,1.828H39.246a1.534,1.534,0,0,0-.492-1.215,2.023,2.023,0,0,0-1.383-.434,2.162,2.162,0,0,0-1.336.363,1.146,1.146,0,0,0-.477.957,1.1,1.1,0,0,0,.559.93,6.311,6.311,0,0,0,1.645.7,7.106,7.106,0,0,1,2.914,1.492A2.972,2.972,0,0,1,41.59,52a2.737,2.737,0,0,1-1.117,2.316,4.891,4.891,0,0,1-3.008.84,5.808,5.808,0,0,1-2.391-.48,3.783,3.783,0,0,1-1.645-1.316,3.371,3.371,0,0,1-.566-1.937h2.352q0,1.883,2.25,1.883a2.189,2.189,0,0,0,1.3-.34A1.106,1.106,0,0,0,39.238,52.016Zm6.281-1.023V55H43.176V43.625h4.438a5.134,5.134,0,0,1,2.254.469,3.454,3.454,0,0,1,1.5,1.332,3.714,3.714,0,0,1,.523,1.965,3.266,3.266,0,0,1-1.145,2.637,4.767,4.767,0,0,1-3.168.965Zm0-1.9h2.094a2.059,2.059,0,0,0,1.418-.437,1.591,1.591,0,0,0,.488-1.25,1.876,1.876,0,0,0-.492-1.352,1.839,1.839,0,0,0-1.359-.531H45.52Zm14.82.977h-4.5v3.047h5.281V55H53.5V43.625h7.609v1.9H55.84v2.711h4.5Zm11.086,1.141A4.025,4.025,0,0,1,70.07,54.1a4.76,4.76,0,0,1-3.223,1.055,4.28,4.28,0,0,1-3.441-1.473,6.038,6.038,0,0,1-1.254-4.043v-.7a6.819,6.819,0,0,1,.578-2.891,4.332,4.332,0,0,1,1.652-1.918,5.164,5.164,0,0,1,5.668.387,4.326,4.326,0,0,1,1.391,2.961H69.1a2.376,2.376,0,0,0-.613-1.6,2.271,2.271,0,0,0-1.605-.5,1.991,1.991,0,0,0-1.754.84,4.707,4.707,0,0,0-.6,2.605V49.7a5.038,5.038,0,0,0,.559,2.7,1.954,1.954,0,0,0,1.762.852,2.314,2.314,0,0,0,1.621-.5,2.241,2.241,0,0,0,.613-1.535ZM81.3,45.523H77.816V55H75.473V45.523H72.035v-1.9H81.3Zm6.82,7.133H84.012L83.23,55H80.738l4.234-11.375h2.172L91.4,55H88.91Zm-3.477-1.9h2.844L86.059,46.5Zm15.445-5.234H96.605V55H94.262V45.523H90.824v-1.9h9.266ZM103.918,55h-2.344V43.625h2.344Zm6.375-2.82,2.578-8.555h2.609L111.52,55h-2.445l-3.945-11.375h2.6Zm12.094.477h-4.109L117.5,55H115l4.234-11.375h2.172L125.668,55h-2.492Zm-3.477-1.9h2.844l-1.43-4.258Zm13.719,1.258A1.2,1.2,0,0,0,132.16,51a6.148,6.148,0,0,0-1.687-.75,11.962,11.962,0,0,1-1.93-.777,3.153,3.153,0,0,1-1.937-2.82,2.747,2.747,0,0,1,.52-1.645,3.389,3.389,0,0,1,1.492-1.129,5.616,5.616,0,0,1,2.184-.406,5.112,5.112,0,0,1,2.172.441,3.458,3.458,0,0,1,1.48,1.246,3.261,3.261,0,0,1,.527,1.828h-2.344a1.534,1.534,0,0,0-.492-1.215,2.023,2.023,0,0,0-1.383-.434,2.162,2.162,0,0,0-1.336.363,1.146,1.146,0,0,0-.477.957,1.1,1.1,0,0,0,.559.93,6.311,6.311,0,0,0,1.645.7,7.106,7.106,0,0,1,2.914,1.492A2.972,2.972,0,0,1,134.98,52a2.737,2.737,0,0,1-1.117,2.316,4.891,4.891,0,0,1-3.008.84,5.808,5.808,0,0,1-2.391-.48,3.783,3.783,0,0,1-1.645-1.316,3.371,3.371,0,0,1-.566-1.937h2.352q0,1.883,2.25,1.883a2.189,2.189,0,0,0,1.3-.34A1.106,1.106,0,0,0,132.629,52.016Z" transform="translate(-5332 -8021)" fill="#fff"/>
    <rect id="Rectángulo_37088-2" data-name="Rectángulo 37088" width="171.866" height="79" rx="10" transform="translate(-5261.866 -7818.25)" fill="#2d54fe"/>
    <path id="Trazado_676007" data-name="Trazado 676007" d="M9.6,12.836H7.73V17H5.387V5.625H9.613a4.778,4.778,0,0,1,3.109.9,3.1,3.1,0,0,1,1.094,2.539,3.5,3.5,0,0,1-.5,1.941,3.437,3.437,0,0,1-1.527,1.238l2.461,4.648V17H11.73Zm-1.867-1.9H9.621a1.936,1.936,0,0,0,1.367-.449,1.606,1.606,0,0,0,.484-1.238,1.719,1.719,0,0,0-.457-1.266,1.9,1.9,0,0,0-1.4-.461H7.73ZM22.441,12.07h-4.5v3.047h5.281V17H15.6V5.625h7.609v1.9H17.941v2.711h4.5ZM33.6,15.563a4.068,4.068,0,0,1-1.789,1.176,7.492,7.492,0,0,1-2.562.418,5.076,5.076,0,0,1-2.59-.645,4.3,4.3,0,0,1-1.719-1.871,6.585,6.585,0,0,1-.621-2.883v-.773a6.994,6.994,0,0,1,.574-2.949,4.248,4.248,0,0,1,1.656-1.906,4.771,4.771,0,0,1,2.535-.66,4.751,4.751,0,0,1,3.164.965A4.123,4.123,0,0,1,33.6,9.242H31.316a2.268,2.268,0,0,0-.691-1.43,2.208,2.208,0,0,0-1.473-.453,2.078,2.078,0,0,0-1.82.9A4.724,4.724,0,0,0,26.7,10.93v.727a4.5,4.5,0,0,0,.68,2.7,2.327,2.327,0,0,0,1.992.914,2.6,2.6,0,0,0,1.883-.562V12.75H29.121V11.023H33.6ZM37.988,17H35.645V5.625h2.344Zm8.07-2.984A1.2,1.2,0,0,0,45.59,13a6.148,6.148,0,0,0-1.687-.75,11.963,11.963,0,0,1-1.93-.777,3.153,3.153,0,0,1-1.937-2.82A2.747,2.747,0,0,1,40.555,7a3.389,3.389,0,0,1,1.492-1.129,5.616,5.616,0,0,1,2.184-.406A5.112,5.112,0,0,1,46.4,5.91a3.458,3.458,0,0,1,1.48,1.246,3.261,3.261,0,0,1,.527,1.828H46.066a1.534,1.534,0,0,0-.492-1.215,2.023,2.023,0,0,0-1.383-.434,2.162,2.162,0,0,0-1.336.363,1.146,1.146,0,0,0-.477.957,1.1,1.1,0,0,0,.559.93,6.311,6.311,0,0,0,1.645.7A7.106,7.106,0,0,1,47.5,11.781,2.972,2.972,0,0,1,48.41,14a2.737,2.737,0,0,1-1.117,2.316,4.891,4.891,0,0,1-3.008.84,5.808,5.808,0,0,1-2.391-.48,3.783,3.783,0,0,1-1.645-1.316,3.371,3.371,0,0,1-.566-1.937h2.352q0,1.883,2.25,1.883a2.189,2.189,0,0,0,1.3-.34A1.106,1.106,0,0,0,46.059,14.016Zm12.5-6.492H55.074V17H52.73V7.523H49.293v-1.9h9.266Zm5.547,5.313H62.238V17H59.895V5.625h4.227a4.778,4.778,0,0,1,3.109.9,3.1,3.1,0,0,1,1.094,2.539A3.5,3.5,0,0,1,67.82,11a3.437,3.437,0,0,1-1.527,1.238l2.461,4.648V17H66.238Zm-1.867-1.9h1.891a1.936,1.936,0,0,0,1.367-.449A1.606,1.606,0,0,0,65.98,9.25a1.719,1.719,0,0,0-.457-1.266,1.9,1.9,0,0,0-1.4-.461H62.238Zm14.289,3.719H72.418L71.637,17H69.145L73.379,5.625h2.172L79.809,17H77.316Zm-3.477-1.9h2.844L74.465,8.5Zm12.031.078H83.215V17H80.871V5.625H85.1a4.778,4.778,0,0,1,3.109.9A3.1,3.1,0,0,1,89.3,9.063,3.5,3.5,0,0,1,88.8,11a3.437,3.437,0,0,1-1.527,1.238l2.461,4.648V17H87.215Zm-1.867-1.9h1.891a1.936,1.936,0,0,0,1.367-.449,1.606,1.606,0,0,0,.484-1.238A1.719,1.719,0,0,0,86.5,7.984a1.9,1.9,0,0,0-1.4-.461H83.215ZM104,13.211a4.025,4.025,0,0,1-1.355,2.891,4.76,4.76,0,0,1-3.223,1.055,4.28,4.28,0,0,1-3.441-1.473,6.038,6.038,0,0,1-1.254-4.043v-.7A6.819,6.819,0,0,1,95.3,8.055a4.332,4.332,0,0,1,1.652-1.918,5.164,5.164,0,0,1,5.668.387,4.326,4.326,0,0,1,1.391,2.961h-2.344a2.376,2.376,0,0,0-.613-1.6,2.271,2.271,0,0,0-1.605-.5,1.991,1.991,0,0,0-1.754.84,4.707,4.707,0,0,0-.6,2.605V11.7a5.038,5.038,0,0,0,.559,2.7,1.954,1.954,0,0,0,1.762.852,2.314,2.314,0,0,0,1.621-.5,2.241,2.241,0,0,0,.613-1.535Zm10.883-1.641a6.867,6.867,0,0,1-.594,2.945,4.472,4.472,0,0,1-1.7,1.953,5.021,5.021,0,0,1-5.059.008,4.515,4.515,0,0,1-1.719-1.941,6.67,6.67,0,0,1-.617-2.9V11.07a6.831,6.831,0,0,1,.605-2.957,4.508,4.508,0,0,1,1.711-1.961,5.014,5.014,0,0,1,5.055,0,4.508,4.508,0,0,1,1.711,1.961,6.811,6.811,0,0,1,.605,2.949Zm-2.375-.516a4.787,4.787,0,0,0-.641-2.719,2.263,2.263,0,0,0-3.648-.012,4.732,4.732,0,0,0-.648,2.691v.555a4.847,4.847,0,0,0,.641,2.7,2.243,2.243,0,0,0,3.656.035,4.819,4.819,0,0,0,.641-2.7Zm7.141-5.43,2.922,8.25,2.906-8.25h3.078V17H126.2V13.891l.234-5.367L123.363,17h-1.609l-3.062-8.469.234,5.359V17h-2.344V5.625Zm20.3,5.945a6.867,6.867,0,0,1-.594,2.945,4.471,4.471,0,0,1-1.7,1.953,5.021,5.021,0,0,1-5.059.008,4.515,4.515,0,0,1-1.719-1.941,6.67,6.67,0,0,1-.617-2.9V11.07a6.831,6.831,0,0,1,.605-2.957,4.508,4.508,0,0,1,1.711-1.961,5.014,5.014,0,0,1,5.055,0,4.508,4.508,0,0,1,1.711,1.961,6.811,6.811,0,0,1,.605,2.949Zm-2.375-.516a4.787,4.787,0,0,0-.641-2.719,2.263,2.263,0,0,0-3.648-.012,4.732,4.732,0,0,0-.648,2.691v.555a4.847,4.847,0,0,0,.641,2.7,2.243,2.243,0,0,0,3.656.035,4.819,4.819,0,0,0,.641-2.7ZM43.988,31.992V36H41.645V24.625h4.438a5.134,5.134,0,0,1,2.254.469,3.454,3.454,0,0,1,1.5,1.332,3.714,3.714,0,0,1,.523,1.965,3.266,3.266,0,0,1-1.145,2.637,4.767,4.767,0,0,1-3.168.965Zm0-1.9h2.094a2.059,2.059,0,0,0,1.418-.437,1.591,1.591,0,0,0,.488-1.25,1.876,1.876,0,0,0-.492-1.352,1.839,1.839,0,0,0-1.359-.531H43.988Zm17.32.477a6.867,6.867,0,0,1-.594,2.945,4.472,4.472,0,0,1-1.7,1.953,5.021,5.021,0,0,1-5.059.008,4.515,4.515,0,0,1-1.719-1.941,6.67,6.67,0,0,1-.617-2.9V30.07a6.831,6.831,0,0,1,.605-2.957,4.508,4.508,0,0,1,1.711-1.961,5.014,5.014,0,0,1,5.055,0A4.508,4.508,0,0,1,60.7,27.113a6.811,6.811,0,0,1,.605,2.949Zm-2.375-.516a4.787,4.787,0,0,0-.641-2.719,2.263,2.263,0,0,0-3.648-.012A4.732,4.732,0,0,0,54,30.016v.555a4.847,4.847,0,0,0,.641,2.7,2.243,2.243,0,0,0,3.656.035,4.819,4.819,0,0,0,.641-2.7Zm9.977,2.961A1.2,1.2,0,0,0,68.441,32a6.148,6.148,0,0,0-1.687-.75,11.963,11.963,0,0,1-1.93-.777,3.153,3.153,0,0,1-1.937-2.82A2.747,2.747,0,0,1,63.406,26,3.389,3.389,0,0,1,64.9,24.875a5.616,5.616,0,0,1,2.184-.406,5.112,5.112,0,0,1,2.172.441,3.458,3.458,0,0,1,1.48,1.246,3.261,3.261,0,0,1,.527,1.828H68.918a1.534,1.534,0,0,0-.492-1.215,2.023,2.023,0,0,0-1.383-.434,2.162,2.162,0,0,0-1.336.363,1.146,1.146,0,0,0-.477.957,1.1,1.1,0,0,0,.559.93,6.311,6.311,0,0,0,1.645.7,7.106,7.106,0,0,1,2.914,1.492A2.972,2.972,0,0,1,71.262,33a2.737,2.737,0,0,1-1.117,2.316,4.891,4.891,0,0,1-3.008.84,5.808,5.808,0,0,1-2.391-.48A3.783,3.783,0,0,1,63.1,34.359a3.371,3.371,0,0,1-.566-1.937h2.352q0,1.883,2.25,1.883a2.189,2.189,0,0,0,1.3-.34A1.106,1.106,0,0,0,68.91,33.016ZM75.34,36H73V24.625H75.34Zm2.172,0V24.625H81.5a5.232,5.232,0,0,1,3.141.793,2.712,2.712,0,0,1,1.07,2.324,2.57,2.57,0,0,1-.43,1.473,2.482,2.482,0,0,1-1.2.934,2.4,2.4,0,0,1,1.379.883,2.61,2.61,0,0,1,.5,1.625,3,3,0,0,1-1.047,2.484A4.713,4.713,0,0,1,81.934,36Zm2.344-4.953v3.07h2.008a1.938,1.938,0,0,0,1.293-.395,1.353,1.353,0,0,0,.465-1.09A1.428,1.428,0,0,0,82,31.047Zm0-1.656H81.59q1.773-.031,1.773-1.414a1.307,1.307,0,0,0-.449-1.113,2.363,2.363,0,0,0-1.418-.34H79.855Zm10.211,4.727h4.977V36h-7.32V24.625h2.344ZM103.23,31.07h-4.5v3.047h5.281V36H96.387V24.625H104v1.9H98.73v2.711h4.5ZM30.1,50.992V55H27.754V43.625h4.438a5.134,5.134,0,0,1,2.254.469,3.454,3.454,0,0,1,1.5,1.332,3.714,3.714,0,0,1,.523,1.965,3.266,3.266,0,0,1-1.145,2.637,4.767,4.767,0,0,1-3.168.965Zm0-1.9h2.094a2.059,2.059,0,0,0,1.418-.437,1.591,1.591,0,0,0,.488-1.25,1.876,1.876,0,0,0-.492-1.352,1.839,1.839,0,0,0-1.359-.531H30.1Zm12.188,1.742H40.418V55H38.074V43.625H42.3a4.778,4.778,0,0,1,3.109.9A3.1,3.1,0,0,1,46.5,47.063,3.5,3.5,0,0,1,46,49a3.437,3.437,0,0,1-1.527,1.238l2.461,4.648V55H44.418Zm-1.867-1.9h1.891a1.936,1.936,0,0,0,1.367-.449,1.606,1.606,0,0,0,.484-1.238,1.719,1.719,0,0,0-.457-1.266,1.9,1.9,0,0,0-1.4-.461H40.418Zm17.211.633a6.867,6.867,0,0,1-.594,2.945,4.472,4.472,0,0,1-1.7,1.953,5.021,5.021,0,0,1-5.059.008,4.515,4.515,0,0,1-1.719-1.941,6.67,6.67,0,0,1-.617-2.9V49.07a6.831,6.831,0,0,1,.605-2.957,4.508,4.508,0,0,1,1.711-1.961,5.014,5.014,0,0,1,5.055,0,4.508,4.508,0,0,1,1.711,1.961,6.811,6.811,0,0,1,.605,2.949Zm-2.375-.516a4.787,4.787,0,0,0-.641-2.719,2.263,2.263,0,0,0-3.648-.012,4.732,4.732,0,0,0-.648,2.691v.555a4.847,4.847,0,0,0,.641,2.7,2.243,2.243,0,0,0,3.656.035,4.819,4.819,0,0,0,.641-2.7Zm8.109,3.125,2.578-8.555h2.609L64.59,55H62.145L58.2,43.625h2.6Zm13.1-2.109h-4.5v3.047h5.281V55H69.621V43.625H77.23v1.9H71.965v2.711h4.5Zm9,0h-4.5v3.047h5.281V55H78.621V43.625H86.23v1.9H80.965v2.711h4.5ZM87.621,55V43.625h3.5A5.315,5.315,0,0,1,93.8,44.3a4.712,4.712,0,0,1,1.848,1.922,5.928,5.928,0,0,1,.664,2.832v.523a5.945,5.945,0,0,1-.652,2.82,4.672,4.672,0,0,1-1.84,1.914,5.355,5.355,0,0,1-2.68.688Zm2.344-9.477v7.594H91.1a2.545,2.545,0,0,0,2.1-.9,4.06,4.06,0,0,0,.742-2.57v-.6a4.124,4.124,0,0,0-.719-2.629,2.537,2.537,0,0,0-2.1-.895Zm17.4,4.047a6.867,6.867,0,0,1-.594,2.945,4.472,4.472,0,0,1-1.7,1.953,5.021,5.021,0,0,1-5.059.008,4.515,4.515,0,0,1-1.719-1.941,6.67,6.67,0,0,1-.617-2.9V49.07a6.831,6.831,0,0,1,.605-2.957,4.508,4.508,0,0,1,1.711-1.961,5.014,5.014,0,0,1,5.055,0,4.508,4.508,0,0,1,1.711,1.961,6.811,6.811,0,0,1,.605,2.949Zm-2.375-.516a4.787,4.787,0,0,0-.641-2.719,2.263,2.263,0,0,0-3.648-.012,4.732,4.732,0,0,0-.648,2.691v.555a4.847,4.847,0,0,0,.641,2.7,2.243,2.243,0,0,0,3.656.035,4.819,4.819,0,0,0,.641-2.7Zm8.289,1.781H111.41V55h-2.344V43.625h4.227a4.778,4.778,0,0,1,3.109.9,3.1,3.1,0,0,1,1.094,2.539,3.5,3.5,0,0,1-.5,1.941,3.437,3.437,0,0,1-1.527,1.238l2.461,4.648V55H115.41Zm-1.867-1.9H113.3a1.936,1.936,0,0,0,1.367-.449,1.606,1.606,0,0,0,.484-1.238,1.719,1.719,0,0,0-.457-1.266,1.9,1.9,0,0,0-1.4-.461H111.41Z" transform="translate(-5247 -7806)" fill="#fff"/>
    <rect id="Rectángulo_37088-3" data-name="Rectángulo 37088" width="171.866" height="67" rx="10" transform="translate(-5261.866 -7591.25)" fill="#2d54fe"/>
    <path id="Trazado_676005" data-name="Trazado 676005" d="M57.117,13.211A4.025,4.025,0,0,1,55.762,16.1a4.76,4.76,0,0,1-3.223,1.055A4.28,4.28,0,0,1,49.1,15.684a6.038,6.038,0,0,1-1.254-4.043v-.7a6.819,6.819,0,0,1,.578-2.891,4.332,4.332,0,0,1,1.652-1.918,5.164,5.164,0,0,1,5.668.387,4.326,4.326,0,0,1,1.391,2.961H54.789a2.376,2.376,0,0,0-.613-1.6,2.271,2.271,0,0,0-1.605-.5,1.991,1.991,0,0,0-1.754.84,4.707,4.707,0,0,0-.6,2.605V11.7a5.038,5.038,0,0,0,.559,2.7,1.954,1.954,0,0,0,1.762.852,2.314,2.314,0,0,0,1.621-.5,2.241,2.241,0,0,0,.613-1.535Zm5.75-.375H61V17H58.656V5.625h4.227a4.778,4.778,0,0,1,3.109.9,3.1,3.1,0,0,1,1.094,2.539,3.5,3.5,0,0,1-.5,1.941,3.437,3.437,0,0,1-1.527,1.238l2.461,4.648V17H65ZM61,10.938h1.891a1.936,1.936,0,0,0,1.367-.449,1.606,1.606,0,0,0,.484-1.238,1.719,1.719,0,0,0-.457-1.266,1.9,1.9,0,0,0-1.4-.461H61ZM75.711,12.07h-4.5v3.047h5.281V17H68.867V5.625h7.609v1.9H71.211v2.711h4.5Zm8.578,2.586H80.18L79.4,17H76.906L81.141,5.625h2.172L87.57,17H85.078Zm-3.477-1.9h2.844L82.227,8.5Zm12.031.078H90.977V17H88.633V5.625h4.227a4.778,4.778,0,0,1,3.109.9,3.1,3.1,0,0,1,1.094,2.539,3.5,3.5,0,0,1-.5,1.941,3.437,3.437,0,0,1-1.527,1.238l2.461,4.648V17H94.977Zm-1.867-1.9h1.891a1.936,1.936,0,0,0,1.367-.449,1.606,1.606,0,0,0,.484-1.238,1.719,1.719,0,0,0-.457-1.266,1.9,1.9,0,0,0-1.4-.461H90.977ZM14.531,36V24.625h3.984a5.232,5.232,0,0,1,3.141.793,2.712,2.712,0,0,1,1.07,2.324,2.57,2.57,0,0,1-.43,1.473,2.482,2.482,0,0,1-1.2.934,2.4,2.4,0,0,1,1.379.883,2.61,2.61,0,0,1,.5,1.625,3,3,0,0,1-1.047,2.484A4.713,4.713,0,0,1,18.953,36Zm2.344-4.953v3.07h2.008a1.938,1.938,0,0,0,1.293-.395,1.353,1.353,0,0,0,.465-1.09,1.428,1.428,0,0,0-1.617-1.586Zm0-1.656h1.734q1.773-.031,1.773-1.414a1.307,1.307,0,0,0-.449-1.113,2.363,2.363,0,0,0-1.418-.34H16.875Zm14.289,4.266H27.055L26.273,36H23.781l4.234-11.375h2.172L34.445,36H31.953Zm-3.477-1.9h2.844L29.1,27.5Zm13.719,1.258A1.2,1.2,0,0,0,40.938,32a6.148,6.148,0,0,0-1.687-.75,11.963,11.963,0,0,1-1.93-.777,3.153,3.153,0,0,1-1.937-2.82A2.747,2.747,0,0,1,35.9,26a3.389,3.389,0,0,1,1.492-1.129,5.616,5.616,0,0,1,2.184-.406,5.112,5.112,0,0,1,2.172.441,3.458,3.458,0,0,1,1.48,1.246,3.261,3.261,0,0,1,.527,1.828H41.414a1.534,1.534,0,0,0-.492-1.215,2.023,2.023,0,0,0-1.383-.434A2.162,2.162,0,0,0,38.2,26.7a1.146,1.146,0,0,0-.477.957,1.1,1.1,0,0,0,.559.93,6.311,6.311,0,0,0,1.645.7,7.106,7.106,0,0,1,2.914,1.492A2.972,2.972,0,0,1,43.758,33a2.737,2.737,0,0,1-1.117,2.316,4.891,4.891,0,0,1-3.008.84,5.808,5.808,0,0,1-2.391-.48A3.783,3.783,0,0,1,35.6,34.359a3.371,3.371,0,0,1-.566-1.937h2.352q0,1.883,2.25,1.883a2.189,2.189,0,0,0,1.3-.34A1.106,1.106,0,0,0,41.406,33.016ZM52.188,31.07h-4.5v3.047h5.281V36H45.344V24.625h7.609v1.9H47.688v2.711h4.5ZM58.328,36V24.625h3.5a5.315,5.315,0,0,1,2.684.676,4.712,4.712,0,0,1,1.848,1.922,5.928,5.928,0,0,1,.664,2.832v.523a5.945,5.945,0,0,1-.652,2.82,4.672,4.672,0,0,1-1.84,1.914,5.355,5.355,0,0,1-2.68.688Zm2.344-9.477v7.594H61.8a2.545,2.545,0,0,0,2.1-.9,4.06,4.06,0,0,0,.742-2.57v-.6a4.124,4.124,0,0,0-.719-2.629,2.537,2.537,0,0,0-2.1-.895Zm14.9,4.547h-4.5v3.047h5.281V36H68.727V24.625h7.609v1.9H71.07v2.711h4.5ZM81.711,36V24.625h3.5a5.315,5.315,0,0,1,2.684.676,4.712,4.712,0,0,1,1.848,1.922,5.928,5.928,0,0,1,.664,2.832v.523a5.945,5.945,0,0,1-.652,2.82,4.672,4.672,0,0,1-1.84,1.914,5.355,5.355,0,0,1-2.68.688Zm2.344-9.477v7.594h1.133a2.545,2.545,0,0,0,2.1-.9,4.06,4.06,0,0,0,.742-2.57v-.6a4.124,4.124,0,0,0-.719-2.629,2.537,2.537,0,0,0-2.1-.895Zm14.477,7.133H94.422L93.641,36H91.148l4.234-11.375h2.172L101.813,36H99.32Zm-3.477-1.9H97.9L96.469,27.5ZM110.5,26.523h-3.484V36h-2.344V26.523h-3.437v-1.9H110.5Zm10.461,4.047a6.867,6.867,0,0,1-.594,2.945,4.472,4.472,0,0,1-1.7,1.953,5.021,5.021,0,0,1-5.059.008,4.515,4.515,0,0,1-1.719-1.941,6.67,6.67,0,0,1-.617-2.9V30.07a6.831,6.831,0,0,1,.605-2.957,4.508,4.508,0,0,1,1.711-1.961,5.014,5.014,0,0,1,5.055,0,4.508,4.508,0,0,1,1.711,1.961,6.811,6.811,0,0,1,.605,2.949Zm-2.375-.516a4.787,4.787,0,0,0-.641-2.719,2.263,2.263,0,0,0-3.648-.012,4.732,4.732,0,0,0-.648,2.691v.555a4.847,4.847,0,0,0,.641,2.7,2.243,2.243,0,0,0,3.656.035,4.819,4.819,0,0,0,.641-2.7Zm9.977,2.961a1.2,1.2,0,0,0-.469-1.02,6.148,6.148,0,0,0-1.687-.75,11.963,11.963,0,0,1-1.93-.777,3.153,3.153,0,0,1-1.937-2.82,2.747,2.747,0,0,1,.52-1.645,3.389,3.389,0,0,1,1.492-1.129,5.616,5.616,0,0,1,2.184-.406,5.112,5.112,0,0,1,2.172.441,3.458,3.458,0,0,1,1.48,1.246,3.261,3.261,0,0,1,.527,1.828H128.57a1.534,1.534,0,0,0-.492-1.215,2.023,2.023,0,0,0-1.383-.434,2.162,2.162,0,0,0-1.336.363,1.146,1.146,0,0,0-.477.957,1.1,1.1,0,0,0,.559.93,6.311,6.311,0,0,0,1.645.7A7.106,7.106,0,0,1,130,30.781,2.972,2.972,0,0,1,130.914,33a2.737,2.737,0,0,1-1.117,2.316,4.891,4.891,0,0,1-3.008.84,5.808,5.808,0,0,1-2.391-.48,3.783,3.783,0,0,1-1.645-1.316,3.371,3.371,0,0,1-.566-1.937h2.352q0,1.883,2.25,1.883a2.189,2.189,0,0,0,1.3-.34A1.106,1.106,0,0,0,128.563,33.016Z" transform="translate(-5247 -7579)" fill="#fff"/>
    <rect id="Rectángulo_37088-4" data-name="Rectángulo 37088" width="171.866" height="43" rx="10" transform="translate(-5261.866 -7504.75)" fill="#2d54fe"/>
    <path id="Trazado_676004" data-name="Trazado 676004" d="M68,12.352H63.5V17H61.152V5.625h7.406v1.9H63.5v2.938H68ZM72.41,17H70.066V5.625H72.41Zm11.422,0H81.488L76.926,9.516V17H74.582V5.625h2.344l4.57,7.5v-7.5h2.336Z" transform="translate(-5247 -7492.5)" fill="#fff"/>
    <rect id="Rectángulo_37088-5" data-name="Rectángulo 37088" width="171.866" height="108" rx="10" transform="translate(-5261.866 -7719.75)" fill="#2d54fe"/>
    <path id="Trazado_676006" data-name="Trazado 676006" d="M26.7,14.016A1.2,1.2,0,0,0,26.234,13a6.148,6.148,0,0,0-1.687-.75,11.963,11.963,0,0,1-1.93-.777,3.153,3.153,0,0,1-1.937-2.82A2.747,2.747,0,0,1,21.2,7a3.389,3.389,0,0,1,1.492-1.129,5.616,5.616,0,0,1,2.184-.406,5.112,5.112,0,0,1,2.172.441,3.458,3.458,0,0,1,1.48,1.246,3.261,3.261,0,0,1,.527,1.828H26.711a1.534,1.534,0,0,0-.492-1.215,2.023,2.023,0,0,0-1.383-.434A2.162,2.162,0,0,0,23.5,7.7a1.146,1.146,0,0,0-.477.957,1.1,1.1,0,0,0,.559.93,6.311,6.311,0,0,0,1.645.7,7.106,7.106,0,0,1,2.914,1.492A2.972,2.972,0,0,1,29.055,14a2.737,2.737,0,0,1-1.117,2.316,4.891,4.891,0,0,1-3.008.84,5.808,5.808,0,0,1-2.391-.48,3.783,3.783,0,0,1-1.645-1.316,3.371,3.371,0,0,1-.566-1.937H22.68q0,1.883,2.25,1.883a2.189,2.189,0,0,0,1.3-.34A1.106,1.106,0,0,0,26.7,14.016ZM37.484,12.07h-4.5v3.047h5.281V17H30.641V5.625H38.25v1.9H32.984v2.711h4.5Zm4.5,3.047h4.977V17h-7.32V5.625h2.344ZM55.148,12.07h-4.5v3.047H55.93V17H48.3V5.625h7.609v1.9H50.648v2.711h4.5Zm11.086,1.141A4.025,4.025,0,0,1,64.879,16.1a4.76,4.76,0,0,1-3.223,1.055,4.28,4.28,0,0,1-3.441-1.473,6.038,6.038,0,0,1-1.254-4.043v-.7a6.819,6.819,0,0,1,.578-2.891,4.332,4.332,0,0,1,1.652-1.918,5.164,5.164,0,0,1,5.668.387A4.326,4.326,0,0,1,66.25,9.484H63.906a2.376,2.376,0,0,0-.613-1.6,2.271,2.271,0,0,0-1.605-.5,1.991,1.991,0,0,0-1.754.84,4.707,4.707,0,0,0-.6,2.605V11.7a5.038,5.038,0,0,0,.559,2.7,1.954,1.954,0,0,0,1.762.852,2.314,2.314,0,0,0,1.621-.5,2.241,2.241,0,0,0,.613-1.535Zm10.469,0A4.025,4.025,0,0,1,75.348,16.1a4.76,4.76,0,0,1-3.223,1.055,4.28,4.28,0,0,1-3.441-1.473,6.038,6.038,0,0,1-1.254-4.043v-.7a6.819,6.819,0,0,1,.578-2.891A4.332,4.332,0,0,1,69.66,6.137a5.164,5.164,0,0,1,5.668.387,4.326,4.326,0,0,1,1.391,2.961H74.375a2.376,2.376,0,0,0-.613-1.6,2.271,2.271,0,0,0-1.605-.5,1.991,1.991,0,0,0-1.754.84,4.707,4.707,0,0,0-.6,2.605V11.7a5.038,5.038,0,0,0,.559,2.7,1.954,1.954,0,0,0,1.762.852,2.314,2.314,0,0,0,1.621-.5,2.241,2.241,0,0,0,.613-1.535ZM80.734,17H78.391V5.625h2.344ZM92.25,11.57a6.867,6.867,0,0,1-.594,2.945,4.472,4.472,0,0,1-1.7,1.953,5.021,5.021,0,0,1-5.059.008,4.515,4.515,0,0,1-1.719-1.941,6.67,6.67,0,0,1-.617-2.9V11.07a6.831,6.831,0,0,1,.605-2.957,4.508,4.508,0,0,1,1.711-1.961,5.014,5.014,0,0,1,5.055,0,4.508,4.508,0,0,1,1.711,1.961,6.811,6.811,0,0,1,.605,2.949Zm-2.375-.516a4.787,4.787,0,0,0-.641-2.719,2.263,2.263,0,0,0-3.648-.012,4.732,4.732,0,0,0-.648,2.691v.555a4.847,4.847,0,0,0,.641,2.7,2.243,2.243,0,0,0,3.656.035,4.819,4.819,0,0,0,.641-2.7ZM103.2,17h-2.344L96.3,9.516V17H93.953V5.625H96.3l4.57,7.5v-7.5H103.2Zm8.469-2.344h-4.109L106.781,17h-2.492l4.234-11.375H110.7L114.953,17h-2.492Zm-3.477-1.9h2.844L109.609,8.5Zm12.031.078h-1.867V17h-2.344V5.625h4.227a4.778,4.778,0,0,1,3.109.9,3.1,3.1,0,0,1,1.094,2.539,3.5,3.5,0,0,1-.5,1.941,3.437,3.437,0,0,1-1.527,1.238l2.461,4.648V17h-2.516Zm-1.867-1.9h1.891a1.936,1.936,0,0,0,1.367-.449A1.606,1.606,0,0,0,122.1,9.25a1.719,1.719,0,0,0-.457-1.266,1.9,1.9,0,0,0-1.4-.461h-1.883ZM30.1,31.992V36H27.754V24.625h4.438a5.134,5.134,0,0,1,2.254.469,3.454,3.454,0,0,1,1.5,1.332,3.714,3.714,0,0,1,.523,1.965,3.266,3.266,0,0,1-1.145,2.637,4.767,4.767,0,0,1-3.168.965Zm0-1.9h2.094a2.059,2.059,0,0,0,1.418-.437,1.591,1.591,0,0,0,.488-1.25,1.876,1.876,0,0,0-.492-1.352,1.839,1.839,0,0,0-1.359-.531H30.1Zm12.188,1.742H40.418V36H38.074V24.625H42.3a4.778,4.778,0,0,1,3.109.9A3.1,3.1,0,0,1,46.5,28.063,3.5,3.5,0,0,1,46,30a3.437,3.437,0,0,1-1.527,1.238l2.461,4.648V36H44.418Zm-1.867-1.9h1.891a1.936,1.936,0,0,0,1.367-.449,1.606,1.606,0,0,0,.484-1.238,1.719,1.719,0,0,0-.457-1.266,1.9,1.9,0,0,0-1.4-.461H40.418Zm17.211.633a6.867,6.867,0,0,1-.594,2.945,4.472,4.472,0,0,1-1.7,1.953,5.021,5.021,0,0,1-5.059.008,4.515,4.515,0,0,1-1.719-1.941,6.67,6.67,0,0,1-.617-2.9V30.07a6.831,6.831,0,0,1,.605-2.957,4.508,4.508,0,0,1,1.711-1.961,5.014,5.014,0,0,1,5.055,0,4.508,4.508,0,0,1,1.711,1.961,6.811,6.811,0,0,1,.605,2.949Zm-2.375-.516a4.787,4.787,0,0,0-.641-2.719,2.263,2.263,0,0,0-3.648-.012,4.732,4.732,0,0,0-.648,2.691v.555a4.847,4.847,0,0,0,.641,2.7,2.243,2.243,0,0,0,3.656.035,4.819,4.819,0,0,0,.641-2.7Zm8.109,3.125,2.578-8.555h2.609L64.59,36H62.145L58.2,24.625h2.6Zm13.1-2.109h-4.5v3.047h5.281V36H69.621V24.625H77.23v1.9H71.965v2.711h4.5Zm9,0h-4.5v3.047h5.281V36H78.621V24.625H86.23v1.9H80.965v2.711h4.5ZM87.621,36V24.625h3.5A5.315,5.315,0,0,1,93.8,25.3a4.712,4.712,0,0,1,1.848,1.922,5.928,5.928,0,0,1,.664,2.832v.523a5.945,5.945,0,0,1-.652,2.82,4.672,4.672,0,0,1-1.84,1.914,5.355,5.355,0,0,1-2.68.688Zm2.344-9.477v7.594H91.1a2.545,2.545,0,0,0,2.1-.9,4.06,4.06,0,0,0,.742-2.57v-.6a4.124,4.124,0,0,0-.719-2.629,2.537,2.537,0,0,0-2.1-.895Zm17.4,4.047a6.867,6.867,0,0,1-.594,2.945,4.472,4.472,0,0,1-1.7,1.953,5.021,5.021,0,0,1-5.059.008,4.515,4.515,0,0,1-1.719-1.941,6.67,6.67,0,0,1-.617-2.9V30.07a6.831,6.831,0,0,1,.605-2.957,4.508,4.508,0,0,1,1.711-1.961,5.014,5.014,0,0,1,5.055,0,4.508,4.508,0,0,1,1.711,1.961,6.811,6.811,0,0,1,.605,2.949Zm-2.375-.516a4.787,4.787,0,0,0-.641-2.719,2.263,2.263,0,0,0-3.648-.012,4.732,4.732,0,0,0-.648,2.691v.555a4.847,4.847,0,0,0,.641,2.7,2.243,2.243,0,0,0,3.656.035,4.819,4.819,0,0,0,.641-2.7Zm8.289,1.781H111.41V36h-2.344V24.625h4.227a4.778,4.778,0,0,1,3.109.9,3.1,3.1,0,0,1,1.094,2.539,3.5,3.5,0,0,1-.5,1.941,3.437,3.437,0,0,1-1.527,1.238l2.461,4.648V36H115.41Zm-1.867-1.9H113.3a1.936,1.936,0,0,0,1.367-.449,1.606,1.606,0,0,0,.484-1.238,1.719,1.719,0,0,0-.457-1.266,1.9,1.9,0,0,0-1.4-.461H111.41ZM11.641,52.016A1.2,1.2,0,0,0,11.172,51a6.148,6.148,0,0,0-1.687-.75,11.963,11.963,0,0,1-1.93-.777,3.153,3.153,0,0,1-1.937-2.82A2.747,2.747,0,0,1,6.137,45a3.389,3.389,0,0,1,1.492-1.129,5.616,5.616,0,0,1,2.184-.406,5.112,5.112,0,0,1,2.172.441,3.458,3.458,0,0,1,1.48,1.246,3.261,3.261,0,0,1,.527,1.828H11.648a1.534,1.534,0,0,0-.492-1.215,2.023,2.023,0,0,0-1.383-.434,2.162,2.162,0,0,0-1.336.363,1.146,1.146,0,0,0-.477.957,1.1,1.1,0,0,0,.559.93,6.311,6.311,0,0,0,1.645.7,7.106,7.106,0,0,1,2.914,1.492A2.972,2.972,0,0,1,13.992,52a2.737,2.737,0,0,1-1.117,2.316,4.891,4.891,0,0,1-3.008.84,5.808,5.808,0,0,1-2.391-.48,3.783,3.783,0,0,1-1.645-1.316,3.371,3.371,0,0,1-.566-1.937H7.617q0,1.883,2.25,1.883a2.189,2.189,0,0,0,1.3-.34A1.106,1.106,0,0,0,11.641,52.016ZM22.422,50.07h-4.5v3.047H23.2V55H15.578V43.625h7.609v1.9H17.922v2.711h4.5Zm11.156,3.492a4.068,4.068,0,0,1-1.789,1.176,7.492,7.492,0,0,1-2.562.418,5.076,5.076,0,0,1-2.59-.645,4.3,4.3,0,0,1-1.719-1.871,6.585,6.585,0,0,1-.621-2.883v-.773a6.994,6.994,0,0,1,.574-2.949,4.248,4.248,0,0,1,1.656-1.906,4.771,4.771,0,0,1,2.535-.66,4.751,4.751,0,0,1,3.164.965,4.123,4.123,0,0,1,1.352,2.809H31.3a2.268,2.268,0,0,0-.691-1.43,2.208,2.208,0,0,0-1.473-.453,2.078,2.078,0,0,0-1.82.9,4.724,4.724,0,0,0-.633,2.672v.727a4.5,4.5,0,0,0,.68,2.7,2.327,2.327,0,0,0,1.992.914,2.6,2.6,0,0,0,1.883-.562V50.75H29.1V49.023h4.477Zm10.508-9.937v7.492a3.836,3.836,0,0,1-1.168,2.953,4.5,4.5,0,0,1-3.191,1.086A4.553,4.553,0,0,1,36.563,54.1a3.77,3.77,0,0,1-1.2-2.9V43.625h2.344v7.508a2.167,2.167,0,0,0,.535,1.629,2.054,2.054,0,0,0,1.48.512q1.977,0,2.008-2.078v-7.57Zm-3.937-3.047h2.461L40.445,43H38.609ZM55.258,55H52.914l-4.562-7.484V55H46.008V43.625h2.344l4.57,7.5v-7.5h2.336Zm14.961-3.789A4.025,4.025,0,0,1,68.863,54.1a4.76,4.76,0,0,1-3.223,1.055A4.28,4.28,0,0,1,62.2,53.684a6.038,6.038,0,0,1-1.254-4.043v-.7a6.819,6.819,0,0,1,.578-2.891,4.332,4.332,0,0,1,1.652-1.918,5.164,5.164,0,0,1,5.668.387,4.326,4.326,0,0,1,1.391,2.961H67.891a2.376,2.376,0,0,0-.613-1.6,2.271,2.271,0,0,0-1.605-.5,1.991,1.991,0,0,0-1.754.84,4.707,4.707,0,0,0-.6,2.605V49.7a5.038,5.038,0,0,0,.559,2.7,1.954,1.954,0,0,0,1.762.852,2.314,2.314,0,0,0,1.621-.5,2.241,2.241,0,0,0,.613-1.535Zm5.75-.375H74.1V55H71.758V43.625h4.227a4.778,4.778,0,0,1,3.109.9,3.1,3.1,0,0,1,1.094,2.539,3.5,3.5,0,0,1-.5,1.941,3.437,3.437,0,0,1-1.527,1.238l2.461,4.648V55H78.1Zm-1.867-1.9h1.891a1.936,1.936,0,0,0,1.367-.449,1.606,1.606,0,0,0,.484-1.238,1.719,1.719,0,0,0-.457-1.266,1.9,1.9,0,0,0-1.4-.461H74.1ZM84.461,55H82.117V43.625h2.344ZM95.2,45.523H91.711V55H89.367V45.523H85.93v-1.9H95.2Zm8.18,4.547h-4.5v3.047h5.281V55H96.531V43.625h7.609v1.9H98.875v2.711h4.5Zm6.367.766h-1.867V55h-2.344V43.625h4.227a4.778,4.778,0,0,1,3.109.9,3.1,3.1,0,0,1,1.094,2.539,3.5,3.5,0,0,1-.5,1.941,3.437,3.437,0,0,1-1.527,1.238l2.461,4.648V55h-2.516Zm-1.867-1.9h1.891a1.936,1.936,0,0,0,1.367-.449,1.606,1.606,0,0,0,.484-1.238,1.719,1.719,0,0,0-.457-1.266,1.9,1.9,0,0,0-1.4-.461h-1.883ZM118.234,55h-2.344V43.625h2.344Zm11.516-5.43a6.867,6.867,0,0,1-.594,2.945,4.471,4.471,0,0,1-1.7,1.953,5.021,5.021,0,0,1-5.059.008,4.515,4.515,0,0,1-1.719-1.941,6.67,6.67,0,0,1-.617-2.9V49.07a6.831,6.831,0,0,1,.605-2.957,4.508,4.508,0,0,1,1.711-1.961,5.014,5.014,0,0,1,5.055,0,4.508,4.508,0,0,1,1.711,1.961,6.811,6.811,0,0,1,.605,2.949Zm-2.375-.516a4.787,4.787,0,0,0-.641-2.719,2.263,2.263,0,0,0-3.648-.012,4.732,4.732,0,0,0-.648,2.691v.555a4.847,4.847,0,0,0,.641,2.7,2.243,2.243,0,0,0,3.656.035,4.819,4.819,0,0,0,.641-2.7Zm9.977,2.961a1.2,1.2,0,0,0-.469-1.02,6.148,6.148,0,0,0-1.687-.75,11.962,11.962,0,0,1-1.93-.777,3.153,3.153,0,0,1-1.937-2.82,2.747,2.747,0,0,1,.52-1.645,3.389,3.389,0,0,1,1.492-1.129,5.616,5.616,0,0,1,2.184-.406,5.112,5.112,0,0,1,2.172.441,3.458,3.458,0,0,1,1.48,1.246,3.261,3.261,0,0,1,.527,1.828h-2.344a1.534,1.534,0,0,0-.492-1.215,2.023,2.023,0,0,0-1.383-.434,2.162,2.162,0,0,0-1.336.363,1.146,1.146,0,0,0-.477.957,1.1,1.1,0,0,0,.559.93,6.311,6.311,0,0,0,1.645.7,7.106,7.106,0,0,1,2.914,1.492A2.972,2.972,0,0,1,139.7,52a2.737,2.737,0,0,1-1.117,2.316,4.891,4.891,0,0,1-3.008.84,5.808,5.808,0,0,1-2.391-.48,3.783,3.783,0,0,1-1.645-1.316,3.371,3.371,0,0,1-.566-1.937h2.352q0,1.883,2.25,1.883a2.189,2.189,0,0,0,1.3-.34A1.106,1.106,0,0,0,137.352,52.016ZM23.934,69.07h-4.5v3.047h5.281V74H17.09V62.625H24.7v1.9H19.434v2.711h4.5Zm8.055,1.945A1.2,1.2,0,0,0,31.52,70a6.148,6.148,0,0,0-1.687-.75,11.963,11.963,0,0,1-1.93-.777,3.153,3.153,0,0,1-1.937-2.82A2.747,2.747,0,0,1,26.484,64a3.389,3.389,0,0,1,1.492-1.129,5.616,5.616,0,0,1,2.184-.406,5.112,5.112,0,0,1,2.172.441,3.458,3.458,0,0,1,1.48,1.246,3.261,3.261,0,0,1,.527,1.828H32A1.534,1.534,0,0,0,31.5,64.77a2.023,2.023,0,0,0-1.383-.434,2.162,2.162,0,0,0-1.336.363,1.146,1.146,0,0,0-.477.957,1.1,1.1,0,0,0,.559.93,6.311,6.311,0,0,0,1.645.7,7.106,7.106,0,0,1,2.914,1.492A2.972,2.972,0,0,1,34.34,71a2.737,2.737,0,0,1-1.117,2.316,4.891,4.891,0,0,1-3.008.84,5.808,5.808,0,0,1-2.391-.48,3.783,3.783,0,0,1-1.645-1.316,3.371,3.371,0,0,1-.566-1.937h2.352q0,1.883,2.25,1.883a2.189,2.189,0,0,0,1.3-.34A1.106,1.106,0,0,0,31.988,71.016Zm12.5-6.492H41V74H38.66V64.523H35.223v-1.9h9.266Zm6.82,7.133H47.2L46.418,74H43.926L48.16,62.625h2.172L54.59,74H52.1Zm-3.477-1.9h2.844L49.246,65.5ZM55.652,74V62.625h3.984a5.232,5.232,0,0,1,3.141.793,2.711,2.711,0,0,1,1.07,2.324,2.57,2.57,0,0,1-.43,1.473,2.482,2.482,0,0,1-1.2.934,2.4,2.4,0,0,1,1.379.883,2.61,2.61,0,0,1,.5,1.625,3,3,0,0,1-1.047,2.484A4.713,4.713,0,0,1,60.074,74ZM58,69.047v3.07H60a1.938,1.938,0,0,0,1.293-.395,1.353,1.353,0,0,0,.465-1.09,1.428,1.428,0,0,0-1.617-1.586Zm0-1.656H59.73q1.773-.031,1.773-1.414a1.307,1.307,0,0,0-.449-1.113,2.363,2.363,0,0,0-1.418-.34H58Zm10.211,4.727h4.977V74h-7.32V62.625h2.344ZM81.371,69.07h-4.5v3.047h5.281V74H74.527V62.625h7.609v1.9H76.871v2.711h4.5Zm11.086,1.141A4.025,4.025,0,0,1,91.1,73.1a4.76,4.76,0,0,1-3.223,1.055,4.28,4.28,0,0,1-3.441-1.473,6.038,6.038,0,0,1-1.254-4.043v-.7a6.819,6.819,0,0,1,.578-2.891,4.332,4.332,0,0,1,1.652-1.918,5.164,5.164,0,0,1,5.668.387,4.326,4.326,0,0,1,1.391,2.961H90.129a2.376,2.376,0,0,0-.613-1.6,2.271,2.271,0,0,0-1.605-.5,1.991,1.991,0,0,0-1.754.84,4.707,4.707,0,0,0-.6,2.605V68.7a5.038,5.038,0,0,0,.559,2.7,1.954,1.954,0,0,0,1.762.852,2.314,2.314,0,0,0,1.621-.5,2.241,2.241,0,0,0,.613-1.535ZM96.488,74H94.145V62.625h2.344Zm2.172,0V62.625h3.5a5.315,5.315,0,0,1,2.684.676,4.712,4.712,0,0,1,1.848,1.922,5.928,5.928,0,0,1,.664,2.832v.523a5.945,5.945,0,0,1-.652,2.82,4.672,4.672,0,0,1-1.84,1.914,5.355,5.355,0,0,1-2.68.688ZM101,64.523v7.594h1.133a2.545,2.545,0,0,0,2.1-.9,4.06,4.06,0,0,0,.742-2.57v-.6a4.124,4.124,0,0,0-.719-2.629,2.537,2.537,0,0,0-2.1-.895Zm17.4,4.047a6.867,6.867,0,0,1-.594,2.945,4.472,4.472,0,0,1-1.7,1.953,5.021,5.021,0,0,1-5.059.008,4.515,4.515,0,0,1-1.719-1.941,6.67,6.67,0,0,1-.617-2.9V68.07a6.831,6.831,0,0,1,.605-2.957,4.508,4.508,0,0,1,1.711-1.961,5.014,5.014,0,0,1,5.055,0,4.508,4.508,0,0,1,1.711,1.961,6.811,6.811,0,0,1,.605,2.949Zm-2.375-.516a4.787,4.787,0,0,0-.641-2.719,2.263,2.263,0,0,0-3.648-.012,4.732,4.732,0,0,0-.648,2.691v.555a4.847,4.847,0,0,0,.641,2.7,2.243,2.243,0,0,0,3.656.035,4.819,4.819,0,0,0,.641-2.7ZM126,71.016a1.2,1.2,0,0,0-.469-1.02,6.148,6.148,0,0,0-1.687-.75,11.963,11.963,0,0,1-1.93-.777,3.153,3.153,0,0,1-1.937-2.82A2.747,2.747,0,0,1,120.5,64a3.389,3.389,0,0,1,1.492-1.129,5.616,5.616,0,0,1,2.184-.406,5.112,5.112,0,0,1,2.172.441,3.458,3.458,0,0,1,1.48,1.246,3.261,3.261,0,0,1,.527,1.828h-2.344a1.534,1.534,0,0,0-.492-1.215,2.023,2.023,0,0,0-1.383-.434,2.162,2.162,0,0,0-1.336.363,1.146,1.146,0,0,0-.477.957,1.1,1.1,0,0,0,.559.93,6.311,6.311,0,0,0,1.645.7,7.106,7.106,0,0,1,2.914,1.492A2.972,2.972,0,0,1,128.355,71a2.737,2.737,0,0,1-1.117,2.316,4.891,4.891,0,0,1-3.008.84,5.808,5.808,0,0,1-2.391-.48,3.783,3.783,0,0,1-1.645-1.316,3.371,3.371,0,0,1-.566-1.937h2.352q0,1.883,2.25,1.883a2.189,2.189,0,0,0,1.3-.34A1.106,1.106,0,0,0,126,71.016Z" transform="translate(-5247 -7707.5)" fill="#fff"/>
    <path id="Trazado_180897" data-name="Trazado 180897" d="M-4830.5-3952.051h66.758V-2878H-4816.5" transform="translate(-273.5 -4605.25)" fill="none" stroke="#fe502d" stroke-width="3"/>
    <path id="Trazado_180898" data-name="Trazado 180898" d="M-4882-3290.5h138.8" transform="translate(-293 -4605.25)" fill="none" stroke="#fe502d" stroke-width="3"/>
    <path id="Trazado_180899" data-name="Trazado 180899" d="M-5022.116-3262.75V-2878h53.25" transform="translate(-293 -4605.25)" fill="none" stroke="#fe502d" stroke-width="3"/>
    <path id="Trazado_180900" data-name="Trazado 180900" d="M-5022.116-3173.5c14.316-.1,52.716,0,52.716,0" transform="translate(-293 -4605.25)" fill="none" stroke="#fe502d" stroke-width="3"/>
    <path id="Trazado_180901" data-name="Trazado 180901" d="M-5022.116-3173.5c14.316-.1,52.716,0,52.716,0" transform="translate(-293 -4492.25)" fill="none" stroke="#fe502d" stroke-width="3"/>
    <path id="Trazado_180902" data-name="Trazado 180902" d="M-5022.116-3173.5c14.316-.1,52.716,0,52.716,0" transform="translate(-293 -4384.75)" fill="none" stroke="#fe502d" stroke-width="3"/>
    <path id="Trazado_180905" data-name="Trazado 180905" d="M-4902-4086.551v18.5" transform="translate(-283.5 -4601)" fill="none" stroke="#fe502d" stroke-width="3"/>
    <path id="Trazado_180906" data-name="Trazado 180906" d="M-4987-3349v15.2h-36.1v17.2" transform="translate(-293 -4605.25)" fill="none" stroke="#fe502d" stroke-width="3"/>
    <path id="Trazado_180908" data-name="Trazado 180908" d="M-4987-3349v15.2h-36.1v17.2" transform="translate(-210.65 -5266.451)" fill="none" stroke="#fe502d" stroke-width="3"/>
    <path id="Trazado_180907" data-name="Trazado 180907" d="M-5023.1-3349v15.2h36.1v17.2" transform="translate(-220 -4605.25)" fill="none" stroke="#fe502d" stroke-width="3"/>
    <path id="Trazado_180909" data-name="Trazado 180909" d="M-5023.1-3349v15.2h36.1v17.2" transform="translate(-147.65 -5266.451)" fill="none" stroke="#fe502d" stroke-width="3"/>
    <path id="Trazado_180910" data-name="Trazado 180910" d="M-4940.5-3924.3v21.634h-27.767v21.6" transform="translate(-293 -4605.25)" fill="none" stroke="#fe502d" stroke-width="3"/>
    <g id="Grupo_118305" data-name="Grupo 118305" transform="translate(-2066 -4733.25)">
      <path id="Trazado_100597" data-name="Trazado 100597" d="M0,3.308,3.308,0,14.857,11.548l3.308,3.308-3.308,3.308L3.308,29.713,0,26.4,11.548,14.857Z" transform="translate(-3262.786 -3930.735) rotate(90)" fill="#fe502d"/>
      <path id="Trazado_100598" data-name="Trazado 100598" d="M0,3.308,3.308,0,14.857,11.548l3.308,3.308-3.308,3.308L3.308,29.713,0,26.4,11.548,14.857Z" transform="translate(-3262.786 -3945.801) rotate(90)" fill="#fe502d"/>
      <path id="Trazado_100599" data-name="Trazado 100599" d="M0,3.308,3.308,0,14.857,11.548l3.308,3.308-3.308,3.308L3.308,29.713,0,26.4,11.548,14.857Z" transform="translate(-3262.786 -3960.867) rotate(90)" fill="#fe502d"/>
      <path id="Trazado_100600" data-name="Trazado 100600" d="M0,3.308,3.308,0,14.857,11.548l3.308,3.308-3.308,3.308L3.308,29.713,0,26.4,11.548,14.857Z" transform="translate(-3262.786 -3975.934) rotate(90)" fill="#fe502d"/>
      <path id="Trazado_100601" data-name="Trazado 100601" d="M11.548,14.857,0,3.308,3.308,0,14.857,11.548l3.308,3.308-3.308,3.308L3.308,29.713,0,26.4Z" transform="translate(-3262.786 -3991) rotate(90)" fill="#fe502d"/>
    </g>
    <g id="Grupo_118306" data-name="Grupo 118306" transform="translate(-2811 -4211.25)">
      <path id="Trazado_100597-2" data-name="Trazado 100597" d="M0,3.308,3.308,0,14.857,11.548l3.308,3.308-3.308,3.308L3.308,29.713,0,26.4,11.548,14.857Z" transform="translate(-2218.357 -3278.835) rotate(-90)" fill="#2d54fe"/>
      <path id="Trazado_100598-2" data-name="Trazado 100598" d="M0,3.308,3.308,0,14.857,11.548l3.308,3.308-3.308,3.308L3.308,29.713,0,26.4,11.548,14.857Z" transform="translate(-2218.357 -3263.768) rotate(-90)" fill="#2d54fe"/>
      <path id="Trazado_100599-2" data-name="Trazado 100599" d="M0,3.308,3.308,0,14.857,11.548l3.308,3.308-3.308,3.308L3.308,29.713,0,26.4,11.548,14.857Z" transform="translate(-2218.357 -3248.702) rotate(-90)" fill="#2d54fe"/>
      <path id="Trazado_100600-2" data-name="Trazado 100600" d="M0,3.308,3.308,0,14.857,11.548l3.308,3.308-3.308,3.308L3.308,29.713,0,26.4,11.548,14.857Z" transform="translate(-2218.357 -3233.636) rotate(-90)" fill="#2d54fe"/>
      <path id="Trazado_100601-2" data-name="Trazado 100601" d="M11.548,14.857,0,3.308,3.308,0,14.857,11.548l3.308,3.308-3.308,3.308L3.308,29.713,0,26.4Z" transform="translate(-2218.357 -3218.569) rotate(-90)" fill="#2d54fe"/>
    </g>
  </g>
</svg>
