<svg xmlns="http://www.w3.org/2000/svg" xmlns:xlink="http://www.w3.org/1999/xlink" width="1240" height="631" viewBox="0 0 1240 631">
  <defs>
    <clipPath id="clip-path">
      <path id="Trazado_180193" data-name="Trazado 180193" d="M1502.3,813.646c-91.551,84.2-205.452,84.033-321.312,37.348h-.006c-67.807-27.306-139.529-74.695-178.514-135.766C949.74,633.75,968.13,563.661,1008.792,476,1062.758,359.577,1150.1,290.558,1278.668,304.8c164.964,18.263,269.1,138.243,297.6,297.6C1590.63,682.669,1560.348,760.272,1502.3,813.646Z" transform="translate(-970.008 -302.947)" fill="none"/>
    </clipPath>
  </defs>
  <g id="Grupo_118283" data-name="Grupo 118283" transform="translate(-180 -4593)">
    <rect id="Rectángulo_36973" data-name="Rectángulo 36973" width="1240" height="631" transform="translate(180 4593)" fill="#2d54fe" opacity="0.3"/>
    <g id="Grupo_117965" data-name="Grupo 117965" transform="translate(-474.808 4315.824)">
      <path id="Trazado_180134" data-name="Trazado 180134" d="M1502.3,813.646c-91.551,84.2-205.452,84.033-321.312,37.348h-.006c-67.807-27.306-139.529-74.695-178.514-135.766C949.74,633.75,968.13,563.661,1008.792,476,1062.758,359.577,1150.1,290.558,1278.668,304.8c164.964,18.263,269.1,138.243,297.6,297.6C1590.63,682.669,1560.348,760.272,1502.3,813.646Z" transform="translate(0)" fill="#fcecdb"/>
      <g id="Grupo_117964" data-name="Grupo 117964" transform="translate(970.008 302.947)">
        <g id="Grupo_117963" data-name="Grupo 117963" clip-path="url(#clip-path)">
          <g id="Grupo_117962" data-name="Grupo 117962" transform="translate(-1.346 46.288)">
            <g id="Grupo_117938" data-name="Grupo 117938" transform="translate(0 82.715)">
              <g id="Grupo_117934" data-name="Grupo 117934" transform="translate(263.779 10.403)">
                <path id="Trazado_180135" data-name="Trazado 180135" d="M1474.033,836.052s-42.805-8.615-49.956-7.935-31.927,11.814-32.206,13.851.951,3.661,5.286,3.839,18.538-2.026,17.678-.275-41.685,10.892-41.923,19.162,22.649,23.033,41.674,23.565,55.8-22.519,58.993-22.881C1500.674,862.3,1474.033,836.052,1474.033,836.052Z" transform="translate(-1372.911 -625.437)" fill="#ed975d"/>
                <g id="Grupo_117932" data-name="Grupo 117932" transform="translate(78.621)">
                  <path id="Trazado_180136" data-name="Trazado 180136" d="M1749.929,632.452c-16.721,20.823-30.661,36.968-38.008,42.836a165.521,165.521,0,0,1-21.7,14.218c-61.029,34.442-178.408,69.39-178.408,69.39s-.083-.055-.233-.167a51.335,51.335,0,0,1-14.655-17.617c-4.468-9.041-3.549-14.65-2.22-17.59a7.754,7.754,0,0,1,1.766-2.6s140.661-89.9,151.911-99.259c6.378-5.31,29.482-59.1,48.3-104.7q3.944,5.723,7.646,11.621C1724.073,559.935,1739.309,594.931,1749.929,632.452Z" transform="translate(-1493.614 -516.971)" fill="#ed7d2b"/>
                </g>
                <g id="Grupo_117933" data-name="Grupo 117933" transform="translate(270.877 269.546)">
                  <path id="Trazado_180137" data-name="Trazado 180137" d="M1853.8,935.915q-1.329,3.771-2.79,7.5a233.964,233.964,0,0,1-16.432,33.673v.005q-5.664,9.617-12.235,18.7a250.089,250.089,0,0,1-33.563,37.742c.067-.941.139-1.882.206-2.818.1-1.449.2-2.89.3-4.318q.341-4.75.664-9.329.133-1.777.255-3.521c.537-7.552,1.046-14.711,1.522-21.427q.208-2.9.4-5.686c.038-.554.078-1.1.115-1.651.083-1.09.156-2.175.233-3.244.072-.969.139-1.921.2-2.868.006-.1.012-.194.023-.288q.1-1.445.2-2.857c.116-1.589.228-3.14.332-4.662.066-.946.134-1.877.2-2.8q.149-2.15.294-4.191c.027-.327.05-.659.071-.986.05-.647.094-1.295.139-1.926q.033-.482.067-.946a.9.9,0,0,0,.005-.117c.089-1.218.171-2.409.255-3.56.005-.061.01-.122.01-.184.06-.841.122-1.666.178-2.469.016-.272.038-.537.055-.8.034-.459.068-.914.094-1.362.028-.365.056-.731.078-1.09.177-2.514.343-4.812.487-6.871.022-.294.044-.587.061-.87s.044-.581.061-.863c.038-.543.078-1.07.111-1.572.26-3.638.443-6.29.554-7.846q.016-.241.033-.449c.005-.044.005-.088.011-.133.012-.143.017-.272.022-.381.033-.438.05-.665.05-.665Z" transform="translate(-1788.778 -930.794)" fill="#6bb7bf"/>
                  <path id="Trazado_180138" data-name="Trazado 180138" d="M1853.8,935.915q-1.329,3.771-2.79,7.5a233.964,233.964,0,0,1-16.432,33.673v.005q-5.664,9.617-12.235,18.7a250.089,250.089,0,0,1-33.563,37.742c.067-.941.139-1.882.206-2.818.1-1.449.2-2.89.3-4.318q.341-4.75.664-9.329.133-1.777.255-3.521c.537-7.552,1.046-14.711,1.522-21.427q.208-2.9.4-5.686c.038-.554.078-1.1.115-1.651.083-1.09.156-2.175.233-3.244.072-.969.139-1.921.2-2.868.006-.1.012-.194.023-.288q.1-1.445.2-2.857c.116-1.589.228-3.14.332-4.662.066-.946.134-1.877.2-2.8q.149-2.15.294-4.191c.027-.327.05-.659.071-.986.05-.647.094-1.295.139-1.926q.033-.482.067-.946a.9.9,0,0,0,.005-.117c.089-1.218.171-2.409.255-3.56.005-.061.01-.122.01-.184.06-.841.122-1.666.178-2.469.016-.272.038-.537.055-.8.034-.459.068-.914.094-1.362.028-.365.056-.731.078-1.09.177-2.514.343-4.812.487-6.871.022-.294.044-.587.061-.87s.044-.581.061-.863c.038-.543.078-1.07.111-1.572.26-3.638.443-6.29.554-7.846q.016-.241.033-.449c.005-.044.005-.088.011-.133.012-.143.017-.272.022-.381.033-.438.05-.665.05-.665Z" transform="translate(-1788.778 -930.794)" fill="#599dad"/>
                </g>
                <path id="Trazado_180139" data-name="Trazado 180139" d="M1862.414,683.28a224.035,224.035,0,0,1-9.285,114.578q-1.329,3.771-2.79,7.5a233.958,233.958,0,0,1-16.432,33.673v.005q-5.664,9.617-12.235,18.7c-12.541-1.81-22.744-3.295-29.034-3.455a8.047,8.047,0,0,1-1.578-.216,8.236,8.236,0,0,1-3.726-2.021c-1.245-1.079-.067-59.02,3.754-132,.111-2.813.221-5.907.586-8.7l.028-1.03q.357-7.225.758-14.588.24-4.243.493-8.526c1.179-19.461,2.641-39.37,4.23-59.224q.233-2.858.454-5.7c2.508-30.556,5.453-60.592,8.93-87.461,19.744,31.343,34.98,66.339,45.6,103.859Q1858.337,660.44,1862.414,683.28Z" transform="translate(-1517.231 -523.192)" fill="#f99746"/>
              </g>
              <g id="Grupo_117937" data-name="Grupo 117937">
                <path id="Trazado_180140" data-name="Trazado 180140" d="M1051.682,779.3c-.7-20.43-1.738-44.763-3.112-71.045-.11-2.813-.233-5.907-.587-8.7l-.044-1.03c-.111-2.331-.221-4.672-.344-7.025q-.1-1.994-.21-3.993-.314-6-.692-12.1c-1.179-19.461-2.647-39.37-4.219-59.224-.166-1.905-.316-3.809-.471-5.7-2.314-28.309-5.011-56.168-8.166-81.475V529c-.022-.143-.039-.282-.055-.426-.393-3.178-.809-6.334-1.219-9.428-.824-6.24-1.682-12.3-2.574-18.143q-1.827,2.99-3.6,6.035-10.465,17.888-19.517,37.493a598.878,598.878,0,0,0-31.53,85.612c-.055.193-.111.382-.166.575a185.693,185.693,0,0,0-5.974,29.278V660c-.172,1.367-.321,2.74-.454,4.107v.005c-4.2,43.55,8.205,84.3,31.769,120.718.8,1.258,1.633,2.508,2.475,3.754q2.492,3.712,5.154,7.363,1.868,2.583,3.825,5.133c.266.359.543.714.825,1.074a298.2,298.2,0,0,0,30.212,33.368q2.692,2.567,5.454,5.094c.455.415.92.837,1.379,1.251a8.855,8.855,0,0,0,2.48-1.611C1053.121,839.558,1052.928,815.59,1051.682,779.3Z" transform="translate(-967.941 -501)" fill="#2a4e96"/>
                <path id="Trazado_180141" data-name="Trazado 180141" d="M1052.358,802.6c-32.815-34.388-60.165-76.592-82.478-119.306v-.006a185.693,185.693,0,0,1,5.974-29.278c.055-.193.111-.382.166-.575a598.878,598.878,0,0,1,31.53-85.612c20.142,28.79,34.259,55.288,35.129,65.958.155,1.893.3,3.8.471,5.7,1.572,19.854,3.039,39.763,4.219,59.224q.374,6.087.692,12.1.109,2,.21,3.993c.122,2.353.233,4.694.344,7.025l.044,1.03c.354,2.8.477,5.891.587,8.7C1050.619,757.84,1051.66,782.173,1052.358,802.6Z" transform="translate(-968.617 -524.299)" fill="#1e3d70"/>
                <g id="Grupo_117936" data-name="Grupo 117936" transform="translate(7.403 6.035)">
                  <path id="Trazado_180142" data-name="Trazado 180142" d="M1316.9,844.264s43.664.042,50.538,2.127,28.949,17.91,28.82,19.963-1.658,3.4-5.942,2.714-17.768-5.661-17.273-3.775,38.7,18.941,37.291,27.1-26.766,18.084-45.519,14.833-50.225-33.134-53.285-34.125C1285.58,864.7,1316.9,844.264,1316.9,844.264Z" transform="translate(-1091.547 -626.712)" fill="#ffb27d"/>
                  <g id="Grupo_117935" data-name="Grupo 117935">
                    <path id="Trazado_180143" data-name="Trazado 180143" d="M1212.566,742.722A51.339,51.339,0,0,1,1199.942,757a36.3,36.3,0,0,1-3.454,2.436s-84.023-31.458-144.93-64.7c-20.13-10.99-37.737-22.175-48.948-32.478-5.066-4.656-13.282-15.048-23.3-28.884a598.878,598.878,0,0,1,31.53-85.612q9.069-19.565,19.517-37.493c2.429,7.237,4.933,14.633,7.446,21.963v.012c13.343,38.922,27.018,76.232,31.89,80.888,10.575,10.121,144.714,109.484,144.714,109.484a9.35,9.35,0,0,1,2.209,5.294C1217.051,731.184,1216.447,736.061,1212.566,742.722Z" transform="translate(-979.307 -510.265)" fill="#2a4e96"/>
                  </g>
                </g>
              </g>
            </g>
            <rect id="Rectángulo_36916" data-name="Rectángulo 36916" width="229.093" height="207.794" transform="translate(176.802 12.464)" fill="#ddebfd"/>
            <rect id="Rectángulo_36917" data-name="Rectángulo 36917" width="229.093" height="12.464" transform="translate(176.802)" fill="#739af0"/>
            <g id="Grupo_117939" data-name="Grupo 117939" transform="translate(181.993 3.738)">
              <path id="Trazado_180144" data-name="Trazado 180144" d="M1249.843,379.75a2.494,2.494,0,1,0,2.495,2.494A2.495,2.495,0,0,0,1249.843,379.75Z" transform="translate(-1247.348 -379.75)" fill="#ddebfd"/>
              <path id="Trazado_180145" data-name="Trazado 180145" d="M1264.831,379.75a2.494,2.494,0,1,0,2.495,2.494A2.495,2.495,0,0,0,1264.831,379.75Z" transform="translate(-1252.573 -379.75)" fill="#ddebfd"/>
              <path id="Trazado_180146" data-name="Trazado 180146" d="M1279.927,379.75a2.494,2.494,0,1,0,2.495,2.494A2.5,2.5,0,0,0,1279.927,379.75Z" transform="translate(-1257.837 -379.75)" fill="#ddebfd"/>
            </g>
            <g id="Grupo_117940" data-name="Grupo 117940" transform="translate(211.84 31.225)">
              <path id="Trazado_180147" data-name="Trazado 180147" d="M1342.779,430.259H1430.3a4.167,4.167,0,0,0,4.155-4.155h0a4.167,4.167,0,0,0-4.155-4.154h-87.523a4.166,4.166,0,0,0-4.154,4.154h0A4.166,4.166,0,0,0,1342.779,430.259Z" transform="translate(-1309.018 -421.95)" fill="#a8c3f7"/>
              <path id="Trazado_180148" data-name="Trazado 180148" d="M1312.162,452.155h127.408a4.154,4.154,0,0,0,0-8.309H1312.162a4.154,4.154,0,0,0,0,8.309Z" transform="translate(-1298.344 -429.584)" fill="#a8c3f7"/>
              <path id="Trazado_180149" data-name="Trazado 180149" d="M1296.218,510.96h153.558a3.047,3.047,0,1,0,0-6.093H1296.218a3.047,3.047,0,1,0,0,6.093Z" transform="translate(-1293.171 -450.859)" fill="#a8c3f7"/>
              <path id="Rectángulo_36918" data-name="Rectángulo 36918" d="M3.047,0H156.606a3.046,3.046,0,0,1,3.046,3.046v0a3.047,3.047,0,0,1-3.047,3.047H3.046A3.046,3.046,0,0,1,0,3.047v0A3.047,3.047,0,0,1,3.047,0Z" transform="translate(0 68.065)" fill="#a8c3f7"/>
              <path id="Trazado_180150" data-name="Trazado 180150" d="M1449.776,548.027H1296.218a3.047,3.047,0,0,0,0,6.094h153.558a3.047,3.047,0,1,0,0-6.094Z" transform="translate(-1293.171 -465.906)" fill="#a8c3f7"/>
            </g>
            <g id="Grupo_117941" data-name="Grupo 117941" transform="translate(211.84 164.447)">
              <path id="Trazado_180151" data-name="Trazado 180151" d="M1311.636,626.481h-15.418a3.047,3.047,0,0,0,0,6.094h15.418a3.047,3.047,0,0,0,0-6.094Z" transform="translate(-1293.171 -626.481)" fill="#a8c3f7"/>
              <path id="Trazado_180152" data-name="Trazado 180152" d="M1351.182,626.481h-15.418a3.047,3.047,0,0,0,0,6.094h15.418a3.047,3.047,0,0,0,0-6.094Z" transform="translate(-1306.958 -626.481)" fill="#a8c3f7"/>
            </g>
            <g id="Grupo_117942" data-name="Grupo 117942" transform="translate(324.222 164.447)">
              <path id="Trazado_180153" data-name="Trazado 180153" d="M1484.172,626.481h-15.417a3.047,3.047,0,1,0,0,6.094h15.417a3.047,3.047,0,0,0,0-6.094Z" transform="translate(-1465.707 -626.481)" fill="#a8c3f7"/>
              <path id="Trazado_180154" data-name="Trazado 180154" d="M1523.717,626.481H1508.3a3.047,3.047,0,1,0,0,6.094h15.417a3.047,3.047,0,1,0,0-6.094Z" transform="translate(-1479.494 -626.481)" fill="#a8c3f7"/>
            </g>
            <g id="Grupo_117943" data-name="Grupo 117943" transform="translate(218.334 174.246)">
              <path id="Trazado_180155" data-name="Trazado 180155" d="M1319.382,641.525a16.241,16.241,0,1,0,16.241,16.242A16.259,16.259,0,0,0,1319.382,641.525Zm0,31.663a15.422,15.422,0,1,1,15.422-15.421A15.439,15.439,0,0,1,1319.382,673.188Z" transform="translate(-1303.141 -641.525)" fill="#a8c3f7"/>
              <path id="Trazado_180156" data-name="Trazado 180156" d="M1321.07,646.368a13.087,13.087,0,1,0,13.086,13.087A13.1,13.1,0,0,0,1321.07,646.368Zm0,25.354a12.268,12.268,0,1,1,12.268-12.267A12.282,12.282,0,0,1,1321.07,671.722Z" transform="translate(-1304.829 -643.214)" fill="#a8c3f7"/>
              <path id="Trazado_180157" data-name="Trazado 180157" d="M1319.537,668.662c-1.743-.145-2.646-.965-2.684-2.437a3.826,3.826,0,0,1,1.23-2.932c.335,1.7,1.231,3.129,2.222,3.44a1.373,1.373,0,0,0,1.525-.541,9.482,9.482,0,0,0,1.171-1.927.985.985,0,0,0,.651.289c.6.029,1.205-.453,1.739-1.391a7.214,7.214,0,0,0,.39-.8.564.564,0,0,0,.128.1.5.5,0,0,0,.594-.086,5.324,5.324,0,0,0,1.006-1.5.739.739,0,0,0,.273.313.6.6,0,0,0,.747-.16.382.382,0,0,0,.1-.479c-.091-.164-.378-.281-.8-.352v-.006a4.774,4.774,0,0,0,.6-2.523.389.389,0,0,0-.4-.25c-.3.029-.509.328-.638.918a5.816,5.816,0,0,0-.078,1.778.11.11,0,0,0-.009.02c-.3-.022-.648-.029-1.019-.021a1.227,1.227,0,0,0-.156-.62.384.384,0,0,0-.412-.215c-.233.055-.315.333-.35.57-.013.087-.023.195-.029.316a18.961,18.961,0,0,0-3.33.569,10.848,10.848,0,0,0-3.535,1.581c-.031-.513.012-1.144.379-1.374.425-.268,1.192.063,1.45.213l.259-.44c-.049-.028-1.2-.69-1.978-.206-.481.3-.687.941-.613,1.906.006.093.016.187.026.279a4.429,4.429,0,0,0-1.647,3.541c.044,1.725,1.163,2.767,3.152,2.933a12.639,12.639,0,0,0,4.662-.729c3.779-1.225,7.291-3.838,7.992-6.208C1331.137,665.206,1323.788,669.017,1319.537,668.662Zm8.425-10.534a3.984,3.984,0,0,1-.121.534A3.181,3.181,0,0,1,1327.962,658.129Zm-1.708,2.506c.3-.008.571-.007.813,0a4.785,4.785,0,0,1-.908,1.382s-.072-.048-.151-.288A6.242,6.242,0,0,0,1326.254,660.635Zm-2.74.286c.636-.115,1.252-.191,1.819-.236a5.026,5.026,0,0,0,.143,1.038,6.726,6.726,0,0,1-.526,1.19c-.422.737-.887,1.15-1.273,1.133a.585.585,0,0,1-.449-.306A3.845,3.845,0,0,0,1323.513,660.92Zm-.5.154a2.511,2.511,0,0,1-.066,1.909A3.91,3.91,0,0,1,1323.011,661.075Zm-2.966.911a12.784,12.784,0,0,1,2.407-.838,4.791,4.791,0,0,0,0,1.956,3.115,3.115,0,0,0,.212.666,8.807,8.807,0,0,1-1.23,2.1.87.87,0,0,1-.976.375c-.761-.238-1.657-1.554-1.926-3.345A7.84,7.84,0,0,1,1320.045,661.986Z" transform="translate(-1307.743 -647.067)" fill="#a8c3f7"/>
              <path id="Trazado_180158" data-name="Trazado 180158" d="M1340.609,664.648a2.278,2.278,0,0,0,.082-.3C1340.672,664.445,1340.639,664.546,1340.609,664.648Z" transform="translate(-1316.204 -649.481)" fill="#a8c3f7"/>
            </g>
            <g id="Grupo_117944" data-name="Grupo 117944" transform="translate(330.781 174.679)">
              <path id="Trazado_180159" data-name="Trazado 180159" d="M1492.411,642.19a16.635,16.635,0,1,0,16.634,16.635A16.653,16.653,0,0,0,1492.411,642.19Zm0,32.43a15.8,15.8,0,1,1,15.8-15.8A15.813,15.813,0,0,1,1492.411,674.62Z" transform="translate(-1475.776 -642.19)" fill="#a8c3f7"/>
              <path id="Trazado_180160" data-name="Trazado 180160" d="M1494.14,647.15a13.4,13.4,0,1,0,13.4,13.4A13.419,13.419,0,0,0,1494.14,647.15Zm0,25.97a12.565,12.565,0,1,1,12.564-12.565A12.58,12.58,0,0,1,1494.14,673.12Z" transform="translate(-1477.505 -643.919)" fill="#a8c3f7"/>
              <path id="Trazado_180161" data-name="Trazado 180161" d="M1514.152,665.873a2.241,2.241,0,0,0,.084-.309C1514.217,665.666,1514.183,665.77,1514.152,665.873Z" transform="translate(-1489.156 -650.339)" fill="#a8c3f7"/>
              <path id="Trazado_180162" data-name="Trazado 180162" d="M1492.569,669.985c-1.784-.149-2.709-.988-2.748-2.5a3.92,3.92,0,0,1,1.26-3c.343,1.738,1.261,3.206,2.274,3.522a1.4,1.4,0,0,0,1.563-.553,9.664,9.664,0,0,0,1.2-1.974,1.006,1.006,0,0,0,.667.3c.619.029,1.236-.464,1.782-1.425a7.192,7.192,0,0,0,.4-.824.556.556,0,0,0,.132.106.513.513,0,0,0,.608-.089,5.469,5.469,0,0,0,1.031-1.535.748.748,0,0,0,.28.321.617.617,0,0,0,.765-.165.389.389,0,0,0,.106-.49c-.092-.168-.388-.289-.821-.361v-.007a4.9,4.9,0,0,0,.612-2.583.4.4,0,0,0-.415-.256c-.3.03-.522.336-.653.941a5.968,5.968,0,0,0-.081,1.821l-.009.02c-.311-.023-.664-.029-1.042-.021a1.278,1.278,0,0,0-.161-.636.4.4,0,0,0-.422-.22c-.238.057-.322.341-.358.584a3.031,3.031,0,0,0-.029.323,19.468,19.468,0,0,0-3.411.582,11.109,11.109,0,0,0-3.62,1.621c-.033-.526.012-1.173.387-1.408.434-.274,1.221.065,1.486.219l.263-.451c-.05-.029-1.23-.707-2.026-.212-.491.307-.7.964-.627,1.953.007.1.016.192.027.287a4.534,4.534,0,0,0-1.687,3.627c.045,1.768,1.191,2.834,3.228,3a12.929,12.929,0,0,0,4.776-.747c3.87-1.254,7.467-3.931,8.185-6.359C1504.452,666.445,1496.924,670.348,1492.569,669.985ZM1501.2,659.2a3.816,3.816,0,0,1-.123.547A3.279,3.279,0,0,1,1501.2,659.2Zm-1.749,2.565c.3-.007.584-.006.833,0a4.874,4.874,0,0,1-.93,1.414s-.074-.048-.155-.294A6.411,6.411,0,0,0,1499.449,661.761Zm-2.807.294c.65-.118,1.283-.2,1.862-.243a5.147,5.147,0,0,0,.146,1.063,6.826,6.826,0,0,1-.539,1.219c-.431.756-.908,1.178-1.3,1.161a.6.6,0,0,1-.46-.313A3.935,3.935,0,0,0,1496.642,662.056Zm-.515.158a2.572,2.572,0,0,1-.066,1.955A4.015,4.015,0,0,1,1496.127,662.213Zm-3.038.932a13.248,13.248,0,0,1,2.466-.858,4.921,4.921,0,0,0,0,2,3.229,3.229,0,0,0,.218.682,8.988,8.988,0,0,1-1.259,2.152.892.892,0,0,1-1,.384c-.78-.244-1.7-1.591-1.972-3.425A8.149,8.149,0,0,1,1493.089,663.146Z" transform="translate(-1480.49 -647.866)" fill="#a8c3f7"/>
            </g>
            <g id="Grupo_117947" data-name="Grupo 117947" transform="translate(315.527 382.589)">
              <g id="Grupo_117946" data-name="Grupo 117946">
                <path id="Trazado_180163" data-name="Trazado 180163" d="M1562.866,961.386l-19.937,26.9-1.96,2.646-.957,1.284-2.454,3.317-1.335,1.8-2.458,3.317-2.586,3.487-2.419,3.261-.038.045v.011l-2.271,3.062-.027.038-.337.454-.039.049c0,.006,0,.006-.006.011l-.426.571v.005l-2.452,3.045v.261l-2.292,3.1h-.006l-2.962,4h-.005l-2.237,3.017v.006l-2.453,3.3v.005l-4.1,5.531v.005h-.005l-.4.548-1.4,1.882v.006l-3.228,4.352-4.28,5.509v.266l-2.22,3-.232.309v.006l-3.084,4.163h-.005l-2.874,3.881-.027.038h-.006l-7.12,9.611v.005l-10.6,14.3-17.756,23.956-2.209,2.984-1.3,1.755c.681.1,1.357.194,2.032.282,0,.006.016.006.022.006q3.537.472,7.064.853c.659.078,1.324.149,1.982.216.415.044.83.083,1.241.121,1,.1,1.993.188,2.984.272.421.039.836.078,1.257.111.193.018.387.033.587.05.659.055,1.322.1,1.982.15.126.01.249.016.376.027,1.451.111,2.907.2,4.352.282.659.039,1.324.072,1.981.1.515.033,1.03.056,1.545.078.1.005.193.01.294.01.858.039,1.716.078,2.568.1.665.021,1.323.044,1.982.055q1.122.041,2.242.055c.66.017,1.324.022,1.983.033.7.006,1.4.011,2.093.011.664.006,1.323.006,1.982,0,.365.006.726,0,1.085-.005.4,0,.8,0,1.2-.01.26,0,.521-.006.781-.012s.515-.006.775-.012c.365-.005.731-.01,1.1-.021.094,0,.183,0,.271-.006.188,0,.372-.005.559-.01.266-.006.526-.012.792-.022q7.7-.208,15.275-.842h.011q8.729-.715,17.274-1.988,9.244-1.37,18.259-3.36l.3-.067a.421.421,0,0,1-.021.078l5.652-1.389q1.18-.282,2.354-.581,11.136-2.825,21.847-6.555,1.794-.623,3.571-1.268c.293-.105.592-.216.886-.327q3.33-1.213,6.6-2.525c.593-.232,1.185-.47,1.778-.709v-.005c.122-.044.244-.094.359-.138v-.006c.7-.283,1.39-.571,2.077-.858.52-.217,1.036-.432,1.551-.653q.911-.383,1.815-.782c.388-.166.775-.337,1.163-.509l.006-.006c.675-.3,1.351-.6,2.026-.9l.006-.005q9.94-4.469,19.394-9.717,1-.548,1.988-1.113l.005-.005,34.7-46.823Z" transform="translate(-1452.357 -961.386)" fill="#a8d29f"/>
                <g id="Grupo_117945" data-name="Grupo 117945" transform="translate(15.325 20.883)">
                  <path id="Trazado_180164" data-name="Trazado 180164" d="M1518.6,1069.032v2.768l2.021-2.724.027-.038v-.006Zm-3.8,3.655a15.16,15.16,0,0,0-2.059,1.013l-4.429,5.974-3.394,4.574-.005,6.012,4.019-5.414,9.656-13.033A11.428,11.428,0,0,0,1514.8,1072.686Zm-16.36,20.3-.5.681-1.932,2.607-8.725,11.771-.006,6.012,6.168-8.32,4.939-6.661,2.586-3.488,1.922-2.6h.005v0Zm73.774-99.542-20.762,28.015-.182.25-1.257,1.693-1.616,2.176-.842,1.118v.016l-3.848,5.2-1.6,1.893v.261l-1.047,1.416-1.406,1.894-5.73,7.729v.006l-.121.16-.288.387v.006l-1.822,2.458v.26l-5.448,7.087-2.109,2.846-.349.47-5.847,7.89-1.744,2.353-.027.039-3.427,4.629-4.429,5.974-3.394,4.574-2.453,3.317-4.025,5.426-.5.681-1.932,2.607-8.725,11.771-2.447,3.306-4.146,5.591-4.8,6.478c.421.039.836.078,1.257.111.193.018.387.033.587.05.659.055,1.322.1,1.982.15.126.01.249.016.376.027l5.043-6.809h.005l2.137-2.891,6.168-8.32,4.939-6.661,2.586-3.488,1.922-2.6h.005v0l2.021-2.73,4.019-5.414,9.656-13.033.012-.012,2.021-2.724.027-.038v-.006l3.14-3.969v-.261l2.452-3.31,1.955-2.642,3.494-4.711,2.452-3.312,2.768-3.731,1.057-1.428.41-.548v-.005l1.273-1.722,2.459-3.311,2.591-3.5,2.6-3.5.26-.338v-.011l2.452-3.311,1.882-2.541.88-1.169.006-.022,2.258-3.05.195-.261.492-.664,9.461-12.767a13.06,13.06,0,0,1,18.271-2.719l48.34,35.827a14.379,14.379,0,0,1,2.99,20.12l-29.167,39.354-1.716,2.32c.521-.217,1.036-.432,1.551-.653q.911-.383,1.815-.782c.388-.166.775-.337,1.163-.509l.006-.006c.675-.3,1.351-.6,2.026-.9l.006-.005,37.887-51.114Zm-73.774,99.542-.5.681-1.932,2.607-8.725,11.771-.006,6.012,6.168-8.32,4.939-6.661,2.586-3.488,1.922-2.6h.005v0Zm16.36-20.3a15.16,15.16,0,0,0-2.059,1.013l-4.429,5.974-3.394,4.574-.005,6.012,4.019-5.414,9.656-13.033A11.428,11.428,0,0,0,1514.8,1072.686Zm3.8-3.655v2.768l2.021-2.724.027-.038v-.006Z" transform="translate(-1475.885 -993.447)" fill="#82b378"/>
                </g>
                <path id="Trazado_180165" data-name="Trazado 180165" d="M1574.886,1171.532a.421.421,0,0,0,.021-.078l-.3.067q-9.011,1.984-18.259,3.36-8.545,1.262-17.274,1.988h-.011q-7.574.639-15.275.842c-.266.01-.526.016-.792.022-.187.005-.371.01-.56.01-.088.006-.177.006-.271.006-.049-.741-.066-1.484-.056-2.226a28.767,28.767,0,0,1,.533-5.232,29.331,29.331,0,0,1,5.265-11.958l.06-.078a29.649,29.649,0,0,1,4.357-4.69,28.738,28.738,0,0,1,2.447-1.9,29.21,29.21,0,0,1,7.5-3.753q1.214-.407,2.453-.7a28.807,28.807,0,0,1,5.841-.8c.82-.034,1.64-.028,2.453.01a29.459,29.459,0,0,1,5.447.77c.825.194,1.639.426,2.448.7a28.748,28.748,0,0,1,2.768,1.079q1.246.557,2.447,1.241a28.35,28.35,0,0,1,2.58,1.65q.233.157.466.332.979.722,1.877,1.511v.006a.86.86,0,0,1,.111.094c.465.41.907.825,1.34,1.257a33,33,0,0,1,2.452,2.757v.033q.5.632.946,1.3v.039a28.3,28.3,0,0,1,2.448,4.2v.034c.32.686.61,1.384.875,2.087v.006a29.271,29.271,0,0,1,1.317,4.623Z" transform="translate(-1476.673 -1025.889)" fill="#82b378"/>
              </g>
              <path id="Trazado_180166" data-name="Trazado 180166" d="M1525.616,1038.235v.005l-2.452,3.078v.227l-2.3,3.1-2.962,4h-.005l-2.237,3.017v.007l-2.453,3.3v.005l-4.1,5.531v.005h-.005l-.4.548-1.4,1.882v.006l-3.228,4.352-4.28,5.547v.227l-2.22,3-.232.31v.006l-3.089,4.163-2.874,3.882-.027.038h-.006l-7.12,9.611v.005l-10.6,14.3-17.756,23.956-2.209,2.984-1.3,1.755c.681.1,1.357.194,2.032.282,0,.007.016.007.022.007q3.537.472,7.064.853c.659.078,1.324.149,1.982.216.415.044.83.083,1.241.121,1,.1,1.993.188,2.984.272.421.039.836.078,1.257.111.193.018.387.033.587.05.659.055,1.322.1,1.982.15.126.01.249.016.376.027,1.451.111,2.907.2,4.352.282.659.039,1.324.072,1.981.1.515.033,1.03.056,1.545.078.1.005.193.01.294.01q.764-3.6,1.755-7.28c1-3.71,2.148-7.459,3.427-11.212.98-2.891,2.038-5.78,3.151-8.66q.656-1.71,1.345-3.41c.089-.227.183-.455.272-.681h.005c1.357-3.356,2.785-6.683,4.252-9.966v-.221c.809-1.8,1.628-3.366,2.459-5.139q2.05-4.384,4.152-8.6c.005-.012.01-.028.016-.04,1.893-3.808,3.8-7.5,5.664-11.028.249-.465.492-.758.741-1.168v-.221c.825-1.557,1.645-3.084,2.453-4.568q1.8-3.322,3.51-6.383c.105-.183.205-.371.31-.554.714-1.284,1.412-2.314,2.093-3.515v-.221c1.65-2.934,3.173-5.619,4.523-8.011q1.22-2.168,2.237-3.992c.26-.465.509-.913.743-1.345,1.079-1.972,1.915-3.571,2.452-4.745.177-.388.321-.731.426-1.025Z" transform="translate(-1452.357 -987.98)" fill="#82b378" opacity="0.5"/>
            </g>
            <g id="Grupo_117958" data-name="Grupo 117958" transform="translate(181.402 407.653)">
              <g id="Grupo_117949" data-name="Grupo 117949" transform="translate(30.498 95.267)">
                <path id="Trazado_180167" data-name="Trazado 180167" d="M1499.465,1151.479l-.012,13.537c0,.138-.005.271-.016.4v.006a5.106,5.106,0,0,1-.881,2.5,5.207,5.207,0,0,1-2.447,1.948,4.55,4.55,0,0,1-.719.222l-.233.049c-.156.027-.3.05-.459.061a4.336,4.336,0,0,1-.465.022l-1.529-.006h-6.378l-5.215-.006h-2.447l-5.448-.006h-2.453l-5.841,0h-2.452l-7.5-.006h-2.447l-9.671-.006-3.129-.005h-2.446l-10.935-.01h-5.188l-4.141-.007-16.615-.011h-3.958l-2.863-.005h-1.163l-6.75-.006-9.921-.005h-4.817v-.006h-.006q-4.152-.9-8.316-1.888c-.659-.16-1.318-.316-1.982-.482q-2.765-.663-5.542-1.378c-.813-.205-1.634-.416-2.448-.632q-2.1-.539-4.2-1.112-2.275-.615-4.55-1.251l-1.983-.565q-5.639-1.611-11.272-3.371h-.006c-.149-.044-.287-.089-.437-.138-1.135-.349-2.264-.709-3.394-1.081-.664-.2-1.323-.42-1.982-.636-10.591-3.449-21.133-7.286-31.546-11.482h3.007l56.378.038h2.452l15.17.011h3.4v.005h7.3v.006h9.246l.006.005h7.939l0,.005h.743l12.308.005h2.862l2.452.006h1.628l12.291.006,4.091.006h4.684l2.021,0,11.3.005h2.368l2.453.006,5.122.005h10.127l7.5.005h.277l2.17.005h5.847l2.452.006h3.394a.02.02,0,0,1,.012.006h.222a4.844,4.844,0,0,1,.692.083,4.708,4.708,0,0,1,.952.266,5.262,5.262,0,0,1,2.447,1.955A5.17,5.17,0,0,1,1499.465,1151.479Z" transform="translate(-1293.263 -1146.125)" fill="#ffb93e"/>
                <path id="Trazado_180168" data-name="Trazado 180168" d="M1393.579,1170.159h-1.163l-6.75-.006-9.921-.005H1373.3l-2.37-.006h-.006q-4.152-.9-8.316-1.888c-.659-.16-1.318-.316-1.982-.482q-2.765-.663-5.542-1.378c-.813-.205-1.634-.416-2.448-.632q-2.1-.539-4.2-1.112-2.275-.615-4.55-1.251l-1.983-.565q-5.639-1.611-11.272-3.371h-.006c-.149-.044-.287-.089-.437-.138-1.135-.349-2.264-.709-3.394-1.081-.664-.2-1.323-.42-1.982-.636-10.591-3.449-21.133-7.286-31.546-11.482h3.007l56.378.038h2.452l15.17.011h3.333l.067.005h5.742a48.919,48.919,0,0,0,4.147,11.483,39.322,39.322,0,0,0,8.466,11.156c.227.21.465.415.7.62.044.044.094.083.144.127C1393.1,1169.766,1393.34,1169.965,1393.579,1170.159Z" transform="translate(-1293.263 -1146.125)" fill="#ffa412"/>
                <g id="Grupo_117948" data-name="Grupo 117948" transform="translate(59.373 0.038)">
                  <rect id="Rectángulo_36919" data-name="Rectángulo 36919" width="2.451" height="23.969" transform="translate(118.138 0.082)" fill="#ffa412"/>
                  <rect id="Rectángulo_36920" data-name="Rectángulo 36920" width="2.45" height="23.969" transform="translate(109.844 0.076)" fill="#ffa412"/>
                  <rect id="Rectángulo_36921" data-name="Rectángulo 36921" width="2.451" height="23.968" transform="matrix(1, 0.001, -0.001, 1, 99.909, 0.068)" fill="#ffa412"/>
                  <rect id="Rectángulo_36922" data-name="Rectángulo 36922" width="2.451" height="23.969" transform="translate(84.65 0.059)" fill="#ffa412"/>
                  <rect id="Rectángulo_36923" data-name="Rectángulo 36923" width="2.45" height="23.969" transform="translate(68.528 0.048)" fill="#ffa412"/>
                  <rect id="Rectángulo_36924" data-name="Rectángulo 36924" width="2.45" height="23.968" transform="translate(43.811 0.031)" fill="#ffa412"/>
                  <rect id="Rectángulo_36925" data-name="Rectángulo 36925" width="2.45" height="23.969" transform="translate(20.668 0.015)" fill="#ffa412"/>
                  <path id="Trazado_180169" data-name="Trazado 180169" d="M1386.88,1146.184l-.016,20.23c-.813-.205-1.634-.416-2.448-.632l.012-19.6Z" transform="translate(-1384.416 -1146.184)" fill="#ffa412"/>
                  <rect id="Rectángulo_36926" data-name="Rectángulo 36926" width="2.451" height="23.969" transform="translate(126.034 0.088)" fill="#ffa412"/>
                  <rect id="Rectángulo_36927" data-name="Rectángulo 36927" width="2.451" height="23.969" transform="translate(131.25 0.091)" fill="#ffa412"/>
                  <rect id="Rectángulo_36928" data-name="Rectángulo 36928" width="2.451" height="23.968" transform="translate(136.299 0.093) rotate(0.059)" fill="#ffa412"/>
                  <path id="Trazado_180170" data-name="Trazado 180170" d="M1601.924,1146.416l-.016,23.8a5.05,5.05,0,0,1-.92.083h-1.531l.016-23.969H1601A5.042,5.042,0,0,1,1601.924,1146.416Z" transform="translate(-1459.389 -1146.235)" fill="#ffa412"/>
                  <path id="Trazado_180171" data-name="Trazado 180171" d="M1607.148,1148.828l-.014,19.361a5.255,5.255,0,0,1-2.45,1.951l.017-23.266A5.253,5.253,0,0,1,1607.148,1148.828Z" transform="translate(-1461.212 -1146.425)" fill="#ffa412"/>
                </g>
              </g>
              <g id="Grupo_117951" data-name="Grupo 117951" transform="translate(28.29 71.297)">
                <path id="Trazado_180172" data-name="Trazado 180172" d="M1515.918,1114.692l-.009,13.536a5.168,5.168,0,0,1-.9,2.912,5.25,5.25,0,0,1-2.45,1.95,4.8,4.8,0,0,1-.954.268,5.115,5.115,0,0,1-.92.083l-215.6-.148a5.235,5.235,0,0,1-5.208-4.951c0-.091-.005-.18-.005-.27l.009-13.535c0-.09,0-.178.006-.268a5.238,5.238,0,0,1,4.6-4.908,4.836,4.836,0,0,1,.617-.038l215.6.148a5.109,5.109,0,0,1,.92.084,4.865,4.865,0,0,1,.954.269,5.248,5.248,0,0,1,2.447,1.954A5.165,5.165,0,0,1,1515.918,1114.692Z" transform="translate(-1289.872 -1109.324)" fill="#ffb93e"/>
                <path id="Trazado_180173" data-name="Trazado 180173" d="M1410.033,1133.372l-115.507-.079a4.946,4.946,0,0,1-4.648-4.951c0-.091-.005-.18-.005-.27l.009-13.535c0-.09,0-.178.006-.268a5.031,5.031,0,0,1,4.1-4.909,3.931,3.931,0,0,1,.551-.037l101.322.07c0,.011.006.026.009.037C1397.491,1116.486,1401.256,1126.223,1410.033,1133.372Z" transform="translate(-1289.872 -1109.324)" fill="#ffa412"/>
                <g id="Grupo_117950" data-name="Grupo 117950" transform="translate(79.222 0.053)">
                  <rect id="Rectángulo_36929" data-name="Rectángulo 36929" width="2.45" height="23.969" transform="translate(118.135 0.081)" fill="#ffa412"/>
                  <rect id="Rectángulo_36930" data-name="Rectángulo 36930" width="2.451" height="23.969" transform="translate(109.84 0.075)" fill="#ffa412"/>
                  <rect id="Rectángulo_36931" data-name="Rectángulo 36931" width="2.451" height="23.968" transform="translate(99.893 0.069)" fill="#ffa412"/>
                  <rect id="Rectángulo_36932" data-name="Rectángulo 36932" width="2.45" height="23.969" transform="translate(84.647 0.058)" fill="#ffa412"/>
                  <rect id="Rectángulo_36933" data-name="Rectángulo 36933" width="2.45" height="23.969" transform="translate(68.524 0.047)" fill="#ffa412"/>
                  <rect id="Rectángulo_36934" data-name="Rectángulo 36934" width="2.45" height="23.969" transform="translate(43.807 0.03)" fill="#ffa412"/>
                  <rect id="Rectángulo_36935" data-name="Rectángulo 36935" width="2.45" height="23.969" transform="translate(20.665 0.014)" fill="#ffa412"/>
                  <rect id="Rectángulo_36936" data-name="Rectángulo 36936" width="2.451" height="23.969" fill="#ffa412"/>
                  <rect id="Rectángulo_36937" data-name="Rectángulo 36937" width="2.451" height="23.969" transform="translate(126.03 0.087)" fill="#ffa412"/>
                  <rect id="Rectángulo_36938" data-name="Rectángulo 36938" width="2.451" height="23.969" transform="translate(131.246 0.09)" fill="#ffa412"/>
                  <rect id="Rectángulo_36939" data-name="Rectángulo 36939" width="2.45" height="23.968" transform="translate(136.283 0.094)" fill="#ffa412"/>
                  <path id="Trazado_180174" data-name="Trazado 180174" d="M1629,1109.635l-.016,23.8a5.053,5.053,0,0,1-.92.083h-1.531l.017-23.969h1.531A5.034,5.034,0,0,1,1629,1109.635Z" transform="translate(-1486.469 -1109.455)" fill="#ffa412"/>
                  <path id="Trazado_180175" data-name="Trazado 180175" d="M1634.225,1112.048l-.013,19.36a5.252,5.252,0,0,1-2.45,1.951l.016-23.265A5.25,5.25,0,0,1,1634.225,1112.048Z" transform="translate(-1488.292 -1109.645)" fill="#ffa412"/>
                </g>
              </g>
              <g id="Grupo_117953" data-name="Grupo 117953" transform="translate(0 47.346)">
                <path id="Trazado_180176" data-name="Trazado 180176" d="M1472.486,1077.922l-.009,13.536a5.169,5.169,0,0,1-.9,2.912,5.25,5.25,0,0,1-2.45,1.95,4.9,4.9,0,0,1-.955.268c-.1.017-.2.034-.3.046-.081.012-.161.018-.242.023l-.121.008c-.083,0-.167.006-.253.006l-215.6-.148a5.236,5.236,0,0,1-5.208-4.952c0-.089-.005-.178-.005-.268l.009-13.536c0-.089,0-.179.007-.268a5.235,5.235,0,0,1,5.214-4.945l215.6.148c.093,0,.185,0,.276.009a5.219,5.219,0,0,1,.644.076,4.891,4.891,0,0,1,.954.268,4.768,4.768,0,0,1,.453.2c.092.046.181.092.267.144a.071.071,0,0,1,.029.018c.089.052.175.107.262.165a.163.163,0,0,1,.044.029,2.585,2.585,0,0,1,.234.169,4.536,4.536,0,0,1,.518.453c.052.049.1.1.147.152.008.009.017.018.026.029.031.031.06.064.089.1.006.006.012.015.018.02.052.061.1.124.152.191.072.092.142.184.207.283A5.163,5.163,0,0,1,1472.486,1077.922Z" transform="translate(-1246.44 -1072.554)" fill="#ffb93e"/>
                <path id="Trazado_180177" data-name="Trazado 180177" d="M1366.6,1096.6l-115.507-.079a4.947,4.947,0,0,1-4.648-4.952c0-.089-.005-.178-.005-.268l.009-13.536c0-.089,0-.179.007-.268a4.945,4.945,0,0,1,4.654-4.945l101.323.069c.04.182.083.367.132.554,1.676,6.994,5.459,16.415,13.99,23.388Z" transform="translate(-1246.44 -1072.554)" fill="#ffa412"/>
                <g id="Grupo_117952" data-name="Grupo 117952" transform="translate(79.209 0.051)">
                  <rect id="Rectángulo_36940" data-name="Rectángulo 36940" width="2.45" height="23.968" transform="translate(118.147 0.082)" fill="#ffa412"/>
                  <rect id="Rectángulo_36941" data-name="Rectángulo 36941" width="2.45" height="23.968" transform="translate(109.853 0.077)" fill="#ffa412"/>
                  <rect id="Rectángulo_36942" data-name="Rectángulo 36942" width="2.451" height="23.968" transform="translate(99.906 0.07)" fill="#ffa412"/>
                  <rect id="Rectángulo_36943" data-name="Rectángulo 36943" width="2.451" height="23.969" transform="translate(84.659 0.059)" fill="#ffa412"/>
                  <rect id="Rectángulo_36944" data-name="Rectángulo 36944" width="2.451" height="23.968" transform="translate(68.536 0.048)" fill="#ffa412"/>
                  <rect id="Rectángulo_36945" data-name="Rectángulo 36945" width="2.45" height="23.969" transform="translate(43.82 0.031)" fill="#ffa412"/>
                  <rect id="Rectángulo_36946" data-name="Rectángulo 36946" width="2.451" height="23.968" transform="translate(20.677 0.016)" fill="#ffa412"/>
                  <rect id="Rectángulo_36947" data-name="Rectángulo 36947" width="2.451" height="23.969" transform="translate(0.025 0) rotate(0.059)" fill="#ffa412"/>
                  <rect id="Rectángulo_36948" data-name="Rectángulo 36948" width="2.45" height="23.968" transform="translate(126.043 0.087)" fill="#ffa412"/>
                  <rect id="Rectángulo_36949" data-name="Rectángulo 36949" width="2.45" height="23.969" transform="translate(131.259 0.091)" fill="#ffa412"/>
                  <rect id="Rectángulo_36950" data-name="Rectángulo 36950" width="2.451" height="23.968" transform="translate(136.296 0.094)" fill="#ffa412"/>
                  <path id="Trazado_180178" data-name="Trazado 180178" d="M1585.568,1072.865l-.017,23.8a5.171,5.171,0,0,1-.92.083H1583.1l.017-23.969h1.531A5.059,5.059,0,0,1,1585.568,1072.865Z" transform="translate(-1443.023 -1072.684)" fill="#ffa412"/>
                  <path id="Trazado_180179" data-name="Trazado 180179" d="M1590.791,1075.277l-.012,19.361a5.247,5.247,0,0,1-2.45,1.95l.016-23.265A5.251,5.251,0,0,1,1590.791,1075.277Z" transform="translate(-1444.846 -1072.873)" fill="#ffa412"/>
                </g>
              </g>
              <g id="Grupo_117955" data-name="Grupo 117955" transform="translate(15.868 23.942)">
                <path id="Trazado_180180" data-name="Trazado 180180" d="M1496.847,1041.99l-.009,13.536a5.17,5.17,0,0,1-.9,2.911,5.251,5.251,0,0,1-2.449,1.951,4.956,4.956,0,0,1-.955.268,5.223,5.223,0,0,1-.92.083l-215.6-.148a5.143,5.143,0,0,1-2.329-.556,5.235,5.235,0,0,1-2.864-4.183c-.006-.07-.011-.141-.014-.214,0-.089-.005-.179-.005-.268l.009-13.536c0-.089,0-.178.006-.268a5.235,5.235,0,0,1,4.6-4.907,4.679,4.679,0,0,1,.617-.037l215.6.148a5.172,5.172,0,0,1,.92.083,4.887,4.887,0,0,1,.954.27,5.25,5.25,0,0,1,2.447,1.954A5.164,5.164,0,0,1,1496.847,1041.99Z" transform="translate(-1270.801 -1036.622)" fill="#ffb93e"/>
                <path id="Trazado_180181" data-name="Trazado 180181" d="M1390.961,1060.67l-115.507-.079a4.2,4.2,0,0,1-2.078-.556,5.268,5.268,0,0,1-2.555-4.183c-.006-.07-.011-.141-.014-.214,0-.089-.005-.178-.005-.268l.009-13.536c0-.089,0-.178.006-.268a5.031,5.031,0,0,1,4.1-4.908,3.841,3.841,0,0,1,.55-.037l101.322.069c0,.012.006.027.009.038,1.576,6.873,5.195,16.3,13.5,23.387C1390.515,1060.3,1390.736,1060.488,1390.961,1060.67Z" transform="translate(-1270.801 -1036.622)" fill="#ffa412"/>
                <g id="Grupo_117954" data-name="Grupo 117954" transform="translate(79.221 0.052)">
                  <rect id="Rectángulo_36951" data-name="Rectángulo 36951" width="2.45" height="23.969" transform="translate(118.135 0.081)" fill="#ffa412"/>
                  <rect id="Rectángulo_36952" data-name="Rectángulo 36952" width="2.451" height="23.968" transform="translate(109.84 0.075)" fill="#ffa412"/>
                  <rect id="Rectángulo_36953" data-name="Rectángulo 36953" width="2.45" height="23.968" transform="translate(99.893 0.068)" fill="#ffa412"/>
                  <rect id="Rectángulo_36954" data-name="Rectángulo 36954" width="2.45" height="23.968" transform="translate(84.647 0.058)" fill="#ffa412"/>
                  <rect id="Rectángulo_36955" data-name="Rectángulo 36955" width="2.451" height="23.968" transform="translate(68.524 0.047)" fill="#ffa412"/>
                  <rect id="Rectángulo_36956" data-name="Rectángulo 36956" width="2.451" height="23.969" transform="translate(43.807 0.03)" fill="#ffa412"/>
                  <rect id="Rectángulo_36957" data-name="Rectángulo 36957" width="2.451" height="23.968" transform="translate(20.665 0.014)" fill="#ffa412"/>
                  <rect id="Rectángulo_36958" data-name="Rectángulo 36958" width="2.45" height="23.968" fill="#ffa412"/>
                  <rect id="Rectángulo_36959" data-name="Rectángulo 36959" width="2.45" height="23.969" transform="translate(126.031 0.086)" fill="#ffa412"/>
                  <rect id="Rectángulo_36960" data-name="Rectángulo 36960" width="2.451" height="23.968" transform="translate(131.247 0.09)" fill="#ffa412"/>
                  <rect id="Rectángulo_36961" data-name="Rectángulo 36961" width="2.45" height="23.969" transform="translate(136.283 0.093)" fill="#ffa412"/>
                  <path id="Trazado_180182" data-name="Trazado 180182" d="M1609.928,1036.932l-.016,23.8a5.154,5.154,0,0,1-.92.083h-1.531l.016-23.969h1.531A5.182,5.182,0,0,1,1609.928,1036.932Z" transform="translate(-1467.396 -1036.753)" fill="#ffa412"/>
                  <path id="Trazado_180183" data-name="Trazado 180183" d="M1615.153,1039.344l-.014,19.361a5.246,5.246,0,0,1-2.449,1.95l.016-23.265A5.249,5.249,0,0,1,1615.153,1039.344Z" transform="translate(-1469.219 -1036.942)" fill="#ffa412"/>
                </g>
              </g>
              <g id="Grupo_117957" data-name="Grupo 117957" transform="translate(0.033)">
                <path id="Trazado_180184" data-name="Trazado 180184" d="M1472.536,1005.233l-.009,13.536a5.173,5.173,0,0,1-.9,2.912,5.256,5.256,0,0,1-2.45,1.951,4.889,4.889,0,0,1-.955.267c-.1.017-.2.034-.3.046l-.169.017c-.055.007-.113.009-.171.012-.093.007-.184.009-.277.009l-215.6-.148a5.236,5.236,0,0,1-5.208-4.952c0-.089-.005-.179-.005-.268l.009-13.536c0-.089,0-.178.006-.268a5.233,5.233,0,0,1,5.214-4.945l215.6.148a5.057,5.057,0,0,1,.921.085,4.811,4.811,0,0,1,.954.269,5.242,5.242,0,0,1,2.447,1.954A5.164,5.164,0,0,1,1472.536,1005.233Z" transform="translate(-1246.49 -999.865)" fill="#ffb93e"/>
                <path id="Trazado_180185" data-name="Trazado 180185" d="M1366.65,1023.912l-115.507-.079a4.945,4.945,0,0,1-4.648-4.952c0-.089-.005-.179-.005-.268l.009-13.536c0-.089,0-.178.006-.268a4.944,4.944,0,0,1,4.654-4.945l101.322.069c1.611,7.046,5.363,16.784,14.122,23.941Z" transform="translate(-1246.49 -999.865)" fill="#ffa412"/>
                <g id="Grupo_117956" data-name="Grupo 117956" transform="translate(79.221 0.052)">
                  <rect id="Rectángulo_36962" data-name="Rectángulo 36962" width="2.45" height="23.968" transform="matrix(1, 0.001, -0.001, 1, 118.148, 0.08)" fill="#ffa412"/>
                  <rect id="Rectángulo_36963" data-name="Rectángulo 36963" width="2.451" height="23.969" transform="translate(109.84 0.075)" fill="#ffa412"/>
                  <rect id="Rectángulo_36964" data-name="Rectángulo 36964" width="2.45" height="23.968" transform="translate(99.894 0.069)" fill="#ffa412"/>
                  <rect id="Rectángulo_36965" data-name="Rectángulo 36965" width="2.45" height="23.969" transform="translate(84.647 0.058)" fill="#ffa412"/>
                  <rect id="Rectángulo_36966" data-name="Rectángulo 36966" width="2.451" height="23.969" transform="translate(68.524 0.047)" fill="#ffa412"/>
                  <rect id="Rectángulo_36967" data-name="Rectángulo 36967" width="2.451" height="23.968" transform="translate(43.807 0.03)" fill="#ffa412"/>
                  <rect id="Rectángulo_36968" data-name="Rectángulo 36968" width="2.45" height="23.969" transform="translate(20.665 0.014)" fill="#ffa412"/>
                  <rect id="Rectángulo_36969" data-name="Rectángulo 36969" width="2.451" height="23.969" fill="#ffa412"/>
                  <rect id="Rectángulo_36970" data-name="Rectángulo 36970" width="2.451" height="23.968" transform="translate(126.031 0.087)" fill="#ffa412"/>
                  <rect id="Rectángulo_36971" data-name="Rectángulo 36971" width="2.45" height="23.968" transform="translate(131.247 0.09)" fill="#ffa412"/>
                  <rect id="Rectángulo_36972" data-name="Rectángulo 36972" width="2.45" height="23.968" transform="translate(136.284 0.094)" fill="#ffa412"/>
                  <path id="Trazado_180186" data-name="Trazado 180186" d="M1585.618,1000.175l-.016,23.8a5.18,5.18,0,0,1-.92.083h-1.531l.017-23.969h1.531A5.116,5.116,0,0,1,1585.618,1000.175Z" transform="translate(-1443.085 -999.995)" fill="#ffa412"/>
                  <path id="Trazado_180187" data-name="Trazado 180187" d="M1590.842,1002.587l-.013,19.36a5.254,5.254,0,0,1-2.45,1.952l.016-23.265A5.245,5.245,0,0,1,1590.842,1002.587Z" transform="translate(-1444.908 -1000.185)" fill="#ffa412"/>
                </g>
              </g>
            </g>
            <path id="Trazado_180188" data-name="Trazado 180188" d="M1553.382,1130.463q-7.341,2.334-14.876,4.242-1.172.3-2.354.581-2.8.69-5.63,1.312l-.3.067q-9.011,1.984-18.259,3.36-8.545,1.262-17.274,1.988h-.011q-7.574.639-15.275.842c-.266.01-.526.016-.792.022-.187.005-.371.01-.559.01-.088.006-.177.006-.271.006-.365.011-.731.016-1.1.021-.261.006-.515.012-.775.012s-.521.012-.781.012c-.4.01-.8.01-1.2.01-.36.005-.72.011-1.085.005-.659.006-1.318.006-1.982,0-.7,0-1.4-.005-2.093-.011-.659-.011-1.323-.016-1.983-.033q-1.12-.016-2.242-.055c-.659-.011-1.317-.034-1.982-.055-.852-.023-1.71-.061-2.568-.1-.1,0-.194-.005-.294-.01-.515-.022-1.03-.045-1.545-.078-.658-.027-1.323-.061-1.981-.1-1.445-.083-2.9-.171-4.352-.282-.128-.012-.25-.017-.376-.027-.66-.045-1.323-.094-1.982-.15-.2-.017-.394-.033-.587-.05-.421-.032-.836-.072-1.257-.111-.991-.083-1.988-.171-2.984-.272-.41-.038-.825-.077-1.241-.121-.658-.066-1.323-.138-1.982-.216q-3.521-.374-7.064-.853c-.006,0-.018,0-.022-.006-.676-.088-1.352-.182-2.032-.282l-.68-.1c-.184-.016-.372-.044-.554-.077-.466-.062-.936-.133-1.4-.205-.133-.017-.26-.039-.388-.061-.027-.005-.05-.005-.078-.011l-.006-.005a.4.4,0,0,1-.116-.017c-1.761-.26-3.521-.548-5.287-.852-.614-.106-1.23-.211-1.85-.322s-1.229-.221-1.849-.338c-.692-.128-1.384-.26-2.076-.393-.659-.121-1.324-.249-1.983-.376q-4.841-.947-9.689-2h-.005v-.006h-.006q-4.152-.9-8.316-1.888c-.659-.16-1.318-.316-1.982-.482l-.952-.233a76.555,76.555,0,0,1,39.354-73.63c.98-.537,1.97-1.052,2.961-1.545q1.421-.863,2.89-1.677a76.551,76.551,0,0,1,113.106,74.538Z" transform="translate(-1116.761 -608.443)" fill="#e2810e"/>
            <g id="Grupo_117961" data-name="Grupo 117961" transform="translate(301.922 428.217)">
              <path id="Trazado_180189" data-name="Trazado 180189" d="M1584.063,1071.076A76.143,76.143,0,0,0,1556,1042.109c-.3-.177-.6-.349-.9-.521-.808-.465-1.623-.914-2.447-1.34-.316-.172-.637-.338-.958-.493-.808-.415-1.622-.814-2.447-1.19-.442-.205-.886-.41-1.334-.6-.814-.36-1.628-.7-2.453-1.03-.858-.343-1.716-.67-2.585-.986-.066-.022-.127-.044-.195-.066q-1.12-.4-2.258-.765c-.171-.055-.343-.111-.521-.16h-.221a3.242,3.242,0,0,0-.582-.25c-.5-.154-1.013-.3-1.522-.443-.255-.072-.516-.143-.77-.21-.321-.089-.637-.172-.958-.249-.814-.21-1.634-.4-2.452-.581-.443-.1-.886-.194-1.334-.278-.813-.165-1.634-.32-2.452-.454-.858-.144-1.722-.277-2.586-.393-.8-.1-1.606-.2-2.414-.277a.112.112,0,0,0-.038,0c-.918-.094-1.839-.166-2.763-.227q-1.221-.074-2.453-.117-2.715-.083-5.443.022c-.813.033-1.633.078-2.452.139q-2.924.207-5.847.653c-.814.116-1.634.255-2.447.4a74.28,74.28,0,0,0-7.5,1.778c-.5.144-1,.294-1.494.454h-.005c-.045.011-.083.028-.123.039-.077.022-.154.051-.226.072a76.729,76.729,0,0,0-13.675,5.879c-.017.012-.039.023-.055.034-.809.449-1.611.908-2.4,1.378-.144.083-.288.172-.426.26a76.109,76.109,0,0,0-18.509,15.729c-.16.183-.315.372-.465.554a76.5,76.5,0,0,0-13.365,23.369.1.1,0,0,0-.011.038l-.2.565a75.867,75.867,0,0,0-2.458,8.682v.221a73.983,73.983,0,0,0-1.783,14.457v.005a75.8,75.8,0,0,0,2.863,22.627c.121.448.254.891.393,1.34q.656,2.158,1.451,4.3c.128.022.255.044.388.061.465.072.935.143,1.4.205.182.033.371.061.554.077l.68.1c.681.1,1.357.194,2.032.282,0,.007.016.007.022.007,2.358.315,4.716.6,7.064.853.659.078,1.324.149,1.982.216.415.044.83.083,1.241.121,1,.1,1.993.188,2.984.272.421.039.836.078,1.257.111.193.018.387.033.587.05.659.055,1.322.1,1.982.15.126.01.249.016.376.027,1.451.111,2.907.2,4.352.282.658.039,1.323.072,1.981.1.515.033,1.03.056,1.545.078.1.005.193.01.294.01.858.039,1.716.078,2.568.1.665.022,1.323.044,1.982.055q1.121.041,2.242.055c.66.017,1.324.022,1.983.033.7.006,1.4.011,2.093.011.664.006,1.323.006,1.982,0,.365.006.726,0,1.085-.005.4,0,.8,0,1.2-.01.26,0,.521-.006.781-.012s.515-.006.775-.012c.365-.005.731-.01,1.1-.021.094,0,.183,0,.271-.006.188,0,.372-.005.56-.01.266-.006.526-.012.792-.022q7.7-.208,15.275-.842h.011q8.729-.715,17.274-1.988,9.244-1.37,18.259-3.36l.3-.067a.4.4,0,0,1-.021.078l5.652-1.389q1.18-.281,2.354-.581,11.136-2.825,21.847-6.555,1.794-.623,3.571-1.268c.293-.106.592-.216.886-.327q3.33-1.212,6.6-2.525c.593-.232,1.185-.47,1.778-.709v-.005c.122-.044.244-.094.359-.138v-.006c.7-.283,1.39-.571,2.077-.858.52-.217,1.036-.432,1.551-.653.061-.554.121-1.108.166-1.667A76.169,76.169,0,0,0,1584.063,1071.076Z" transform="translate(-1434.603 -1031.436)" fill="#e2810e"/>
              <path id="Trazado_180190" data-name="Trazado 180190" d="M1575.083,1076.018a76.147,76.147,0,0,0-22.223-25.141c-.293-.216-.592-.427-.9-.637q-1.2-.847-2.441-1.644c-.321-.205-.637-.4-.958-.609-.808-.5-1.628-.985-2.452-1.456-.443-.255-.886-.5-1.335-.742-.808-.448-1.628-.875-2.452-1.29-.853-.426-1.717-.836-2.586-1.229-.814-.371-1.628-.726-2.453-1.063-.292-.122-.587-.244-.88-.359-.626-.25-1.251-.488-1.882-.72-.537-.2-1.074-.388-1.611-.577-.277-.094-.56-.188-.836-.277q-2.691-.9-5.443-1.583c-.813-.205-1.632-.393-2.452-.569q-2.666-.582-5.376-.964c-.155-.028-.317-.05-.471-.067-.814-.116-1.628-.21-2.447-.293-.321-.039-.642-.067-.969-.094h-.238a.928.928,0,0,0-.182-.038h-.476c-1.042-.111-2.237-.184-3.24-.227-.818-.033-1.633-.05-2.452-.05q-2.916-.024-5.847.195c-.306.021-.609.044-.919.072h-.316c-.039.011-.066.022-.128.038h-.3a70.21,70.21,0,0,0-7.679,1.146c-.819.16-1.633.338-2.452.531a75.746,75.746,0,0,0-13.675,4.589c-.819.36-1.64.743-2.453,1.141-.144.066-.283.138-.426.21q-1.528.747-3.029,1.578a76.506,76.506,0,0,0-18.426,14.146c-.133.139-.265.277-.393.416-.044.044-.089.094-.133.138v.006a76.24,76.24,0,0,0-14.971,23.364.379.379,0,0,0-.016.038,76.889,76.889,0,0,0-5.526,23.93,76.2,76.2,0,0,0,2.209,23.967c.261,1.042.548,2.071.864,3.1.62.111,1.236.216,1.85.322,1.766.3,3.526.592,5.287.852a.4.4,0,0,0,.116.017l.006.005c.028.006.05.006.077.011.128.022.255.044.388.061.465.072.935.143,1.4.205.182.033.371.061.554.077l.68.1q1.021.151,2.032.282c0,.007.016.007.022.007,2.358.315,4.716.6,7.064.853.659.078,1.324.149,1.982.216.416.044.83.083,1.241.121,1,.1,1.993.188,2.984.272.421.039.836.078,1.257.111.193.018.387.033.587.05.659.055,1.322.1,1.982.15.126.01.249.016.376.027,1.451.111,2.907.2,4.352.282.659.039,1.324.072,1.981.1.515.033,1.03.056,1.545.078.1.005.193.01.294.01.858.039,1.716.078,2.568.1.665.022,1.323.044,1.982.055q1.122.041,2.242.055c.66.017,1.324.022,1.983.033.7.006,1.4.011,2.093.011.664.006,1.324.006,1.982,0,.365.006.726,0,1.085-.005.4,0,.8,0,1.2-.01.261,0,.521-.006.781-.012s.515-.006.775-.012c.365-.005.731-.01,1.1-.021.094,0,.183,0,.271-.006.188,0,.372-.005.56-.01.266-.006.526-.012.792-.022q7.7-.208,15.275-.842h.011q8.729-.715,17.274-1.988,9.244-1.37,18.259-3.36l.3-.067a.421.421,0,0,1-.021.078l5.652-1.389q1.18-.281,2.354-.581,11.136-2.825,21.847-6.555,1.794-.623,3.571-1.268c.293-.106.592-.216.886-.327q3.33-1.212,6.6-2.525A76.147,76.147,0,0,0,1575.083,1076.018Z" transform="translate(-1431.471 -1033.161)" fill="#ffb93e"/>
              <g id="Grupo_117959" data-name="Grupo 117959" transform="translate(7.221 10.839)">
                <path id="Trazado_180191" data-name="Trazado 180191" d="M1573.423,1084.169a69.293,69.293,0,0,0-18.016-21.2q-1-.789-2.031-1.534c-.315-.232-.636-.46-.957-.675-.8-.571-1.623-1.118-2.448-1.644-.443-.283-.886-.56-1.334-.831q-1.213-.739-2.454-1.422-1.278-.715-2.585-1.362c-.814-.41-1.628-.8-2.453-1.169q-1.37-.623-2.763-1.174c-.808-.332-1.627-.642-2.447-.935-.089-.033-.172-.066-.26-.094q-1.778-.631-3.588-1.163c-.532-.161-1.063-.311-1.6-.454-.813-.221-1.626-.427-2.452-.615q-2.9-.672-5.847-1.1c-.813-.117-1.628-.216-2.446-.3-.244-.028-.493-.055-.743-.077-.515-.05-1.035-.094-1.55-.133h-.006q-2.591-.2-5.2-.2c-.819,0-1.64.018-2.453.045a68.857,68.857,0,0,0-12.795,1.645c-.819.182-1.64.382-2.453.6a69.649,69.649,0,0,0-13.675,5.2c-.73.371-1.456.753-2.181,1.152-.089.05-.182.1-.272.155a69.613,69.613,0,0,0-10.619,7.247c-.227.177-.447.36-.67.554-.72.6-1.423,1.229-2.115,1.866-.841.769-1.656,1.555-2.453,2.37a68.754,68.754,0,0,0-13.315,19.128.06.06,0,0,0-.016.038,1.219,1.219,0,0,0-.083.178,69.392,69.392,0,0,0-3.7,9.816v.144a.835.835,0,0,0-.1.183,64.663,64.663,0,0,0-2.364,11.35v.52c-.067.576-.122,1.157-.172,1.739q-.257,2.956-.254,5.907a68.653,68.653,0,0,0,2.22,17.34c.061.244.127.481.194.72.393,1.467.842,2.917,1.334,4.363.465.072.935.143,1.4.205.182.032.371.061.554.077l.68.1c.681.1,1.357.194,2.032.282-.255-.675-.5-1.356-.731-2.037-.344-.984-.659-1.982-.952-2.984s-.554-1.749-.8-2.762v-.26a64.826,64.826,0,0,1-1.5-20.95,66.25,66.25,0,0,1,2.353-12.447q.747-2.575,1.684-5.049v-.006a63.859,63.859,0,0,1,2.833-6.422.056.056,0,0,1,.018-.038,64.415,64.415,0,0,1,8.681-12.984c.786-.919,1.6-1.815,2.452-2.691a63.99,63.99,0,0,1,8.859-7.69h.005c.26-.188.515-.376.781-.553h.055c1.219-.859,2.42-1.673,3.7-2.442.748-.46,1.512-.9,2.281-1.323.061-.033.117-.067.177-.094a64.836,64.836,0,0,1,13.669-5.586c.814-.233,1.634-.443,2.453-.643a64.829,64.829,0,0,1,12.8-1.749q1.213-.049,2.425-.05h.028c.741,0,1.489.01,2.231.038h.005c.758.028,1.523.067,2.281.122,1,.066,1.994.16,2.979.271q1.228.141,2.441.332c1.966.3,3.92.687,5.847,1.163q.706.174,1.406.365c.349.094.7.195,1.047.294.87.249,1.733.521,2.591.8q1.437.482,2.852,1.024c.825.316,1.639.653,2.452,1q1.4.608,2.763,1.273,1.238.607,2.453,1.262,1.311.706,2.58,1.473c.825.492,1.644,1.012,2.452,1.55.449.294.891.6,1.334.908.288.2.582.4.864.615h.005a65.573,65.573,0,0,1,26.172,64q1.794-.623,3.571-1.268c.293-.105.592-.216.886-.327A69.244,69.244,0,0,0,1573.423,1084.169Z" transform="translate(-1442.557 -1048.076)" fill="#ffa412"/>
              </g>
              <g id="Grupo_117960" data-name="Grupo 117960" transform="translate(44.86 30.234)">
                <path id="Trazado_180192" data-name="Trazado 180192" d="M1530.481,1152.07a16.669,16.669,0,0,1-3.4-5.537l-12.558,5.094c-.01.742.007,1.484.056,2.226.094,0,.183,0,.271-.006.188,0,.372-.005.559-.01.266-.006.526-.012.792-.022q7.7-.208,15.275-.842C1531.135,1152.7,1530.807,1152.4,1530.481,1152.07Zm0,0a16.669,16.669,0,0,1-3.4-5.537l-12.558,5.094c-.01.742.007,1.484.056,2.226.094,0,.183,0,.271-.006.188,0,.372-.005.559-.01.266-.006.526-.012.792-.022q7.7-.208,15.275-.842C1531.135,1152.7,1530.807,1152.4,1530.481,1152.07Zm0,0a16.669,16.669,0,0,1-3.4-5.537l-12.558,5.094c-.01.742.007,1.484.056,2.226.094,0,.183,0,.271-.006.188,0,.372-.005.559-.01.266-.006.526-.012.792-.022q7.7-.208,15.275-.842C1531.135,1152.7,1530.807,1152.4,1530.481,1152.07Zm0,0a16.669,16.669,0,0,1-3.4-5.537l-12.558,5.094c-.01.742.007,1.484.056,2.226.094,0,.183,0,.271-.006.188,0,.372-.005.559-.01.266-.006.526-.012.792-.022q7.7-.208,15.275-.842C1531.135,1152.7,1530.807,1152.4,1530.481,1152.07Zm0,0a16.669,16.669,0,0,1-3.4-5.537l-12.558,5.094c-.01.742.007,1.484.056,2.226.094,0,.183,0,.271-.006.188,0,.372-.005.559-.01.266-.006.526-.012.792-.022q7.7-.208,15.275-.842C1531.135,1152.7,1530.807,1152.4,1530.481,1152.07Zm0,0a16.669,16.669,0,0,1-3.4-5.537l-12.558,5.094c-.01.742.007,1.484.056,2.226.094,0,.183,0,.271-.006.188,0,.372-.005.559-.01.266-.006.526-.012.792-.022q7.7-.208,15.275-.842C1531.135,1152.7,1530.807,1152.4,1530.481,1152.07Zm36.879-13.6a23.837,23.837,0,0,0-1.152-3.6,27.793,27.793,0,0,0-1.3-2.753,22.5,22.5,0,0,0-1.34-2.148,1.459,1.459,0,0,0-.111-.148v-.006a16.952,16.952,0,0,0-2.342-2.646.3.3,0,0,0-.028-.028,20.965,20.965,0,0,0-2.552-1.994,22.173,22.173,0,0,0-2.447-1.372,21.182,21.182,0,0,0-2.309-.942c-.15-.05-.3-.105-.459-.149-.244-.083-.487-.16-.736-.233l-.007-.005h-.005c-.089-.027-.183-.05-.272-.072a35.608,35.608,0,0,0-7.5-1.268c-.1-.01-.205-.017-.31-.022-.7-.045-1.412-.078-2.143-.111q-4.22-.165-9.008-.039-2.06.067-3.788.018c-.88-.023-1.7-.072-2.453-.139-.044-.006-.088-.006-.133-.011a15.921,15.921,0,0,1-4.479-.98,7.931,7.931,0,0,1-2.989-2.026,10.7,10.7,0,0,1-1.9-3.139c-.05-.128-.1-.255-.145-.382a11.7,11.7,0,0,1-.719-3.3,7.978,7.978,0,0,1,.547-3.46,8.484,8.484,0,0,1,2.133-3.023,10.306,10.306,0,0,1,1.849-1.362,15.146,15.146,0,0,1,2.059-1.013,11.428,11.428,0,0,1,3.787-.875h.012a9.059,9.059,0,0,1,2.452.216,9.337,9.337,0,0,1,2.11.742q3.878,1.9,6.323,7.917l4.357-1.766,2.453-1,7.5-3.04,1.284-.52c-.4-.981-.825-1.922-1.279-2.813v-.26c-.443-.831-.913-1.428-1.411-2.2a.1.1,0,0,0-.028-.038c-.138-.221-.283-.437-.427-.647a24.656,24.656,0,0,0-1.948-2.508c-.21-.233-.41-.453-.638-.675v-.012a23.7,23.7,0,0,0-2.447-2.231,20.608,20.608,0,0,0-2.762-1.854c-.35-.206-.709-.394-1.069-.571-.454-.222-.919-.427-1.384-.616a22.419,22.419,0,0,0-3.488-1.085c-.642-.143-1.29-.254-1.955-.343-.509-.072-1.024-.121-1.544-.161-.188-.011-.371-.022-.559-.027-.117-.011-.233-.016-.349-.022a28.151,28.151,0,0,0-5.841.42q-1.213.208-2.454.532c-.072.011-.138.034-.21.05l-.526-1.3-2.48-6.107-1.406-3.465-2.869,1.163-2.452.99-3.316,1.346,3.311,8.166.232.571.809,1.993c-.354.183-.7.371-1.041.565a32.2,32.2,0,0,0-3.084,1.921h-.005a29.333,29.333,0,0,0-3.793,3.151c-.244.244-.481.487-.709.731a.126.126,0,0,0-.039.038,23.662,23.662,0,0,0-4.257,6.19,19.591,19.591,0,0,0-1.229,3.421v.005a19.459,19.459,0,0,0-.609,4.44,21.067,21.067,0,0,0,1.644,8.382c.21.509.427,1.008.654,1.484v.006a22.857,22.857,0,0,0,1.888,3.288c.189.277.382.548.587.8a16.347,16.347,0,0,0,1.788,2l.216.2a19.415,19.415,0,0,0,2.364,1.854,19.676,19.676,0,0,0,2.448,1.412,20.451,20.451,0,0,0,2.485,1.013,31.566,31.566,0,0,0,5.957,1.373q1.611.225,3.339.316l1.013.049c.8.034,1.617.061,2.447.073q3.555.067,7.5-.117c.072-.005.149-.005.222-.011.774-.044,1.522-.072,2.231-.083a36.433,36.433,0,0,1,3.853.128,17.348,17.348,0,0,1,1.988.283,13.466,13.466,0,0,1,2.453.7c.005,0,.011.005.016.005a8.35,8.35,0,0,1,3.117,2.121,11.5,11.5,0,0,1,2.1,3.465,2.31,2.31,0,0,0,.216.31v.26a9.429,9.429,0,0,1,.532,3.128,7.712,7.712,0,0,1-.134,1.428,7.885,7.885,0,0,1-.7,2.093,9.459,9.459,0,0,1-1.8,2.475q9.244-1.37,18.26-3.36l.3-.067q.158-.622.266-1.262a19.855,19.855,0,0,0,.293-2.885A19.242,19.242,0,0,0,1567.36,1138.472Zm-36.879,13.6a16.669,16.669,0,0,1-3.4-5.537l-12.558,5.094c-.01.742.007,1.484.056,2.226.094,0,.183,0,.271-.006.188,0,.372-.005.559-.01.266-.006.526-.012.792-.022q7.7-.208,15.275-.842C1531.135,1152.7,1530.807,1152.4,1530.481,1152.07Zm0,0a16.669,16.669,0,0,1-3.4-5.537l-12.558,5.094c-.01.742.007,1.484.056,2.226.094,0,.183,0,.271-.006.188,0,.372-.005.559-.01.266-.006.526-.012.792-.022q7.7-.208,15.275-.842C1531.135,1152.7,1530.807,1152.4,1530.481,1152.07Zm0,0a16.669,16.669,0,0,1-3.4-5.537l-12.558,5.094c-.01.742.007,1.484.056,2.226.094,0,.183,0,.271-.006.188,0,.372-.005.559-.01.266-.006.526-.012.792-.022q7.7-.208,15.275-.842C1531.135,1152.7,1530.807,1152.4,1530.481,1152.07Zm0,0a16.669,16.669,0,0,1-3.4-5.537l-12.558,5.094c-.01.742.007,1.484.056,2.226.094,0,.183,0,.271-.006.188,0,.372-.005.559-.01.266-.006.526-.012.792-.022q7.7-.208,15.275-.842C1531.135,1152.7,1530.807,1152.4,1530.481,1152.07Zm0,0a16.669,16.669,0,0,1-3.4-5.537l-12.558,5.094c-.01.742.007,1.484.056,2.226.094,0,.183,0,.271-.006.188,0,.372-.005.559-.01.266-.006.526-.012.792-.022q7.7-.208,15.275-.842C1531.135,1152.7,1530.807,1152.4,1530.481,1152.07Zm0,0a16.669,16.669,0,0,1-3.4-5.537l-12.558,5.094c-.01.742.007,1.484.056,2.226.094,0,.183,0,.271-.006.188,0,.372-.005.559-.01.266-.006.526-.012.792-.022q7.7-.208,15.275-.842C1531.135,1152.7,1530.807,1152.4,1530.481,1152.07Zm0,0a16.669,16.669,0,0,1-3.4-5.537l-12.558,5.094-3.039,1.229c.144.354.289.7.443,1.042.261,0,.521-.007.781-.012s.515-.006.775-.012c.365-.005.731-.01,1.1-.021.094,0,.183,0,.271-.006.188,0,.372-.005.559-.01.266-.006.526-.012.792-.022q7.7-.208,15.275-.842C1531.135,1152.7,1530.807,1152.4,1530.481,1152.07Z" transform="translate(-1500.342 -1077.853)" fill="#ffa412"/>
              </g>
            </g>
          </g>
        </g>
      </g>
    </g>
  </g>
</svg>
