<svg xmlns="http://www.w3.org/2000/svg" width="167" height="167" viewBox="0 0 167 167">
  <g id="Grupo_1009766" data-name="Grupo 1009766" transform="translate(-717 -10421)">
    <g id="Grupo_1009760" data-name="Grupo 1009760" transform="translate(717.537 10421.537)">
      <circle id="Elipse_1142" data-name="Elipse 1142" cx="83.5" cy="83.5" r="83.5" transform="translate(-0.537 -0.537)" fill="#d2e1f1"/>
    </g>
    <g id="Grupo_117899" data-name="Grupo 117899" transform="translate(758.349 10462.066)">
      <g id="Grupo_117897" data-name="Grupo 117897" transform="translate(24.425 22.629)">
        <path id="Trazado_180094" data-name="Trazado 180094" d="M1227.193,1348.39a19.714,19.714,0,1,1,19.714-19.714A19.736,19.736,0,0,1,1227.193,1348.39Zm0-33.444a13.73,13.73,0,1,0,13.73,13.729A13.745,13.745,0,0,0,1227.193,1314.946Z" transform="translate(-1207.479 -1308.962)" fill="#636363"/>
      </g>
      <g id="Grupo_117898" data-name="Grupo 117898">
        <path id="Trazado_180095" data-name="Trazado 180095" d="M1227.948,1361.194a7.227,7.227,0,0,1-5.979-3.175l-2.408-3.515a3.6,3.6,0,0,0-5.943,0l-2.408,3.515a7.284,7.284,0,0,1-13.291-4.318l.118-4.26a3.6,3.6,0,0,0-4.808-3.493l-4.014,1.428a7.284,7.284,0,0,1-8.214-11.305l2.6-3.377a3.6,3.6,0,0,0-1.836-5.652l-4.088-1.2a7.284,7.284,0,0,1,0-13.974l4.088-1.2a3.6,3.6,0,0,0,1.836-5.652l-2.6-3.377a7.284,7.284,0,0,1,8.214-11.3l4.014,1.428a3.6,3.6,0,0,0,4.808-3.493l-.118-4.26a7.284,7.284,0,0,1,13.291-4.318l2.408,3.515a3.6,3.6,0,0,0,5.943,0l2.408-3.515a7.284,7.284,0,0,1,13.29,4.318l-.118,4.26a3.6,3.6,0,0,0,4.807,3.493l4.015-1.428a7.284,7.284,0,0,1,8.214,11.3l-2.6,3.378a3.6,3.6,0,0,0,1.837,5.651l4.087,1.2a7.284,7.284,0,0,1,0,13.974l-4.087,1.2a3.6,3.6,0,0,0-1.837,5.652l2.6,3.377a7.284,7.284,0,0,1-8.214,11.305l-4.015-1.428a3.6,3.6,0,0,0-4.807,3.493l.118,4.26a7.233,7.233,0,0,1-5.031,7.129A7.367,7.367,0,0,1,1227.948,1361.194Zm-11.359-14.24a9.581,9.581,0,0,1,7.907,4.168l2.408,3.516a1.3,1.3,0,0,0,2.372-.771l-.118-4.26a9.586,9.586,0,0,1,12.795-9.3l4.015,1.428a1.3,1.3,0,0,0,1.466-2.018l-2.6-3.376a9.586,9.586,0,0,1,4.888-15.042l4.088-1.2a1.3,1.3,0,0,0,0-2.494l-4.088-1.2a9.586,9.586,0,0,1-4.888-15.042l2.6-3.377a1.3,1.3,0,0,0-1.466-2.017l-4.015,1.429a9.586,9.586,0,0,1-12.795-9.3l.118-4.26a1.3,1.3,0,0,0-2.372-.771l-2.408,3.515a9.586,9.586,0,0,1-15.816,0l-2.409-3.515a1.3,1.3,0,0,0-2.371.771l.118,4.26a9.586,9.586,0,0,1-12.8,9.3l-4.015-1.429a1.3,1.3,0,0,0-1.466,2.017l2.6,3.377a9.586,9.586,0,0,1-4.888,15.042l-4.088,1.2a1.3,1.3,0,0,0,0,2.494l4.088,1.2a9.585,9.585,0,0,1,4.888,15.041l-2.6,3.377a1.3,1.3,0,0,0,1.466,2.018l4.015-1.428a9.586,9.586,0,0,1,12.8,9.3l-.118,4.26a1.3,1.3,0,0,0,2.371.771l2.409-3.516A9.582,9.582,0,0,1,1216.589,1346.954Z" transform="translate(-1172.45 -1276.51)" fill="#636363"/>
      </g>
    </g>
  </g>
</svg>
