<svg xmlns="http://www.w3.org/2000/svg" width="167" height="167" viewBox="0 0 167 167">
  <g id="Grupo_1009763" data-name="Grupo 1009763" transform="translate(-717 -9700)">
    <g id="Grupo_1009754" data-name="Grupo 1009754" transform="translate(717.537 9700.537)">
      <circle id="Elipse_1142" data-name="Elipse 1142" cx="83.5" cy="83.5" r="83.5" transform="translate(-0.537 -0.537)" fill="#d2e1f1"/>
    </g>
    <g id="Grupo_117916" data-name="Grupo 117916" transform="translate(755.08 9742.589)">
      <g id="Grupo_117884" data-name="Grupo 117884" transform="translate(26.388)">
        <path id="Trazado_180083" data-name="Trazado 180083" d="M1234.749,461.529a32.2,32.2,0,1,1,22.787-9.423A32.125,32.125,0,0,1,1234.749,461.529Zm0-59.018a26.815,26.815,0,1,0,18.965,45.774h0a26.808,26.808,0,0,0-18.965-45.774Z" transform="translate(-1202.525 -397.11)" fill="#636363"/>
      </g>
      <g id="Grupo_117885" data-name="Grupo 117885" transform="translate(0 48.42)">
        <path id="Trazado_180084" data-name="Trazado 180084" d="M1177.991,516.416a2.694,2.694,0,0,1-1.91-.791l-14.675-14.676a2.7,2.7,0,0,1,0-3.82l22.323-22.323a2.7,2.7,0,0,1,3.821,3.821l-20.412,20.413,10.854,10.855,20.413-20.413a2.7,2.7,0,0,1,3.821,3.821L1179.9,515.625A2.7,2.7,0,0,1,1177.991,516.416Z" transform="translate(-1160.614 -474.015)" fill="#636363"/>
      </g>
      <g id="Grupo_117886" data-name="Grupo 117886" transform="translate(48.972 22.288)">
        <path id="Trazado_180085" data-name="Trazado 180085" d="M1263.095,449.193h-24.7V435.212a2.7,2.7,0,1,1,5.4,0v8.578h19.3a2.7,2.7,0,1,1,0,5.4Z" transform="translate(-1238.395 -432.51)" fill="#636363"/>
      </g>
    </g>
  </g>
</svg>
